<svg id="visual" viewBox="0 0 300 300" width="300" height="300" xmlns="http://www.w3.org/2000/svg" xmlns:xlink="http://www.w3.org/1999/xlink" version="1.1"><g transform="translate(124.27920128305664 134.66353168153086)"><path d="M69.5 -92.5C97.9 -89.9 134.2 -83.9 152 -63.9C169.8 -43.9 169 -9.8 157 17.3C144.9 44.5 121.6 64.8 101.4 87.7C81.3 110.5 64.3 135.8 39.9 149C15.5 162.2 -16.3 163.1 -45.8 154.9C-75.2 146.7 -102.2 129.3 -110.8 104.4C-119.5 79.4 -109.7 46.9 -105.5 20.4C-101.2 -6.2 -102.5 -26.8 -102.6 -55.3C-102.7 -83.7 -101.6 -120.1 -84.3 -127.8C-67 -135.6 -33.5 -114.7 -6.5 -104.6C20.5 -94.5 41.1 -95.2 69.5 -92.5" fill="#3a8559"></path></g></svg>