<svg id="visual" viewBox="0 0 300 300" width="300" height="300" xmlns="http://www.w3.org/2000/svg" xmlns:xlink="http://www.w3.org/1999/xlink" version="1.1"><g transform="translate(167.74022510696915 116.66646102402171)"><path d="M47.9 -79.5C64.5 -73.3 82 -65.4 99 -51.9C116.1 -38.3 132.5 -19.2 131.7 -0.5C130.8 18.2 112.6 36.3 102.8 62.5C93.1 88.6 91.8 122.7 76.1 141.1C60.3 159.5 30.2 162.3 3.2 156.8C-23.8 151.3 -47.7 137.6 -74.7 125.7C-101.8 113.8 -132.1 103.8 -149.5 83.1C-166.9 62.5 -171.5 31.3 -163.2 4.8C-154.9 -21.7 -133.7 -43.3 -113.1 -58.5C-92.6 -73.6 -72.5 -82.3 -53.8 -87.3C-35 -92.3 -17.5 -93.6 -0.9 -92C15.6 -90.4 31.3 -85.8 47.9 -79.5" fill="#5F85D8"></path></g></svg>