<svg id="visual" viewBox="0 0 960 540" width="960" height="540" xmlns="http://www.w3.org/2000/svg" xmlns:xlink="http://www.w3.org/1999/xlink" version="1.1"><g transform="translate(554.8068973143565 297.2506332323396)"><path d="M131.4 -219.1C169.5 -180 198.9 -142.1 183.9 -104.6C168.9 -67.1 109.5 -30 88.8 2.5C68.2 34.9 86.2 62.6 94.7 118.9C103.2 175.1 102.2 259.8 76 274.6C49.9 289.4 -1.4 234.4 -47.5 202.3C-93.6 170.3 -134.5 161.1 -176.6 138.5C-218.8 115.9 -262.3 80 -294.5 26.6C-326.7 -26.8 -347.6 -97.5 -332.5 -160.8C-317.5 -224 -266.6 -279.9 -205.2 -308.3C-143.8 -336.8 -71.9 -337.9 -12.6 -318.3C46.7 -298.6 93.4 -258.3 131.4 -219.1" fill="#F2994A"></path></g></svg>