<svg id="visual" viewBox="0 0 960 540" width="960" height="540" xmlns="http://www.w3.org/2000/svg" xmlns:xlink="http://www.w3.org/1999/xlink" version="1.1"><g transform="translate(473.3184399855478 238.60467167924122)"><path d="M78.2 -133C113.5 -99 162.7 -97.9 181.5 -77C200.4 -56 188.8 -15.3 166.8 12.4C144.8 40.1 112.5 54.8 87.1 64.8C61.8 74.7 43.4 80.1 11.1 133.3C-21.3 186.5 -67.7 287.5 -89.1 288.2C-110.6 289 -107.1 189.3 -124.7 129.8C-142.3 70.3 -181 51 -177.4 29.8C-173.8 8.6 -127.8 -14.4 -95.8 -26.8C-63.7 -39.1 -45.5 -40.9 -31.9 -84.8C-18.3 -128.7 -9.1 -214.9 6.2 -224.5C21.4 -234 42.9 -167.1 78.2 -133" fill="#651fff"></path></g></svg>