<svg width="109" height="109" viewBox="0 0 109 109" fill="none" xmlns="http://www.w3.org/2000/svg">
<path fill-rule="evenodd" clip-rule="evenodd" d="M101.388 30.9509C101.388 30.9509 91.1523 9.09763 71.7029 2.6192C52.254 -3.85923 30.9578 7.49032 30.9578 7.49032C30.9578 7.49032 31.0103 7.60297 31.1154 7.81421C31.0709 7.72509 31.0343 7.65423 31.0075 7.60179C30.9707 7.53024 30.9508 7.4938 30.9508 7.4938C30.9508 7.4938 9.09767 17.7301 2.619 37.1791C-3.85934 56.6281 7.49021 77.9244 7.49021 77.9244C7.49021 77.9244 29.3435 67.6878 35.8218 48.239C41.7436 30.4623 32.771 11.142 31.184 7.95133C32.7862 11.1344 42.8666 29.9005 60.6431 35.8219C80.092 42.3004 101.388 30.9509 101.388 30.9509ZM37.1789 106.263C17.73 99.7845 7.49369 77.9313 7.49369 77.9313C7.49369 77.9313 28.7902 66.5818 48.2389 73.0604C66.0159 78.9816 76.0963 97.7477 77.6981 100.931C76.1115 97.7401 67.1388 78.4198 73.0603 60.6432C79.5387 41.1944 101.392 30.9579 101.392 30.9579C101.392 30.9579 112.742 52.254 106.263 71.7031C99.7843 91.152 77.9312 101.388 77.9312 101.388C77.9312 101.388 77.8725 101.279 77.7666 101.068C77.8716 101.279 77.9243 101.392 77.9243 101.392C77.9243 101.392 56.628 112.741 37.1789 106.263Z" fill="#FFDB1D"/>
</svg>
