<svg id="visual" viewBox="0 0 300 300" width="300" height="300" xmlns="http://www.w3.org/2000/svg" xmlns:xlink="http://www.w3.org/1999/xlink" version="1.1"><g transform="translate(163.64269361761524 156.73757340311215)"><path d="M78.4 -118.8C95.5 -111 99.2 -79 99.7 -52.9C100.2 -26.7 97.6 -6.5 102.4 20.3C107.2 47.1 119.3 80.5 109.6 98.9C99.8 117.2 68.1 120.5 40.8 119.6C13.6 118.7 -9.1 113.5 -38.6 113.2C-68.1 112.9 -104.3 117.3 -117.7 102C-131 86.6 -121.4 51.3 -124.2 19C-127 -13.2 -142.2 -42.6 -140.4 -71.5C-138.7 -100.5 -120 -129.1 -93.8 -132.8C-67.6 -136.4 -33.8 -115.1 -1.6 -112.6C30.6 -110.2 61.3 -126.6 78.4 -118.8" fill="#7f9ddf"></path></g></svg>