<svg id="visual" viewBox="0 0 300 300" width="300" height="300" xmlns="http://www.w3.org/2000/svg" xmlns:xlink="http://www.w3.org/1999/xlink" version="1.1"><g transform="translate(150.62041756509538 146.01322008185412)"><path d="M48.8 -66.8C70 -51.7 98.7 -46.6 119 -28.3C139.2 -10 150.9 21.4 147.6 53C144.3 84.6 125.9 116.3 98.8 129.3C71.7 142.4 35.9 136.7 2 134C-31.9 131.3 -63.9 131.6 -78.1 114.4C-92.4 97.2 -89 62.5 -102.8 30.9C-116.5 -0.8 -147.4 -29.4 -149.3 -56.2C-151.2 -83.1 -124.1 -108.3 -94.4 -120.6C-64.7 -133 -32.3 -132.5 -9.3 -119.7C13.8 -107 27.6 -81.9 48.8 -66.8" fill="#3a8559"></path></g></svg>