<svg width="91" height="66" viewBox="0 0 91 66" fill="none" xmlns="http://www.w3.org/2000/svg">
<rect y="18" width="48" height="48" rx="8" fill="#445AFF"/>
<path d="M9.00007 50.25L14.1031 43.4471L9.3438 36.8519H13.8123L15.2665 39.007L16.3771 40.7467H16.5886L17.7255 39.007L19.2062 36.8519H23.3046L18.5452 43.2393L23.6483 50.25H19.1533L17.4347 47.7314L16.2449 45.9397H16.0333L14.8699 47.7314L13.1248 50.25H9.00007Z" fill="white"/>
<path d="M33.0244 35.1381C32.1431 35.1381 31.5261 34.965 31.1736 34.6188C30.8387 34.2553 30.6712 33.8226 30.6712 33.3206V32.5676C30.6712 32.0483 30.8387 31.6155 31.1736 31.2693C31.5261 30.9231 32.1431 30.75 33.0244 30.75C33.9058 30.75 34.5139 30.9231 34.8489 31.2693C35.2014 31.6155 35.3777 32.0483 35.3777 32.5676V33.3206C35.3777 33.8226 35.2014 34.2553 34.8489 34.6188C34.5139 34.965 33.9058 35.1381 33.0244 35.1381ZM26.7315 47.264H31.0678V39.8379H26.7315V36.8519H34.9811V47.264H39.0001V50.25H26.7315V47.264Z" fill="white"/>
<rect x="36" y="2" width="53" height="28" rx="6" fill="#9769FF"/>
<path d="M47.4765 20.169C46.9926 20.169 46.5551 20.0795 46.164 19.9006C45.7729 19.7183 45.463 19.4548 45.2343 19.1101C45.0089 18.7654 44.8962 18.3428 44.8962 17.8423C44.8962 17.4115 44.9791 17.0568 45.1448 16.7784C45.3105 16.5 45.5342 16.2796 45.816 16.1172C46.0977 15.9548 46.4126 15.8321 46.7606 15.7493C47.1086 15.6664 47.4632 15.6035 47.8245 15.5604C48.2819 15.5073 48.6531 15.4643 48.9381 15.4311C49.2232 15.3946 49.4303 15.3366 49.5596 15.2571C49.6888 15.1776 49.7535 15.0483 49.7535 14.8693V14.8345C49.7535 14.4003 49.6308 14.0639 49.3856 13.8253C49.1436 13.5866 48.7823 13.4673 48.3018 13.4673C47.8013 13.4673 47.4069 13.5784 47.1185 13.8004C46.8335 14.0192 46.6363 14.2628 46.5269 14.5312L45.1299 14.2131C45.2956 13.7491 45.5376 13.3745 45.8557 13.0895C46.1772 12.8011 46.5468 12.5923 46.9644 12.4631C47.382 12.3305 47.8212 12.2642 48.2819 12.2642C48.5868 12.2642 48.9099 12.3007 49.2513 12.3736C49.596 12.4432 49.9175 12.5724 50.2158 12.7614C50.5174 12.9503 50.7644 13.2204 50.9566 13.5717C51.1488 13.9197 51.2449 14.3722 51.2449 14.929V20H49.7932V18.956H49.7336C49.6375 19.1482 49.4933 19.3371 49.301 19.5227C49.1088 19.7083 48.8619 19.8625 48.5603 19.9851C48.2587 20.1077 47.8974 20.169 47.4765 20.169ZM47.7996 18.9759C48.2106 18.9759 48.5619 18.8946 48.8536 18.7322C49.1486 18.5698 49.3723 18.3577 49.5248 18.0959C49.6805 17.8307 49.7584 17.5473 49.7584 17.2457V16.2614C49.7054 16.3144 49.6027 16.3641 49.4502 16.4105C49.301 16.4536 49.1304 16.4917 48.9381 16.5249C48.7459 16.5547 48.5586 16.5829 48.3763 16.6094C48.194 16.6326 48.0416 16.6525 47.9189 16.669C47.6306 16.7055 47.3671 16.7668 47.1285 16.853C46.8931 16.9392 46.7042 17.0634 46.5617 17.2259C46.4225 17.3849 46.3529 17.5971 46.3529 17.8622C46.3529 18.2301 46.4888 18.5085 46.7606 18.6974C47.0323 18.883 47.3787 18.9759 47.7996 18.9759ZM54.7114 9.81818V20H53.2249V9.81818H54.7114ZM56.7112 22.8636V12.3636H58.1629V13.6016H58.2872C58.3734 13.4425 58.4977 13.2585 58.6601 13.0497C58.8225 12.8409 59.0479 12.6586 59.3362 12.5028C59.6246 12.3438 60.0057 12.2642 60.4797 12.2642C61.0961 12.2642 61.6463 12.42 62.1302 12.7315C62.6141 13.0431 62.9936 13.4922 63.2687 14.0788C63.5471 14.6655 63.6863 15.3714 63.6863 16.1967C63.6863 17.022 63.5488 17.7296 63.2737 18.3196C62.9986 18.9062 62.6208 19.3587 62.1402 19.6768C61.6596 19.9917 61.1111 20.1491 60.4946 20.1491C60.0306 20.1491 59.6511 20.0713 59.3561 19.9155C59.0644 19.7597 58.8357 19.5774 58.67 19.3686C58.5043 19.1598 58.3767 18.9742 58.2872 18.8118H58.1977V22.8636H56.7112ZM58.1679 16.1818C58.1679 16.7187 58.2458 17.1894 58.4015 17.5938C58.5573 17.9981 58.7827 18.3146 59.0777 18.5433C59.3727 18.7687 59.7339 18.8814 60.1615 18.8814C60.6056 18.8814 60.9768 18.7637 61.2751 18.5284C61.5734 18.2898 61.7988 17.9666 61.9513 17.5589C62.107 17.1513 62.1849 16.6922 62.1849 16.1818C62.1849 15.678 62.1087 15.2256 61.9562 14.8246C61.8071 14.4235 61.5817 14.107 61.2801 13.875C60.9818 13.643 60.6089 13.527 60.1615 13.527C59.7306 13.527 59.366 13.638 59.0677 13.8601C58.7728 14.0821 58.549 14.392 58.3966 14.7898C58.2441 15.1875 58.1679 15.6515 58.1679 16.1818ZM66.8383 15.4659V20H65.3518V9.81818H66.8184V13.6065H66.9129C67.0919 13.1955 67.3653 12.8691 67.7332 12.6271C68.1011 12.3852 68.5817 12.2642 69.175 12.2642C69.6987 12.2642 70.156 12.3719 70.5471 12.5874C70.9416 12.8028 71.2465 13.1243 71.4619 13.5518C71.6807 13.9761 71.79 14.5064 71.79 15.1428V20H70.3035V15.3217C70.3035 14.7616 70.1594 14.3274 69.871 14.0192C69.5827 13.7076 69.1816 13.5518 68.6679 13.5518C68.3166 13.5518 68.0017 13.6264 67.7233 13.7756C67.4482 13.9247 67.2311 14.1435 67.072 14.4318C66.9162 14.7169 66.8383 15.0616 66.8383 15.4659ZM75.996 20.169C75.5121 20.169 75.0746 20.0795 74.6835 19.9006C74.2924 19.7183 73.9825 19.4548 73.7538 19.1101C73.5284 18.7654 73.4157 18.3428 73.4157 17.8423C73.4157 17.4115 73.4986 17.0568 73.6643 16.7784C73.83 16.5 74.0538 16.2796 74.3355 16.1172C74.6172 15.9548 74.9321 15.8321 75.2801 15.7493C75.6281 15.6664 75.9827 15.6035 76.344 15.5604C76.8014 15.5073 77.1726 15.4643 77.4577 15.4311C77.7427 15.3946 77.9498 15.3366 78.0791 15.2571C78.2084 15.1776 78.273 15.0483 78.273 14.8693V14.8345C78.273 14.4003 78.1504 14.0639 77.9051 13.8253C77.6631 13.5866 77.3019 13.4673 76.8213 13.4673C76.3208 13.4673 75.9264 13.5784 75.6381 13.8004C75.353 14.0192 75.1558 14.2628 75.0464 14.5312L73.6494 14.2131C73.8151 13.7491 74.0571 13.3745 74.3753 13.0895C74.6968 12.8011 75.0663 12.5923 75.4839 12.4631C75.9015 12.3305 76.3407 12.2642 76.8014 12.2642C77.1063 12.2642 77.4295 12.3007 77.7709 12.3736C78.1156 12.4432 78.4371 12.5724 78.7354 12.7614C79.037 12.9503 79.2839 13.2204 79.4761 13.5717C79.6684 13.9197 79.7645 14.3722 79.7645 14.929V20H78.3128V18.956H78.2531C78.157 19.1482 78.0128 19.3371 77.8206 19.5227C77.6283 19.7083 77.3814 19.8625 77.0798 19.9851C76.7782 20.1077 76.4169 20.169 75.996 20.169ZM76.3192 18.9759C76.7301 18.9759 77.0815 18.8946 77.3731 18.7322C77.6681 18.5698 77.8918 18.3577 78.0443 18.0959C78.2001 17.8307 78.278 17.5473 78.278 17.2457V16.2614C78.2249 16.3144 78.1222 16.3641 77.9697 16.4105C77.8206 16.4536 77.6499 16.4917 77.4577 16.5249C77.2654 16.5547 77.0782 16.5829 76.8959 16.6094C76.7136 16.6326 76.5611 16.6525 76.4385 16.669C76.1501 16.7055 75.8866 16.7668 75.648 16.853C75.4127 16.9392 75.2238 17.0634 75.0812 17.2259C74.942 17.3849 74.8724 17.5971 74.8724 17.8622C74.8724 18.2301 75.0083 18.5085 75.2801 18.6974C75.5519 18.883 75.8982 18.9759 76.3192 18.9759Z" fill="white"/>
<rect x="36" y="2" width="53" height="28" rx="6" stroke="#ECEFFF" stroke-width="4"/>
</svg>
