<svg xmlns="http://www.w3.org/2000/svg" viewBox="0 0 500 500"><g id="freepik--background-complete--inject-26"><path d="M82.59,327.06l-13.12.27-6.66.12c-2.23,0-4.47,0-6.7.05h-.44v-.44l-.06-11.19v-.51h.5l13.24.06c4.42,0,8.83.11,13.24.16h.28v.27c0,1.89-.09,3.78-.13,5.65Zm0,0-.14-5.66c0-1.86-.11-3.7-.13-5.53l.27.27c-4.41.05-8.82.16-13.24.16l-13.24.07.5-.5,0,11.19-.45-.45c2.18,0,4.36,0,6.55.05l6.58.12Z" style="fill:#ebebeb"></path><path d="M67.82,341.17l-13.12.27-6.66.12c-2.23,0-4.47,0-6.7.05H40.9v-.44L40.84,330v-.51h.5l13.24.06c4.41,0,8.83.11,13.24.16h.28V330c0,1.89-.08,3.78-.13,5.65Zm0,0-.14-5.66c-.05-1.86-.11-3.7-.13-5.53l.27.27c-4.41.05-8.83.16-13.24.16l-13.24.06.5-.49-.05,11.19-.45-.45c2.18,0,4.36,0,6.55,0l6.58.12Z" style="fill:#ebebeb"></path><path d="M406.5,202.49l-13.12.28-6.66.11c-2.23.05-4.47,0-6.7.06h-.44v-.45l-.06-11.19v-.5h.5l13.24.07c4.42,0,8.83.11,13.24.16h.28v.27c0,1.9-.09,3.79-.14,5.66Zm0,0-.14-5.65c0-1.86-.11-3.71-.13-5.54l.27.28c-4.41,0-8.82.15-13.24.16L380,191.8l.5-.5,0,11.19-.45-.44c2.18,0,4.36,0,6.55,0l6.58.11Z" style="fill:#ebebeb"></path><path d="M391.73,216.6l-13.12.28L372,217c-2.23,0-4.47,0-6.7.06h-.44v-.45l-.05-11.19v-.5h.5l13.24.07c4.41,0,8.83.11,13.24.16H392v.27c0,1.9-.08,3.79-.13,5.66Zm0,0-.14-5.65c0-1.86-.11-3.71-.13-5.54l.27.28c-4.41.05-8.83.15-13.24.16l-13.24.06.5-.5-.05,11.19-.45-.44c2.18,0,4.36,0,6.55.05l6.58.11Z" style="fill:#ebebeb"></path><path d="M377,202.49l-13.13.28-6.66.11c-2.22.05-4.46,0-6.69.06h-.45v-.45l0-11.19v-.5h.51l13.24.07c4.41,0,8.82.11,13.24.16h.27v.27c0,1.9-.09,3.79-.13,5.66Zm0,0-.14-5.65c-.05-1.86-.12-3.71-.14-5.54l.28.28c-4.42,0-8.83.15-13.24.16l-13.24.06.5-.5L351,202.49l-.44-.44c2.18,0,4.35,0,6.54,0l6.58.11Z" style="fill:#ebebeb"></path><path d="M458.66,341.17l-13.13.27-6.66.12c-2.22,0-4.46,0-6.69.05h-.45v-.44L431.68,330v-.51h.5l13.24.06c4.41,0,8.83.11,13.24.16h.27V330c0,1.89-.08,3.78-.13,5.65Zm0,0-.14-5.66c0-1.86-.12-3.7-.13-5.53l.27.27c-4.41.05-8.83.16-13.24.16l-13.24.06.5-.49-.06,11.19-.44-.45c2.18,0,4.36,0,6.54,0l6.58.12Z" style="fill:#ebebeb"></path><path d="M443.89,67.49l-13.13.27-6.66.12c-2.22,0-4.46,0-6.69.05H417v-.45l0-11.19v-.51h.51l13.24.06c4.41,0,8.82.11,13.24.16h.27v.27c0,1.9-.09,3.78-.13,5.65Zm0,0-.14-5.66c-.05-1.86-.12-3.7-.14-5.53l.28.27c-4.42,0-8.83.16-13.24.16l-13.24.07.5-.5-.06,11.19-.44-.45c2.18,0,4.35,0,6.54.06l6.58.11Z" style="fill:#ebebeb"></path><path d="M458.66,81.6l-13.13.27-6.66.12c-2.22,0-4.46,0-6.69.05h-.45V81.6l-.05-11.19V69.9h.5l13.24.06c4.41,0,8.83.11,13.24.16h.27v.27c0,1.89-.08,3.78-.13,5.65Zm0,0-.14-5.66c0-1.86-.12-3.7-.13-5.53l.27.27c-4.41,0-8.83.16-13.24.16l-13.24.07.5-.5-.06,11.19-.44-.45c2.18,0,4.36,0,6.54.06l6.58.11Z" style="fill:#ebebeb"></path><path d="M82.59,67.49l-13.12.27-6.66.12c-2.23,0-4.47,0-6.7.05h-.44v-.45L55.61,56.3v-.51h.5l13.24.06c4.42,0,8.83.11,13.24.16h.28v.27c0,1.9-.09,3.78-.13,5.65Zm0,0-.14-5.66c0-1.86-.11-3.7-.13-5.53l.27.27c-4.41,0-8.82.16-13.24.16l-13.24.07.5-.5,0,11.19L56.11,67c2.18,0,4.36,0,6.55.06l6.58.11Z" style="fill:#ebebeb"></path><path d="M444.17,262.46l5.5-8.88L447,251.9a2.47,2.47,0,0,1-1.15-2.33,13.65,13.65,0,0,0,.05-1.57,2.48,2.48,0,0,1,1.3-2.25l2.81-1.51L445,235l-2.82,1.52a2.49,2.49,0,0,1-2.59-.17,13.23,13.23,0,0,0-1.33-.82A2.49,2.49,0,0,1,437,233.3l.1-3.19-10.44-.33-.09,3.21a2.49,2.49,0,0,1-1.46,2.16l-.69.35-.66.38a2.51,2.51,0,0,1-2.6,0l-2.73-1.7-5.51,8.88,2.72,1.69a2.45,2.45,0,0,1,1.15,2.33c0,.52-.06,1,0,1.56a2.49,2.49,0,0,1-1.29,2.25l-2.82,1.51,4.94,9.21,2.81-1.52a2.51,2.51,0,0,1,2.6.17,13.82,13.82,0,0,0,1.32.82,2.47,2.47,0,0,1,1.31,2.25l-.1,3.2,10.44.33.1-3.21a2.47,2.47,0,0,1,1.45-2.15l.69-.35c.23-.12.45-.25.67-.38a2.5,2.5,0,0,1,2.61,0Zm-8.84-6.59a8.56,8.56,0,1,1,3.5-11.58A8.55,8.55,0,0,1,435.33,255.87Z" style="fill:#dbdbdb"></path><path d="M122.05,134l-3.66-6.33-1.94,1.12a1.75,1.75,0,0,1-1.82-.06,9,9,0,0,0-.95-.55,1.73,1.73,0,0,1-1-1.55v-2.24H105.4v2.24a1.75,1.75,0,0,1-1,1.55,8.1,8.1,0,0,0-1,.55,1.75,1.75,0,0,1-1.82.06l-1.94-1.12L96.07,134l2,1.12a1.76,1.76,0,0,1,.85,1.62c0,.18,0,.36,0,.54s0,.36,0,.54a1.74,1.74,0,0,1-.85,1.6l-2,1.13,3.66,6.34,1.94-1.12a1.73,1.73,0,0,1,1.82.06c.31.2.62.38,1,.55a1.74,1.74,0,0,1,1,1.54v2.24h7.32V148a1.72,1.72,0,0,1,1-1.54c.32-.17.64-.35.94-.55a1.73,1.73,0,0,1,1.82-.06l2,1.12,3.66-6.34-2-1.12a1.74,1.74,0,0,1-.85-1.61c0-.18,0-.36,0-.54s0-.36,0-.54a1.76,1.76,0,0,1,.85-1.62Zm-7,3.28a6,6,0,1,1-6-6A6,6,0,0,1,115.05,137.31Z" style="fill:#dbdbdb"></path><path d="M85.31,163.32a28.5,28.5,0,1,0,28.49,28.5A28.5,28.5,0,0,0,85.31,163.32Zm0,41.8a13.31,13.31,0,1,1,13.3-13.3A13.3,13.3,0,0,1,85.31,205.12Z" style="fill:#ebebeb"></path><polygon points="90.78 164.5 79.83 164.5 80.43 156.75 90.18 156.75 90.78 164.5" style="fill:#ebebeb"></polygon><polygon points="69.93 168.2 62.18 175.94 57.13 170.03 64.02 163.14 69.93 168.2" style="fill:#ebebeb"></polygon><polygon points="57.79 185.55 57.79 196.51 50.04 195.9 50.04 186.16 57.79 185.55" style="fill:#ebebeb"></polygon><polygon points="61.48 206.41 69.23 214.16 63.32 219.21 56.43 212.32 61.48 206.41" style="fill:#ebebeb"></polygon><polygon points="78.84 218.54 89.8 218.54 89.19 226.3 79.45 226.3 78.84 218.54" style="fill:#ebebeb"></polygon><polygon points="99.7 214.85 107.44 207.1 112.5 213.02 105.61 219.91 99.7 214.85" style="fill:#ebebeb"></polygon><polygon points="111.83 197.5 111.83 186.54 119.59 187.14 119.59 196.89 111.83 197.5" style="fill:#ebebeb"></polygon><polygon points="108.14 176.64 100.39 168.89 106.31 163.84 113.2 170.73 108.14 176.64" style="fill:#ebebeb"></polygon><path d="M376.69,40.27a28.49,28.49,0,1,0,28.5,28.49A28.49,28.49,0,0,0,376.69,40.27Zm0,41.79A13.31,13.31,0,1,1,390,68.76,13.29,13.29,0,0,1,376.69,82.06Z" style="fill:#ebebeb"></path><polygon points="382.17 41.45 371.22 41.45 371.82 33.69 381.57 33.69 382.17 41.45" style="fill:#ebebeb"></polygon><polygon points="361.32 45.14 353.57 52.89 348.51 46.97 355.4 40.08 361.32 45.14" style="fill:#ebebeb"></polygon><polygon points="349.18 62.49 349.18 73.45 341.43 72.85 341.43 63.1 349.18 62.49" style="fill:#ebebeb"></polygon><polygon points="352.87 83.35 360.62 91.1 354.71 96.15 347.82 89.26 352.87 83.35" style="fill:#ebebeb"></polygon><polygon points="370.23 95.49 381.19 95.49 380.58 103.24 370.84 103.24 370.23 95.49" style="fill:#ebebeb"></polygon><polygon points="391.08 91.8 398.83 84.05 403.89 89.96 397 96.85 391.08 91.8" style="fill:#ebebeb"></polygon><polygon points="403.22 74.44 403.22 63.48 410.98 64.09 410.98 73.83 403.22 74.44" style="fill:#ebebeb"></polygon><polygon points="399.53 53.58 391.78 45.84 397.69 40.78 404.59 47.67 399.53 53.58" style="fill:#ebebeb"></polygon></g><g id="freepik--Shadow--inject-26"><ellipse cx="363.85" cy="459.8" rx="99.95" ry="12.22" style="fill:#ebebeb"></ellipse></g><g id="freepik--Plant--inject-26"><path d="M80.32,321.22a70.06,70.06,0,0,1,2.21,12.48c-.12.21-.1,1,0,.77,0,.69,1.07.57,1.07-.11,0-.44,0-.88,0-1.31,2.43-3,6-4.95,8.84-7.58a16.63,16.63,0,0,0,4.85-7.71c2.37-8.19.15-16.86,3-25,2.46-7,6.88-13.16,10.62-19.53,3.94-6.75,6.85-13.83,7.14-21.73.23-6-.49-14.11-5.09-18.64-4.89-4.81-10.94-1.2-14.68,3.08-10.84,12.44-15.85,28.16-17.88,44.24-1.12,8.9-2.28,17.85-2,26.83A71.88,71.88,0,0,0,80.32,321.22Z" style="fill:#53BF80"></path><path d="M82.48,337a152.53,152.53,0,0,1,.3-25.2.23.23,0,0,1,0-.1c-.13-6.81-.67-13.59-.41-20.41a121.59,121.59,0,0,1,3-21.91c0-.08.15-.06.14,0a141.52,141.52,0,0,0-2.37,21.42c-.14,3.85-.12,7.7.09,11.55.06,1.25.18,2.51.26,3.77h0a135,135,0,0,1,20.27-53.64c.15-.22.54,0,.4.25a140.11,140.11,0,0,0-16.5,39.77c5.21-9.66,13.09-17.6,18.93-26.88,0-.05.11,0,.09,0-5.25,10.33-13.92,18.48-19.45,28.66-1,4.15-1.74,8.33-2.32,12.55a139.26,139.26,0,0,0-1.26,17.43c3.17-5.93,6.47-11.61,9.07-17.89.07-.16.31,0,.25.12-2.21,6.52-5.18,13.54-9.34,19.1q0,6.19.35,12.38c.64,11,2.52,21.86,3.39,32.83a.25.25,0,0,1-.5.05A251.16,251.16,0,0,1,82.48,337Z" style="fill:#263238"></path><path d="M94.16,252.11c0-.08.15,0,.13.06-2,5.55-3.15,11.18-4.6,16.88a.21.21,0,0,1-.42-.07C89.86,263.2,91.93,257.44,94.16,252.11Z" style="fill:#263238"></path><path d="M43.13,275.4a83.27,83.27,0,0,0,4.62,9.5c3.62,6.57,7.39,12.59,8.08,20.25.3,3.41.41,6.85,1.45,10.14a30.5,30.5,0,0,0,4,7.94c3.93,5.71,8.83,10.64,12.46,16.57a69.3,69.3,0,0,1,8.28,20c.09.38.7.28.61-.1a.29.29,0,0,1,0-.09.15.15,0,0,0,0-.08c.58-16.41-.73-32.95-5.74-48.67a167.26,167.26,0,0,0-8-20.24c-2.68-5.7-6-11.18-10.73-15.44-3-2.75-9.68-8-14-5.21C42.15,271.26,42.31,273.36,43.13,275.4Z" style="fill:#53BF80"></path><path d="M59.62,312.6a134.68,134.68,0,0,0,9.53,13.71c1.59,2.08,3.2,4.13,4.79,6.21.75,1,1.59,2,2.28,3-.44-1.72-.86-3.45-1.3-5.18-2.12-8.29-4.15-16.65-7.31-24.62a166.45,166.45,0,0,0-11.39-22.34c-.11-.19.2-.33.31-.14,3.47,5.7,7,11.4,9.9,17.41A90.47,90.47,0,0,1,70.63,311,157.47,157.47,0,0,0,65,288.92c0-.07.07-.12.1-.05a75.44,75.44,0,0,1,5.8,23,0,0,0,0,1,0,0c.71,2.13,1.37,4.29,2,6.45,2.58,9.18,4.85,18.46,7,27.77a99.85,99.85,0,0,0-1.59-18.25.11.11,0,0,1,.22,0A57.92,57.92,0,0,1,80.08,347q1.2,5.31,2.33,10.63C84,365.23,86,372.92,87,380.6a.16.16,0,0,1-.31.06c-1.12-4.14-1.8-8.44-2.72-12.63s-1.88-8.4-2.86-12.59c-1.42-6.11-2.91-12.2-4.43-18.28-1-2.23-3-4.21-4.46-6.08-1.61-2.05-3.23-4.1-4.8-6.19a93,93,0,0,1-7.9-12.22C59.42,312.58,59.57,312.52,59.62,312.6Z" style="fill:#263238"></path><path d="M58.92,305.59a85.12,85.12,0,0,1,9.33,14.82c0,.07-.07.14-.11.08-3.14-4.93-6.23-9.89-9.37-14.81C58.72,305.59,58.86,305.51,58.92,305.59Z" style="fill:#263238"></path><path d="M128.77,291c-2.13,3.66-4.55,8.06-3.64,12.46.58,2.78,2.62,5,3,7.88.83,6.27-5.42,10.41-9.94,13.37-11.27,7.4-26.72,14-28.77,29.08-.08.54-1,.41-.93-.12a.44.44,0,0,1,0-.1s-.06,0-.06-.09a57.89,57.89,0,0,1,.22-23.05c1.68-7.79,5.07-14.78,9.08-21.62,6.78-11.56,14-23.41,24.22-32.27,2.83-2.45,8.65-6.86,10.91-1.33C135.05,280.55,131.38,286.5,128.77,291Z" style="fill:#53BF80"></path><path d="M118.46,315.49c-7.47,8.09-19.35,12.62-25.78,21.68A90.77,90.77,0,0,1,112.49,300a.29.29,0,0,0-.41-.41A73.41,73.41,0,0,0,95.89,323a105.6,105.6,0,0,1,7-17.83.19.19,0,0,0-.33-.19A67.87,67.87,0,0,0,95,325c-8.48,20.51-9.26,44.57-7.49,66.19,0,.31.5.31.49,0-.48-17-.21-34.38,3.87-51l.27-1c7-9.75,18.82-14.27,26.43-23.53C118.66,315.53,118.54,315.4,118.46,315.49Z" style="fill:#263238"></path><path d="M120.19,308.54c-3.92,3.6-7.78,7.28-11.71,10.88,0,0,0,.1.06.07a57.64,57.64,0,0,0,11.88-10.71A.17.17,0,0,0,120.19,308.54Z" style="fill:#263238"></path><path d="M120.81,293a123.07,123.07,0,0,1-11.73,16.14c-.06.07,0,.16.09.1A56.69,56.69,0,0,0,121,293.08C121.09,292.94,120.89,292.82,120.81,293Z" style="fill:#263238"></path><polygon points="103.15 406.44 68.8 406.44 73.43 360.23 97.86 360.23 103.15 406.44" style="fill:#455a64"></polygon><polygon points="98.72 367.74 72.68 367.74 73.43 360.23 97.86 360.23 98.72 367.74" style="fill:#263238"></polygon><rect x="69.88" y="355.11" width="32.2" height="7.38" style="fill:#455a64"></rect></g><g id="freepik--Floor--inject-26"><polygon points="41.49 406.44 93.62 406.2 145.75 406.11 250 405.95 354.25 406.11 406.38 406.2 458.51 406.44 406.38 406.69 354.25 406.78 250 406.94 145.75 406.78 93.62 406.69 41.49 406.44" style="fill:#263238"></polygon></g><g id="freepik--Device--inject-26"><path d="M315.62,49.14H146.56a17.26,17.26,0,0,0-17.1,17.42v348A17.27,17.27,0,0,0,146.56,432H315.62a17.29,17.29,0,0,0,17.12-17.42v-348A17.28,17.28,0,0,0,315.62,49.14ZM322,403.81c0,9.16-6.86,16.57-15.32,16.57H155.48c-8.48,0-15.34-7.41-15.34-16.57V79.75c0-18.66,6.86-19.57,15.34-19.57h30.3c1.76,0,3.2,2,3.2,4.48v1.07c0,5.81,3.18,5.83,7.08,5.83h70.06c3.94,0,7.1,0,7.1-5.83V64.66c0-2.48,1.42-4.48,3.21-4.48h30.29c8.46,0,15.32,2.48,15.32,19.57Z" style="fill:#263238"></path><path d="M322,79.75V403.81c0,9.16-6.86,16.57-15.32,16.57H155.48c-8.48,0-15.34-7.41-15.34-16.57V79.75c0-18.66,6.86-19.57,15.34-19.57h30.3c1.76,0,3.2,2,3.2,4.48v1.07c0,5.81,3.18,5.83,7.08,5.83h70.06c3.94,0,7.1,0,7.1-5.83V64.66c0-2.48,1.42-4.48,3.21-4.48h30.29C315.18,60.18,322,62.66,322,79.75Z" style="fill:#fff"></path><path d="M322,79.75v36.49H140.14V79.75c0-18.66,6.86-19.57,15.34-19.57h30.3c1.76,0,3.2,2,3.2,4.48v1.07c0,5.81,3.18,5.83,7.08,5.83h70.06c3.94,0,7.1,0,7.1-5.83V64.66c0-2.48,1.42-4.48,3.21-4.48h30.29C315.18,60.18,322,62.66,322,79.75Z" style="fill:#53BF80"></path><g id="freepik--u5Zjqx--inject-26"><path d="M180.55,67.46a4,4,0,0,0-.29.29l-.17.16a4,4,0,0,0-5.64,0l-.16-.17-.29-.29h0l0,0,.37-.33a4.78,4.78,0,0,1,.86-.54,4.18,4.18,0,0,1,1.13-.38,5.58,5.58,0,0,1,.57-.08h.5l.38,0a4.51,4.51,0,0,1,1,.25,4.58,4.58,0,0,1,.71.33,4.48,4.48,0,0,1,.67.47l.31.28Z" style="fill:#fff"></path><path d="M175.38,68.83l-.47-.46a3.35,3.35,0,0,1,4.72,0l-.47.46a2.68,2.68,0,0,0-3.78,0Z" style="fill:#fff"></path><path d="M178.7,69.29l-.46.46a1.35,1.35,0,0,0-1-.4,1.32,1.32,0,0,0-1,.41l-.46-.46A2,2,0,0,1,178.7,69.29Z" style="fill:#fff"></path><path d="M177.69,70.17a.42.42,0,1,1-.84,0,.42.42,0,0,1,.84,0Z" style="fill:#fff"></path></g><path d="M152,68.34a1.21,1.21,0,1,1,1.2,1.21A1.21,1.21,0,0,1,152,68.34Z" style="fill:#fff"></path><path d="M155.8,68.34A1.21,1.21,0,1,1,157,69.55,1.21,1.21,0,0,1,155.8,68.34Z" style="fill:#fff"></path><path d="M159.6,68.34a1.21,1.21,0,1,1,1.21,1.21A1.21,1.21,0,0,1,159.6,68.34Z" style="fill:#fff"></path><path d="M163.4,68.34a1.21,1.21,0,1,1,1.2,1.21A1.21,1.21,0,0,1,163.4,68.34Z" style="fill:#fff"></path><path d="M167.19,68.34a1.21,1.21,0,1,1,1.21,1.21A1.21,1.21,0,0,1,167.19,68.34Z" style="fill:#fff"></path><path d="M308.4,71h-9.81V66.43h9.81Zm-9.31-.5h8.81V66.93h-8.81Z" style="fill:#fff"></path><rect x="299.4" y="67.2" width="6.33" height="3" style="fill:#fff"></rect><rect x="308.41" y="67.48" width="0.87" height="2.43" style="fill:#fff"></rect><rect x="302.64" y="97.33" width="8.21" height="0.95" style="fill:#fff"></rect><rect x="302.64" y="100.48" width="8.21" height="0.95" style="fill:#fff"></rect><rect x="302.64" y="103.63" width="8.21" height="0.95" style="fill:#fff"></rect><circle cx="304.52" cy="97.8" r="1.42" style="fill:#fff"></circle><path d="M310.1,101a1.42,1.42,0,1,1-1.42-1.43A1.42,1.42,0,0,1,310.1,101Z" style="fill:#fff"></path><circle cx="305.83" cy="104.11" r="1.42" style="fill:#fff"></circle><path d="M155,101.74h-1.07v1.89a.49.49,0,0,1-1,0V98.49a.48.48,0,0,1,.48-.48H155a1.87,1.87,0,1,1,0,3.73Zm-1.07-1H155A.9.9,0,1,0,155,99h-1.07Z" style="fill:#fff"></path><path d="M162,103.39a.48.48,0,0,1-.3.61l-.2,0h0a.6.6,0,0,1-.34-.09.84.84,0,0,1-.28-.31,2.32,2.32,0,0,1-.19-1,.69.69,0,0,0-.1-.38.89.89,0,0,0-.26-.25,1.75,1.75,0,0,0-.49-.21h-1v1.89a.49.49,0,0,1-.49.48.47.47,0,0,1-.47-.48V98.49a.47.47,0,0,1,.47-.48h1.56a1.87,1.87,0,0,1,1.87,1.87,1.84,1.84,0,0,1-.68,1.43,1.36,1.36,0,0,1,.3.33,1.59,1.59,0,0,1,.29.94,1.91,1.91,0,0,0,0,.51A.45.45,0,0,1,162,103.39Zm-1.22-3.51a.9.9,0,0,0-.9-.9h-1.07v1.79h1.07A.89.89,0,0,0,160.8,99.88Z" style="fill:#fff"></path><path d="M163.43,103.63V98.49a.47.47,0,0,1,.48-.48h2.85a.49.49,0,0,1,.48.48.5.5,0,0,1-.48.49H164.4v1.59h2a.49.49,0,0,1,0,1h-2v1.6h2.36a.49.49,0,0,1,0,1h-2.83a0,0,0,0,1,0,0h0A.48.48,0,0,1,163.43,103.63Z" style="fill:#fff"></path><path d="M168.59,103.63V98.49a.48.48,0,0,1,.48-.48h2.85a.49.49,0,0,1,0,1h-2.36v1.59h2a.49.49,0,0,1,0,1h-2v2.09a.49.49,0,0,1-.49.48A.48.48,0,0,1,168.59,103.63Z" style="fill:#fff"></path><path d="M173.86,103.63V98.49a.47.47,0,0,1,.48-.48h2.85a.48.48,0,0,1,.47.48.49.49,0,0,1-.47.49h-2.37v1.59h2a.49.49,0,0,1,0,1h-2v1.6h2.37a.49.49,0,0,1,0,1h-2.83a0,0,0,0,1,0,0h0A.48.48,0,0,1,173.86,103.63Z" style="fill:#fff"></path><path d="M183.23,103.39a.49.49,0,0,1-.31.61l-.19,0h0a.62.62,0,0,1-.34-.09.93.93,0,0,1-.28-.31,2.34,2.34,0,0,1-.18-1,.78.78,0,0,0-.1-.38.93.93,0,0,0-.27-.25,1.86,1.86,0,0,0-.48-.21h-1v1.89a.49.49,0,0,1-.49.48.48.48,0,0,1-.48-.48V98.49a.47.47,0,0,1,.48-.48h1.56a1.87,1.87,0,0,1,1.19,3.3,1.6,1.6,0,0,1,.3.33,1.66,1.66,0,0,1,.29.94,2.73,2.73,0,0,0,0,.51A.46.46,0,0,1,183.23,103.39ZM182,99.88a.9.9,0,0,0-.9-.9H180v1.79h1.07A.89.89,0,0,0,182,99.88Z" style="fill:#fff"></path><path d="M184.64,103.63V98.49a.47.47,0,0,1,.47-.48H188a.48.48,0,0,1,.48.48A.49.49,0,0,1,188,99H185.6v1.59h2a.49.49,0,0,1,0,1h-2v1.6H188a.49.49,0,0,1,0,1h-2.82s0,0,0,0h0A.47.47,0,0,1,184.64,103.63Z" style="fill:#fff"></path><path d="M190.76,103.63a.49.49,0,0,1-.48.48.47.47,0,0,1-.47-.48V98.57h0a.47.47,0,0,1,.85-.3l2.81,3.9V98.57a.48.48,0,0,1,.95,0v5.06a.48.48,0,0,1-.48.48.46.46,0,0,1-.35-.17l-.05-.06L190.76,100Z" style="fill:#fff"></path><path d="M196.24,101a3.2,3.2,0,0,1,3.2-3.13,3.25,3.25,0,0,1,2,.68.5.5,0,0,1-.61.79,2.18,2.18,0,0,0-1.4-.48,2.29,2.29,0,0,0-1.57.63,2.15,2.15,0,0,0-.64,1.51,2.12,2.12,0,0,0,.64,1.52,2.33,2.33,0,0,0,1.57.63,2.2,2.2,0,0,0,1.4-.48.5.5,0,0,1,.61.79,3.25,3.25,0,0,1-2,.68A3.18,3.18,0,0,1,196.24,101Z" style="fill:#fff"></path><path d="M203.22,103.63V98.49a.47.47,0,0,1,.48-.48h2.85a.49.49,0,0,1,.48.48.5.5,0,0,1-.48.49h-2.36v1.59h2a.49.49,0,0,1,0,1h-2v1.6h2.36a.49.49,0,0,1,0,1h-2.82s0,0,0,0h0A.48.48,0,0,1,203.22,103.63Z" style="fill:#fff"></path><path d="M208.19,102.59a.47.47,0,0,1,.64-.06,2.77,2.77,0,0,0,1.66.67,1.88,1.88,0,0,0,1.09-.32.79.79,0,0,0,.38-.63.48.48,0,0,0-.08-.27.93.93,0,0,0-.26-.27,3.76,3.76,0,0,0-1.2-.41h0a4.19,4.19,0,0,1-1.12-.34,1.84,1.84,0,0,1-.81-.67,1.37,1.37,0,0,1-.2-.72,1.62,1.62,0,0,1,.7-1.27,2.54,2.54,0,0,1,1.5-.46,3.45,3.45,0,0,1,1.9.69.45.45,0,0,1,.13.62.44.44,0,0,1-.62.13,2.58,2.58,0,0,0-1.41-.55,1.67,1.67,0,0,0-1,.29.69.69,0,0,0-.33.55.36.36,0,0,0,.06.24.83.83,0,0,0,.23.23,2.86,2.86,0,0,0,1.09.38h0a5.12,5.12,0,0,1,1.2.37,2,2,0,0,1,.87.72,1.42,1.42,0,0,1,.21.74,1.67,1.67,0,0,1-.75,1.35,2.66,2.66,0,0,1-1.61.5,3.79,3.79,0,0,1-2.23-.87A.47.47,0,0,1,208.19,102.59Z" style="fill:#fff"></path><path d="M240.65,64.3H221.54a1.18,1.18,0,0,1-1.18-1.18h0a1.18,1.18,0,0,1,1.18-1.18h19.11a1.18,1.18,0,0,1,1.18,1.18h0A1.18,1.18,0,0,1,240.65,64.3Z" style="fill:#fff"></path><polygon points="154.95 221.16 173.99 220.98 193.03 220.92 231.1 220.79 269.18 220.91 288.22 220.98 307.26 221.16 288.22 221.35 269.18 221.41 231.1 221.54 193.03 221.41 173.99 221.35 154.95 221.16" style="fill:#ebebeb"></polygon><path d="M301.8,213.24H290.54a5.45,5.45,0,0,1-5.46-5.45h0a5.46,5.46,0,0,1,5.46-5.46H301.8a5.47,5.47,0,0,1,5.46,5.46h0A5.46,5.46,0,0,1,301.8,213.24Z" style="fill:#53BF80"></path><path d="M306.19,207.79a4.37,4.37,0,1,1-4.37-4.37A4.37,4.37,0,0,1,306.19,207.79Z" style="fill:#fff"></path><path d="M161.47,208.77h-2.22l-.43,1.15a.17.17,0,0,1-.16.11h-.06a.19.19,0,0,1-.1-.23l1.69-4.51a.19.19,0,0,1,.34,0l1.69,4.51a.19.19,0,0,1-.09.23h-.07a.18.18,0,0,1-.16-.11Zm-2.09-.34h2l-1-2.61Z" style="fill:#263238"></path><path d="M163.09,206.78a.17.17,0,0,1,.17-.16.16.16,0,0,1,.16.16v1.86a1.06,1.06,0,1,0,2.11,0v-1.86a.16.16,0,0,1,.16-.16.17.17,0,0,1,.18.16v1.86a1.39,1.39,0,1,1-2.78,0Z" style="fill:#263238"></path><path d="M168.62,206.79a.18.18,0,0,1-.17.17H168v2.48a.27.27,0,0,0,.25.25.19.19,0,0,1,.18.18.18.18,0,0,1-.18.16.57.57,0,0,1-.59-.59V207h-.43c-.17,0-.17-.08-.17-.17s0-.17.17-.17h.43v-1.26a.17.17,0,0,1,.16-.17.18.18,0,0,1,.18.17v1.26h.44A.18.18,0,0,1,168.62,206.79Z" style="fill:#263238"></path><path d="M171.57,206.62a1.71,1.71,0,1,1-1.62,1.71A1.67,1.67,0,0,1,171.57,206.62Zm0,3.08a1.38,1.38,0,1,0-1.28-1.37A1.34,1.34,0,0,0,171.57,209.7Z" style="fill:#263238"></path><path d="M179.34,208a1.06,1.06,0,1,0-2.11,0v1.89h0a.2.2,0,0,1-.09.09.11.11,0,0,1-.08,0H177l0,0,0,0,0,0h0v0h0s0,0,0,0V208a1.05,1.05,0,1,0-2.1,0v1.85a.16.16,0,0,1-.08.14.07.07,0,0,1,0,0h-.07c-.06,0-.11-.06-.14-.12v-3.12a.16.16,0,0,1,.16-.16.16.16,0,0,1,.17.16v.33a1.37,1.37,0,0,1,1.05-.49,1.39,1.39,0,0,1,1.22.72,1.39,1.39,0,0,1,2.61.67v1.85a.16.16,0,0,1-.17.16.16.16,0,0,1-.16-.16Z" style="fill:#263238"></path><path d="M184,206.79v3.08a.17.17,0,0,1-.34,0v-.51a1.58,1.58,0,0,1-1.28.67,1.71,1.71,0,0,1,0-3.41,1.58,1.58,0,0,1,1.28.67v-.5a.17.17,0,0,1,.34,0Zm-.34,1.54a1.28,1.28,0,1,0-1.28,1.37A1.33,1.33,0,0,0,183.61,208.33Z" style="fill:#263238"></path><path d="M186.59,206.79a.18.18,0,0,1-.17.17H186v2.48a.27.27,0,0,0,.25.25.19.19,0,0,1,.18.18.18.18,0,0,1-.18.16.57.57,0,0,1-.59-.59V207h-.43c-.17,0-.17-.08-.17-.17s0-.17.17-.17h.43v-1.26a.17.17,0,0,1,.16-.17.18.18,0,0,1,.18.17v1.26h.44A.18.18,0,0,1,186.59,206.79Z" style="fill:#263238"></path><path d="M188.19,205.68a.18.18,0,0,1,.17-.17.17.17,0,0,1,.17.17v.16a.17.17,0,0,1-.17.18.18.18,0,0,1-.17-.18Zm0,1.11a.17.17,0,0,1,.17-.17.16.16,0,0,1,.17.17v3.08a.16.16,0,0,1-.17.16.17.17,0,0,1-.17-.16Z" style="fill:#263238"></path><path d="M189.9,208.32a1.75,1.75,0,0,1,2.84-1.32.16.16,0,0,1,0,.23.18.18,0,0,1-.23,0,1.37,1.37,0,0,0-.88-.31,1.38,1.38,0,1,0,0,2.75,1.42,1.42,0,0,0,.88-.3.17.17,0,0,1,.23,0,.16.16,0,0,1,0,.24,1.74,1.74,0,0,1-1.07.36A1.72,1.72,0,0,1,189.9,208.32Z" style="fill:#263238"></path><path d="M199,208.77h-2.22l-.43,1.15a.17.17,0,0,1-.16.11h-.06a.18.18,0,0,1-.1-.23l1.69-4.51a.2.2,0,0,1,.17-.11.18.18,0,0,1,.16.11l1.7,4.51a.19.19,0,0,1-.1.23h-.06a.18.18,0,0,1-.16-.11Zm-2.09-.34h2l-1-2.61Z" style="fill:#263238"></path><path d="M200.71,208.38v-1.59a.17.17,0,1,1,.34,0v.5a1.6,1.6,0,0,1,1.29-.67,1.7,1.7,0,0,1,0,3.39,1.57,1.57,0,0,1-1.29-.67v1.95a.17.17,0,1,1-.34,0Zm.34-.07a1.3,1.3,0,1,0,2.6,0,1.3,1.3,0,1,0-2.6-.05Z" style="fill:#263238"></path><path d="M205.31,208.38v-1.59a.17.17,0,0,1,.16-.17.18.18,0,0,1,.18.17v.5a1.6,1.6,0,0,1,1.29-.67,1.7,1.7,0,0,1,0,3.39,1.57,1.57,0,0,1-1.29-.67v1.95a.18.18,0,0,1-.18.17.17.17,0,0,1-.16-.17Zm.34-.07a1.3,1.3,0,1,0,2.6,0,1.3,1.3,0,1,0-2.6-.05Z" style="fill:#263238"></path><path d="M209.59,208.34a1.65,1.65,0,1,1,3.3-.13h0v0a.16.16,0,0,1-.17.15h-2.8a1.34,1.34,0,0,0,1.33,1.31,1.28,1.28,0,0,0,1.09-.62.18.18,0,0,1,.23-.06.19.19,0,0,1,.05.24,1.61,1.61,0,0,1-1.37.77A1.68,1.68,0,0,1,209.59,208.34Zm.35-.28h2.59a1.32,1.32,0,0,0-1.28-1.1A1.34,1.34,0,0,0,209.94,208.06Z" style="fill:#263238"></path><path d="M216.93,206.79v3.08a.16.16,0,0,1-.16.16.17.17,0,0,1-.17-.16v-.51a1.6,1.6,0,0,1-1.28.67,1.71,1.71,0,0,1,0-3.41,1.6,1.6,0,0,1,1.28.67v-.5a.17.17,0,0,1,.17-.17A.16.16,0,0,1,216.93,206.79Zm-.33,1.54a1.28,1.28,0,1,0-1.28,1.37A1.33,1.33,0,0,0,216.6,208.33Z" style="fill:#263238"></path><path d="M218.39,206.8a.16.16,0,0,1,.17-.17.17.17,0,0,1,.16.17v.75a.22.22,0,0,1,.05-.08,1.64,1.64,0,0,1,1.36-.84.17.17,0,0,1,.17.17.18.18,0,0,1-.17.17,1.26,1.26,0,0,0-1,.55,3.31,3.31,0,0,0-.41.79.18.18,0,0,0,0,.06v1.5a.16.16,0,0,1-.16.16.16.16,0,0,1-.17-.16Z" style="fill:#263238"></path><path d="M224.13,206.79v3.08a.17.17,0,0,1-.34,0v-.51a1.58,1.58,0,0,1-1.28.67,1.71,1.71,0,0,1,0-3.41,1.58,1.58,0,0,1,1.28.67v-.5a.17.17,0,0,1,.34,0Zm-.34,1.54a1.28,1.28,0,1,0-1.28,1.37A1.33,1.33,0,0,0,223.79,208.33Z" style="fill:#263238"></path><path d="M228,208a1,1,0,0,0-1-1.05,1.06,1.06,0,0,0-1.06,1.05v1.87a.2.2,0,0,1,0,.08.13.13,0,0,1-.12.06h0a.22.22,0,0,1-.12-.09v0h0V206.8a.17.17,0,0,1,.17-.17.17.17,0,0,1,.16.17v.32a1.38,1.38,0,0,1,2.44.9v1.85a.17.17,0,0,1-.17.16.16.16,0,0,1-.16-.16Z" style="fill:#263238"></path><path d="M229.54,208.32a1.72,1.72,0,0,1,1.75-1.7,1.76,1.76,0,0,1,1.09.38.16.16,0,0,1,0,.23.18.18,0,0,1-.23,0,1.39,1.39,0,1,0-.88,2.44,1.44,1.44,0,0,0,.88-.3.17.17,0,0,1,.23,0,.16.16,0,0,1,0,.24,1.77,1.77,0,0,1-1.07.36A1.72,1.72,0,0,1,229.54,208.32Z" style="fill:#263238"></path><path d="M233.41,208.34a1.65,1.65,0,1,1,3.3-.13h0v0a.16.16,0,0,1-.17.15h-2.8a1.34,1.34,0,0,0,1.33,1.31,1.26,1.26,0,0,0,1.09-.62.18.18,0,0,1,.23-.06.19.19,0,0,1,.05.24,1.61,1.61,0,0,1-1.37.77A1.68,1.68,0,0,1,233.41,208.34Zm.35-.28h2.59a1.32,1.32,0,0,0-1.28-1.1A1.35,1.35,0,0,0,233.76,208.06Z" style="fill:#263238"></path><polygon points="154.95 247.7 173.99 247.52 193.03 247.46 231.1 247.33 269.18 247.45 288.22 247.52 307.26 247.7 288.22 247.89 269.18 247.95 231.1 248.08 193.03 247.95 173.99 247.89 154.95 247.7" style="fill:#ebebeb"></polygon><path d="M290.54,229.24H301.8a5.47,5.47,0,0,1,5.46,5.46h0a5.46,5.46,0,0,1-5.46,5.45H290.54a5.45,5.45,0,0,1-5.46-5.45h0A5.46,5.46,0,0,1,290.54,229.24Z" style="fill:#ebebeb"></path><path d="M286.15,234.7a4.37,4.37,0,1,1,4.37,4.37A4.37,4.37,0,0,1,286.15,234.7Z" style="fill:#fff"></path><path d="M160.07,232.41H158.6a.17.17,0,0,1-.17-.17.18.18,0,0,1,.17-.17h3.27a.18.18,0,0,1,.17.17.17.17,0,0,1-.17.17H160.4v4.37a.17.17,0,0,1-.17.16.16.16,0,0,1-.16-.16Z" style="fill:#263238"></path><path d="M162.55,233.71a.16.16,0,0,1,.17-.17.17.17,0,0,1,.16.17v.75a.56.56,0,0,1,.05-.08,1.64,1.64,0,0,1,1.36-.84.17.17,0,0,1,.17.17.17.17,0,0,1-.17.16,1.21,1.21,0,0,0-1,.56,3,3,0,0,0-.41.79.1.1,0,0,0,0,.06v1.5a.16.16,0,0,1-.16.16.16.16,0,0,1-.17-.16Z" style="fill:#263238"></path><path d="M165.54,233.69a.16.16,0,0,1,.16-.16.17.17,0,0,1,.17.16v1.86a1.05,1.05,0,1,0,2.1,0v-1.86a.17.17,0,0,1,.34,0v1.86a1.39,1.39,0,1,1-2.77,0Z" style="fill:#263238"></path><path d="M169.63,235.25a1.65,1.65,0,1,1,3.3-.13h0v0a.16.16,0,0,1-.17.15H170a1.34,1.34,0,0,0,1.33,1.31,1.29,1.29,0,0,0,1.1-.62.16.16,0,0,1,.22-.06.18.18,0,0,1,0,.24,1.61,1.61,0,0,1-1.37.77A1.68,1.68,0,0,1,169.63,235.25ZM170,235h2.58a1.31,1.31,0,0,0-2.58,0Z" style="fill:#263238"></path><path d="M177.54,232.41h-1.47a.16.16,0,0,1-.16-.17.17.17,0,0,1,.16-.17h3.27a.18.18,0,0,1,.17.17.17.17,0,0,1-.17.17h-1.46v4.37a.17.17,0,0,1-.34,0Z" style="fill:#263238"></path><path d="M181.23,233.53a1.71,1.71,0,1,1-1.61,1.71A1.67,1.67,0,0,1,181.23,233.53Zm0,3.08a1.38,1.38,0,0,0,0-2.75,1.38,1.38,0,0,0,0,2.75Z" style="fill:#263238"></path><path d="M186.57,234.93a1.06,1.06,0,0,0-1-1.06,1.07,1.07,0,0,0-1.06,1.06v1.87a.2.2,0,0,1,0,.08.13.13,0,0,1-.12.06h0a.17.17,0,0,1-.11-.09s0,0,0,0a0,0,0,0,0,0,0v-3.11a.17.17,0,0,1,.17-.17.17.17,0,0,1,.16.17V234a1.38,1.38,0,0,1,2.44.9v1.85a.17.17,0,0,1-.17.16.16.16,0,0,1-.16-.16Z" style="fill:#263238"></path><path d="M188.16,235.25a1.65,1.65,0,1,1,3.3-.13h0v0a.16.16,0,0,1-.17.15h-2.8a1.34,1.34,0,0,0,1.32,1.31,1.28,1.28,0,0,0,1.1-.62.18.18,0,0,1,.23-.06.19.19,0,0,1,.05.24,1.61,1.61,0,0,1-1.38.77A1.67,1.67,0,0,1,188.16,235.25Zm.35-.28h2.58a1.31,1.31,0,0,0-1.28-1.1A1.34,1.34,0,0,0,188.51,235Z" style="fill:#263238"></path><polygon points="154.95 300.59 173.99 300.41 193.03 300.35 231.1 300.22 269.18 300.35 288.22 300.41 307.26 300.59 288.22 300.78 269.18 300.84 231.1 300.97 193.03 300.84 173.99 300.78 154.95 300.59" style="fill:#ebebeb"></polygon><path d="M301.8,281.87H290.54a5.45,5.45,0,0,0-5.46,5.45h0a5.45,5.45,0,0,0,5.46,5.45H301.8a5.46,5.46,0,0,0,5.46-5.45h0A5.46,5.46,0,0,0,301.8,281.87Z" style="fill:#53BF80"></path><path d="M306.19,287.32a4.37,4.37,0,1,0-4.37,4.37A4.37,4.37,0,0,0,306.19,287.32Z" style="fill:#fff"></path><path d="M159,289.57h0a.17.17,0,0,1-.15-.17v-4.54a.16.16,0,0,1,.16-.16h.92a2.44,2.44,0,0,1,0,4.87Zm.9-.34a2.1,2.1,0,0,0,0-4.19h-.74v4.19Z" style="fill:#263238"></path><path d="M166,286.33v3.07a.18.18,0,0,1-.17.17.17.17,0,0,1-.16-.17v-.51a1.59,1.59,0,0,1-1.28.68,1.71,1.71,0,0,1,0-3.41,1.58,1.58,0,0,1,1.28.67v-.5a.16.16,0,0,1,.16-.17A.17.17,0,0,1,166,286.33Zm-.33,1.53a1.28,1.28,0,1,0-1.28,1.37A1.33,1.33,0,0,0,165.64,287.86Z" style="fill:#263238"></path><path d="M167.42,286.33a.16.16,0,0,1,.18-.16.16.16,0,0,1,.16.16v.75a.25.25,0,0,1,.05-.08,1.62,1.62,0,0,1,1.36-.83.16.16,0,0,1,.17.16.18.18,0,0,1-.17.17,1.23,1.23,0,0,0-1,.56,3,3,0,0,0-.41.79.13.13,0,0,0,0,0v1.5a.17.17,0,0,1-.16.17.17.17,0,0,1-.18-.17Z" style="fill:#263238"></path><path d="M170.48,284.86a.17.17,0,0,1,.34,0v3.28l2-2a.17.17,0,0,1,.24.24l-1.32,1.31,1.32,1.61a.16.16,0,0,1,0,.24.19.19,0,0,1-.11,0,.14.14,0,0,1-.13-.07l-1.31-1.57-.7.69v.78a.17.17,0,0,1-.34,0Z" style="fill:#263238"></path><path d="M180.3,285.39l-1.55,2.17a.19.19,0,0,1-.14.07h0a.15.15,0,0,1-.14-.07l-1.56-2.16v4a.18.18,0,0,1-.17.17.17.17,0,0,1-.17-.17v-4.51a.15.15,0,0,1,.07-.13h0a.17.17,0,0,1,.24,0l1.73,2.4,1.72-2.4a.17.17,0,0,1,.24,0l.05.05a.32.32,0,0,1,0,.09v4.51a.18.18,0,0,1-.17.17.17.17,0,0,1-.17-.17Z" style="fill:#263238"></path><path d="M183.8,286.16a1.71,1.71,0,1,1-1.61,1.7A1.67,1.67,0,0,1,183.8,286.16Zm0,3.07a1.37,1.37,0,1,0-1.28-1.37A1.33,1.33,0,0,0,183.8,289.23Z" style="fill:#263238"></path><path d="M189.43,288.91a1.63,1.63,0,0,1-1.31.66,1.71,1.71,0,0,1,0-3.41,1.61,1.61,0,0,1,1.31.67v-2a.17.17,0,0,1,.34,0v4.54a.17.17,0,1,1-.34,0Zm0-1v-.12a1.36,1.36,0,1,0,0,.12Z" style="fill:#263238"></path><path d="M191,287.87a1.65,1.65,0,0,1,3.3-.13h0v0a.17.17,0,0,1-.17.16h-2.8a1.34,1.34,0,0,0,1.33,1.3,1.27,1.27,0,0,0,1.1-.62.16.16,0,0,1,.22-.05.17.17,0,0,1,0,.23,1.62,1.62,0,0,1-1.37.78A1.68,1.68,0,0,1,191,287.87Zm.36-.27h2.58a1.3,1.3,0,0,0-2.58,0Z" style="fill:#263238"></path><polygon points="154.95 327.11 173.99 326.92 193.03 326.86 231.1 326.73 269.18 326.86 288.22 326.92 307.26 327.11 288.22 327.29 269.18 327.36 231.1 327.48 193.03 327.35 173.99 327.29 154.95 327.11" style="fill:#ebebeb"></polygon><path d="M301.8,308.41H290.54a5.45,5.45,0,0,0-5.46,5.45h0a5.45,5.45,0,0,0,5.46,5.45H301.8a5.46,5.46,0,0,0,5.46-5.45h0A5.46,5.46,0,0,0,301.8,308.41Z" style="fill:#53BF80"></path><path d="M306.19,313.86a4.37,4.37,0,1,0-4.37,4.37A4.37,4.37,0,0,0,306.19,313.86Z" style="fill:#fff"></path><path d="M161.65,313.84h-2.5v2.1a.18.18,0,0,1-.18.17.17.17,0,0,1-.16-.17V311.4a.17.17,0,0,1,.16-.17.18.18,0,0,1,.18.17v2.1h2.5v-2.1a.18.18,0,0,1,.17-.17.17.17,0,0,1,.17.17v4.54a.17.17,0,0,1-.17.17.18.18,0,0,1-.17-.17Z" style="fill:#263238"></path><path d="M163.68,311.75a.17.17,0,0,1,.16-.17.18.18,0,0,1,.18.17v.16a.18.18,0,0,1-.18.18.17.17,0,0,1-.16-.18Zm0,1.11a.16.16,0,0,1,.16-.16.17.17,0,0,1,.18.16v3.08a.18.18,0,0,1-.18.17.17.17,0,0,1-.16-.17Z" style="fill:#263238"></path><path d="M168.6,315.83a1.59,1.59,0,0,1-1.6,1.6,1.71,1.71,0,0,1-.71-.16.17.17,0,0,1-.07-.22.16.16,0,0,1,.22-.08,1.16,1.16,0,0,0,.56.13,1.26,1.26,0,0,0,1.27-1.27v-.41a1.54,1.54,0,0,1-1.27.66,1.69,1.69,0,0,1,0-3.38,1.57,1.57,0,0,1,1.27.66v-.5a.17.17,0,0,1,.17-.16.16.16,0,0,1,.16.16Zm-.33-1.44a1.27,1.27,0,1,0-1.27,1.37A1.31,1.31,0,0,0,168.27,314.39Z" style="fill:#263238"></path><path d="M172.73,314a1.09,1.09,0,0,0-2.17,0V316l0,0a.15.15,0,0,1-.1.09h-.05a.2.2,0,0,1-.13-.06s0,0,0-.06a.09.09,0,0,1,0-.05V311.4a.18.18,0,0,1,.17-.17.17.17,0,0,1,.17.17v1.8a1.4,1.4,0,0,1,1.08-.5,1.36,1.36,0,0,1,1.43,1.34v1.9a.18.18,0,0,1-.18.17.17.17,0,0,1-.16-.17Z" style="fill:#263238"></path><path d="M179,311.17a2.59,2.59,0,0,1,1.58.53.18.18,0,0,1,0,.24.16.16,0,0,1-.24,0,2.25,2.25,0,0,0-1.37-.47,2.13,2.13,0,1,0,0,4.25,2,2,0,0,0,1.35-.47.18.18,0,0,1,.25,0,.18.18,0,0,1,0,.25,2.66,2.66,0,0,1-1.58.53,2.47,2.47,0,1,1,0-4.94Z" style="fill:#263238"></path><path d="M183.34,312.7a1.71,1.71,0,1,1-1.62,1.7A1.67,1.67,0,0,1,183.34,312.7Zm0,3.07a1.38,1.38,0,1,0-1.28-1.37A1.34,1.34,0,0,0,183.34,315.77Z" style="fill:#263238"></path><path d="M188.67,314.09a1,1,0,0,0-1-1,1.07,1.07,0,0,0-1.06,1V316a.11.11,0,0,1,0,.07.17.17,0,0,1-.13.07h0a.18.18,0,0,1-.11-.1s0,0,0,0h0v-3.11a.17.17,0,0,1,.17-.17.17.17,0,0,1,.16.17v.33a1.38,1.38,0,0,1,2.44.89v1.85a.16.16,0,0,1-.16.17.17.17,0,0,1-.17-.17Z" style="fill:#263238"></path><path d="M191.69,312.86a.17.17,0,0,1-.16.17h-.44v2.48a.27.27,0,0,0,.25.25.18.18,0,0,1,0,.35.59.59,0,0,1-.6-.6V313h-.42c-.17,0-.17-.08-.17-.17s0-.16.17-.16h.42v-1.27a.18.18,0,0,1,.17-.17.19.19,0,0,1,.18.17v1.27h.44A.17.17,0,0,1,191.69,312.86Z" style="fill:#263238"></path><path d="M192.8,312.87a.17.17,0,0,1,.18-.17.17.17,0,0,1,.16.17v.75a.18.18,0,0,1,.05-.08,1.62,1.62,0,0,1,1.36-.84.17.17,0,0,1,.17.17.18.18,0,0,1-.17.17,1.24,1.24,0,0,0-1,.55,3.15,3.15,0,0,0-.41.8.11.11,0,0,0,0,.05v1.5a.17.17,0,0,1-.16.17.17.17,0,0,1-.18-.17Z" style="fill:#263238"></path><path d="M198.55,312.86v3.08a.17.17,0,0,1-.34,0v-.51a1.6,1.6,0,0,1-1.28.68,1.71,1.71,0,0,1,0-3.41,1.59,1.59,0,0,1,1.28.66v-.5a.17.17,0,0,1,.34,0Zm-.34,1.54a1.28,1.28,0,1,0-1.28,1.37A1.33,1.33,0,0,0,198.21,314.4Z" style="fill:#263238"></path><path d="M199.76,315.4a.16.16,0,0,1,.24,0,1.82,1.82,0,0,0,1,.39,1,1,0,0,0,.65-.21.5.5,0,0,0,.26-.41.53.53,0,0,0-.25-.42,1.61,1.61,0,0,0-.72-.25h0a2.23,2.23,0,0,1-.78-.26.74.74,0,0,1-.37-.62.85.85,0,0,1,.37-.66,1.47,1.47,0,0,1,.84-.23,1.84,1.84,0,0,1,1,.36.18.18,0,0,1,.05.24.16.16,0,0,1-.23.05A1.46,1.46,0,0,0,201,313a1.09,1.09,0,0,0-.65.19.53.53,0,0,0-.22.39.42.42,0,0,0,.2.34,1.62,1.62,0,0,0,.7.24h0a2.46,2.46,0,0,1,.83.28.81.81,0,0,1,0,1.38,1.36,1.36,0,0,1-.85.28,2.11,2.11,0,0,1-1.26-.49A.16.16,0,0,1,199.76,315.4Z" style="fill:#263238"></path><path d="M204.72,312.86a.18.18,0,0,1-.17.17h-.44v2.48a.27.27,0,0,0,.25.25.18.18,0,1,1,0,.35.58.58,0,0,1-.59-.6V313h-.43c-.17,0-.17-.08-.17-.17s0-.16.17-.16h.43v-1.27a.18.18,0,0,1,.16-.17.19.19,0,0,1,.18.17v1.27h.44A.17.17,0,0,1,204.72,312.86Z" style="fill:#263238"></path><path d="M208.48,311.4a.17.17,0,0,1,.16-.17h2.52a.18.18,0,0,1,.17.17.18.18,0,0,1-.17.18h-2.34v1.92h2.05a.17.17,0,0,1,.17.18.16.16,0,0,1-.17.16h-2.05v2.1a.17.17,0,0,1-.17.17.18.18,0,0,1-.17-.17Z" style="fill:#263238"></path><path d="M213.56,312.7a1.71,1.71,0,1,1-1.61,1.7A1.67,1.67,0,0,1,213.56,312.7Zm0,3.07a1.38,1.38,0,0,0,0-2.75,1.38,1.38,0,0,0,0,2.75Z" style="fill:#263238"></path><path d="M218.9,314.09a1,1,0,0,0-1.05-1,1.06,1.06,0,0,0-1.06,1V316s0,0,0,.07a.17.17,0,0,1-.13.07h0a.18.18,0,0,1-.11-.1s0,0,0,0h0v-3.11a.17.17,0,0,1,.17-.17.17.17,0,0,1,.16.17v.33a1.38,1.38,0,0,1,2.44.89v1.85a.16.16,0,0,1-.16.17.17.17,0,0,1-.17-.17Z" style="fill:#263238"></path><path d="M221.92,312.86a.17.17,0,0,1-.16.17h-.44v2.48a.26.26,0,0,0,.25.25.18.18,0,0,1,0,.35.59.59,0,0,1-.6-.6V313h-.43c-.16,0-.16-.08-.16-.17s0-.16.16-.16H221v-1.27a.18.18,0,0,1,.17-.17.19.19,0,0,1,.18.17v1.27h.44A.17.17,0,0,1,221.92,312.86Z" style="fill:#263238"></path><path d="M223.28,315.4a.16.16,0,0,1,.24,0,1.85,1.85,0,0,0,1,.39,1,1,0,0,0,.65-.21.5.5,0,0,0,.26-.41.53.53,0,0,0-.25-.42,1.61,1.61,0,0,0-.72-.25h0a2.23,2.23,0,0,1-.78-.26.74.74,0,0,1-.37-.62.85.85,0,0,1,.37-.66,1.47,1.47,0,0,1,.84-.23,1.84,1.84,0,0,1,1,.36.18.18,0,0,1,.05.24.16.16,0,0,1-.23.05,1.46,1.46,0,0,0-.83-.34,1.09,1.09,0,0,0-.65.19.51.51,0,0,0-.21.39.4.4,0,0,0,.19.34,1.62,1.62,0,0,0,.7.24h0a2.46,2.46,0,0,1,.83.28.81.81,0,0,1,0,1.38,1.36,1.36,0,0,1-.85.28,2.11,2.11,0,0,1-1.26-.49A.16.16,0,0,1,223.28,315.4Z" style="fill:#263238"></path><polygon points="154.95 274.06 173.98 273.88 193.02 273.81 231.1 273.68 269.18 273.81 288.21 273.87 307.25 274.06 288.21 274.24 269.18 274.31 231.1 274.43 193.02 274.31 173.98 274.24 154.95 274.06" style="fill:#ebebeb"></polygon><path d="M301.8,266.24H290.53a5.45,5.45,0,0,1-5.45-5.45h0a5.45,5.45,0,0,1,5.45-5.45H301.8a5.45,5.45,0,0,1,5.45,5.45h0A5.45,5.45,0,0,1,301.8,266.24Z" style="fill:#53BF80"></path><circle cx="301.81" cy="260.79" r="4.37" style="fill:#fff"></circle><path d="M159.16,258.88v4a.17.17,0,0,1-.17.17.17.17,0,0,1-.16-.17V258.4a.16.16,0,0,1,.06-.18.17.17,0,0,1,.24,0l3,4.09v-4a.16.16,0,0,1,.16-.16.17.17,0,0,1,.18.16v4.49a.18.18,0,0,1-.31.11l0,0Z" style="fill:#263238"></path><path d="M164.11,258.68a.17.17,0,0,1,.16-.17.18.18,0,0,1,.18.17v.16a.18.18,0,0,1-.18.18.17.17,0,0,1-.16-.18Zm0,1.11a.16.16,0,0,1,.16-.16.17.17,0,0,1,.18.16v3.08a.18.18,0,0,1-.18.17.17.17,0,0,1-.16-.17Z" style="fill:#263238"></path><path d="M169,262.77a1.61,1.61,0,0,1-1.61,1.6,1.89,1.89,0,0,1-.71-.16.19.19,0,0,1-.07-.23.15.15,0,0,1,.22-.07,1.31,1.31,0,0,0,.56.12,1.26,1.26,0,0,0,1.27-1.26v-.42a1.54,1.54,0,0,1-1.27.67,1.7,1.7,0,0,1,0-3.39,1.54,1.54,0,0,1,1.27.67v-.51a.18.18,0,0,1,.18-.16.17.17,0,0,1,.16.16Zm-.34-1.45a1.27,1.27,0,1,0-1.27,1.37A1.31,1.31,0,0,0,168.7,261.32Z" style="fill:#263238"></path><path d="M173.16,261a1,1,0,0,0-1.09-1,1,1,0,0,0-1.07,1v1.92s0,0,0,0l0,0a.14.14,0,0,1-.1.08h-.05a.16.16,0,0,1-.13-.06l0-.05a.13.13,0,0,1,0-.06v-4.54a.17.17,0,0,1,.17-.16.17.17,0,0,1,.18.16v1.8a1.42,1.42,0,0,1,2.5.84v1.9a.17.17,0,0,1-.34,0Z" style="fill:#263238"></path><path d="M176.11,259.79a.17.17,0,0,1-.16.17h-.44v2.49a.27.27,0,0,0,.25.25.17.17,0,0,1,0,.34.58.58,0,0,1-.6-.59V260h-.42c-.17,0-.17-.08-.17-.17s0-.16.17-.16h.42v-1.27a.17.17,0,0,1,.17-.16.18.18,0,0,1,.18.16v1.27H176A.17.17,0,0,1,176.11,259.79Z" style="fill:#263238"></path><path d="M179.65,262.13a.15.15,0,0,1,.22,0,2.66,2.66,0,0,0,1.6.62,1.79,1.79,0,0,0,1.07-.32.9.9,0,0,0,.42-.72.77.77,0,0,0-.4-.67,3.21,3.21,0,0,0-1.13-.4h0a2.9,2.9,0,0,1-1.15-.41,1,1,0,0,1-.5-.85,1.13,1.13,0,0,1,.51-.91,2,2,0,0,1,1.18-.35,2.68,2.68,0,0,1,1.5.56.16.16,0,0,1,0,.22.15.15,0,0,1-.21,0,2.42,2.42,0,0,0-1.33-.52,1.7,1.7,0,0,0-1,.3.84.84,0,0,0-.38.66.73.73,0,0,0,.36.6,2.85,2.85,0,0,0,1,.36h0a3.48,3.48,0,0,1,1.24.45,1.09,1.09,0,0,1,.53.92,1.2,1.2,0,0,1-.55,1,2.11,2.11,0,0,1-1.25.38,3,3,0,0,1-1.8-.7A.16.16,0,0,1,179.65,262.13Z" style="fill:#263238"></path><path d="M187,261a1,1,0,0,0-1.09-1,1,1,0,0,0-1.07,1v1.92s0,0,0,0a0,0,0,0,0,0,0,.18.18,0,0,1-.11.08h0a.16.16,0,0,1-.13-.06l0-.05a.13.13,0,0,1,0-.06v-4.54a.17.17,0,0,1,.17-.16.17.17,0,0,1,.18.16v1.8a1.42,1.42,0,0,1,2.5.84v1.9a.17.17,0,0,1-.34,0Z" style="fill:#263238"></path><path d="M188.72,258.68a.18.18,0,0,1,.17-.17.17.17,0,0,1,.17.17v.16a.17.17,0,0,1-.17.18.18.18,0,0,1-.17-.18Zm0,1.11a.17.17,0,0,1,.17-.16.16.16,0,0,1,.17.16v3.08a.17.17,0,0,1-.17.17.18.18,0,0,1-.17-.17Z" style="fill:#263238"></path><path d="M192.17,258.35a.16.16,0,0,1-.16.16c-.24,0-.36.05-.43.14a.8.8,0,0,0-.14.56v.36h.48a.18.18,0,0,1,.17.17.17.17,0,0,1-.17.17h-.48v3a.17.17,0,0,1-.17.16.16.16,0,0,1-.17-.16v-3h-.46a.16.16,0,0,1-.16-.17.17.17,0,0,1,.16-.17h.46v-.36a1.16,1.16,0,0,1,.22-.79.92.92,0,0,1,.69-.25A.17.17,0,0,1,192.17,258.35Z" style="fill:#263238"></path><path d="M194.38,259.79a.17.17,0,0,1-.16.17h-.44v2.49a.27.27,0,0,0,.25.25.17.17,0,1,1,0,.34.58.58,0,0,1-.6-.59V260H193c-.16,0-.16-.08-.16-.17s0-.16.16-.16h.43v-1.27a.17.17,0,0,1,.17-.16.18.18,0,0,1,.18.16v1.27h.44A.17.17,0,0,1,194.38,259.79Z" style="fill:#263238"></path><rect x="250.23" y="378.55" width="54.19" height="14.77" style="fill:#53BF80"></rect><path d="M267.76,387.21a.43.43,0,0,1,.59-.06,2.68,2.68,0,0,0,1.55.63,1.76,1.76,0,0,0,1-.3.76.76,0,0,0,.35-.59.47.47,0,0,0-.08-.26.78.78,0,0,0-.24-.24,3.16,3.16,0,0,0-1.11-.38h0a4.61,4.61,0,0,1-1.05-.32,1.84,1.84,0,0,1-.75-.63,1.28,1.28,0,0,1-.19-.67,1.49,1.49,0,0,1,.65-1.18,2.38,2.38,0,0,1,1.41-.43,3.18,3.18,0,0,1,1.77.65.42.42,0,0,1,.11.57.41.41,0,0,1-.58.12,2.38,2.38,0,0,0-1.3-.52,1.56,1.56,0,0,0-.91.28.64.64,0,0,0-.31.51.35.35,0,0,0,.06.23.83.83,0,0,0,.21.21,2.78,2.78,0,0,0,1,.36h0a4.59,4.59,0,0,1,1.12.34,1.91,1.91,0,0,1,.81.67,1.35,1.35,0,0,1,.19.69,1.56,1.56,0,0,1-.7,1.26,2.52,2.52,0,0,1-1.5.46,3.52,3.52,0,0,1-2.08-.81A.43.43,0,0,1,267.76,387.21Z" style="fill:#fff"></path><path d="M276.13,387.28h-2l-.4,1.06a.45.45,0,0,1-.42.28l-.16,0a.47.47,0,0,1-.27-.59l1.8-4.78a.44.44,0,0,1,.43-.28.43.43,0,0,1,.43.28l1.79,4.78a.46.46,0,0,1-.27.59l-.15,0a.42.42,0,0,1-.41-.28Zm-.33-.89-.66-1.75-.66,1.75Z" style="fill:#fff"></path><path d="M279.59,388.54s0,0,0,0,0,0,0,0l0,0h0a.25.25,0,0,0,0-.07l-2-4.74a.42.42,0,0,1,.25-.57.43.43,0,0,1,.57.23l1.58,3.76,1.59-3.76A.43.43,0,0,1,282,383a.44.44,0,0,1,.25.57l-2,4.74,0,.07h0l0,0,0,0s0,0-.05,0h0l-.07,0s0,0,0,0h-.33a0,0,0,0,0,0,0h0l-.08,0Z" style="fill:#fff"></path><path d="M283.59,388.17v-4.79a.43.43,0,0,1,.45-.44h2.65a.45.45,0,0,1,.45.44.46.46,0,0,1-.45.46h-2.2v1.49h1.89a.45.45,0,1,1,0,.9h-1.89v1.49h2.2a.45.45,0,0,1,0,.9H284A.44.44,0,0,1,283.59,388.17Z" style="fill:#fff"></path><rect x="157.78" y="378.55" width="54.19" height="14.77" style="fill:#ebebeb"></rect><path d="M167.92,388.17v-4.79a.43.43,0,0,1,.44-.44h1a2.84,2.84,0,0,1,0,5.68h-1A.44.44,0,0,1,167.92,388.17Zm.9-.45h.5a1.94,1.94,0,0,0,0-3.88h-.5Z" style="fill:#fff"></path><path d="M173.4,383.38a.44.44,0,0,1,.45-.44.45.45,0,0,1,.45.44v4.79a.45.45,0,0,1-.45.45.44.44,0,0,1-.45-.45Z" style="fill:#fff"></path><path d="M175.64,387.21a.44.44,0,0,1,.6-.06,2.62,2.62,0,0,0,1.55.63,1.73,1.73,0,0,0,1-.3.73.73,0,0,0,.35-.59.46.46,0,0,0-.07-.26.72.72,0,0,0-.25-.24,3.09,3.09,0,0,0-1.11-.38h0a4.46,4.46,0,0,1-1.05-.32,1.81,1.81,0,0,1-.76-.63,1.27,1.27,0,0,1-.18-.67,1.46,1.46,0,0,1,.65-1.18,2.35,2.35,0,0,1,1.4-.43,3.15,3.15,0,0,1,1.77.65.41.41,0,0,1,.11.57.4.4,0,0,1-.57.12,2.41,2.41,0,0,0-1.31-.52,1.59,1.59,0,0,0-.91.28.64.64,0,0,0-.31.51.41.41,0,0,0,.06.23.74.74,0,0,0,.22.21,2.72,2.72,0,0,0,1,.36h0a4.46,4.46,0,0,1,1.12.34,1.85,1.85,0,0,1,.81.67,1.36,1.36,0,0,1,.2.69,1.56,1.56,0,0,1-.7,1.26,2.57,2.57,0,0,1-1.5.46,3.47,3.47,0,0,1-2.08-.81A.44.44,0,0,1,175.64,387.21Z" style="fill:#fff"></path><path d="M181,385.7a3,3,0,0,1,3-2.92,3,3,0,0,1,1.88.63.47.47,0,0,1-.57.74,2,2,0,0,0-1.31-.45,2.13,2.13,0,0,0-1.46.59,2,2,0,0,0,0,2.82,2.13,2.13,0,0,0,1.46.59,2,2,0,0,0,1.31-.45.47.47,0,0,1,.57.74,3,3,0,0,1-1.88.63A3,3,0,0,1,181,385.7Z" style="fill:#fff"></path><path d="M190.27,387.28h-2l-.4,1.06a.44.44,0,0,1-.42.28l-.15,0a.46.46,0,0,1-.27-.59l1.79-4.78a.44.44,0,0,1,.43-.28.43.43,0,0,1,.43.28l1.8,4.78a.47.47,0,0,1-.27.59l-.16,0a.44.44,0,0,1-.41-.28Zm-.33-.89-.66-1.75-.66,1.75Z" style="fill:#fff"></path><path d="M196.38,388a.46.46,0,0,1-.29.57l-.18,0h0a.6.6,0,0,1-.32-.09.7.7,0,0,1-.26-.28,2.13,2.13,0,0,1-.17-1,.69.69,0,0,0-.1-.35.66.66,0,0,0-.24-.23,1.46,1.46,0,0,0-.46-.2h-1v1.76a.46.46,0,0,1-.46.45.45.45,0,0,1-.45-.45v-4.79a.44.44,0,0,1,.45-.44h1.45a1.74,1.74,0,0,1,1.11,3.08,1.16,1.16,0,0,1,.28.3,1.52,1.52,0,0,1,.27.87,2.36,2.36,0,0,0,0,.48A.45.45,0,0,1,196.38,388Zm-1.14-3.27a.83.83,0,0,0-.84-.84h-1v1.67h1A.83.83,0,0,0,195.24,384.68Z" style="fill:#fff"></path><path d="M197.69,388.17v-4.79a.44.44,0,0,1,.45-.44h1a2.84,2.84,0,0,1,0,5.68h-1A.45.45,0,0,1,197.69,388.17Zm.9-.45h.51a1.94,1.94,0,0,0,0-3.88h-.51Z" style="fill:#fff"></path><path d="M158.65,142.06h0a.16.16,0,0,1-.15-.16v-4.37a.16.16,0,0,1,.16-.16h.88a2.35,2.35,0,0,1,0,4.69Zm.87-.33a2,2,0,0,0,2-2,2,2,0,0,0-2-2h-.71v4Z" style="fill:#a6a6a6"></path><path d="M163,137.53a.17.17,0,0,1,.16-.16.17.17,0,0,1,.17.16v4.37a.16.16,0,0,1-.17.16.16.16,0,0,1-.16-.16Z" style="fill:#a6a6a6"></path><path d="M164.8,141.19a.13.13,0,0,1,.2,0,2.65,2.65,0,0,0,1.54.6,1.78,1.78,0,0,0,1-.31.88.88,0,0,0,.4-.7.76.76,0,0,0-.38-.64,3.13,3.13,0,0,0-1.09-.38h0a2.85,2.85,0,0,1-1.11-.4,1,1,0,0,1-.48-.81,1.07,1.07,0,0,1,.49-.88,1.87,1.87,0,0,1,1.13-.34,2.6,2.6,0,0,1,1.45.54.15.15,0,0,1-.16.25,2.35,2.35,0,0,0-1.29-.5,1.76,1.76,0,0,0-1,.28.84.84,0,0,0-.36.65.68.68,0,0,0,.34.57,2.83,2.83,0,0,0,1,.35h0a3.14,3.14,0,0,1,1.19.43,1.05,1.05,0,0,1,.52.88,1.17,1.17,0,0,1-.53.94,2,2,0,0,1-1.21.37,2.93,2.93,0,0,1-1.72-.68A.14.14,0,0,1,164.8,141.19Z" style="fill:#a6a6a6"></path><path d="M169.48,137.53a.17.17,0,0,1,.16-.16H171a1.34,1.34,0,0,1,0,2.68h-1.16v1.84a.16.16,0,0,1-.17.16.16.16,0,0,1-.16-.16Zm1.49,2.2a1,1,0,0,0,0-2h-1.16v2Z" style="fill:#a6a6a6"></path><path d="M173.57,142.06h0a.16.16,0,0,1-.16-.16v-4.37a.17.17,0,0,1,.16-.16.17.17,0,0,1,.17.16v4.2H176a.17.17,0,0,1,.16.17.16.16,0,0,1-.16.16Z" style="fill:#a6a6a6"></path><path d="M179.73,140.85H177.6l-.42,1.11a.18.18,0,0,1-.15.1H177a.19.19,0,0,1-.1-.22l1.63-4.35a.19.19,0,0,1,.16-.1.16.16,0,0,1,.16.1l1.63,4.35a.18.18,0,0,1-.09.22h-.06a.18.18,0,0,1-.15-.1Zm-2-.33h1.89l-.94-2.52Z" style="fill:#a6a6a6"></path><path d="M182.28,139.81l-1.57-2.15a.18.18,0,0,1,0-.23.16.16,0,0,1,.23,0l1.47,2,1.47-2a.16.16,0,1,1,.26.2l-1.57,2.14v2.1a.15.15,0,0,1-.16.16.16.16,0,0,1-.16-.16Z" style="fill:#a6a6a6"></path><path d="M158.51,160.55a.17.17,0,0,1,.16-.17h1.09A1.22,1.22,0,0,1,161,161.6a1.24,1.24,0,0,1-.47,1,1.38,1.38,0,0,1-.44,2.7h-1.39a.16.16,0,0,1-.16-.16Zm1.25,1.91a.87.87,0,1,0,0-1.74h-.91v1.74Zm.3,2.45a1.05,1.05,0,1,0,0-2.1h-1.21v2.1Z" style="fill:#263238"></path><path d="M162.57,162a.16.16,0,0,1,.17-.17.17.17,0,0,1,.16.17v.75a.22.22,0,0,1,0-.08,1.64,1.64,0,0,1,1.36-.84.17.17,0,0,1,.17.17.18.18,0,0,1-.17.17,1.22,1.22,0,0,0-1,.55,3.28,3.28,0,0,0-.42.8.11.11,0,0,0,0,.05v1.5a.16.16,0,0,1-.16.16.16.16,0,0,1-.17-.16Z" style="fill:#263238"></path><path d="M165.63,160.9a.18.18,0,0,1,.17-.17.17.17,0,0,1,.17.17v.16a.17.17,0,0,1-.17.18.18.18,0,0,1-.17-.18Zm0,1.11a.17.17,0,0,1,.17-.17.16.16,0,0,1,.17.17v3.08a.16.16,0,0,1-.17.16.17.17,0,0,1-.17-.16Z" style="fill:#263238"></path><path d="M170.56,165a1.6,1.6,0,0,1-1.61,1.6,1.75,1.75,0,0,1-.71-.16.18.18,0,0,1-.07-.22.17.17,0,0,1,.23-.08,1.12,1.12,0,0,0,.55.13,1.27,1.27,0,0,0,1.28-1.27v-.42a1.54,1.54,0,0,1-1.28.67,1.7,1.7,0,0,1,0-3.39,1.6,1.6,0,0,1,1.28.67V162a.17.17,0,0,1,.17-.17.17.17,0,0,1,.16.17Zm-.33-1.44a1.27,1.27,0,1,0-1.28,1.37A1.31,1.31,0,0,0,170.23,163.54Z" style="fill:#263238"></path><path d="M174.68,163.19a1.08,1.08,0,0,0-2.16,0v1.95s0,0,0,0a.17.17,0,0,1-.11.09h0a.24.24,0,0,1-.14-.05.14.14,0,0,1,0-.06.09.09,0,0,1,0,0v-4.54a.17.17,0,0,1,.34,0v1.8a1.41,1.41,0,0,1,1.08-.51,1.36,1.36,0,0,1,1.42,1.35v1.9a.16.16,0,0,1-.17.16.17.17,0,0,1-.17-.16Z" style="fill:#263238"></path><path d="M177.64,162a.19.19,0,0,1-.17.17H177v2.48a.27.27,0,0,0,.25.25.19.19,0,0,1,.18.18.18.18,0,0,1-.18.16.57.57,0,0,1-.59-.59v-2.48h-.43c-.17,0-.17-.09-.17-.17s0-.17.17-.17h.43v-1.26a.17.17,0,0,1,.16-.17.18.18,0,0,1,.18.17v1.26h.44A.19.19,0,0,1,177.64,162Z" style="fill:#263238"></path><path d="M181.67,163.24a1,1,0,0,0-1-1.05,1.07,1.07,0,0,0-1.06,1.05v1.87s0,.06,0,.08a.16.16,0,0,1-.13.06h0a.14.14,0,0,1-.11-.09s0,0,0,0h0V162a.17.17,0,0,1,.17-.17.17.17,0,0,1,.16.17v.33a1.38,1.38,0,0,1,2.44.89v1.85a.16.16,0,0,1-.16.16.17.17,0,0,1-.17-.16Z" style="fill:#263238"></path><path d="M183.26,163.56a1.65,1.65,0,1,1,3.3-.13h0v0a.16.16,0,0,1-.17.15h-2.8a1.34,1.34,0,0,0,1.33,1.31,1.29,1.29,0,0,0,1.1-.62.15.15,0,0,1,.22-.05.17.17,0,0,1,0,.23,1.61,1.61,0,0,1-1.37.77A1.68,1.68,0,0,1,183.26,163.56Zm.36-.28h2.58a1.31,1.31,0,0,0-2.58,0Z" style="fill:#263238"></path><path d="M187.51,164.54a.17.17,0,0,1,.24,0,1.76,1.76,0,0,0,1,.4,1,1,0,0,0,.65-.21.52.52,0,0,0,.25-.42.5.5,0,0,0-.24-.41,1.54,1.54,0,0,0-.72-.25h0a2.06,2.06,0,0,1-.77-.27.69.69,0,0,1-.37-.61.84.84,0,0,1,.37-.67,1.55,1.55,0,0,1,.84-.23,1.88,1.88,0,0,1,1,.37.18.18,0,0,1,.05.24.16.16,0,0,1-.23.05,1.46,1.46,0,0,0-.83-.34,1,1,0,0,0-.65.19.51.51,0,0,0-.22.39.42.42,0,0,0,.2.34,1.62,1.62,0,0,0,.69.24h0a2.54,2.54,0,0,1,.83.28.84.84,0,0,1,.38.69.86.86,0,0,1-.39.69,1.37,1.37,0,0,1-.85.27,2,2,0,0,1-1.26-.48A.16.16,0,0,1,187.51,164.54Z" style="fill:#263238"></path><path d="M190.87,164.54a.16.16,0,0,1,.23,0,1.79,1.79,0,0,0,1.05.4,1,1,0,0,0,.64-.21.51.51,0,0,0,.26-.42.53.53,0,0,0-.24-.41,1.54,1.54,0,0,0-.73-.25h0a1.94,1.94,0,0,1-.77-.27.69.69,0,0,1-.37-.61.84.84,0,0,1,.37-.67,1.51,1.51,0,0,1,.83-.23,1.91,1.91,0,0,1,1,.37.19.19,0,0,1,0,.24.17.17,0,0,1-.23.05,1.47,1.47,0,0,0-.84-.34,1,1,0,0,0-.64.19.51.51,0,0,0-.22.39.4.4,0,0,0,.19.34,1.73,1.73,0,0,0,.7.24h0a2.39,2.39,0,0,1,.83.28.84.84,0,0,1,.38.69.87.87,0,0,1-.38.69,1.37,1.37,0,0,1-.85.27,2,2,0,0,1-1.26-.48A.16.16,0,0,1,190.87,164.54Z" style="fill:#263238"></path><polygon points="154.95 194.63 173.99 194.45 193.03 194.39 231.1 194.26 269.18 194.38 288.22 194.45 307.26 194.63 288.22 194.82 269.18 194.88 231.1 195.01 193.03 194.88 173.99 194.82 154.95 194.63" style="fill:#ebebeb"></polygon><path d="M163.71,179.11a1.73,1.73,0,1,1-1.73-1.73A1.73,1.73,0,0,1,163.71,179.11Z" style="fill:#ebebeb"></path><ellipse cx="161.98" cy="175.91" rx="0.34" ry="0.72" style="fill:#ebebeb"></ellipse><path d="M160,176.61c.29.28.41.62.28.75s-.47,0-.75-.27-.41-.62-.28-.75S159.68,176.33,160,176.61Z" style="fill:#ebebeb"></path><path d="M158.79,178.77c.4,0,.72.15.72.34s-.32.33-.72.33-.72-.15-.72-.33S158.39,178.77,158.79,178.77Z" style="fill:#ebebeb"></path><path d="M159.49,181.12c.28-.28.61-.4.75-.27s0,.47-.28.75-.62.41-.75.27S159.2,181.41,159.49,181.12Z" style="fill:#ebebeb"></path><path d="M161.64,182.3c0-.4.15-.73.34-.73s.34.33.34.73-.15.72-.34.72S161.64,182.7,161.64,182.3Z" style="fill:#ebebeb"></path><path d="M164,181.6c-.28-.28-.41-.62-.27-.75s.46,0,.75.27.4.62.27.75S164.28,181.88,164,181.6Z" style="fill:#ebebeb"></path><ellipse cx="165.17" cy="179.11" rx="0.72" ry="0.34" style="fill:#ebebeb"></ellipse><path d="M164.48,177.09c-.29.28-.62.4-.75.27s0-.47.27-.75.62-.41.75-.27S164.76,176.81,164.48,177.09Z" style="fill:#ebebeb"></path><circle cx="302.55" cy="179.11" r="1.73" style="fill:#ebebeb"></circle><path d="M302.89,175.72c0,.59-.15,1.06-.34,1.06s-.33-.47-.33-1.06.15-1.06.33-1.06S302.89,175.14,302.89,175.72Z" style="fill:#ebebeb"></path><path d="M300.4,176.47c.42.42.64.86.51,1s-.57-.09-1-.51-.64-.85-.51-1S300,176.06,300.4,176.47Z" style="fill:#ebebeb"></path><ellipse cx="299.17" cy="179.11" rx="1.06" ry="0.34" style="fill:#ebebeb"></ellipse><path d="M299.92,181.26c.42-.42.86-.65,1-.51s-.09.57-.51,1-.86.64-1,.51S299.51,181.67,299.92,181.26Z" style="fill:#ebebeb"></path><ellipse cx="302.55" cy="182.49" rx="0.34" ry="1.06" style="fill:#ebebeb"></ellipse><path d="M304.71,181.74c-.42-.42-.65-.86-.51-1s.57.09,1,.51.65.85.52,1S305.12,182.15,304.71,181.74Z" style="fill:#ebebeb"></path><path d="M305.94,179.44c-.59,0-1.06-.15-1.06-.33s.47-.34,1.06-.34,1.06.15,1.06.34S306.52,179.44,305.94,179.44Z" style="fill:#ebebeb"></path><path d="M305.18,177c-.41.42-.85.65-1,.51s.09-.57.51-1,.85-.64,1-.51S305.6,176.54,305.18,177Z" style="fill:#ebebeb"></path><rect x="172.4" y="178.71" width="123.39" height="0.8" style="fill:#ebebeb"></rect><rect x="172.4" y="178.71" width="67.8" height="0.8" style="fill:#53BF80"></rect><circle cx="240.2" cy="179.11" r="1.44" style="fill:#53BF80"></circle></g><g id="freepik--Character--inject-26"><path d="M396,160.8c15.6,9.89,43.42,39,40.88,46.58-5.1,15.28-25.59,35.65-31,39.59-3.13,2.29-26.15-18.4-23.17-21.28,3.48-3.36,24.93-21.43,25.07-23.31.12-1.44-10.81-17.39-18.77-30.9C379.84,155.81,388.6,156.08,396,160.8Z" style="fill:#f7a9a0"></path><path d="M386.06,223.8s-10.23,5.86-16.73,10c-3.63,2.31-9.5,6.84-11.38,9.76-2.83,4.37-11.84,24.44-7,26.74,4.36,2.07,9.92-16.16,9.92-16.16s-7.24,17.9-1.52,19.43,9.25-19.9,9.25-19.9-7,18.56-.88,19.2c4.64.49,8.94-18.74,8.94-18.74s-5.92,16-1.17,16.7c5.25.79,10.33-16.72,10.33-16.72,12.38-.23,20-4.77,22.58-11C408.9,241.92,386.06,223.8,386.06,223.8Z" style="fill:#f7a9a0"></path><path d="M363,247.81c-.92,2.07-1.87,4.16-2.61,6.31s-1.41,4.32-1.94,6.53a39.36,39.36,0,0,0-1.27,8.78c.54-5.26,3.06-13,3.8-15.13s1.37-4.32,2.1-6.47C363.05,247.78,363,247.76,363,247.81Z" style="fill:#263238"></path><path d="M370.75,250.33c-1.06,2.7-2.22,5.34-3.17,8.08s-1.6,5.41-2.36,8.2c-.05.21.08.17.15,0,.86-2.76,1.87-5.24,2.77-8s1.69-5.53,2.68-8.23C370.84,250.31,370.77,250.29,370.75,250.33Z" style="fill:#263238"></path><path d="M377.84,251.3A64.76,64.76,0,0,0,373.93,264c-.05.22.12.15.18-.07,1.22-4.26,2.15-7.6,3.87-12.59C378,251.28,377.88,251.21,377.84,251.3Z" style="fill:#263238"></path><path d="M387.93,220.58l22.71,25.86s28.65-30.59,27.51-40.92S411.82,169.68,397.81,161s-15.67-.6-9.79,10.53,19,30.89,18.66,31.4S387.93,220.58,387.93,220.58Z" style="fill:#53BF80"></path><path d="M395,214.09a5.84,5.84,0,0,0-1.32,1.89,6.23,6.23,0,0,0,1.89-1.32,6.74,6.74,0,0,0,1.32-1.89A5.84,5.84,0,0,0,395,214.09Zm29.38-15.2a6.11,6.11,0,0,0-1.32,1.88,5.8,5.8,0,0,0,1.88-1.32,6.55,6.55,0,0,0,1.34-1.88A6,6,0,0,0,424.42,198.89ZM410.85,171a5.45,5.45,0,0,0-.58,1,5,5,0,0,0,1-.58Zm1.31,17.23a6.16,6.16,0,0,0-1.89-1.32,6.59,6.59,0,0,0,3.21,3.21A6.06,6.06,0,0,0,412.16,188.23Zm11.63,25.86a6,6,0,0,0-1.9-1.32,6.34,6.34,0,0,0,1.32,1.89,6.16,6.16,0,0,0,1.9,1.32A6.34,6.34,0,0,0,423.79,214.09Zm-25.1-52.31a6,6,0,0,0-1.9-1.33,6.26,6.26,0,0,0,1.33,1.89,6,6,0,0,0,1.89,1.32A6.29,6.29,0,0,0,398.69,161.78Zm12.82,78.92a6.19,6.19,0,0,0-1.88-1.32,5.8,5.8,0,0,0,1.32,1.88,5.9,5.9,0,0,0,1.88,1.32A6.5,6.5,0,0,0,411.51,240.7Zm-.28-18.83a6.06,6.06,0,0,0-2.27.41,6.8,6.8,0,0,0,4.54,0A6.1,6.1,0,0,0,411.23,221.87Zm26.86-16.79a6.21,6.21,0,0,0-2.18-.37,6.49,6.49,0,0,0-2.27.41,6.25,6.25,0,0,0,2.27.4,6.45,6.45,0,0,0,2.18-.37h0l.08,0Zm-17.72-25-.2.07a3.39,3.39,0,0,0,.41.15Zm-10.21,22.76a6.11,6.11,0,0,0-.41,2.28,6.25,6.25,0,0,0,.41,2.26,6,6,0,0,0,.39-2.26A6.09,6.09,0,0,0,410.16,202.84Zm-11.76-26a6.2,6.2,0,0,0-.4,2.26,6.31,6.31,0,0,0,.4,2.28,6.31,6.31,0,0,0,.4-2.28A6,6,0,0,0,398.4,176.88Z" style="fill:#fff"></path><path d="M403.81,228.88c-1.63-1.69-3.23-3.43-4.82-5.16-.76-.83-1.54-1.66-2.28-2.51s-1.68-1.8-2.4-2.78c-.06-.07,0-.15.09-.09.94.76,1.79,1.69,2.67,2.52s1.62,1.58,2.42,2.37c1.67,1.67,3.33,3.33,5,5,3.25,3.41,6.4,6.9,9.52,10.43a.09.09,0,0,1-.13.13C410.44,235.56,407.08,232.27,403.81,228.88Z" style="fill:#263238"></path><path d="M433.27,218c-7.91,12.71-22.63,28.43-22.63,28.43l-22.71-25.86s18.45-17.17,18.75-17.69-12.79-20.28-18.66-31.4c-2.75-5.2-3.85-9.75-2.81-12.22Z" style="opacity:0.1"></path><path d="M420.25,437.41c3.78-2,8.9-3,12.89-1.13.16.08.05.3-.09.3a59.52,59.52,0,0,0-12.62,1.33A.27.27,0,0,1,420.25,437.41Z" style="fill:#263238"></path><path d="M417.91,440.09c3.78-2,8.9-3,12.89-1.12.15.07.05.29-.1.29a59.49,59.49,0,0,0-12.61,1.33A.27.27,0,0,1,417.91,440.09Z" style="fill:#263238"></path><path d="M415.57,442.77c3.78-2,8.9-3,12.89-1.12.15.07.05.29-.1.29a59.42,59.42,0,0,0-12.61,1.33A.27.27,0,0,1,415.57,442.77Z" style="fill:#263238"></path><path d="M413.23,445.45c3.78-2,8.89-3,12.89-1.12.15.07,0,.29-.1.29A59.42,59.42,0,0,0,413.41,446,.27.27,0,0,1,413.23,445.45Z" style="fill:#263238"></path><path d="M413.48,435.64c3.55,1.3,7.55,1,11.26,1.18a.53.53,0,0,0,.47-.71.11.11,0,0,0,.05-.17,22.51,22.51,0,0,0-9.15-7.23c-2.13-.87-5.39-.9-6.27,1.78S411.4,434.88,413.48,435.64Zm-2.06-2.91c-2.13-4.18,3.35-3.39,4.9-2.68a23.19,23.19,0,0,1,2.87,1.62,65.59,65.59,0,0,1,5.44,4.1c-1.82-.19-3.64-.23-5.47-.35C417,435.27,412.59,435,411.42,432.73Z" style="fill:#263238"></path><path d="M436.72,425.5c-1.78-2.19-4.81-1-6.49.57a22.45,22.45,0,0,0-6,10,.11.11,0,0,0,.1.15.53.53,0,0,0,.69.49c3.42-1.47,7.25-2.62,10.11-5.1C436.81,430.16,438.4,427.58,436.72,425.5Zm-7,7.92c-1.66.76-3.35,1.44-5,2.27a66.47,66.47,0,0,1,3.63-5.77,24.18,24.18,0,0,1,2.11-2.53c1.19-1.21,6-3.9,5.53.77C435.76,430.73,431.74,432.51,429.75,433.42Z" style="fill:#263238"></path><path d="M462.63,431.65c.25,1.47.48,2.89.7,4.27,1.45,8.89,2.31,15.74,1.64,16.37-2.05,1.95-63.37,14.25-65.66,14s-1.63-6.83.37-9.2c1.22-1.44,9.59-7.63,16-12.26l0,0c4.11-3,7.38-5.31,7.38-5.31l-12.3-39.76L452,391.59S462.23,429.3,462.63,431.65Z" style="fill:#f7a9a0"></path><path d="M399.3,466.27c2.3.27,63.62-12,65.67-14,.66-.63-.19-7.48-1.64-16.36-.22-1.38-.45-2.81-.7-4.28-.14-.82-1.5-6-3.18-12.3l-40.12,8,3.74,12.08s-3.28,2.32-7.39,5.3l0,0c-6.38,4.63-14.76,10.81-16,12.26C397.69,459.44,397,466,399.3,466.27Z" style="fill:#ebebeb"></path><path d="M398.79,466.66c1.52.18,28.12-5.11,47.39-9.43,4.46-1,8.53-2,11.81-2.77,4.51-1.13,7.51-2,7.95-2.41.74-.73-4-25.87-4.78-28.78l-40.77,8.43,2.39,7.54s-21.6,15.56-23.65,18S396.46,466.37,398.79,466.66Z" style="fill:#53BF80"></path><path d="M399.76,463.85c10.46-2.42,52.87-11.19,63.4-12.79.08,0,.1.05,0,.07-10.31,2.62-52.8,11.05-63.38,12.89C399.57,464.06,399.54,463.9,399.76,463.85Z" style="fill:#263238"></path><path d="M410.79,422.06c-.44-.21-12.39-51.5-17.84-72.42-7.86-30.18-15.48-79.38-17.77-89.63a150.87,150.87,0,0,1-9.53-36.76s49.58,0,49.58,0,13,24.88,6.3,42.45c-.62,1.61,8.65,63.74,13.45,73.8,4.14,8.7,23,72.41,23,72.41Z" style="fill:#37474f"></path><path d="M411.06,411.55c1.21-.44,2.51-.66,3.76-1s2.64-.68,4-1c2.65-.6,5.32-1.17,8-1.75,5.32-1.15,10.66-2.23,16-3.31l4.38-.87a25.6,25.6,0,0,1,4.44-.67.08.08,0,0,1,0,.15,22.59,22.59,0,0,1-3.72,1.06c-1.32.32-2.65.63-4,.93-2.61.59-5.23,1.19-7.85,1.76-5.28,1.15-10.55,2.33-15.85,3.39-1.5.31-3,.62-4.51.87s-3,.64-4.54.75C411,411.92,410.84,411.63,411.06,411.55Z" style="fill:#263238"></path><path d="M388.16,257.73c.95,5.17,1.74,10.36,2.6,15.54.43,2.64,1,5.26,1.45,7.9s.85,5.18,1.26,7.77q2.52,15.66,5,31.3,1.25,7.77,2.5,15.53a142.3,142.3,0,0,0,3.12,15.15c1.37,5,3,9.9,4.49,14.84s3.12,10.12,4.67,15.18c3.09,10.06,2.65,11.77,5.42,21.93.34,1.27.69,2.53,1,3.79a.11.11,0,0,1-.22.06c-3.43-10-2.95-11.69-6.13-21.75S407,365,404,354.91A127.14,127.14,0,0,1,400.51,340c-.89-5.18-1.66-10.38-2.49-15.57q-2.49-15.66-5-31.3c-.82-5.13-1.72-10.25-2.36-15.41-.66-5.34-1.58-10.64-2.37-16-.2-1.3-.39-2.6-.56-3.91C387.7,257.57,388.1,257.45,388.16,257.73Z" style="fill:#263238"></path><path d="M345.52,440.83c4.22-.82,9.39-.2,12.63,2.79.13.11,0,.29-.18.25a59.07,59.07,0,0,0-12.43-2.51A.27.27,0,0,1,345.52,440.83Z" style="fill:#263238"></path><path d="M342.48,442.68c4.22-.81,9.39-.19,12.64,2.79.12.12-.05.3-.18.26a59.16,59.16,0,0,0-12.44-2.51A.27.27,0,0,1,342.48,442.68Z" style="fill:#263238"></path><path d="M339.44,444.54c4.22-.81,9.39-.2,12.64,2.79.12.12,0,.29-.18.25a59.67,59.67,0,0,0-12.44-2.51A.27.27,0,0,1,339.44,444.54Z" style="fill:#263238"></path><path d="M336.41,446.4c4.22-.82,9.39-.2,12.63,2.79.13.11,0,.29-.18.25a59.07,59.07,0,0,0-12.43-2.51A.27.27,0,0,1,336.41,446.4Z" style="fill:#263238"></path><path d="M339.59,437.11c3,2.31,6.89,3.23,10.39,4.5a.53.53,0,0,0,.66-.53.11.11,0,0,0,.1-.15,22.64,22.64,0,0,0-6.57-9.64c-1.77-1.47-4.87-2.48-6.51-.18S337.84,435.77,339.59,437.11Zm-1.1-3.39c-.77-4.63,4.22-2.23,5.48-1.09a24.3,24.3,0,0,1,2.25,2.4,65.06,65.06,0,0,1,4,5.55c-1.68-.73-3.4-1.31-5.11-2C343,437.81,338.92,436.27,338.49,433.72Z" style="fill:#263238"></path><path d="M364.8,434.4c-1-2.62-4.29-2.4-6.37-1.4a22.6,22.6,0,0,0-8.71,7.75.11.11,0,0,0,.06.17.52.52,0,0,0,.51.67c3.7-.38,7.7-.33,11.17-1.83C363.49,438.88,365.78,436.89,364.8,434.4Zm-9,5.47c-1.81.23-3.63.37-5.44.67a67.91,67.91,0,0,1,5.19-4.41,24.66,24.66,0,0,1,2.77-1.79c1.5-.79,6.93-1.91,5.05,2.39C362.32,439.11,357.94,439.59,355.78,439.87Z" style="fill:#263238"></path><path d="M387.82,436c0,2.5-1.08,27.56-1.86,28.05-2.38,1.51-64.93,1.69-67.12,1s-.27-7,2.15-9c1.48-1.17,10.89-5.62,18.05-8.93h0c4.6-2.12,8.27-3.78,8.27-3.78l-.2-7.34-.57-33.43H387.9S388.1,419.74,387.82,436Z" style="fill:#f7a9a0"></path><path d="M318.83,465c2.2.72,64.75.53,67.13-1,.78-.49,1.83-25.54,1.86-28,0-1.66.06-3.32.07-5H347.05l.08,5,.21,7.33s-3.67,1.66-8.27,3.78h0c-7.16,3.3-16.58,7.76-18.05,8.94C318.57,458,316.66,464.26,318.83,465Z" style="fill:#ebebeb"></path><path d="M317.36,465.49c1.45.47,28.57.48,48.31,0,4.57-.12,8.75-.26,12.12-.41,4.65-.23,7.76-.5,8.27-.82.87-.57,2.12-26.14,1.88-29.16l-41.33.22-.15,7.87S322,454.32,319.53,456.32,315.12,464.75,317.36,465.49Z" style="fill:#53BF80"></path><path d="M318.85,462.92c10.73-.33,54-.65,64.68-.16.08,0,.08.07,0,.07-10.63.56-53.95.53-64.68.27C318.62,463.09,318.62,462.93,318.85,462.92Z" style="fill:#263238"></path><path d="M395.2,267.61s-7.06,69.31-7.18,70.94c0,.64,3,85.34,3,85.34H344.33s1.67-79.36,2.38-89.15c.08-1.14,3.1-71.6,16.7-111.49H415.3s-.45,23.44-11.11,40.39A87,87,0,0,0,395.2,267.61Z" style="fill:#37474f"></path><path d="M347.28,415.14c1.28-.19,2.6-.14,3.88-.21s2.73-.13,4.09-.16c2.72,0,5.45-.08,8.17-.11,5.45-.06,10.89-.05,16.34,0,1.49,0,3,0,4.46,0a25.84,25.84,0,0,1,4.49.23.09.09,0,0,1,0,.16,23.64,23.64,0,0,1-3.86.29c-1.36.05-2.72.08-4.08.11-2.68.05-5.36.12-8,.15-5.41.07-10.81.16-16.21.15-1.54,0-3.07,0-4.6-.06s-3.08,0-4.59-.17C347.14,415.49,347.05,415.17,347.28,415.14Z" style="fill:#263238"></path><path d="M357.87,342.42c1.23-25,3.85-49.81,7.16-74.58,1.81-13.57,3.93-27.11,7.59-40.31a0,0,0,0,1,.09,0,322.06,322.06,0,0,0-6.45,36.64c-1.55,12.2-3,24.41-4.26,36.65-2.52,24.82-3.64,49.74-3.79,74.69-.09,14,.29,20.64.68,34.67,0,.14-.2.12-.21,0C356.62,385.23,356.65,367.43,357.87,342.42Z" style="fill:#263238"></path><path d="M360.37,232.91a.08.08,0,0,1,.16,0c-.2,2.95-.7,6.18.61,9,1.16,2.46,3.37,3.84,5.39,5.5.07.05,0,.15-.08.13-2.7-.82-5.38-2.31-6.44-5.07C358.81,239.35,359.46,236,360.37,232.91Z" style="fill:#263238"></path><path d="M382.87,266.09a50.27,50.27,0,0,1,6.49.21,42,42,0,0,0,6.34-.11,25.7,25.7,0,0,0,3.14-.52c1.07-.26,2.1-.66,3.15-.95a5.83,5.83,0,0,1,2.93.12c1.12.25,2.25.43,3.39.57a32.81,32.81,0,0,0,7.86.21c.1,0,.14.13,0,.15a32,32,0,0,1-6.69.7,26.33,26.33,0,0,1-3.44-.31,10.76,10.76,0,0,0-3.22-.42,28.21,28.21,0,0,0-3.14,1.05,24.55,24.55,0,0,1-3.18.65,33.63,33.63,0,0,1-6.5.2,29.37,29.37,0,0,1-7.24-1.11A.23.23,0,0,1,382.87,266.09Z" style="fill:#263238"></path><path d="M387.9,334.73l.06,0,.06,0s0,0,0,.07l0,.16a.05.05,0,0,1,0,0l0,0a.06.06,0,0,1-.06-.05.78.78,0,0,1,0-.16A.06.06,0,0,1,387.9,334.73Z" style="fill:#263238"></path><path d="M389.14,322.8q.62-6.74,1.32-13.47c.94-9,1.84-18,2.76-27,.53-5.09.91-10.23,1.74-15.29a.11.11,0,0,1,.22,0c-.08,4.5-.55,9-.94,13.49s-.78,9-1.2,13.48c-.84,9-1.64,18-2.7,26.95-.3,2.55-.62,5.09-.95,7.64s-.78,5.08-1.1,7.63c0,.1-.18.1-.17,0C388.52,331.79,388.73,327.29,389.14,322.8Z" style="fill:#263238"></path><path d="M382.46,167.45c3.21.39,6.28-4.85,7.4-8.63.09-.29-.6-3-1.31-6.42-.43-2.06-.85-4.36-1.09-6.49l-13,4.72a34.18,34.18,0,0,1,2.2,8,4.31,4.31,0,0,1,0,.88v.15C376.59,161.37,379.36,167.07,382.46,167.45Z" style="fill:#f7a9a0"></path><path d="M376.68,159.54v.15a9.54,9.54,0,0,0,1.37-.08c7.23-1,8.5-10,8.72-13.44l-12.28,4.47a33.92,33.92,0,0,1,2.18,8A4.33,4.33,0,0,1,376.68,159.54Z" style="fill:#263238"></path><path d="M387,125.43c3,5.11,4.07,19.44,1,23.93-4.44,6.51-13.62,9.24-19.64,3.47-5.83-5.6-6.94-23.74-3.34-28C370.29,118.51,382.52,117.89,387,125.43Z" style="fill:#f7a9a0"></path><path d="M363.6,133.66s.58,3.38,3,3.83c.2,0,11.37,14.23,22.67,9.9,0,0,6.12-12.23,1.48-20.67-3-5.46-7.43-6-7.43-6s-10.16-5.2-18.74.94S359.93,134.17,363.6,133.66Z" style="fill:#263238"></path><path d="M358.14,205.68l-4.68,25s55.47.78,68.5-.14c0,0-13.62-53.05-27.63-68.26-7-7.61-15.23-7-20.47-1.72C372.53,162,356.7,182.87,355,190.87,353.58,197.92,358.14,205.68,358.14,205.68Z" style="fill:#53BF80"></path><path d="M404.64,179.23q2,4.38,3.83,8.83-.3-1.35-.66-2.67c0-.13.15-.17.2,0a18.72,18.72,0,0,1,1,4,264.07,264.07,0,0,1,10.05,29.54c.52,1.89,1.05,3.79,1.48,5.7a58.68,58.68,0,0,1,1.31,6,.09.09,0,0,1-.17,0c-.64-1.68-1.08-3.46-1.57-5.19s-1-3.32-1.47-5c-1-3.39-2-6.77-3.1-10.15-2.09-6.66-4.41-13.26-6.76-19.84-1.34-3.76-2.82-7.48-4.27-11.2C404.48,179.2,404.61,179.15,404.64,179.23Z" style="fill:#263238"></path><path d="M395,214.09a5.84,5.84,0,0,0-1.32,1.89,6.23,6.23,0,0,0,1.89-1.32,6.74,6.74,0,0,0,1.32-1.89A5.84,5.84,0,0,0,395,214.09Zm-17-53.22a5.8,5.8,0,0,0-1.32,1.88,6.41,6.41,0,0,0,1.89-1.32,6.69,6.69,0,0,0,1.32-1.88A5.84,5.84,0,0,0,378,160.87Zm-16.11,47a5.8,5.8,0,0,0-1.32,1.88,5.8,5.8,0,0,0,1.88-1.32,6.26,6.26,0,0,0,1.33-1.89A5.86,5.86,0,0,0,361.92,207.89ZM365.7,222a6.23,6.23,0,0,0-1.89-1.32,6.11,6.11,0,0,0,1.32,1.88,6,6,0,0,0,1.89,1.32A6.5,6.5,0,0,0,365.7,222Zm18.15-34.63A6,6,0,0,0,382,186a6.74,6.74,0,0,0,3.21,3.2A6.14,6.14,0,0,0,383.85,187.36Zm27.38,34.51a6.06,6.06,0,0,0-2.27.41,6.8,6.8,0,0,0,4.54,0A6.1,6.1,0,0,0,411.23,221.87Zm-13.64-26.94a6.53,6.53,0,0,0-2.27.41,6.29,6.29,0,0,0,2.27.4,6.08,6.08,0,0,0,2.27-.4A6.53,6.53,0,0,0,397.59,194.93ZM368,191.67a6.24,6.24,0,0,0-2.26.4,6.24,6.24,0,0,0,2.26.4,6.31,6.31,0,0,0,2.28-.4A6.1,6.1,0,0,0,368,191.67ZM382,221.47a6.24,6.24,0,0,0-2.26.4,6.47,6.47,0,0,0,2.26.41,6.32,6.32,0,0,0,2.28-.41A6.31,6.31,0,0,0,382,221.47Zm2.28-50.53a6.31,6.31,0,0,0-2.28.4,6.31,6.31,0,0,0,2.28.4,6.2,6.2,0,0,0,2.26-.4A6.2,6.2,0,0,0,384.24,170.94Zm-15.06,2a6.64,6.64,0,0,0,0,4.54,6.54,6.54,0,0,0,.41-2.28A6.29,6.29,0,0,0,369.18,173Zm26.54,56.94a5.13,5.13,0,0,0-.31,1.13H396A5.13,5.13,0,0,0,395.72,229.9Zm-15.25-27.06a6.09,6.09,0,0,0-.39,2.28,6,6,0,0,0,.39,2.26,6,6,0,0,0,.4-2.26A5.91,5.91,0,0,0,380.47,202.84Zm29.69,0a6.11,6.11,0,0,0-.41,2.28,6.25,6.25,0,0,0,.41,2.26,6,6,0,0,0,.39-2.26A6.09,6.09,0,0,0,410.16,202.84Zm-11.76-26a6.2,6.2,0,0,0-.4,2.26,6.31,6.31,0,0,0,.4,2.28,6.31,6.31,0,0,0,.4-2.28A6,6,0,0,0,398.4,176.88Z" style="fill:#fff"></path><path d="M366.65,173c-8.24,15.84-15.59,36-17.23,36.81a97,97,0,0,1-17.85,3.48c-6.09.45-1.93,30.46,2.26,30.6,8.92.3,25.26-5.48,31.58-11.77,4.6-4.58,9.3-39.08,10.42-51.78C377.33,163.38,371.63,163.41,366.65,173Z" style="fill:#f7a9a0"></path><path d="M343.15,217.73s-2.69-1.5-11.58-4.48c-6.15-2.06-22.88-2.18-36.59,11.72-4.91,5-1.51,11,4.13,6.3a62.2,62.2,0,0,1,10.25-7.06s-1.57,7.79,1.58,11.15a85.2,85.2,0,0,0,8.86,8.18,19.81,19.81,0,0,0,1.68-1.52s7.93,3.72,14,1.34Z" style="fill:#f7a9a0"></path><path d="M326.31,213c-3.14,1.31-9.75,4.19-14.33,8.43-5.09,4.7-13.62,15.14-10.11,18.86,2.57,2.73,6.18-1,6.18-1s-2.62,5.06.25,7c2.61,1.78,5.23-1.24,5.23-1.24s-1.06,3.34,1.78,4.57c3.43,1.48,5.09-5.76,9.85-7.26C326.23,242,326.31,213,326.31,213Z" style="fill:#f7a9a0"></path><path d="M317.85,225.94a27.52,27.52,0,0,0-9.83,13.2c0,.14,0,.24.1.12A68.5,68.5,0,0,1,317.89,226S317.88,225.92,317.85,225.94Z" style="fill:#263238"></path><path d="M322.45,231.21c-2.22,1.72-7.37,7.63-9,13.77,0,.14.05.23.11.12a72.89,72.89,0,0,1,9-13.84A0,0,0,0,0,322.45,231.21Z" style="fill:#263238"></path><path d="M333,211l.88,34.14s28.78-4.61,34.19-14.82c4.69-8.86,7.65-38.12,9.37-56.08,1.17-12.19-3.85-12.39-10.7-3.91s-16.38,36.58-17.13,37.45S333,211,333,211Z" style="fill:#53BF80"></path><path d="M350,217.79a6.8,6.8,0,0,0,0,4.54,6,6,0,0,0,.4-2.27A5.82,5.82,0,0,0,350,217.79ZM369.18,173a6.64,6.64,0,0,0,0,4.54,6.31,6.31,0,0,0,.4-2.28A6.07,6.07,0,0,0,369.18,173ZM336.1,215.58a6.25,6.25,0,0,0-2.27.4,6.25,6.25,0,0,0,2.27.4,6,6,0,0,0,2.27-.4A6.22,6.22,0,0,0,336.1,215.58Zm14-9,0,.09.13,0ZM358,232.62a6.53,6.53,0,0,0-2.27.41,6.64,6.64,0,0,0,4.54,0A6.1,6.1,0,0,0,358,232.62Zm10-41a6.2,6.2,0,0,0-2.26.4,6.2,6.2,0,0,0,2.26.4,6.31,6.31,0,0,0,2.28-.4A6.1,6.1,0,0,0,368,191.67Zm-12.33,3.79a8,8,0,0,0-.94-.79c-.09.21-.17.42-.25.63a7.12,7.12,0,0,0,.62.72,6,6,0,0,0,1.89,1.32A6.36,6.36,0,0,0,355.68,195.46Zm-5.84,44.59a6.28,6.28,0,0,0-1.89-1.32,6.16,6.16,0,0,0,1.32,1.89,6.74,6.74,0,0,0,.71.61l.65-.21A7.28,7.28,0,0,0,349.84,240.05ZM365.7,222a6.16,6.16,0,0,0-1.9-1.32,6.31,6.31,0,0,0,1.33,1.88,6,6,0,0,0,1.89,1.32A6.5,6.5,0,0,0,365.7,222Zm-26,8.77a5.82,5.82,0,0,0-1.33,1.88,5.84,5.84,0,0,0,1.89-1.32,6.14,6.14,0,0,0,1.32-1.88A5.8,5.8,0,0,0,339.7,230.76Zm22.22-22.87a5.8,5.8,0,0,0-1.32,1.88,5.8,5.8,0,0,0,1.88-1.32,6.06,6.06,0,0,0,1.32-1.89A5.93,5.93,0,0,0,361.92,207.89Z" style="fill:#fff"></path><path d="M341.15,226.35c-.1-2.35-.15-4.71-.19-7.06,0-1.13-.06-2.26,0-3.39s-.07-2.46,0-3.68a.07.07,0,0,1,.13,0c.2,1.2.22,2.45.34,3.66s.16,2.25.24,3.38c.14,2.35.29,4.69.38,7.05.18,4.71.23,9.41.22,14.12a.09.09,0,0,1-.17,0C341.69,235.74,341.36,231.06,341.15,226.35Z" style="fill:#263238"></path><path d="M359.25,237.55a29.18,29.18,0,0,0,5.64-4,13.91,13.91,0,0,0,3.93-5.53,48.8,48.8,0,0,0,1.75-6.67c.5-2.26.92-4.53,1.32-6.81.75-4.56,1.54-9.12,2.19-13.71l2.13-13.73c-.27,4.63-.76,9.24-1.29,13.85s-1.21,9.2-2.1,13.76a72.07,72.07,0,0,1-3.51,13.5,15.05,15.05,0,0,1-4.25,5.54A27.65,27.65,0,0,1,359.25,237.55Z" style="fill:#263238"></path><path d="M375.55,195.54a24.78,24.78,0,0,1,1.32-6.94,25.57,25.57,0,0,1-1.32,6.94Z" style="fill:#263238"></path><path d="M367.7,163.1c-1.88-1.91-3.45-4-3.8-6.72a13.32,13.32,0,0,1,1.28-7.15,13.45,13.45,0,0,0-.79,4.47c.13,6,6.24,8.71,8.29,13.78a7.83,7.83,0,0,1,.23,4.81,26.12,26.12,0,0,0-1,4.86A9.7,9.7,0,0,0,375,184.5c2.32,2.18,5.43,2.73,8.51,2.54a20.63,20.63,0,0,0,9.83-2.93,13.67,13.67,0,0,0,5.55-6.73,11.52,11.52,0,0,0,.64-4.43c-.06-1.62-.32-3.23-.28-4.85a7.16,7.16,0,0,1,1.8-4.73c1.06-1.19,2.37-2.11,3.52-3.2l0,0c.36-.2.72-.4,1.07-.62a9.05,9.05,0,0,0,3.56-3.57,11.14,11.14,0,0,0,1.08-5.24,10.28,10.28,0,0,0-1.62-5.66,29.45,29.45,0,0,0-2.8-3.32c-1-1.28-2.37-2.4-3-4-.7-1.76,1-5.4-.93-8.81a13.83,13.83,0,0,0-6.37-5.53,11.72,11.72,0,0,0-2.47-2.6c-5.4-4.17-12.93-3.36-18.65-.28a14.37,14.37,0,0,0-6.2,5.88c-1.57,3.1-.83,6.38-.33,9.65a14.85,14.85,0,0,1,0,5.15,25.47,25.47,0,0,1-1.38,4.34c-.08.22-.17.44-.26.67a33.14,33.14,0,0,0-2,4.16,12.4,12.4,0,0,0-.62,6.92c1.18,5.23,7.07,7.31,8.55,12.36,0,.11.19.08.16,0C371.74,166.94,369.59,165,367.7,163.1Zm37.54-3.65a13.5,13.5,0,0,0,3.13-6.23,14.64,14.64,0,0,0-.48-7.79,13.24,13.24,0,0,0-1-2.23l.06.08a13.09,13.09,0,0,1,2.13,3.09,12,12,0,0,1,.47,7.66,8.92,8.92,0,0,1-4.19,5.36Z" style="fill:#263238"></path></g></svg>