<svg xmlns="http://www.w3.org/2000/svg" viewBox="0 0 500 500"><g id="freepik--background-complete--inject-12"><rect x="56.11" y="343.62" width="26.48" height="11.19" style="fill:#ebebeb"></rect><rect x="41.34" y="357.73" width="26.48" height="11.19" style="fill:#ebebeb"></rect><rect x="122.62" y="149.95" width="26.48" height="11.19" style="fill:#ebebeb"></rect><rect x="107.85" y="164.06" width="26.48" height="11.19" style="fill:#ebebeb"></rect><rect x="93.14" y="149.95" width="26.48" height="11.19" style="fill:#ebebeb"></rect><rect x="432.18" y="357.73" width="26.48" height="11.19" style="fill:#ebebeb"></rect><rect x="417.41" y="42.33" width="26.48" height="11.19" style="fill:#ebebeb"></rect><rect x="432.18" y="56.44" width="26.48" height="11.19" style="fill:#ebebeb"></rect><rect x="56.11" y="42.33" width="26.48" height="11.19" style="fill:#ebebeb"></rect><path d="M427.29,157.93l8.29-13.37L431.46,142a3.73,3.73,0,0,1-1.71-3.52,21.81,21.81,0,0,0,.08-2.29,3.77,3.77,0,0,1,1.95-3.44l4.24-2.28-7.44-13.86-4.24,2.27a3.66,3.66,0,0,1-3.85-.21,21,21,0,0,0-2.13-1.32,3.67,3.67,0,0,1-1.9-3.35l.15-4.82-15.72-.49-.15,4.84a3.68,3.68,0,0,1-2.13,3.22l-1.09.55c-.37.2-.72.4-1.07.61a3.66,3.66,0,0,1-3.85,0l-4.12-2.55-8.29,13.37,4.13,2.56a3.75,3.75,0,0,1,1.7,3.52,21.81,21.81,0,0,0-.08,2.29,3.76,3.76,0,0,1-1.95,3.43l-4.24,2.28,7.43,13.87,4.25-2.28a3.78,3.78,0,0,1,3.94.27,21.8,21.8,0,0,0,1.95,1.21,3.69,3.69,0,0,1,2,3.36l-.15,4.86,15.73.49.15-4.83a3.73,3.73,0,0,1,2.18-3.24c.35-.17.7-.34,1.05-.53s.68-.37,1-.57a3.72,3.72,0,0,1,3.92,0ZM415.4,147.12a12.89,12.89,0,1,1,4.55-15A12.9,12.9,0,0,1,415.4,147.12Z" style="fill:#ebebeb"></path><path d="M378.37,108.7l9.55-5.5-1.69-2.93a2.6,2.6,0,0,1,.1-2.74,15.55,15.55,0,0,0,.82-1.43,2.63,2.63,0,0,1,2.33-1.45h3.37v-11h-3.37a2.63,2.63,0,0,1-2.33-1.45,14.33,14.33,0,0,0-.82-1.43,2.62,2.62,0,0,1-.1-2.75l1.69-2.92-9.55-5.51-1.68,2.94a2.63,2.63,0,0,1-2.44,1.28l-.81,0-.81,0a2.6,2.6,0,0,1-2.42-1.28l-1.7-2.94L359,75.08,360.65,78a2.62,2.62,0,0,1-.09,2.75,14.25,14.25,0,0,0-.83,1.42,2.62,2.62,0,0,1-2.32,1.45H354v11h3.38a2.62,2.62,0,0,1,2.32,1.45,15.48,15.48,0,0,0,.83,1.42,2.62,2.62,0,0,1,.09,2.75L359,103.2l9.55,5.5,1.69-2.93a2.6,2.6,0,0,1,2.42-1.27l.82,0,.81,0a2.61,2.61,0,0,1,2.44,1.28Zm-4.93-10.53a9,9,0,1,1,9-9A9,9,0,0,1,373.44,98.17Z" style="fill:#ebebeb"></path><path d="M66.9,287.68a2.63,2.63,0,0,1,1.29,2.44c0,.27,0,.54,0,.81s0,.55,0,.82a2.61,2.61,0,0,1-1.28,2.42L64,295.86l5.51,9.55,2.93-1.69a2.6,2.6,0,0,1,2.74.09,15.64,15.64,0,0,0,1.43.83A2.62,2.62,0,0,1,78,307v3.37h11V307a2.62,2.62,0,0,1,1.44-2.33,15.64,15.64,0,0,0,1.43-.83,2.6,2.6,0,0,1,2.74-.09l2.93,1.69,5.51-9.55-2.94-1.7a2.6,2.6,0,0,1-1.28-2.42c0-.27,0-.54,0-.81s0-.54,0-.81a2.62,2.62,0,0,1,1.29-2.43l2.93-1.69-5.51-9.55-2.92,1.69a2.62,2.62,0,0,1-2.75-.1,14.17,14.17,0,0,0-1.42-.82,2.61,2.61,0,0,1-1.45-2.33v-3.37H78v3.37a2.61,2.61,0,0,1-1.45,2.33,14.17,14.17,0,0,0-1.42.82,2.62,2.62,0,0,1-2.75.1l-2.92-1.69L64,286Zm16.64-5.78a9,9,0,1,1-9,9A9,9,0,0,1,83.54,281.9Z" style="fill:#ebebeb"></path></g><g id="freepik--Shadow--inject-12"><ellipse cx="216.56" cy="452.57" rx="181.55" ry="16.09" style="fill:#ebebeb"></ellipse></g><g id="freepik--Floor--inject-12"><polygon points="37.59 418.49 90.69 418.25 143.79 418.16 250 417.99 356.2 418.16 409.31 418.25 462.41 418.49 409.31 418.74 356.2 418.82 250 418.99 143.79 418.82 90.69 418.74 37.59 418.49" style="fill:#263238"></polygon></g><g id="freepik--Plant--inject-12"><path d="M418.93,259.13S441.32,256,436.08,229C436.08,229,411.07,234.59,418.93,259.13Z" style="fill:#53BF80"></path><path d="M418.93,259.13S441.32,256,436.08,229C436.08,229,411.07,234.59,418.93,259.13Z" style="opacity:0.1"></path><path d="M420.06,253.49a41.7,41.7,0,0,1,1.53-4c0-.17,0-.34.05-.51,0-.37.07-.74.1-1.11.06-.81.11-1.62.16-2.42.09-1.62.2-3.23.22-4.85a.07.07,0,0,1,.14,0c0,1.62,0,3.24,0,4.85,0,.81-.07,1.62-.13,2.43,0,.17,0,.35,0,.53a49,49,0,0,1,4.49-7.67c.77-1.08,1.58-2.11,2.45-3.11s1.83-2,2.74-3c.06-.07.15,0,.09.1a40.12,40.12,0,0,0-4.31,5.73c-.68,1-1.32,2.09-1.94,3.16l.21-.08.8-.32,1.83-.69,3.6-1.34c.07,0,.12.1.05.12-1.19.48-2.37,1-3.55,1.49l-1.73.74-.87.37a3.25,3.25,0,0,1-.6.2c-.45.82-.9,1.63-1.31,2.46a58,58,0,0,0-2.73,6.45c-.06.15-.11.31-.16.46a12.28,12.28,0,0,1,1.83-.88l2.32-1.06c1.57-.72,3.13-1.45,4.63-2.3a.07.07,0,0,1,.07.12c-1.54.84-3.05,1.73-4.59,2.57-.77.42-1.54.82-2.33,1.21a7.39,7.39,0,0,1-2.11.84,26.51,26.51,0,0,0-1.46,6.35c-.25,3.05-.22,6.13-.3,9.2,0,.05-.07.05-.08,0-.22-2.77-.35-5.58-.36-8.37A24.52,24.52,0,0,1,420.06,253.49Z" style="fill:#263238"></path><path d="M423.51,237.6a27.07,27.07,0,0,1,.22,4.76s-.06,0-.07,0c-.09-1.58-.1-3.15-.28-4.73C423.37,237.55,423.5,237.51,423.51,237.6Z" style="fill:#263238"></path><path d="M429.91,239a17.07,17.07,0,0,0,2.88-1.41c.07,0,.14.07.06.12a11.23,11.23,0,0,1-2.9,1.39C429.89,239.06,429.85,239,429.91,239Z" style="fill:#263238"></path><path d="M418.22,302c0-2.47.06-4.94.09-7.42.05-8.21.11-16.43.26-24.64q.18-9.78.46-19.56a.11.11,0,0,1,.05-.09l0-5.34s.06-.07.11-.07.11,0,.11.07l0,5.35a.1.1,0,0,1,.05.08c.33,11.61.62,23.22.69,34.83,0,2.36,0,4.72,0,7.08q.12,11.35.09,22.7l0,3.62c0,6.92-.07,13.85-.08,20.77,0,.38-.41.56-.85.58s-1-.18-1-.61c0-7.63,0-15.27,0-22.91C418.2,311.66,418.18,306.85,418.22,302Z" style="fill:#263238"></path><path d="M427.56,294.52s10.77-8,21-2.59,11.82,26.17,11.82,26.17-15,2.15-24.45-6.85C426.81,302.58,427.56,294.52,427.56,294.52Z" style="fill:#53BF80"></path><path d="M424.63,295a12.85,12.85,0,0,1,6.24-.81,8.31,8.31,0,0,1,1.32-.13l1.51-.12,3.14-.22c2.13-.16,4.26-.29,6.38-.5.07,0,.09.13,0,.14-2.1.26-4.18.56-6.29.77-1.08.11-2.16.23-3.25.3l-.79.08q.5.11,1,.24a24.84,24.84,0,0,1,4.88,2c.85.15,1.69.39,2.52.58,1.33.32,2.66.66,4,1,2.62.68,5.21,1.45,7.8,2.21.09,0,0,.15,0,.13-2.59-.64-5.2-1.22-7.79-1.84-1.27-.3-2.53-.59-3.79-.9l-1-.23a31.27,31.27,0,0,1,7.65,6.65,41.75,41.75,0,0,1,5.32,8.39c0,.08-.07.15-.11.07a40.76,40.76,0,0,0-6.44-8.44c0,.14.09.28.14.43l.6,1.9c.4,1.27.8,2.53,1.18,3.81,0,.08-.1.11-.13,0-.46-1.23-.89-2.47-1.32-3.7-.22-.61-.43-1.21-.64-1.82-.11-.31-.22-.63-.32-.95,0-.09-.07-.19-.11-.28a38,38,0,0,0-3.82-3.26,29.37,29.37,0,0,0-5.71-3.28c0,.19.07.38.11.56.1.49.21,1,.31,1.47.21,1,.41,2,.61,3.06.41,2.09.66,4.2,1.05,6.28,0,.09-.11.12-.13,0-.49-2.09-1.11-4.15-1.58-6.26-.23-1.05-.47-2.1-.68-3.15-.11-.49-.2-1-.3-1.48-.06-.27-.12-.54-.16-.82-.19-.08-.38-.17-.58-.24a16.93,16.93,0,0,0-9-1.23,8.81,8.81,0,0,0-6.48,5.19c-.1.24-.47.09-.41-.15A8.32,8.32,0,0,1,424.63,295Z" style="fill:#263238"></path><path d="M441.11,303.88c.31,1.37.61,2.73.91,4.1a30,30,0,0,1,.75,4c0,.05-.07.05-.08,0a30.63,30.63,0,0,1-.92-4c-.26-1.35-.53-2.7-.79-4C441,303.83,441.09,303.8,441.11,303.88Z" style="fill:#263238"></path><path d="M451.53,307.35c1.37.7,2.7,1.49,4.13,2.06.09,0,0,.17-.06.12a43.22,43.22,0,0,1-4.11-2.13S451.49,307.33,451.53,307.35Z" style="fill:#263238"></path><path d="M425.14,279.87s13.16.84,19.28-7.84S449.17,251,449.17,251s-13.82,1.68-19.31,7.91S425.14,279.87,425.14,279.87Z" style="fill:#53BF80"></path><path d="M419,292.85c.45-1.41,1-2.8,1.55-4.18s1.06-2.64,1.64-3.94A80.54,80.54,0,0,1,426.1,277c.93-1.6,1.92-3.16,2.95-4.69,0-.23.07-.46.1-.7.06-.4.12-.81.19-1.22.13-.83.27-1.66.41-2.49.3-1.82.68-3.63,1-5.45,0-.08.15-.08.13,0-.26,1.79-.44,3.6-.69,5.4-.13.88-.24,1.76-.38,2.64,0,.32-.1.64-.15,1a96.67,96.67,0,0,1,6.51-8.44c.32-.37.64-.72,1-1.08l.13-.3.28-.75c.2-.53.39-1.05.57-1.57.37-1,.7-2.07,1-3.13a.07.07,0,1,1,.13,0c-.26,1.08-.54,2.16-.86,3.22-.15.52-.32,1-.5,1.53a2.77,2.77,0,0,1-.1.26c1.69-1.84,3.44-3.6,5.21-5.35.07-.06.16,0,.1.1a94.66,94.66,0,0,0-9.33,11.42c.32-.1.65-.18,1-.25,1-.19,2-.34,3.06-.47,2.14-.27,4.28-.54,6.41-.88.09,0,.12.12,0,.14-2,.4-4.06.86-6.09,1.32-.95.22-1.91.41-2.88.6a18.45,18.45,0,0,0-2.31.66c-.21.3-.43.6-.64.91-1,1.4-1.89,2.84-2.8,4.28l1.34-.26c1-.2,2-.38,3.06-.55,2-.33,4-.68,6-1.13.09,0,.12.11,0,.13-2,.47-4,1-6,1.56-1,.25-1.93.49-2.91.7l-1.46.32a3.47,3.47,0,0,1-.59.1c-1.92,3.12-3.73,6.31-5.4,9.57q-1.1,2.14-2.12,4.33c-.71,1.49-1.31,3-2,4.54C419.34,293.31,418.86,293.18,419,292.85Z" style="fill:#263238"></path><path d="M432.44,262.61c.25-1.26.51-2.51.79-3.76,0-.08.15,0,.13,0-.25,1.23-.49,2.47-.71,3.71a35.28,35.28,0,0,1-.75,3.68s0,0,0,0A26.69,26.69,0,0,1,432.44,262.61Z" style="fill:#263238"></path><path d="M440.11,262.24c.61-.3,1.26-.55,1.89-.79l1-.39.51-.21a2.31,2.31,0,0,0,.56-.24c.1-.08.16.1.06.11a3,3,0,0,0-.56.23l-.5.23-1,.43a17.71,17.71,0,0,1-1.94.76A.07.07,0,0,1,440.11,262.24Z" style="fill:#263238"></path><path d="M411.67,269.52s-8-14.88-20.08-17.18-19.53,10.16-19.53,10.16,8.84,11.29,20,13.26S411.67,269.52,411.67,269.52Z" style="fill:#53BF80"></path><path d="M383.47,259a33,33,0,0,1,9.51.11l-.55-.29-2.68-1.38c-1.86-1-3.74-2-5.69-2.78a.07.07,0,1,1,.05-.13c1.9.89,3.86,1.63,5.76,2.5,1,.44,1.89.89,2.82,1.38.59.32,1.26.62,1.84,1a33.49,33.49,0,0,1,7.7,2.56l-1.51-1.65c-1.13-1.24-2.24-2.54-3.48-3.66-.07-.06,0-.16.1-.1,1.27,1.16,2.6,2.22,3.83,3.42.6.58,1.17,1.18,1.73,1.8.27.31.55.63.82,1A32,32,0,0,1,420,284.68c0,.09-.1.13-.13.05a36.42,36.42,0,0,0-8.91-15.07,35,35,0,0,0-16.23-9.4,35.5,35.5,0,0,0-11.2-1A.12.12,0,0,1,383.47,259Z" style="fill:#263238"></path><path d="M372.06,262.5s8.84,11.29,20,13.26c8.48,1.5,15.46-2.92,18.29-5.1l.61-1s-5.73-4.84-16.58-7.63S372.06,262.5,372.06,262.5Z" style="opacity:0.1"></path><path d="M390.51,253.7a29.79,29.79,0,0,1,2.69,1.78,17.58,17.58,0,0,1,2.34,2.14c.06.07,0,.16-.11.1-.8-.7-1.61-1.4-2.44-2.06a25.35,25.35,0,0,0-2.55-1.84A.07.07,0,0,1,390.51,253.7Z" style="fill:#263238"></path><path d="M383.86,256.22c.45.19.91.35,1.36.54l1.35.56c.09,0,.05.19-.05.15l-1.35-.54-1.35-.58C383.74,256.32,383.78,256.19,383.86,256.22Z" style="fill:#263238"></path><path d="M413.26,288.24S411.13,303,400,308.16s-24.63,0-24.63,0S380.73,276.23,413.26,288.24Z" style="fill:#53BF80"></path><path d="M383.06,298.56c1-.11,2-.29,3.05-.47l1.49-.28.78-.16.9-.83a45,45,0,0,1,6.79-4.92,36.31,36.31,0,0,1,4.07-2.09h-.21l-3.66.16c-2.43.11-4.87.16-7.3.32-.09,0-.08-.13,0-.14,2.45-.16,4.88-.43,7.32-.64l3.54-.32,1.83-.16.47-.05c.63-.23,1.27-.46,1.92-.66a17.29,17.29,0,0,1,9.4-.51c2.79.71,5.57,2.54,6.3,5.48,0,.11-.14.18-.18.07-1-2.46-3.77-3.69-6.24-4.21a14.84,14.84,0,0,0-5-.09,11.94,11.94,0,0,1-.56,2.23c-.31,1-.61,2.08-.92,3.11-.63,2.07-1.33,4.13-1.94,6.2a.07.07,0,1,1-.13,0c.51-2.07.95-4.16,1.45-6.23.24-1,.5-2,.75-3a16.76,16.76,0,0,1,.56-2.1,25.64,25.64,0,0,0-2.88.68,42.77,42.77,0,0,0-5,1.84c-.16,1.05-.4,2.09-.64,3.13-.3,1.3-.64,2.59-1.05,3.87a.07.07,0,0,1-.13,0,2,2,0,0,0,0-.24h0c.25-1.21.51-2.41.77-3.62.2-1,.39-1.95.6-2.92q-2.07.93-4,2.05c0,.3-.1.61-.15.88-.08.51-.17,1-.26,1.52-.21,1.14-.44,2.27-.71,3.39a54.46,54.46,0,0,1-1.91,6.42.08.08,0,0,1,0,.09l-.06.07c0,.06-.13,0-.12-.07.52-2.18,1.1-4.35,1.58-6.55.24-1.09.49-2.19.71-3.29.11-.55.21-1.1.31-1.65,0-.16.05-.33.08-.5a45.76,45.76,0,0,0-4.32,2.89,46.74,46.74,0,0,0-6.62,6c-.08.09-.23,0-.16-.13.85-1.11,1.69-2.2,2.64-3.22.56-.6,1.14-1.18,1.73-1.75l-.18,0-1.56.23c-1,.14-2.06.24-3.09.36C383,298.71,383,298.57,383.06,298.56Z" style="fill:#263238"></path><path d="M390.86,303.57h0c0-.13,0-.26.06-.39s.11-.32.13-.48h0c.23-1,.42-2,.6-3,0-.07.12-.05.12,0a12.14,12.14,0,0,1-.85,3.85s-.08,0-.07,0Z" style="fill:#263238"></path><path d="M400.14,303.33a.07.07,0,0,1,.07-.06c.31-1.31.61-2.62.88-3.93.14-.69.29-1.39.42-2.08l.21-1.12a2.88,2.88,0,0,1,.24-1,.07.07,0,0,1,.12,0,6.41,6.41,0,0,1-.28,2c-.13.72-.27,1.44-.43,2.16-.32,1.45-.69,2.9-1.1,4.34,0,.08-.15.06-.15,0Z" style="fill:#263238"></path><path d="M384.07,294.31c2-.27,4.05-.57,6.08-.81.09,0,.12.12,0,.13-2,.3-4.06.55-6.09.82C384,294.46,384,294.32,384.07,294.31Z" style="fill:#263238"></path><path d="M419,253.63s6.79-29.79-25.22-41.84C393.73,211.79,384.86,251,419,253.63Z" style="fill:#53BF80"></path><path d="M412,236.74l-.34-.21c-.61-.33-1.21-.68-1.81-1l-3.72-2.08c-2.44-1.37-4.85-2.79-7.31-4.12a.07.07,0,0,1,.07-.12c2.46,1.34,5,2.59,7.45,3.9l3.67,1.94,1.5.8c-1.07-2-2.21-4-3.46-5.93-1.68-2.55-3.51-5-5.42-7.36-.08-.11.06-.25.16-.15a50.56,50.56,0,0,1,7.4,9.08c0-.11,0-.22,0-.32q0-1.11-.06-2.22c0-1.45,0-2.91,0-4.36a.07.07,0,0,1,.14,0c.06,1.43.23,2.86.31,4.29,0,.71.07,1.43.09,2.14,0,.39.05.83,0,1.25.66,1.05,1.29,2.11,1.89,3.19a57.91,57.91,0,0,1,2.86,6c0-.74.08-1.48.12-2.22.1-1.63.29-3.26.36-4.89a.07.07,0,0,1,.14,0c0,1.64,0,3.27,0,4.9,0,.82-.05,1.63-.1,2.44l-.06.91a54.76,54.76,0,0,1,2.42,8.19,87.58,87.58,0,0,1,1.19,9,0,0,0,1,1,0,0,49,49,0,0,0-1.7-8c-.4-1.4-.82-2.8-1.27-4.19-1.33-.63-2.6-1.41-3.89-2.12s-2.68-1.46-4-2.2c-2.67-1.46-5.33-3-8.09-4.25-.08,0,0-.15.07-.11,2.8,1.26,5.61,2.46,8.35,3.84,1.36.68,2.7,1.42,4,2.17,1.11.62,2.26,1.25,3.32,2q-.46-1.4-1-2.76A78.21,78.21,0,0,0,412,236.74Z" style="fill:#263238"></path><path d="M414.74,229.93c0-.09.14-.09.13,0-.11,1.7-.17,3.4-.35,5.09a.08.08,0,1,1-.15,0C414.43,233.32,414.61,231.63,414.74,229.93Z" style="fill:#263238"></path><path d="M399.39,235.62c2,.8,4,1.57,6,2.4,0,0,0,.12,0,.09-2-.75-4-1.58-6-2.36C399.27,235.71,399.31,235.58,399.39,235.62Z" style="fill:#263238"></path><path d="M396.35,221.88a51,51,0,0,1,5.69,3.05.08.08,0,1,1-.09.14c-1.86-1.08-3.75-2.12-5.67-3.08C396.2,222,396.27,221.84,396.35,221.88Z" style="fill:#263238"></path><rect x="396.83" y="318.05" width="46.16" height="48.66" transform="translate(839.82 684.76) rotate(180)" style="fill:#37474f"></rect><rect x="443.81" y="335.27" width="2.36" height="83.34" style="fill:#263238"></rect><rect x="393.9" y="335.27" width="2.36" height="83.34" style="fill:#263238"></rect><rect x="417.6" y="335.27" width="2.36" height="83.34" style="fill:#263238"></rect><rect x="395.09" y="363.59" width="49.9" height="6.74" transform="translate(840.07 733.92) rotate(180)" style="fill:#263238"></rect></g><g id="freepik--Device--inject-12"><path d="M331.58,69.78H168.4a16.66,16.66,0,0,0-16.5,16.81V422.48a16.66,16.66,0,0,0,16.5,16.81H331.58a16.68,16.68,0,0,0,16.52-16.81V86.59A16.67,16.67,0,0,0,331.58,69.78Zm6.19,342.32c0,8.84-6.62,16-14.78,16H177c-8.18,0-14.8-7.15-14.8-16V99.32c0-18,6.62-18.89,14.8-18.89h29.25c1.7,0,3.09,1.93,3.09,4.33v1c0,5.61,3.07,5.63,6.83,5.63H283.8c3.8,0,6.85,0,6.85-5.63v-1c0-2.4,1.37-4.33,3.1-4.33H323c8.16,0,14.78,2.4,14.78,18.89Z" style="fill:#263238"></path><path d="M337.78,99.32V412.09c0,8.85-6.62,16-14.78,16H177c-8.18,0-14.8-7.15-14.8-16V99.32c0-18,6.62-18.89,14.8-18.89h29.25c1.7,0,3.09,1.93,3.09,4.33v1c0,5.61,3.07,5.62,6.83,5.62h67.62c3.8,0,6.85,0,6.85-5.62v-1c0-2.4,1.37-4.33,3.1-4.33H323C331.16,80.43,337.78,82.82,337.78,99.32Z" style="fill:#fff"></path><path d="M259.22,84.41H240.77a1.14,1.14,0,0,1-1.14-1.14h0a1.14,1.14,0,0,1,1.14-1.14h18.45a1.14,1.14,0,0,1,1.14,1.14h0A1.14,1.14,0,0,1,259.22,84.41Z" style="fill:#fff"></path><g id="freepik--u5Zjqx--inject-12"><path d="M201.21,87.46l-.28.28-.16.16a3.85,3.85,0,0,0-5.45,0l-.15-.16a3.7,3.7,0,0,1-.28-.28h0l0,0,.36-.31a4.42,4.42,0,0,1,.82-.53,4.32,4.32,0,0,1,1.1-.37l.55-.07h.47l.38,0a4.29,4.29,0,0,1,1,.24,4.66,4.66,0,0,1,1.33.77l.3.27Z" style="fill:#a6a6a6"></path><path d="M196.22,88.79l-.45-.45a3.23,3.23,0,0,1,1.82-.91,3.19,3.19,0,0,1,2.73.91l-.45.44A2.55,2.55,0,0,0,198,88,2.49,2.49,0,0,0,196.22,88.79Z" style="fill:#a6a6a6"></path><path d="M199.42,89.23l-.44.45a1.32,1.32,0,0,0-1.87,0l-.45-.44A2,2,0,0,1,199.42,89.23Z" style="fill:#a6a6a6"></path><path d="M198.44,90.08a.4.4,0,1,1-.4-.4A.4.4,0,0,1,198.44,90.08Z" style="fill:#a6a6a6"></path></g><path d="M173.66,88.31a1.17,1.17,0,1,1,1.16,1.17A1.16,1.16,0,0,1,173.66,88.31Z" style="fill:#a6a6a6"></path><path d="M177.32,88.31a1.17,1.17,0,1,1,1.17,1.17A1.17,1.17,0,0,1,177.32,88.31Z" style="fill:#a6a6a6"></path><path d="M181,88.31a1.17,1.17,0,1,1,1.16,1.17A1.16,1.16,0,0,1,181,88.31Z" style="fill:#a6a6a6"></path><path d="M184.65,88.31a1.17,1.17,0,1,1,1.17,1.17A1.16,1.16,0,0,1,184.65,88.31Z" style="fill:#a6a6a6"></path><path d="M188.32,88.31a1.17,1.17,0,0,1,2.33,0,1.17,1.17,0,1,1-2.33,0Z" style="fill:#a6a6a6"></path><path d="M324.61,90.85h-9.48V86.46h9.48Zm-9-.48h8.5V87h-8.5Z" style="fill:#a6a6a6"></path><rect x="315.92" y="87.21" width="6.11" height="2.9" style="fill:#a6a6a6"></rect><rect x="324.61" y="87.48" width="0.84" height="2.35" style="fill:#a6a6a6"></rect><path d="M238.31,409.93a2.56,2.56,0,1,1-2.55-2.56A2.55,2.55,0,0,1,238.31,409.93Z" style="fill:#dbdbdb"></path><circle cx="250" cy="409.93" r="3.87" style="fill:#53BF80"></circle><path d="M266.8,409.93a2.56,2.56,0,1,1-2.56-2.56A2.56,2.56,0,0,1,266.8,409.93Z" style="fill:#dbdbdb"></path><rect x="173.9" y="111.81" width="49.14" height="49.14" style="fill:#455a64"></rect><ellipse cx="198.47" cy="135.35" rx="16.07" ry="13.93" style="fill:#fff"></ellipse><polygon points="186.82 143.24 183.94 151.34 194.16 148.16 186.82 143.24" style="fill:#fff"></polygon><rect x="173.32" y="346.06" width="93.48" height="49.64" style="fill:#263238"></rect><circle cx="245.49" cy="366.81" r="8.16" style="fill:#53BF80"></circle><path d="M246.1,355.56c0,1-.28,1.85-.61,1.85s-.62-.83-.62-1.85.28-1.86.62-1.86S246.1,354.53,246.1,355.56Z" style="fill:#53BF80"></path><path d="M240.39,356.76c.51.89.69,1.74.4,1.91s-.95-.41-1.46-1.3-.69-1.74-.4-1.91S239.88,355.87,240.39,356.76Z" style="fill:#53BF80"></path><path d="M236.05,360.65c.88.52,1.46,1.17,1.3,1.46s-1,.12-1.92-.39-1.47-1.17-1.3-1.46S235.16,360.14,236.05,360.65Z" style="fill:#53BF80"></path><path d="M234.23,366.2c1,0,1.86.28,1.86.61s-.83.62-1.86.62-1.85-.28-1.85-.62S233.21,366.2,234.23,366.2Z" style="fill:#53BF80"></path><path d="M235.43,371.91c.89-.51,1.75-.69,1.92-.4s-.42.95-1.3,1.46-1.75.69-1.92.4S234.54,372.42,235.43,371.91Z" style="fill:#53BF80"></path><path d="M239.33,376.25c.51-.88,1.16-1.46,1.46-1.3s.11,1-.4,1.92-1.17,1.47-1.46,1.3S238.82,377.14,239.33,376.25Z" style="fill:#53BF80"></path><ellipse cx="245.49" cy="378.07" rx="0.61" ry="1.86" style="fill:#53BF80"></ellipse><path d="M250.58,376.87c-.51-.89-.69-1.75-.39-1.92s.94.42,1.46,1.3.68,1.75.39,1.92S251.1,377.76,250.58,376.87Z" style="fill:#53BF80"></path><path d="M254.93,373c-.89-.51-1.47-1.16-1.3-1.46s1-.11,1.91.4,1.47,1.17,1.3,1.46S255.81,373.48,254.93,373Z" style="fill:#53BF80"></path><path d="M256.74,367.43c-1,0-1.85-.28-1.85-.62s.83-.61,1.85-.61,1.86.28,1.86.61S257.77,367.43,256.74,367.43Z" style="fill:#53BF80"></path><path d="M255.54,361.72c-.89.51-1.74.69-1.91.39s.41-.94,1.3-1.46,1.74-.68,1.91-.39S256.43,361.2,255.54,361.72Z" style="fill:#53BF80"></path><path d="M251.65,357.37c-.52.89-1.17,1.47-1.46,1.3s-.12-1,.39-1.91,1.17-1.47,1.46-1.3S252.16,356.49,251.65,357.37Z" style="fill:#53BF80"></path><path d="M256.13,383.15a4.9,4.9,0,0,1-4.55,4.89v0H223.79a5.77,5.77,0,0,1-.53-11.51,9.72,9.72,0,0,1,18.83-3,5.69,5.69,0,0,1,2.57-.61,5.76,5.76,0,0,1,5.76,5.41,5.29,5.29,0,0,1,.8-.07A4.91,4.91,0,0,1,256.13,383.15Z" style="fill:#fff"></path><path d="M184.28,354.48v10a.94.94,0,0,1-.95.93.92.92,0,0,1-.94-.93v-8.36l-.68.39a.78.78,0,0,1-.47.14,1,1,0,0,1-.5-1.75l2.09-1.24s0,0,.07,0,0,0,.09,0l.1,0s0,0,.07,0h.37a.15.15,0,0,1,.1,0h.07c.05,0,.07.05.1.05l.07.06.07,0s.05.05.07.06l.05.07.06.07,0,0s0,0,0,.05a.19.19,0,0,1,0,.09s0,.07,0,.08,0,.07,0,.09a.14.14,0,0,0,0,.12Z" style="fill:#fff"></path><path d="M194.69,361.32a4.12,4.12,0,0,1-8.22.43s0,0,0,0c0-.32,0-.64,0-1a9.9,9.9,0,0,1,.6-3.49,5.89,5.89,0,0,1,2.19-2.9,4.87,4.87,0,0,1,2.55-.8,1,1,0,0,1,1,.9,1,1,0,0,1-.92,1,3.14,3.14,0,0,0-1.59.47,3.44,3.44,0,0,0-1.07,1.19,3.61,3.61,0,0,0-.22.44,4,4,0,0,1,1.63-.34A4.13,4.13,0,0,1,194.69,361.32Zm-1.89,0a2.24,2.24,0,1,0-4.47,0,2.24,2.24,0,0,0,4.47,0Z" style="fill:#fff"></path><path d="M202,358.17a2.66,2.66,0,0,1-2.72,2.83,2.63,2.63,0,0,1-2.7-2.75,2.71,2.71,0,0,1,2.74-2.85A2.59,2.59,0,0,1,202,358.17Zm-4.28.05a1.76,1.76,0,0,0,1.58,1.93c.9,0,1.56-.78,1.56-1.95,0-.85-.46-1.95-1.58-1.95S197.67,357.3,197.67,358.22Z" style="fill:#fff"></path><path d="M183.84,379.55a3.55,3.55,0,0,1,2.17.74.23.23,0,0,1,0,.34.22.22,0,0,1-.32.05,3.05,3.05,0,0,0-1.89-.66,2.95,2.95,0,1,0,0,5.89,2.85,2.85,0,0,0,1.87-.66.24.24,0,0,1,.33.06.22.22,0,0,1,0,.34,3.54,3.54,0,0,1-2.17.73,3.42,3.42,0,1,1,0-6.83Z" style="fill:#fff"></path><path d="M187.7,379.88a.24.24,0,0,1,.23-.23.23.23,0,0,1,.24.23v6.27a.23.23,0,0,1-.24.23.24.24,0,0,1-.23-.23Z" style="fill:#fff"></path><path d="M192,381.67a2.36,2.36,0,1,1-2.23,2.35A2.3,2.3,0,0,1,192,381.67Zm0,4.25a1.9,1.9,0,1,0-1.77-1.9A1.85,1.85,0,0,0,192,385.92Z" style="fill:#fff"></path><path d="M195.78,381.89a.23.23,0,0,1,.23-.23.22.22,0,0,1,.23.23v2.57a1.46,1.46,0,1,0,2.91,0v-2.57a.23.23,0,0,1,.23-.23.23.23,0,0,1,.24.23v2.57a1.92,1.92,0,1,1-3.84,0Z" style="fill:#fff"></path><path d="M205.54,385.47a2.27,2.27,0,0,1-1.81.91,2.36,2.36,0,0,1,0-4.71,2.25,2.25,0,0,1,1.81.92v-2.71a.23.23,0,0,1,.24-.23.24.24,0,0,1,.23.23v6.27a.24.24,0,0,1-.23.23.23.23,0,0,1-.24-.23Zm0-1.36V384a1.88,1.88,0,1,0,0,.15Z" style="fill:#fff"></path><path d="M207.72,381.89a.22.22,0,0,1,.22-.22.23.23,0,0,1,.24.22v2.56a1.44,1.44,0,0,0,1.44,1.45,1.46,1.46,0,0,0,1.46-1.45v-2.56a.17.17,0,0,1,0-.12v0h0a.21.21,0,0,1,.08-.06h.11l.12.05a.18.18,0,0,1,0,.07.19.19,0,0,1,0,.1V386a2.23,2.23,0,0,1-2.24,2.22,2.3,2.3,0,0,1-1-.23.23.23,0,0,1-.09-.3.23.23,0,0,1,.29-.12,1.68,1.68,0,0,0,.77.18,1.77,1.77,0,0,0,1.78-1.75v-.3a1.91,1.91,0,0,1-3.36-1.25Z" style="fill:#fff"></path><path d="M180.64,370.8a.24.24,0,0,1,.23-.24h1.9a1.92,1.92,0,1,1,0,3.84l-1.66,0v2.64a.23.23,0,0,1-.24.23.23.23,0,0,1-.23-.23Zm2.13,3.15a1.47,1.47,0,0,0,1.46-1.46,1.46,1.46,0,0,0-1.46-1.45h-1.66V374Z" style="fill:#fff"></path><path d="M190.09,372.81v4.25a.23.23,0,0,1-.23.23.23.23,0,0,1-.23-.23v-.7a2.2,2.2,0,0,1-1.77.93,2.36,2.36,0,0,1,0-4.71,2.2,2.2,0,0,1,1.77.93v-.7a.23.23,0,0,1,.23-.23A.23.23,0,0,1,190.09,372.81Zm-.46,2.13a1.77,1.77,0,1,0-1.77,1.89A1.84,1.84,0,0,0,189.63,374.94Z" style="fill:#fff"></path><path d="M192.08,372.82a.23.23,0,0,1,.24-.23.22.22,0,0,1,.22.23v1l.07-.11a2.28,2.28,0,0,1,1.89-1.16.23.23,0,0,1,0,.46,1.71,1.71,0,0,0-1.37.77,4.43,4.43,0,0,0-.57,1.1.15.15,0,0,0,0,.08v2.06a.22.22,0,0,1-.22.23.23.23,0,0,1-.24-.23Z" style="fill:#fff"></path><path d="M198,372.81a.26.26,0,0,1-.24.24h-.6v3.43a.36.36,0,0,0,.35.34.28.28,0,0,1,.24.24.26.26,0,0,1-.24.23.79.79,0,0,1-.83-.81v-3.43H196c-.23,0-.23-.12-.23-.24s0-.23.23-.23h.59v-1.75a.25.25,0,0,1,.23-.23.27.27,0,0,1,.25.23v1.75h.6A.26.26,0,0,1,198,372.81Z" style="fill:#fff"></path><path d="M200.21,370.8a.24.24,0,0,1,.23-.24.24.24,0,0,1,.24.24v6.26a.23.23,0,0,1-.24.23.23.23,0,0,1-.23-.23Z" style="fill:#fff"></path><path d="M202.77,372.8a.22.22,0,0,1,.22-.22.23.23,0,0,1,.24.22v2.56a1.44,1.44,0,0,0,1.44,1.45,1.45,1.45,0,0,0,1.46-1.45V372.8a.17.17,0,0,1,0-.11v0h0a.18.18,0,0,1,.09-.06h.1l.12.05s.05.05.05.08a.19.19,0,0,1,0,.09v4.12a2.22,2.22,0,0,1-2.24,2.21,2.46,2.46,0,0,1-1-.22.24.24,0,0,1-.09-.31.24.24,0,0,1,.29-.11,1.85,1.85,0,0,0,.77.18,1.77,1.77,0,0,0,1.78-1.75v-.31a1.91,1.91,0,0,1-3.36-1.25Z" style="fill:#fff"></path><polygon points="327.13 161.71 324.63 161.71 324.63 160.71 326.13 160.71 326.13 159.21 327.13 159.21 327.13 161.71" style="fill:#53BF80"></polygon><path d="M320.74,161.71h-3.88v-1h3.88Zm-7.77,0h-3.89v-1H313Zm-7.77,0h-3.89v-1h3.89Zm-7.78,0h-3.89v-1h3.89Zm-7.77,0h-3.89v-1h3.89Zm-7.78,0H278v-1h3.88Zm-7.77,0h-3.89v-1h3.89Zm-7.77,0h-3.89v-1h3.89Zm-7.78,0h-3.88v-1h3.88Zm-7.77,0h-3.89v-1h3.89Zm-7.78,0h-3.88v-1H243Z" style="fill:#53BF80"></path><polygon points="235.23 161.71 232.73 161.71 232.73 159.21 233.73 159.21 233.73 160.71 235.23 160.71 235.23 161.71" style="fill:#53BF80"></polygon><path d="M233.73,155.06h-1v-4.15h1Zm0-8.3h-1v-4.15h1Zm0-8.3h-1v-4.15h1Zm0-8.3h-1V126h1Zm0-8.3h-1v-4.15h1Z" style="fill:#53BF80"></path><polygon points="233.73 113.56 232.73 113.56 232.73 111.06 235.23 111.06 235.23 112.06 233.73 112.06 233.73 113.56" style="fill:#53BF80"></polygon><path d="M320.74,112.06h-3.88v-1h3.88Zm-7.77,0h-3.89v-1H313Zm-7.77,0h-3.89v-1h3.89Zm-7.78,0h-3.89v-1h3.89Zm-7.77,0h-3.89v-1h3.89Zm-7.78,0H278v-1h3.88Zm-7.77,0h-3.89v-1h3.89Zm-7.77,0h-3.89v-1h3.89Zm-7.78,0h-3.88v-1h3.88Zm-7.77,0h-3.89v-1h3.89Zm-7.78,0h-3.88v-1H243Z" style="fill:#53BF80"></path><polygon points="327.13 113.56 326.13 113.56 326.13 112.06 324.63 112.06 324.63 111.06 327.13 111.06 327.13 113.56" style="fill:#53BF80"></polygon><path d="M327.13,155.06h-1v-4.15h1Zm0-8.3h-1v-4.15h1Zm0-8.3h-1v-4.15h1Zm0-8.3h-1V126h1Zm0-8.3h-1v-4.15h1Z" style="fill:#53BF80"></path><polygon points="173.9 283.38 172.9 283.38 172.9 280.88 175.4 280.88 175.4 281.88 173.9 281.88 173.9 283.38" style="fill:#53BF80"></polygon><path d="M320.6,281.88h-4v-1h4Zm-8.07,0h-4v-1h4Zm-8.07,0h-4v-1h4Zm-8.06,0h-4v-1h4Zm-8.07,0h-4v-1h4Zm-8.07,0h-4v-1h4Zm-8.06,0h-4v-1h4Zm-8.07,0h-4v-1h4Zm-8.07,0h-4v-1h4Zm-8.06,0h-4v-1h4Zm-8.07,0h-4v-1h4Zm-8.07,0h-4v-1h4Zm-8.06,0h-4v-1h4Zm-8.07,0h-4v-1h4Zm-8.06,0h-4v-1h4Zm-8.07,0h-4v-1h4Zm-8.07,0h-4v-1h4Zm-8.06,0h-4v-1h4Z" style="fill:#53BF80"></path><polygon points="327.13 283.38 326.13 283.38 326.13 281.88 324.63 281.88 324.63 280.88 327.13 280.88 327.13 283.38" style="fill:#53BF80"></polygon><path d="M327.13,332.06h-1V328h1Zm0-8.11h-1v-4.06h1Zm0-8.11h-1v-4.06h1Zm0-8.12h-1v-4.05h1Zm0-8.11h-1v-4.06h1Zm0-8.11h-1v-4.06h1Z" style="fill:#53BF80"></path><polygon points="327.13 338.62 324.63 338.62 324.63 337.62 326.13 337.62 326.13 336.12 327.13 336.12 327.13 338.62" style="fill:#53BF80"></polygon><path d="M320.6,338.62h-4v-1h4Zm-8.07,0h-4v-1h4Zm-8.07,0h-4v-1h4Zm-8.06,0h-4v-1h4Zm-8.07,0h-4v-1h4Zm-8.07,0h-4v-1h4Zm-8.06,0h-4v-1h4Zm-8.07,0h-4v-1h4Zm-8.07,0h-4v-1h4Zm-8.06,0h-4v-1h4Zm-8.07,0h-4v-1h4Zm-8.07,0h-4v-1h4Zm-8.06,0h-4v-1h4Zm-8.07,0h-4v-1h4Zm-8.06,0h-4v-1h4Zm-8.07,0h-4v-1h4Zm-8.07,0h-4v-1h4Zm-8.06,0h-4v-1h4Z" style="fill:#53BF80"></path><polygon points="175.4 338.62 172.9 338.62 172.9 336.12 173.9 336.12 173.9 337.62 175.4 337.62 175.4 338.62" style="fill:#53BF80"></polygon><path d="M173.9,332.07h-1V328h1Zm0-8.12h-1v-4.06h1Zm0-8.11h-1v-4.06h1Zm0-8.12h-1v-4.05h1Zm0-8.11h-1v-4.06h1Zm0-8.11h-1v-4.06h1Z" style="fill:#53BF80"></path><polygon points="327.13 274.06 324.63 274.06 324.63 273.06 326.13 273.06 326.13 271.56 327.13 271.56 327.13 274.06" style="fill:#53BF80"></polygon><path d="M320.6,274.06h-4v-1h4Zm-8.07,0h-4v-1h4Zm-8.07,0h-4v-1h4Zm-8.06,0h-4v-1h4Zm-8.07,0h-4v-1h4Zm-8.07,0h-4v-1h4Zm-8.06,0h-4v-1h4Zm-8.07,0h-4v-1h4Zm-8.07,0h-4v-1h4Zm-8.06,0h-4v-1h4Zm-8.07,0h-4v-1h4Zm-8.07,0h-4v-1h4Zm-8.06,0h-4v-1h4Zm-8.07,0h-4v-1h4Zm-8.06,0h-4v-1h4Zm-8.07,0h-4v-1h4Zm-8.07,0h-4v-1h4Zm-8.06,0h-4v-1h4Z" style="fill:#53BF80"></path><polygon points="175.4 274.06 172.9 274.06 172.9 271.56 173.9 271.56 173.9 273.06 175.4 273.06 175.4 274.06" style="fill:#53BF80"></polygon><path d="M173.9,267.57h-1v-4h1Zm0-8h-1v-4h1Zm0-8h-1v-4h1Zm0-8h-1v-4h1Zm0-8h-1v-4h1Zm0-8h-1v-4h1Zm0-8h-1v-4h1Zm0-8h-1v-4h1Zm0-8h-1v-4h1Zm0-8h-1v-4h1Zm0-8h-1v-4h1Zm0-8h-1v-4h1Z" style="fill:#53BF80"></path><polygon points="173.9 171.81 172.9 171.81 172.9 169.31 175.4 169.31 175.4 170.31 173.9 170.31 173.9 171.81" style="fill:#53BF80"></polygon><path d="M320.6,170.31h-4v-1h4Zm-8.07,0h-4v-1h4Zm-8.07,0h-4v-1h4Zm-8.06,0h-4v-1h4Zm-8.07,0h-4v-1h4Zm-8.07,0h-4v-1h4Zm-8.06,0h-4v-1h4Zm-8.07,0h-4v-1h4Zm-8.07,0h-4v-1h4Zm-8.06,0h-4v-1h4Zm-8.07,0h-4v-1h4Zm-8.07,0h-4v-1h4Zm-8.06,0h-4v-1h4Zm-8.07,0h-4v-1h4Zm-8.06,0h-4v-1h4Zm-8.07,0h-4v-1h4Zm-8.07,0h-4v-1h4Zm-8.06,0h-4v-1h4Z" style="fill:#53BF80"></path><polygon points="327.13 171.81 326.13 171.81 326.13 170.31 324.63 170.31 324.63 169.31 327.13 169.31 327.13 171.81" style="fill:#53BF80"></polygon><path d="M327.13,267.57h-1v-4h1Zm0-8h-1v-4h1Zm0-8h-1v-4h1Zm0-8h-1v-4h1Zm0-8h-1v-4h1Zm0-8h-1v-4h1Zm0-8h-1v-4h1Zm0-8h-1v-4h1Zm0-8h-1v-4h1Zm0-8h-1v-4h1Zm0-8h-1v-4h1Zm0-8h-1v-4h1Z" style="fill:#53BF80"></path><rect x="276.99" y="346.25" width="49.46" height="49.46" style="fill:#53BF80"></rect><rect x="284.78" y="360.23" width="33.88" height="21.49" style="fill:#fff"></rect><path d="M318.65,360.23c-1.36,1.31-2.76,2.56-4.14,3.85s-2.78,2.52-4.18,3.77-2.92,2.59-4.39,3.87l-.13.12-3.9,3.39-.2.16-.19-.16-3.89-3.39-.14-.12q-2.21-1.92-4.4-3.88c-1.39-1.24-2.78-2.5-4.17-3.76s-2.78-2.54-4.14-3.85c1.45,1.12,2.88,2.3,4.32,3.45s2.87,2.34,4.29,3.53q2.39,2,4.76,4s0,0,0,0c1.19,1,2.37,2,3.56,3q1.77-1.53,3.55-3s0,0,0,0c1.58-1.35,3.16-2.68,4.76-4,1.42-1.18,2.85-2.36,4.28-3.52S317.2,361.35,318.65,360.23Z" style="fill:#53BF80"></path><path d="M298.2,371.7l0,0-.53.45c-.85.72-1.72,1.4-2.61,2.07-1.08.83-2.18,1.61-3.29,2.4s-2.23,1.53-3.38,2.26-2.3,1.45-3.49,2.11c1-.9,2.09-1.74,3.17-2.56s2.19-1.61,3.29-2.4,2.24-1.53,3.39-2.27c.91-.58,1.83-1.16,2.78-1.7l.66-.37Z" style="fill:#53BF80"></path><path d="M318.57,381c-1.19-.66-2.35-1.38-3.49-2.11s-2.27-1.49-3.39-2.26-2.21-1.57-3.29-2.4c-.88-.67-1.75-1.35-2.59-2.06l-.54-.46,0,0,0,0,.66.37c.95.54,1.87,1.12,2.78,1.7,1.15.74,2.27,1.5,3.38,2.27s2.21,1.57,3.29,2.4S317.55,380.13,318.57,381Z" style="fill:#53BF80"></path></g><g id="freepik--Character--inject-12"><path d="M94,459.19c-1,0-18,.83-19.4-.47-14.74-13.21-35.47-47.89-35.89-49.63-.28-1.09,15.31-13.93,15.39-14,1.61-1.77,29.86-31.49,29.86-31.49l30.38,30.63L85,424.26l-.52.51a109.65,109.65,0,0,0,4.32,18.8c.42,1.25,5.9,6.62,6.26,7.66C96.26,454.65,95.31,459.19,94,459.19Z" style="fill:#f7a9a0"></path><path d="M94,459.19c-1,0-18,.83-19.42-.48-14.73-13.2-35.46-47.87-35.88-49.63-.29-1.09,15.31-13.91,15.38-14a54.66,54.66,0,0,1,5.25-5.57L89.16,420,85,424.26l-.51.51a110.41,110.41,0,0,0,4.31,18.81c.44,1.24,5.9,6.61,6.27,7.65C96.26,454.65,95.31,459.19,94,459.19Z" style="fill:#ebebeb"></path><path d="M94.65,459.45c-.55.38-19.25.52-20.49-.59-11.8-10.66-36.25-48-36.51-50.17-.14-1.11,8.21-8.67,17.45-15l29.61,31.17s1.82,12.23,4.2,18.78c.54,1.49,5.91,6.4,6.4,7.49C96.81,454.43,95.44,458.92,94.65,459.45Z" style="fill:#53BF80"></path><path d="M93.23,449.67a11.27,11.27,0,0,0-8.53-1.56,9.62,9.62,0,0,0-6.11,4.23c0,.06.08.14.14.08,3.24-3.84,9.63-5.07,14.42-2.61A.08.08,0,1,0,93.23,449.67Z" style="fill:#263238"></path><path d="M53.81,405.56c-3.13-3.82-9.07,1-5.94,4.86S56.94,409.38,53.81,405.56Z" style="fill:#263238"></path><path d="M86.45,429.84c-2.62-3.54-6.94-6.67-11.46-6.67-.17,0-.17.25,0,.32a60.46,60.46,0,0,1,11.11,6.73A.28.28,0,0,0,86.45,429.84Z" style="fill:#263238"></path><path d="M87.45,433.34c-2.61-3.54-6.94-6.66-11.46-6.66-.17,0-.17.25,0,.31a60.51,60.51,0,0,1,11.11,6.74A.28.28,0,0,0,87.45,433.34Z" style="fill:#263238"></path><path d="M88.45,436.85c-2.61-3.54-6.94-6.66-11.46-6.66-.17,0-.17.24,0,.31a60.37,60.37,0,0,1,11.12,6.74A.28.28,0,0,0,88.45,436.85Z" style="fill:#263238"></path><path d="M89.45,440.35c-2.61-3.54-6.94-6.66-11.46-6.66-.17,0-.17.25,0,.31a61.75,61.75,0,0,1,11.11,6.74A.28.28,0,0,0,89.45,440.35Z" style="fill:#263238"></path><path d="M94.8,456.89c-5.13-.68-10.38-.57-15.53-1.07l-1.81-.18a2.74,2.74,0,0,1-1.81-.54,27.44,27.44,0,0,1-2.3-3c-1.55-2-3.08-4-4.62-6C62.57,438,56.54,429.8,50.56,421.55q-2.54-3.48-5.08-7c-1.7-2.33-3.54-4.54-5.25-6.87a.08.08,0,0,0-.14.09c1.44,2.18,2.73,4.46,4.21,6.62s3,4.33,4.46,6.46q4.5,6.38,9.13,12.64T67.24,446c1.59,2.09,3.19,4.16,4.79,6.23.78,1,1.55,2,2.34,3a3.15,3.15,0,0,0,2.37,1.39c6,.57,12,.43,18,.73C95,457.35,95.05,456.93,94.8,456.89Z" style="fill:#263238"></path><path d="M99.13,425.94c.07-3-3.16-4.07-5.57-4A23.77,23.77,0,0,0,82,425.9a.12.12,0,0,0,0,.19.55.55,0,0,0,.21.86c3.73,1.15,7.57,2.83,11.54,2.79C96,429.72,99.06,428.74,99.13,425.94ZM88.2,427.53c-1.85-.52-3.66-1.12-5.52-1.57a70.51,70.51,0,0,1,6.8-2.14,26.43,26.43,0,0,1,3.41-.59c1.77-.16,7.46,1,3.89,4.37C94.82,429.46,90.4,428.15,88.2,427.53Z" style="fill:#263238"></path><path d="M73.75,418.16c2,3.45,5.34,5.93,8.19,8.58a.55.55,0,0,0,.86-.24.12.12,0,0,0,.16-.11,23.65,23.65,0,0,0-2.41-12c-1.11-2.15-3.68-4.38-6.21-2.84S72.61,416.15,73.75,418.16Zm.33-3.72c1.14-4.78,5-.43,5.73,1.18a25.21,25.21,0,0,1,1.2,3.24,69.37,69.37,0,0,1,1.55,7c-1.32-1.39-2.75-2.65-4.12-4C76.8,420.24,73.45,417.08,74.08,414.44Z" style="fill:#263238"></path><path d="M96,418.14,62.79,384.5s49.22-58.69,49-60.14c-.29-1.62-1.16-36.42.25-66.73,0,0-13.39-16.41-1.06-41.22h45.74s5.77,102.46,1,122.85C153.75,356.05,96,418.14,96,418.14Z" style="fill:#455a64"></path><path d="M96,418.14,62.79,384.5s49.22-58.69,49-60.14c-.29-1.62-1.16-36.42.25-66.73,0,0-13.39-16.41-1.06-41.22h45.74s5.77,102.46,1,122.85C153.75,356.05,96,418.14,96,418.14Z" style="fill:#455a64"></path><path d="M101.54,408.67c-.67-1.06-21.15-21.87-29.77-29.12-.09-.08-.49,0-.24.33,1.9,2.61,29.17,28.65,29.79,29C101.42,409,101.61,408.77,101.54,408.67Z" style="fill:#263238"></path><path d="M159.23,323.79l-47.87-44.15c.06-3.78.14-7.56.24-11.25.05-1.69.11-3.37.17-5l0-.94c.06-1.63.13-3.23.2-4.8,0,0-13.39-16.41-1.06-41.22h45.74a.85.85,0,0,1,0,.15C156.89,220.18,160.7,289.46,159.23,323.79Z" style="fill:#263238"></path><path d="M153.92,394.22s-1,43.14-1,43.17c.07,8.26.27,15.49.73,19.23a.13.13,0,0,0,0,.06,5.59,5.59,0,0,0,.63,2.54l.05,0c2.47,1.65,68.46,3,70.78,2.31s.43-7.39-2.09-9.49-27.56-13.92-27.56-13.92l.48-43.12Z" style="fill:#f7a9a0"></path><path d="M152.77,428.53s.12,8.83.12,8.86c.07,8.26.27,15.49.73,19.23a.13.13,0,0,0,0,.06,10.65,10.65,0,0,0,.63,2.54l.05,0c2.47,1.65,68.46,3,70.78,2.31s.43-7.39-2.09-9.49-27.56-13.92-27.56-13.92v-9Z" style="fill:#ebebeb"></path><path d="M225.08,461.83c-2.36.73-69.44-.66-72-2.33-1-.62-1.75-11-.6-22.4l43.24.94s24.61,12,27.18,14.14S227.44,461.09,225.08,461.83Z" style="fill:#53BF80"></path><path d="M224.17,459.12c-11.24-.5-56.61-1.5-67.76-1.15-.09,0-.09.07,0,.07,11.13.75,56.51,1.38,67.76,1.27C224.41,459.31,224.41,459.14,224.17,459.12Z" style="fill:#263238"></path><path d="M218.68,449.68a9,9,0,0,0-6.78,2.61,8.72,8.72,0,0,0-2.64,5.95c0,.06.12.07.14,0a10.43,10.43,0,0,1,9.28-8.42A.07.07,0,0,0,218.68,449.68Z" style="fill:#263238"></path><path d="M199.27,439.24c-4.5-.15-9.75,1.33-12.62,4.95-.12.14.09.3.22.23a62.58,62.58,0,0,1,12.46-4.62A.29.29,0,0,0,199.27,439.24Z" style="fill:#263238"></path><path d="M202.71,440.67c-4.49-.16-9.74,1.33-12.62,4.95-.11.14.09.29.23.23a62,62,0,0,1,12.46-4.62A.29.29,0,0,0,202.71,440.67Z" style="fill:#263238"></path><path d="M206.16,442.1c-4.5-.16-9.75,1.32-12.62,4.94-.11.14.09.3.22.23a62.44,62.44,0,0,1,12.47-4.62A.28.28,0,0,0,206.16,442.1Z" style="fill:#263238"></path><path d="M209.61,443.52c-4.5-.15-9.75,1.33-12.63,5-.11.14.09.3.23.23a62.58,62.58,0,0,1,12.46-4.62A.28.28,0,0,0,209.61,443.52Z" style="fill:#263238"></path><path d="M159.5,447.35c-5.05-.09-5.2,7.76-.14,7.85S164.56,447.44,159.5,447.35Z" style="fill:#263238"></path><path d="M204.38,427.34c-2.24-1.94-5.15-.15-6.59,1.78a23.62,23.62,0,0,0-4.33,11.42c0,.1.06.14.14.13a.54.54,0,0,0,.8.38c3.25-2.15,7-4,9.48-7.12C205.34,432.13,206.5,429.17,204.38,427.34Zm-5.72,9.45c-1.57,1.09-3.19,2.11-4.72,3.26.85-2.23,1.6-4.48,2.67-6.62a26.08,26.08,0,0,1,1.71-3c1-1.46,5.5-5.13,5.85-.23C204.36,432.91,200.54,435.48,198.66,436.79Z" style="fill:#263238"></path><path d="M182.25,442c3.9.68,8-.35,11.83-.87a.54.54,0,0,0,.35-.81.12.12,0,0,0,0-.19,23.65,23.65,0,0,0-10.77-5.76c-2.36-.51-5.73.06-6.14,3C177.15,440.11,180,441.58,182.25,442Zm-2.67-2.62c-3-3.92,2.84-4.11,4.56-3.67a25.18,25.18,0,0,1,3.26,1.14c2.22.9,4.26,2.11,6.37,3.22-1.92.14-3.8.44-5.71.65C185.79,441,181.22,441.52,179.58,439.36Z" style="fill:#263238"></path><path d="M156.68,216.4s-1.42,24.24-5.37,27.85c-1.23,1.12-6.58,2-6.58,2s57.36,46,61.7,60.63c5.4,18.17-9.52,115.8-9.52,115.8l-46.89-2s12.6-94.57,12.61-95.88c.07-6.17-64-51.63-65.68-74.8-1-13.33,11.83-33.63,11.83-33.63Z" style="fill:#455a64"></path><path d="M195,413c-1.2-.36-30.31-2.64-41.57-2.45-.12,0-.38.31,0,.4,3.15.72,40.81,2.5,41.53,2.38C195.09,413.32,195.1,413,195,413Z" style="fill:#263238"></path><path d="M153.67,244.21c-.79,0-1.57,0-2.36,0s-1.57.14-2.35.24c-1.52.19-3,.5-4.52.84a45,45,0,0,0-8.79,2.8c-.1.05,0,.19.08.17,3-.61,6-1.4,9-2,1.46-.3,2.93-.54,4.39-.83.77-.16,1.54-.32,2.31-.45s1.51-.38,2.28-.52C153.88,244.47,153.83,244.2,153.67,244.21Z" style="fill:#263238"></path><path d="M153.76,218.79c0-.07-.1-.06-.1,0-.62,5.9-.95,11.32-2.33,17.1a6.76,6.76,0,0,1-1.53,3.29c-.47.48-1.08.88-1.71.43a2.13,2.13,0,0,1-.71-1.81,44.65,44.65,0,0,1,.54-4.45c.17-1.4.29-2.8.41-4.2.28-3.39.26-6.78.39-10.17,0-.12-.18-.11-.19,0-.2,3.5-.74,7-1.2,10.48-.22,1.69-.46,3.37-.71,5.05-.2,1.45-.72,3.17-.25,4.61a2.63,2.63,0,0,0,2,1.83l-.1.27c-.18.42-.35.83-.52,1.25-.33.83-.64,1.68-1,2.5,0,.11.09.23.17.13a7.06,7.06,0,0,0,1.43-2.34,11.75,11.75,0,0,0,.55-1.8,3.88,3.88,0,0,0,2.61-2.31,14.47,14.47,0,0,0,1.08-3.87c.3-1.72.55-3.44.76-5.16A66.55,66.55,0,0,0,153.76,218.79Z" style="fill:#263238"></path><path d="M130.91,221.08c0-.2-.34-.17-.38,0-.31,1.38-.41,2.8-.61,4.21s-.43,2.74-.74,4.09a14.82,14.82,0,0,1-2.9,6.58c-3.38,3.93-9.18,5-14.1,4.88-.13,0-.11.17,0,.18,4.35.47,8.89.74,12.74-1.72,3.61-2.31,5-6.27,5.66-10.32A24.19,24.19,0,0,0,130.91,221.08Z" style="fill:#263238"></path><path d="M142.85,184a3,3,0,0,0,1.45,2.56,18.63,18.63,0,0,0,2.24,1.22c-.31-2.92-.3-6-.34-8.86,0-3.4.12-6.74.35-10.12,0-.05.07,0,.07,0,0,3.41.09,6.84.16,10.25.06,3,.33,6,.37,9,.8.33,1.6.62,2.41.88-.08-1-.16-2.08-.23-3.12-.21-3.14-.17-6.24-.23-9.38,0-.07.09-.08.09,0,.1,3,.43,6.12.67,9.16.09,1.18.19,2.35.29,3.52l1.66.45,1.09.26c-.12-2.06-.13-4.14-.2-6.16-.1-3.26,0-6.51-.09-9.77,0-.12.14-.13.14,0,.08,3.24.35,6.5.5,9.75.09,2.08.27,4.22.36,6.33a38.41,38.41,0,0,0,14.69-.17,59.7,59.7,0,0,0,8.29-2.3c.65-.23,2.32-.88,4-1.55-.05-1-.07-2-.13-2.92-.14-2.16-.16-4.35-.34-6.52,0-.06.06-.06.07,0,.25,2.17.61,4.31.8,6.49.08.87.17,1.77.25,2.69.58-.24,1.15-.48,1.64-.7-.47-4.08-.52-8.26-.78-12.34,0-.1.11-.11.12,0,.42,4,1.06,8,1.29,12.07a6.12,6.12,0,0,0,1.08-.57c.78-.8-.88-17-1.19-20.72-.58-7-1.23-15.46-3.21-22.2-1.69-5.76-5.05-14-19.51-13.21-10.61.55-15.17,11.82-15.82,18.29-.33,3.34-2,25.14-2,32.13C142.84,180.25,142.75,182.13,142.85,184Z" style="fill:#53BF80"></path><path d="M142.85,184a3,3,0,0,0,1.45,2.56,18.63,18.63,0,0,0,2.24,1.22c-.31-2.92-.3-6-.34-8.86,0-3.4.12-6.74.35-10.12,0-.05.07,0,.07,0,0,3.41.09,6.84.16,10.25.06,3,.33,6,.37,9,.8.33,1.6.62,2.41.88-.08-1-.16-2.08-.23-3.12-.21-3.14-.17-6.24-.23-9.38,0-.07.09-.08.09,0,.1,3,.43,6.12.67,9.16.09,1.18.19,2.35.29,3.52l1.66.45,1.09.26c-.12-2.06-.13-4.14-.2-6.16-.1-3.26,0-6.51-.09-9.77,0-.12.14-.13.14,0,.08,3.24.35,6.5.5,9.75.09,2.08.27,4.22.36,6.33a38.41,38.41,0,0,0,14.69-.17,59.7,59.7,0,0,0,8.29-2.3c.65-.23,2.32-.88,4-1.55-.05-1-.07-2-.13-2.92-.14-2.16-.16-4.35-.34-6.52,0-.06.06-.06.07,0,.25,2.17.61,4.31.8,6.49.08.87.17,1.77.25,2.69.58-.24,1.15-.48,1.64-.7-.47-4.08-.52-8.26-.78-12.34,0-.1.11-.11.12,0,.42,4,1.06,8,1.29,12.07a6.12,6.12,0,0,0,1.08-.57c.78-.8-.88-17-1.19-20.72-.58-7-1.23-15.46-3.21-22.2-1.69-5.76-5.05-14-19.51-13.21-10.61.55-15.17,11.82-15.82,18.29-.33,3.34-2,25.14-2,32.13C142.84,180.25,142.75,182.13,142.85,184Z" style="fill:#fff;opacity:0.5"></path><path d="M155.12,177.62c9.54,9.41,27.75,20.14,38.38,23.17,4.58,1.31,24.63-1.75,35.19-5.23,3.95-1.3-6.09-22.86-10.53-21.92-3,.64-19.41,7.84-21.83,7.61-4.45-.43-26.13-8.82-38-12.16C151.75,167.23,149.18,171.78,155.12,177.62Z" style="fill:#f7a9a0"></path><path d="M180.42,175.33l-4.69,21.86s-18.9-15.72-23.15-21.92c-4.79-7-.18-7.89,7.73-6.49S180.42,175.33,180.42,175.33Z" style="fill:#53BF80"></path><path d="M176.3,175.25c-1,2.71-2.75,11.22-3.06,12.63-.16.74-.68,3.72-.85,4.46,0,.09.13.11.15,0,.32-1.4.79-2.78,1.12-4.19s2.46-10,2.75-12.88C176.42,175.22,176.32,175.19,176.3,175.25Z" style="fill:#263238"></path><path d="M176.91,191.7l-1.18,5.49s-18.9-15.72-23.15-21.92a9.54,9.54,0,0,1-1.93-4.25Z" style="opacity:0.1"></path><path d="M156.68,216.4h-47.9s18.6-37.84,33.88-48.15c7-4.69,12.21-2.53,16,2.37.93,1.23,9.44,21.56,9.2,28.17-.21,5.84-7.63,10.14-7.63,10.14Z" style="fill:#53BF80"></path><path d="M153.64,205.11a32,32,0,0,0-6.46,1c-1.07.3-2.12.66-3.17,1.06-.53.2-1,.37-1.58.54a5.15,5.15,0,0,1-1.67.32s-.06.1,0,.11a8.33,8.33,0,0,0,1.58.07,8.07,8.07,0,0,0,1.53-.28c1.08-.29,2.16-.65,3.24-1,2.18-.61,4.35-1.22,6.55-1.61C153.75,205.35,153.74,205.11,153.64,205.11Z" style="fill:#263238"></path><path d="M158.7,208.22a32.51,32.51,0,0,0-5.27-.77,19.68,19.68,0,0,0-2.66,0c-.43,0-.86.06-1.28.1s-.94.19-1.41.23c-.05,0-.06.11,0,.11.45,0,.89.06,1.33.08l1.32.06,2.66.11c1.77.05,3.54.13,5.3.26C158.78,208.43,158.79,208.24,158.7,208.22Z" style="fill:#263238"></path><path d="M136,177C128.68,189.6,113.9,217.82,115,226c1.54,11.79,26.1,31.14,31.68,35.92,2.44,2.08,14.72-16.24,14.75-19.66,0-1.47-20.53-22.27-21.62-24.59s5.11-23.88,7.34-36.1C149.93,166.16,142.25,166.24,136,177Z" style="fill:#f7a9a0"></path><path d="M167.79,250.61c-.8-1.43-.06-1.86,2.63-.75s12.38,7.77,14.41,4.19-11.76-12.78-16.38-14.28-12.6-2.31-12.6-2.31C158.18,239.79,163.29,246,167.79,250.61Z" style="fill:#f7a9a0"></path><rect x="170.26" y="174.84" width="153.26" height="103.68" style="fill:#263238"></rect><path d="M236.41,237.16a14.82,14.82,0,1,1,21,0A14.82,14.82,0,0,1,236.41,237.16Z" style="fill:#53BF80"></path><polygon points="241.75 232.46 241.75 220.9 253.64 226.68 241.75 232.46" style="fill:#fff"></polygon><path d="M302.59,270.11H190.07a.72.72,0,0,0,0,1.44H302.59a.72.72,0,0,0,0-1.44Z" style="fill:#c7c7c7"></path><path d="M190.07,270.11a.72.72,0,0,0,0,1.44h57.09v-1.44Z" style="fill:#53BF80"></path><path d="M245.72,270.83a1.45,1.45,0,1,1,1.44,1.44A1.44,1.44,0,0,1,245.72,270.83Z" style="fill:#53BF80"></path><polygon points="314.46 268.5 314.46 269.16 314.46 270.6 315.12 270.6 315.12 269.16 316.56 269.16 316.56 268.5 315.12 268.5 314.46 268.5" style="fill:#fff"></polygon><polygon points="318.78 268.5 317.34 268.5 317.34 269.16 318.78 269.16 318.78 270.6 319.44 270.6 319.44 269.16 319.44 268.5 318.78 268.5" style="fill:#fff"></polygon><polygon points="318.78 272.69 317.34 272.69 317.34 273.35 318.78 273.35 319.44 273.35 319.44 272.69 319.44 271.25 318.78 271.25 318.78 272.69" style="fill:#fff"></polygon><polygon points="315.12 271.25 314.46 271.25 314.46 272.69 314.46 273.35 315.12 273.35 316.56 273.35 316.56 272.69 315.12 272.69 315.12 271.25" style="fill:#fff"></polygon><polygon points="175.51 268.73 175.51 272.93 178.89 270.83 175.51 268.73" style="fill:#fff"></polygon><path d="M180.73,270.89a.93.93,0,0,1,.13-.48.43.43,0,0,1,.75,0,1,1,0,0,1,0,1,.43.43,0,0,1-.75,0A.93.93,0,0,1,180.73,270.89Zm.79,0a.61.61,0,0,0-.1-.35c-.06-.09-.12-.13-.18-.13a.23.23,0,0,0-.19.13.61.61,0,0,0-.1.35.66.66,0,0,0,.1.36.2.2,0,0,0,.37,0A.66.66,0,0,0,181.52,270.89Z" style="fill:#fff"></path><path d="M182.15,270.89a.85.85,0,0,1,.14-.48.46.46,0,0,1,.37-.22.49.49,0,0,1,.37.22,1,1,0,0,1,0,1,.49.49,0,0,1-.37.22.46.46,0,0,1-.37-.22A.85.85,0,0,1,182.15,270.89Zm.79,0a.61.61,0,0,0-.1-.35c-.06-.09-.12-.13-.18-.13a.25.25,0,0,0-.19.13.61.61,0,0,0-.1.35.66.66,0,0,0,.1.36.26.26,0,0,0,.19.12.24.24,0,0,0,.18-.12A.66.66,0,0,0,182.94,270.89Z" style="fill:#fff"></path><path d="M183.76,270.51a.15.15,0,0,1,0,.3.15.15,0,0,1,0-.3Zm0,.8a.14.14,0,0,1,.15.15.14.14,0,0,1-.15.14.14.14,0,0,1-.14-.14A.14.14,0,0,1,183.76,271.31Z" style="fill:#fff"></path><path d="M184.05,270.89a.85.85,0,0,1,.14-.48.46.46,0,0,1,.37-.22.49.49,0,0,1,.37.22,1,1,0,0,1,0,1,.49.49,0,0,1-.37.22.46.46,0,0,1-.37-.22A.85.85,0,0,1,184.05,270.89Zm.79,0a.61.61,0,0,0-.1-.35.22.22,0,0,0-.18-.13.25.25,0,0,0-.19.13.61.61,0,0,0-.1.35.66.66,0,0,0,.1.36.26.26,0,0,0,.19.12.23.23,0,0,0,.18-.12A.66.66,0,0,0,184.84,270.89Z" style="fill:#fff"></path><path d="M185.47,270.89a.93.93,0,0,1,.14-.48.46.46,0,0,1,.37-.22.47.47,0,0,1,.37.22,1,1,0,0,1,0,1,.47.47,0,0,1-.37.22.46.46,0,0,1-.37-.22A.93.93,0,0,1,185.47,270.89Zm.79,0a.69.69,0,0,0-.09-.35.2.2,0,0,0-.38,0,.61.61,0,0,0-.1.35.66.66,0,0,0,.1.36.21.21,0,0,0,.38,0A.76.76,0,0,0,186.26,270.89Z" style="fill:#fff"></path><path d="M306.4,270.89a.85.85,0,0,1,.14-.48.46.46,0,0,1,.37-.22.49.49,0,0,1,.37.22,1,1,0,0,1,0,1,.49.49,0,0,1-.37.22.46.46,0,0,1-.37-.22A.85.85,0,0,1,306.4,270.89Zm.79,0a.61.61,0,0,0-.1-.35.22.22,0,0,0-.18-.13.25.25,0,0,0-.19.13.61.61,0,0,0-.1.35.66.66,0,0,0,.1.36.26.26,0,0,0,.19.12.23.23,0,0,0,.18-.12A.66.66,0,0,0,307.19,270.89Z" style="fill:#fff"></path><path d="M308.56,270.74a.5.5,0,0,1,.14.36.45.45,0,0,1-.14.34.49.49,0,0,1-.35.15h0a.47.47,0,0,1-.35-.15.1.1,0,0,1,0-.16.12.12,0,0,1,.16,0,.27.27,0,0,0,.38,0,.27.27,0,0,0,.08-.18.3.3,0,0,0-.08-.2.29.29,0,0,0-.38,0,.1.1,0,0,1-.16,0l0,0h0a0,0,0,0,1,0,0l.06-.52a.1.1,0,0,1,.05-.08h0l.05,0h.59a.11.11,0,0,1,.11.12.1.1,0,0,1-.11.11h-.49l0,.2a.3.3,0,0,1,.13,0A.52.52,0,0,1,308.56,270.74Z" style="fill:#fff"></path><path d="M309.23,270.51a.15.15,0,0,1,0,.3.15.15,0,0,1,0-.3Zm0,.8a.15.15,0,0,1,.15.15.15.15,0,0,1-.15.14.14.14,0,0,1-.15-.14A.14.14,0,0,1,309.23,271.31Z" style="fill:#fff"></path><path d="M310.27,270.74a.5.5,0,0,1,.15.35.49.49,0,0,1-.15.35.47.47,0,0,1-.35.15.49.49,0,0,1-.35-.15.11.11,0,0,1,.16-.16.27.27,0,1,0,.19-.46.11.11,0,0,1-.08,0h0a.11.11,0,0,1,0-.16l.21-.2h-.33a.11.11,0,0,1-.11-.12.11.11,0,0,1,.11-.11h.59a.11.11,0,0,1,.12.11.14.14,0,0,1,0,.06l0,0-.25.26A.71.71,0,0,1,310.27,270.74Z" style="fill:#fff"></path><path d="M311.46,270.74a.51.51,0,0,1,.15.36.46.46,0,0,1-.15.34.47.47,0,0,1-.35.15h0a.5.5,0,0,1-.35-.15.11.11,0,0,1,.16-.16.27.27,0,0,0,.38,0,.27.27,0,0,0,.08-.18.26.26,0,0,0-.08-.2.26.26,0,0,0-.19-.07.28.28,0,0,0-.19.07.1.1,0,0,1-.16,0l0,0h0v0l.06-.52a.14.14,0,0,1,0-.08h0l.06,0h.58a.12.12,0,0,1,.12.12.11.11,0,0,1-.12.11H311l0,.2a.3.3,0,0,1,.13,0A.5.5,0,0,1,311.46,270.74Z" style="fill:#fff"></path><path d="M301.73,185.71a3.37,3.37,0,0,1-1,.42,3.49,3.49,0,1,1,1-.42Z" style="fill:#a6a6a6"></path><path d="M301,182.33a1.07,1.07,0,1,1-2.13,0,1.07,1.07,0,0,1,2.13,0Z" style="fill:#fff"></path><path d="M301.73,185.27v.44a3.37,3.37,0,0,1-1,.42,3.52,3.52,0,0,1-2.67-.42v-.44a1.84,1.84,0,0,1,3.68,0Z" style="fill:#fff"></path><rect x="311.21" y="180.04" width="4.67" height="0.92" style="fill:#a6a6a6"></rect><rect x="311.21" y="181.9" width="4.67" height="0.92" style="fill:#a6a6a6"></rect><rect x="311.21" y="183.75" width="4.67" height="0.92" style="fill:#a6a6a6"></rect><rect x="177.9" y="180.64" width="92.54" height="2.01" style="fill:#a6a6a6"></rect><rect x="177.9" y="184.63" width="41.64" height="1.58" style="fill:#c7c7c7"></rect><path d="M140.68,256.38c6.79,6.32,14.87,14.6,25.1,16.86a5.13,5.13,0,0,0,3.38-.31c4.57,1.1,6.45-.73,6.45-.73,4.57-.28,6.24-2.42,6.24-2.42s5.38,1.23,6.66-1.9c1.44-3.5-6.39-4.54-10.35-7.74-9.07-7.34-19.9-20.31-22.31-22.68Z" style="fill:#f7a9a0"></path><path d="M163.25,259.13a73.67,73.67,0,0,0,8.31,6,73.77,73.77,0,0,0,10.24,4.56.09.09,0,0,1-.06.18,39.69,39.69,0,0,1-18.58-10.59C163,259.13,163.12,259,163.25,259.13Z" style="fill:#263238"></path><path d="M158,264c2.75,1.9,7.61,5.22,17.62,8.13,0,0,0,.07,0,.06a35.52,35.52,0,0,1-17.7-8.06C157.78,264,157.85,263.83,158,264Z" style="fill:#263238"></path><path d="M155.27,266.61c4.8,3.06,8.22,4.38,13.88,6.29,0,0,0,.07,0,.07-6.66-1.51-8.9-2.81-14-6.21C155,266.64,155.08,266.49,155.27,266.61Z" style="fill:#263238"></path><path d="M144.32,198.39,122,197.14s12.61-21.1,18.07-26.26c6.15-5.81,7.77-1.4,7.61,6.64S144.32,198.39,144.32,198.39Z" style="fill:#53BF80"></path><path d="M143.76,194.31c-2.82-.54-11.51-1-12.94-1.07-.76-.05-3.79-.1-4.54-.15-.1,0-.09.15,0,.15,1.44.1,2.88.35,4.32.46s10.26.88,13.15.72A.06.06,0,0,0,143.76,194.31Z" style="fill:#263238"></path><path d="M146.66,189.09c.36-1.12.72-2.25,1-3.39,0,0,0,0,0,0-.3.82-.58,1.64-.85,2.47.28-1.71.52-3.43.68-5.14,0,0,0,0,0,0-.63,2.54-1.12,5.12-1.69,7.68s-1.07,5-1.58,7.55c-.51,0-1,.09-1.54.12a.08.08,0,0,0,0,.16c.56,0,1.12.11,1.68.2a.26.26,0,0,0,.3-.18C145.43,195.43,146.12,192.27,146.66,189.09Z" style="fill:#263238"></path><path d="M126.68,188.8c.53-1.06,1.06-2.11,1.62-3.15,0,0,0,0,0,0-.36.79-.73,1.57-1.11,2.35,1-1.42,2-2.82,3.09-4.16,0,0,.05,0,0,0-1.32,2.26-2.77,4.45-4.15,6.68s-2.73,4.35-4.12,6.52c.24.13,2.75.11,3.06.23.09,0-.21.19-.3.19a21,21,0,0,1-3.19-.18.23.23,0,0,1-.1-.34C123.14,194.21,124.85,191.46,126.68,188.8Z" style="fill:#263238"></path><path d="M210.29,172.06c3.85-1.68,8.71-6.06,11.82-6.34a3.59,3.59,0,0,1,3.71,2.11s1.64-3,4.5-2.82c1.48.11,2.59,2.56,2.59,2.56a4.28,4.28,0,0,1,4-2c2,.28,2.83,2.69,2.83,2.69s2.43-1.65,4.39-.7c4,1.91,3.43,19.39-3.1,21.89-3,1.16-2.67-3.1-2.67-3.1s-2,6-5.62,6-2.79-5.53-2.79-5.53-2,5.8-5.74,5.4-2.13-5.79-2.13-5.79-2.76,3.8-5.55,2.84c-4.61-1.59,1.48-8.76.69-12.63l-6.27-2.33Z" style="fill:#f7a9a0"></path><path d="M215.91,168.73c-3.78,1.27-8.25-3.51-12-2.81-5.13.94-.32,6.83,7,8.34l5.92.17Z" style="fill:#f7a9a0"></path><path d="M239.88,168.59c0-.05.08-.07.09,0a30.31,30.31,0,0,1-1.64,18c-.08.17-.41.12-.36-.09A61.91,61.91,0,0,0,239.88,168.59Z" style="fill:#263238"></path><path d="M233,167.48c0-.06.11-.07.13,0a28.42,28.42,0,0,1-3,19.5c-.12.2-.43.26-.31,0C231.8,182.87,233.25,173.13,233,167.48Z" style="fill:#263238"></path><path d="M221.65,186.73c3.17-5.83,4.15-12.09,4.23-18.66,0-.08.13-.07.14,0,.84,3.23.35,7.41-.31,10.63a17.48,17.48,0,0,1-3.86,8.14C221.77,186.93,221.58,186.86,221.65,186.73Z" style="fill:#263238"></path><path d="M152.12,164.61c-5.17-.44-6,7.1-4.89,11.48s5.39,9.66,6.62,9.75,3.94-6.51,3.94-6.51,2.94,5.1,4.07,4.79c.7-.19.51-5.77.27-8S160,165.29,152.12,164.61Z" style="fill:#fff"></path><path d="M149.18,168.85c0,1.11,3.62,9,8.48,9.79,1.59.26,3.36-8.33,3.36-8.33l.27-.6,3.85-8.46-9-8.88-1.32-1.2s-.9,2.38-2,5.36c-.05.14-.1.28-.16.42s-.13.33-.18.49c-.17.44-.34.89-.5,1.35s-.25.68-.36,1.05-.24.72-.37,1.08A60.89,60.89,0,0,0,149.18,168.85Z" style="fill:#f7a9a0"></path><path d="M152.81,156.53a18.65,18.65,0,0,0,8.48,13.18l3.85-8.46-9-8.88-1.32-1.2S153.9,153.55,152.81,156.53Z" style="fill:#263238"></path><path d="M181.43,149.91c-1.07,16.27-10.94,17.46-14.45,17.23-3.18-.22-14-1.35-14.61-17.65s7.3-20.94,14.61-20.83S182.51,133.64,181.43,149.91Z" style="fill:#f7a9a0"></path><path d="M179.32,147c-.37-.08-.71-.22-1.07-.33a1.8,1.8,0,0,1-1-.55.57.57,0,0,1,.07-.7,1.43,1.43,0,0,1,1.44-.21A2.09,2.09,0,0,1,180,146,.62.62,0,0,1,179.32,147Z" style="fill:#263238"></path><path d="M168.21,147.58a10.38,10.38,0,0,0,1.12-.14,1.75,1.75,0,0,0,1.11-.35.59.59,0,0,0,.06-.71,1.46,1.46,0,0,0-1.38-.46,2.21,2.21,0,0,0-1.39.63A.62.62,0,0,0,168.21,147.58Z" style="fill:#263238"></path><path d="M170.41,150.14s-.09.05-.09.09c0,1.11-.27,2.38-1.29,2.68,0,0,0,.07,0,.06C170.27,152.88,170.55,151.2,170.41,150.14Z" style="fill:#263238"></path><path d="M169.5,148.92c-1.78-.25-2.15,3.31-.51,3.55S171,149.13,169.5,148.92Z" style="fill:#263238"></path><path d="M168.78,149c-.34.17-.68.5-1.06.5s-.73-.41-1-.8c0,0-.06,0-.07,0-.08.68.11,1.41.83,1.59s1.2-.39,1.45-1.06C169,149.17,168.91,149,168.78,149Z" style="fill:#263238"></path><path d="M176.57,150.55s.08.06.08.11c-.16,1.09-.16,2.38.8,2.86,0,0,0,.07,0,.06C176.23,153.27,176.25,151.56,176.57,150.55Z" style="fill:#263238"></path><path d="M177.69,149.51c1.79.06,1.53,3.64-.13,3.58S176.19,149.45,177.69,149.51Z" style="fill:#263238"></path><path d="M178.42,149.8c.27.21.52.57.86.62s.7-.32,1-.67c0,0,.05,0,.05.05,0,.68-.31,1.38-1,1.46s-1-.54-1.12-1.24C178.2,149.9,178.31,149.71,178.42,149.8Z" style="fill:#263238"></path><path d="M169.34,159.19c.22.3.43.69.83.79a3,3,0,0,0,1.22-.1,0,0,0,0,1,0,.06,1.52,1.52,0,0,1-1.49.39,1.18,1.18,0,0,1-.71-1.1C169.22,159.16,169.31,159.15,169.34,159.19Z" style="fill:#263238"></path><path d="M173.78,157.78a4.48,4.48,0,0,1-1.85,1.35,2,2,0,0,1-1.24,0c-.89-.26-.88-1.08-.7-1.78a5,5,0,0,1,.43-1.06A5.86,5.86,0,0,0,173.78,157.78Z" style="fill:#263238"></path><path d="M171.93,159.13a2,2,0,0,1-1.24,0c-.89-.26-.88-1.08-.7-1.78A2.1,2.1,0,0,1,171.93,159.13Z" style="fill:#ff9bbc"></path><path d="M174.33,155.62a23.64,23.64,0,0,1,0,2.45c0,.08-.19.09-.46.09h0a3.7,3.7,0,0,1-3.47-1.71c-.05-.08.06-.15.13-.1a5.55,5.55,0,0,0,3.29,1.28c.07-.21-.23-2.86-.1-2.86a7.28,7.28,0,0,1,1.73.57c-.06-3.49-.67-6.94-.68-10.41,0-.13.19-.15.21,0a56.61,56.61,0,0,1,1.21,11.19C176.18,156.52,174.63,155.78,174.33,155.62Z" style="fill:#263238"></path><path d="M174.26,133.17a7.11,7.11,0,0,1-1.12,4c-2.47,3.13-6.5,1.25-8.27,2.31s-1.79,3.81-3.32,4.83c-2.11,1.42-4.27.2-4.82,1.35s-2.24,4.84-3.91,5-2.94-27.21,17.14-21.81c0,0,3-.51,6.86,2.64,4.22,3.47,4.51,11.77,4.51,11.77s-.07-.13-.63-.9c-.78-1.08-1-2-1.57-2.68-.93-1.14-1.62-.94-2.6-2.06A13.83,13.83,0,0,1,174.26,133.17Z" style="fill:#53BF80"></path><path d="M174.21,132a14.52,14.52,0,0,1-.11,3.23,5.89,5.89,0,0,1-1.12,2.92,4.32,4.32,0,0,1-2.73,1.28c-1.05.13-2.13,0-3.26.18a3.1,3.1,0,0,0-1.59.71,4.22,4.22,0,0,0-1,1.42,5.77,5.77,0,0,1-1.76,2.55,3.58,3.58,0,0,1-3,.52c-1-.23-2.09-.77-3.19-.55,1.12-.13,2.08.47,3.12.8a4,4,0,0,0,3.26-.44,5.82,5.82,0,0,0,2-2.68,3.94,3.94,0,0,1,.85-1.26,2.87,2.87,0,0,1,1.36-.57c1-.18,2.12-.06,3.23-.22a5.45,5.45,0,0,0,1.62-.46,3.36,3.36,0,0,0,1.36-1,6.11,6.11,0,0,0,1.06-3.14A14.21,14.21,0,0,0,174.21,132Z" style="fill:#53BF80"></path><path d="M174.39,133a11.48,11.48,0,0,0,.34,3,5.33,5.33,0,0,0,1.53,2.69,7.55,7.55,0,0,0,1.28.86,2.49,2.49,0,0,1,.93,1,7.08,7.08,0,0,0,.61,1.4,3.44,3.44,0,0,0,1.11,1,3.71,3.71,0,0,1-.89-1.17,7.28,7.28,0,0,1-.46-1.41,2.59,2.59,0,0,0-1-1.24,8,8,0,0,1-1.2-.84,5.65,5.65,0,0,1-1.47-2.43A22.8,22.8,0,0,1,174.39,133Z" style="fill:#53BF80"></path><g style="opacity:0.5"><path d="M174.26,133.17a7.11,7.11,0,0,1-1.12,4c-2.47,3.13-6.5,1.25-8.27,2.31s-1.79,3.81-3.32,4.83c-2.11,1.42-4.27.2-4.82,1.35s-2.24,4.84-3.91,5-2.94-27.21,17.14-21.81c0,0,3-.51,6.86,2.64,4.22,3.47,4.51,11.77,4.51,11.77s-.07-.13-.63-.9c-.78-1.08-1-2-1.57-2.68-.93-1.14-1.62-.94-2.6-2.06A13.83,13.83,0,0,1,174.26,133.17Z" style="fill:#fff"></path><path d="M174.21,132a14.52,14.52,0,0,1-.11,3.23,5.89,5.89,0,0,1-1.12,2.92,4.32,4.32,0,0,1-2.73,1.28c-1.05.13-2.13,0-3.26.18a3.1,3.1,0,0,0-1.59.71,4.22,4.22,0,0,0-1,1.42,5.77,5.77,0,0,1-1.76,2.55,3.58,3.58,0,0,1-3,.52c-1-.23-2.09-.77-3.19-.55,1.12-.13,2.08.47,3.12.8a4,4,0,0,0,3.26-.44,5.82,5.82,0,0,0,2-2.68,3.94,3.94,0,0,1,.85-1.26,2.87,2.87,0,0,1,1.36-.57c1-.18,2.12-.06,3.23-.22a5.45,5.45,0,0,0,1.62-.46,3.36,3.36,0,0,0,1.36-1,6.11,6.11,0,0,0,1.06-3.14A14.21,14.21,0,0,0,174.21,132Z" style="fill:#fff"></path><path d="M174.39,133a11.48,11.48,0,0,0,.34,3,5.33,5.33,0,0,0,1.53,2.69,7.55,7.55,0,0,0,1.28.86,2.49,2.49,0,0,1,.93,1,7.08,7.08,0,0,0,.61,1.4,3.44,3.44,0,0,0,1.11,1,3.71,3.71,0,0,1-.89-1.17,7.28,7.28,0,0,1-.46-1.41,2.59,2.59,0,0,0-1-1.24,8,8,0,0,1-1.2-.84,5.65,5.65,0,0,1-1.47-2.43A22.8,22.8,0,0,1,174.39,133Z" style="fill:#fff"></path></g><path d="M151.94,155.49a3.07,3.07,0,0,0,.72.3,2.4,2.4,0,0,0,.75.14,2.18,2.18,0,0,0,1-.16,2.59,2.59,0,0,0,.68-.37,3.11,3.11,0,0,0,.75-.81l-.23-4.45s-2.75-5.57-5.22-4.66S149.41,154.08,151.94,155.49Z" style="fill:#f7a9a0"></path><path d="M150.86,147.67s-.06.05,0,.07c1.76,1,2.48,2.94,2.89,4.86a1.51,1.51,0,0,0-2.18-.76c-.06,0,0,.11,0,.11a1.69,1.69,0,0,1,1.76.87,8.44,8.44,0,0,1,.65,1.62c.06.19.38.14.35-.06v0C154.74,151.94,153.4,148.31,150.86,147.67Z" style="fill:#263238"></path><path d="M152.27,154.84a.76.76,0,1,0,.72-.79A.75.75,0,0,0,152.27,154.84Z" style="fill:#fff"></path><path d="M150.91,153.48a.54.54,0,0,0,.56.51.54.54,0,0,0-.05-1.07A.53.53,0,0,0,150.91,153.48Z" style="fill:#fff"></path></g><g id="freepik--Calendar--inject-12"><rect x="313.63" y="99.9" width="94.25" height="49.64" style="fill:#53BF80"></rect><rect x="352.54" y="120.02" width="5.63" height="4.37" style="fill:#53BF80"></rect><rect x="352.54" y="120.02" width="5.63" height="4.37" style="fill:#fff;opacity:0.6000000000000001"></rect><rect x="359.9" y="120.02" width="5.63" height="4.37" style="fill:#fff"></rect><rect x="367.32" y="120.02" width="5.63" height="4.37" style="fill:#fff"></rect><rect x="374.71" y="120.02" width="5.63" height="4.37" style="fill:#fff"></rect><rect x="382.1" y="120.02" width="5.63" height="4.37" style="fill:#fff"></rect><rect x="389.5" y="120.02" width="5.63" height="4.37" style="fill:#fff"></rect><rect x="396.89" y="120.02" width="5.63" height="4.37" style="fill:#fff"></rect><rect x="352.54" y="126.08" width="5.63" height="4.37" style="fill:#53BF80"></rect><rect x="352.54" y="126.08" width="5.63" height="4.37" style="fill:#fff;opacity:0.6000000000000001"></rect><rect x="359.93" y="126.08" width="5.63" height="4.37" style="fill:#fff"></rect><rect x="367.32" y="126.08" width="5.63" height="4.37" style="fill:#fff"></rect><rect x="374.71" y="126.08" width="5.63" height="4.37" style="fill:#53BF80"></rect><rect x="374.71" y="126.08" width="5.63" height="4.37" style="fill:#fff;opacity:0.6000000000000001"></rect><rect x="382.1" y="126.08" width="5.63" height="4.37" style="fill:#fff"></rect><rect x="389.5" y="126.08" width="5.63" height="4.37" style="fill:#fff"></rect><rect x="396.89" y="126.08" width="5.63" height="4.37" style="fill:#fff"></rect><rect x="374.71" y="113.96" width="5.63" height="4.37" style="fill:#fff"></rect><rect x="382.1" y="113.96" width="5.63" height="4.37" style="fill:#fff"></rect><rect x="389.5" y="113.96" width="5.63" height="4.37" style="fill:#fff"></rect><rect x="396.89" y="113.96" width="5.63" height="4.37" style="fill:#fff"></rect><rect x="352.54" y="132.14" width="5.63" height="4.37" style="fill:#53BF80"></rect><rect x="352.54" y="132.14" width="5.63" height="4.37" style="fill:#fff;opacity:0.6000000000000001"></rect><rect x="359.93" y="132.14" width="5.63" height="4.37" style="fill:#fff"></rect><rect x="367.32" y="132.14" width="5.63" height="4.37" style="fill:#fff"></rect><rect x="374.71" y="132.14" width="5.63" height="4.37" style="fill:#fff"></rect><rect x="382.1" y="132.14" width="5.63" height="4.37" style="fill:#fff"></rect><rect x="389.5" y="132.14" width="5.63" height="4.37" style="fill:#fff"></rect><rect x="396.89" y="132.14" width="5.63" height="4.37" style="fill:#fff"></rect><rect x="352.54" y="138.2" width="5.63" height="4.37" style="fill:#53BF80"></rect><rect x="352.54" y="138.2" width="5.63" height="4.37" style="fill:#fff;opacity:0.6000000000000001"></rect><rect x="359.93" y="138.2" width="5.63" height="4.37" style="fill:#fff"></rect><rect x="367.32" y="138.2" width="5.63" height="4.37" style="fill:#fff"></rect><rect x="374.71" y="138.2" width="5.63" height="4.37" style="fill:#fff"></rect><rect x="382.1" y="138.2" width="5.63" height="4.37" style="fill:#fff"></rect><path d="M354.61,110.84a.19.19,0,0,1,.26,0,1.16,1.16,0,0,0,.7.28A.77.77,0,0,0,356,111a.33.33,0,0,0,.16-.26.24.24,0,0,0,0-.12l-.11-.11a1.52,1.52,0,0,0-.5-.17h0a1.72,1.72,0,0,1-.47-.14.75.75,0,0,1-.33-.28.53.53,0,0,1-.09-.3.68.68,0,0,1,.29-.53,1.09,1.09,0,0,1,.63-.19,1.4,1.4,0,0,1,.79.29.18.18,0,0,1,0,.26.18.18,0,0,1-.25,0,1.11,1.11,0,0,0-.59-.23.74.74,0,0,0-.41.12.29.29,0,0,0-.13.23.16.16,0,0,0,0,.1.46.46,0,0,0,.1.1,1.44,1.44,0,0,0,.45.16h0a1.73,1.73,0,0,1,.5.15.82.82,0,0,1,.36.3.56.56,0,0,1,.09.31.7.7,0,0,1-.31.56,1.14,1.14,0,0,1-.67.21,1.58,1.58,0,0,1-.93-.37A.19.19,0,0,1,354.61,110.84Z" style="fill:#fff"></path><path d="M363.84,109.13v2.14a.21.21,0,0,1-.21.2.2.2,0,0,1-.2-.2v-1.53l-.52.73a.21.21,0,0,1-.16.08h0a.21.21,0,0,1-.17-.08l-.52-.73v1.53a.2.2,0,0,1-.4,0v-2.14a.2.2,0,0,1,.2-.2h0a.21.21,0,0,1,.16.08l.72,1,.73-1a.19.19,0,0,1,.16-.08h0A.21.21,0,0,1,363.84,109.13Z" style="fill:#fff"></path><path d="M371.05,109.33h-.58v1.94a.19.19,0,0,1-.2.2.21.21,0,0,1-.2-.2v-1.94h-.57a.2.2,0,1,1,0-.4h1.55a.2.2,0,0,1,0,.4Z" style="fill:#fff"></path><path d="M379.12,109.23l-.89,2.12s0,0,0,0h0s0,0,0,0h0l0,0h0l0,0H378l0,0h0s0,0,0,0h0s0,0,0,0h0a0,0,0,0,1,0,0l-.48-1.13-.48,1.13s0,0,0,0h0l0,0h0s0,0,0,0h0l0,0h0s0,0,0,0h-.13l0,0h0l0,0h0s0,0,0,0h0s0,0,0,0l-.9-2.12a.2.2,0,0,1,.37-.15l.71,1.68.47-1.11a.21.21,0,0,1,.19-.13.22.22,0,0,1,.19.13l.47,1.11.7-1.68A.21.21,0,0,1,379,109,.19.19,0,0,1,379.12,109.23Z" style="fill:#fff"></path><path d="M385.69,109.33h-.57v1.94a.2.2,0,1,1-.4,0v-1.94h-.58a.2.2,0,1,1,0-.4h1.55a.2.2,0,0,1,0,.4Z" style="fill:#fff"></path><path d="M391.58,111.27v-2.14a.2.2,0,0,1,.2-.2H393a.2.2,0,0,1,0,.4h-1V110h.85a.2.2,0,0,1,0,.4H392v.87a.2.2,0,0,1-.4,0Z" style="fill:#fff"></path><path d="M398.74,110.84a.2.2,0,0,1,.27,0,1.13,1.13,0,0,0,.69.28.75.75,0,0,0,.45-.13.33.33,0,0,0,.16-.26.24.24,0,0,0,0-.12.56.56,0,0,0-.11-.11,1.44,1.44,0,0,0-.5-.17h0a1.55,1.55,0,0,1-.46-.14.78.78,0,0,1-.34-.28.52.52,0,0,1-.08-.3.65.65,0,0,1,.29-.53,1.08,1.08,0,0,1,.62-.19,1.46,1.46,0,0,1,.8.29.2.2,0,0,1,.05.26.19.19,0,0,1-.26,0,1.08,1.08,0,0,0-.59-.23.7.7,0,0,0-.4.12.28.28,0,0,0-.14.23.3.3,0,0,0,0,.1.93.93,0,0,0,.1.1,1.51,1.51,0,0,0,.46.16h0a1.73,1.73,0,0,1,.5.15.91.91,0,0,1,.37.3.66.66,0,0,1,.09.31.71.71,0,0,1-.32.56,1.14,1.14,0,0,1-.67.21,1.58,1.58,0,0,1-.93-.37A.19.19,0,0,1,398.74,110.84Z" style="fill:#fff"></path><path d="M354.89,123a.06.06,0,0,1,0-.08.07.07,0,0,1,.09,0,.43.43,0,0,0,.6,0,.43.43,0,0,0,.13-.31.42.42,0,0,0-.12-.3.43.43,0,0,0-.31-.13.39.39,0,0,0-.3.13.06.06,0,0,1-.08,0s0,0,0,0h0v0h0l.08-.65a.05.05,0,0,1,0,0h.79a.06.06,0,0,1,.06,0,.06.06,0,0,1-.06.06h-.7l-.06.48a.52.52,0,0,1,.27-.07.54.54,0,0,1,.39.16.51.51,0,0,1,.16.38.54.54,0,0,1-.16.39.59.59,0,0,1-.39.16A.54.54,0,0,1,354.89,123Z" style="fill:#263238"></path><path d="M362.34,121.85a.65.65,0,0,1,.56-.35.06.06,0,0,1,.06,0,.06.06,0,0,1-.06.06.58.58,0,0,0-.47.29,1.17,1.17,0,0,0-.11.33.55.55,0,0,1,.4-.19.54.54,0,1,1-.53.55.31.31,0,0,1,0-.1A1.29,1.29,0,0,1,362.34,121.85Zm0,.74v0h0a.43.43,0,0,0,.42.37.42.42,0,1,0-.42-.42Z" style="fill:#263238"></path><path d="M369.86,123l.59-1.41h-.77a.06.06,0,0,1-.06-.06.06.06,0,0,1,.06,0h.85a0,0,0,0,1,0,0,0,0,0,0,1,0,0s0,0,0,0,0,0,0,0l-.63,1.48a.07.07,0,0,1,0,0h0A.05.05,0,0,1,369.86,123Z" style="fill:#263238"></path><path d="M377.39,121.5a.33.33,0,0,1,.33.33.34.34,0,0,1-.13.27.53.53,0,0,1,.32.49.52.52,0,0,1-.52.52.52.52,0,0,1-.53-.52.54.54,0,0,1,.33-.49.35.35,0,0,1-.14-.27A.34.34,0,0,1,377.39,121.5Zm0,1.5a.42.42,0,1,0-.41-.41A.41.41,0,0,0,377.39,123Zm0-.94a.23.23,0,0,0,.22-.23.22.22,0,0,0-.22-.22.22.22,0,0,0-.23.22A.23.23,0,0,0,377.39,122.06Z" style="fill:#263238"></path><path d="M384.88,121.5a.53.53,0,0,1,.53.47h0s0,.09,0,.14a1.32,1.32,0,0,1-.16.64.67.67,0,0,1-.56.35h0s-.06,0-.06,0,0-.06.05-.06a.54.54,0,0,0,.47-.3.82.82,0,0,0,.12-.32.54.54,0,0,1-.4.18.53.53,0,0,1-.53-.53A.52.52,0,0,1,384.88,121.5Zm.42.53a.42.42,0,1,0-.42.42A.42.42,0,0,0,385.3,122Z" style="fill:#263238"></path><path d="M391.73,121.66l-.23.13h0a.05.05,0,0,1-.05,0,.06.06,0,0,1,0-.07l.32-.19a.06.06,0,0,1,.07,0,.06.06,0,0,1,0,0v1.48a.06.06,0,0,1-.06.06.06.06,0,0,1,0-.06Z" style="fill:#263238"></path><path d="M392.26,122.3a1.11,1.11,0,0,1,.15-.56.46.46,0,0,1,.81,0,1,1,0,0,1,.16.56,1,1,0,0,1-.16.56.45.45,0,0,1-.81,0A1.06,1.06,0,0,1,392.26,122.3Zm.11,0a.92.92,0,0,0,.14.5.39.39,0,0,0,.31.2.42.42,0,0,0,.31-.2.92.92,0,0,0,.13-.5,1,1,0,0,0-.13-.5.41.41,0,0,0-.31-.19.38.38,0,0,0-.31.19A1,1,0,0,0,392.37,122.3Z" style="fill:#263238"></path><path d="M399.38,121.66l-.23.13h0a.05.05,0,0,1-.05,0,.05.05,0,0,1,0-.07l.31-.19a.06.06,0,0,1,.07,0,.06.06,0,0,1,0,0v1.48a.06.06,0,0,1-.06.06.06.06,0,0,1-.05-.06Z" style="fill:#263238"></path><path d="M400.15,121.66l-.23.13h0a0,0,0,0,1,0,0,0,0,0,0,1,0-.07l.31-.19a.06.06,0,0,1,.07,0,.06.06,0,0,1,0,0v1.48a.06.06,0,0,1-.05.06.06.06,0,0,1-.06-.06Z" style="fill:#263238"></path><path d="M377.49,115.5l-.23.13h0a.05.05,0,0,1-.05,0,.06.06,0,0,1,0-.07l.32-.19a0,0,0,0,1,.07,0s0,0,0,0v1.48s0,0-.06,0a0,0,0,0,1-.05,0Z" style="fill:#263238"></path><path d="M384.39,116.85l.75-.68a.44.44,0,0,0,.14-.31.43.43,0,0,0-.11-.28.39.39,0,0,0-.3-.13.45.45,0,0,0-.29.1l-.07.07a.06.06,0,0,1-.08-.08l.08-.07a.54.54,0,0,1,.36-.14.49.49,0,0,1,.38.18.47.47,0,0,1,.14.35.56.56,0,0,1-.17.39l-.65.58h.77a.06.06,0,0,1,.05.06,0,0,0,0,1-.05,0h-.95A.06.06,0,0,1,384.39,116.85Z" style="fill:#263238"></path><path d="M392.85,115.43l-.41.43a.52.52,0,0,1,.27.15.54.54,0,0,1,.16.39.51.51,0,0,1-.16.38.54.54,0,0,1-.39.16.52.52,0,0,1-.38-.16.06.06,0,0,1,.08-.08.39.39,0,0,0,.3.13.43.43,0,0,0,.31-.13.39.39,0,0,0,.13-.3.43.43,0,0,0-.13-.31.42.42,0,0,0-.3-.12.05.05,0,0,1-.05,0h0a0,0,0,0,1,0-.08l.4-.41h-.62a.06.06,0,1,1,0-.12h.75a.06.06,0,0,1,.06.06,0,0,0,0,1,0,0A0,0,0,0,1,392.85,115.43Z" style="fill:#263238"></path><path d="M400,116.61h-.91a.05.05,0,0,1,0-.08l.93-1.16h0a0,0,0,0,1,.07,0l0,0h0v1.1h.1a.06.06,0,0,1,.06.06s0,0-.06,0h-.1v.28a.06.06,0,0,1-.12,0Zm0-.11v-.94l-.76.94Z" style="fill:#263238"></path><path d="M354.63,133.72l-.23.13s0,0,0,0a.05.05,0,0,1-.05,0,0,0,0,0,1,0-.07l.31-.19a.06.06,0,0,1,.08,0s0,0,0,0v1.48a.06.06,0,0,1-.05.06.06.06,0,0,1-.06-.06Z" style="fill:#263238"></path><path d="M355.7,133.56a.52.52,0,0,1,.53.46v0a.57.57,0,0,1,0,.13,1.33,1.33,0,0,1-.16.65.67.67,0,0,1-.56.35h0a.06.06,0,0,1-.06-.06.06.06,0,0,1,.05-.06.51.51,0,0,0,.47-.29.88.88,0,0,0,.12-.32.53.53,0,0,1-.93-.35A.53.53,0,0,1,355.7,133.56Zm.42.53a.42.42,0,1,0-.42.41A.42.42,0,0,0,356.12,134.09Z" style="fill:#263238"></path><path d="M361.45,135.07l.75-.68a.41.41,0,0,0,.14-.31.43.43,0,0,0-.11-.28.39.39,0,0,0-.3-.13.45.45,0,0,0-.29.1l-.07.08a.05.05,0,0,1-.08,0,.06.06,0,0,1,0-.08l.08-.07a.53.53,0,0,1,.36-.13.48.48,0,0,1,.38.17.49.49,0,0,1,.14.35.54.54,0,0,1-.17.39l-.65.58h.77a.06.06,0,0,1,0,.12h-.91l0,0A.06.06,0,0,1,361.45,135.07Z" style="fill:#263238"></path><path d="M362.83,134.36a1,1,0,0,1,.16-.56.48.48,0,0,1,.4-.24.46.46,0,0,1,.4.24,1,1,0,0,1,.16.56,1,1,0,0,1-.16.56.47.47,0,0,1-.4.25.5.5,0,0,1-.4-.25A1,1,0,0,1,362.83,134.36Zm.12,0a.92.92,0,0,0,.13.5.41.41,0,0,0,.31.19.38.38,0,0,0,.31-.19.92.92,0,0,0,.14-.5,1,1,0,0,0-.14-.5.36.36,0,0,0-.31-.19.38.38,0,0,0-.31.19A1,1,0,0,0,363,134.36Z" style="fill:#263238"></path><path d="M369.25,135.07l.75-.68a.41.41,0,0,0,.14-.31.43.43,0,0,0-.11-.28.39.39,0,0,0-.3-.13.4.4,0,0,0-.28.1l-.08.08a.05.05,0,0,1-.08,0,.06.06,0,0,1,0-.08l.08-.07a.53.53,0,0,1,.36-.13.48.48,0,0,1,.38.17.49.49,0,0,1,.14.35.54.54,0,0,1-.17.39l-.65.58h.77a.06.06,0,0,1,0,.12h-.91a.05.05,0,0,1,0,0A.06.06,0,0,1,369.25,135.07Z" style="fill:#263238"></path><path d="M370.87,133.72l-.22.13h0a.05.05,0,0,1-.05,0,0,0,0,0,1,0-.07l.31-.19a.06.06,0,0,1,.08,0s0,0,0,0v1.48a.06.06,0,0,1-.05.06.06.06,0,0,1-.06-.06Z" style="fill:#263238"></path><path d="M376.22,135.07l.75-.68a.41.41,0,0,0,.14-.31.43.43,0,0,0-.11-.28.44.44,0,0,0-.59,0l-.08.08a.06.06,0,1,1-.07-.09l.08-.07a.53.53,0,0,1,.35-.13.5.5,0,0,1,.39.17.54.54,0,0,1,.14.35.51.51,0,0,1-.18.39l-.64.58h.76a.06.06,0,0,1,0,.12h-.91l0,0A.05.05,0,0,1,376.22,135.07Z" style="fill:#263238"></path><path d="M377.58,135.07l.75-.68a.41.41,0,0,0,.14-.31.43.43,0,0,0-.11-.28.44.44,0,0,0-.59,0l-.08.08a.06.06,0,0,1-.07-.09l.07-.07a.57.57,0,0,1,.36-.13.5.5,0,0,1,.39.17.54.54,0,0,1,.14.35.51.51,0,0,1-.18.39l-.64.58h.76a.06.06,0,0,1,0,.12h-.91l0,0A.05.05,0,0,1,377.58,135.07Z" style="fill:#263238"></path><path d="M383.71,135.07l.76-.68a.4.4,0,0,0,.13-.31.42.42,0,0,0-.1-.28.43.43,0,0,0-.31-.13.42.42,0,0,0-.28.1l-.08.08a.05.05,0,0,1-.08,0,.06.06,0,0,1,0-.08l.08-.07a.53.53,0,0,1,.36-.13.52.52,0,0,1,.39.17.53.53,0,0,1,.13.35.5.5,0,0,1-.17.39l-.64.58h.76a.06.06,0,0,1,0,.12h-.91l0,0A.06.06,0,0,1,383.71,135.07Z" style="fill:#263238"></path><path d="M386.05,133.66l-.42.43a.53.53,0,0,1,.28.14.55.55,0,0,1-.78.78.06.06,0,0,1,0-.08s.06,0,.08,0a.43.43,0,0,0,.74-.31.42.42,0,0,0-.12-.3.43.43,0,0,0-.31-.13l0,0h0a.07.07,0,0,1,0-.09l.4-.41h-.61a.05.05,0,0,1-.06-.06s0-.05.06-.05H386a.06.06,0,0,1,.06.05,0,0,0,0,1,0,0S386.05,133.65,386.05,133.66Z" style="fill:#263238"></path><path d="M391.16,135.07l.75-.68a.41.41,0,0,0,.14-.31.43.43,0,0,0-.11-.28.4.4,0,0,0-.31-.13.42.42,0,0,0-.28.1l-.07.08a.06.06,0,0,1-.08-.09l.08-.07a.53.53,0,0,1,.35-.13.53.53,0,0,1,.53.52.54.54,0,0,1-.17.39l-.65.58h.76a.06.06,0,0,1,0,.12h-.9l0,0A0,0,0,0,1,391.16,135.07Z" style="fill:#263238"></path><path d="M393.37,134.84h-.88l0,0a0,0,0,0,1,0-.07l.94-1.16h0a.06.06,0,0,1,.08,0s0,0,0,0h0v1.11h.11a0,0,0,0,1,0,.05.06.06,0,0,1,0,.06h-.11v.27a.06.06,0,0,1-.12,0Zm0-.11v-.95l-.76.95Z" style="fill:#263238"></path><path d="M398.51,135.07l.75-.68a.41.41,0,0,0,.14-.31.43.43,0,0,0-.11-.28.39.39,0,0,0-.3-.13.43.43,0,0,0-.29.1l-.07.08a.06.06,0,0,1-.08-.09l.08-.07a.53.53,0,0,1,.36-.13.48.48,0,0,1,.38.17.49.49,0,0,1,.14.35.54.54,0,0,1-.17.39l-.65.58h.77a.06.06,0,0,1,0,.12h-.91a.05.05,0,0,1,0,0A.06.06,0,0,1,398.51,135.07Z" style="fill:#263238"></path><path d="M399.91,135a0,0,0,0,1,0-.08.06.06,0,0,1,.08,0,.42.42,0,0,0,.3.12.41.41,0,0,0,.43-.43.42.42,0,0,0-.12-.3.4.4,0,0,0-.31-.13.39.39,0,0,0-.3.13.06.06,0,0,1-.08,0l0,0h0v0h0l.08-.65a.05.05,0,0,1,0,0h.79a.06.06,0,0,1,.06.05.06.06,0,0,1-.06.06h-.7l-.06.48a.52.52,0,0,1,.27-.07.58.58,0,0,1,.39.15.56.56,0,0,1,0,.78.59.59,0,0,1-.39.16A.55.55,0,0,1,399.91,135Z" style="fill:#263238"></path><path d="M354.13,141.06l.76-.68a.43.43,0,0,0,.13-.31.42.42,0,0,0-.1-.28.43.43,0,0,0-.31-.13.42.42,0,0,0-.28.1l-.08.07a.05.05,0,0,1-.08,0,.06.06,0,0,1,0-.08l.08-.07a.54.54,0,0,1,.36-.14.53.53,0,0,1,.39.18.51.51,0,0,1,.13.35.52.52,0,0,1-.17.39l-.64.58h.76a.06.06,0,0,1,.05.06,0,0,0,0,1-.05.05h-.95A.06.06,0,0,1,354.13,141.06Z" style="fill:#263238"></path><path d="M355.67,139.89a.67.67,0,0,1,.57-.35.06.06,0,0,1,0,.12.54.54,0,0,0-.47.29,1.12,1.12,0,0,0-.12.32.54.54,0,0,1,.94.35.53.53,0,0,1-.54.53.52.52,0,0,1-.53-.51v-.1A1.35,1.35,0,0,1,355.67,139.89Zm0,.74v.05a.41.41,0,0,0,.41.36.42.42,0,1,0-.42-.42Z" style="fill:#263238"></path><path d="M361.59,141.06l.75-.68a.44.44,0,0,0,.14-.31.43.43,0,0,0-.11-.28.39.39,0,0,0-.3-.13.45.45,0,0,0-.29.1l-.07.07a.05.05,0,0,1-.08,0,.06.06,0,0,1,0-.08l.08-.07a.54.54,0,0,1,.36-.14.49.49,0,0,1,.38.18.47.47,0,0,1,.14.35.56.56,0,0,1-.17.39l-.65.58h.77a.06.06,0,0,1,0,.06,0,0,0,0,1,0,.05h-1A.06.06,0,0,1,361.59,141.06Z" style="fill:#263238"></path><path d="M363.17,141.08l.6-1.42H363a0,0,0,0,1-.05,0,.06.06,0,0,1,.05-.06h.89l0,0v0a0,0,0,0,1,0,0l-.62,1.48a.05.05,0,0,1,0,0h0S363.17,141.1,363.17,141.08Z" style="fill:#263238"></path><path d="M368.91,141.06l.76-.68a.44.44,0,0,0,.14-.31.43.43,0,0,0-.11-.28.44.44,0,0,0-.59,0l-.08.07a.05.05,0,0,1-.08,0,.05.05,0,0,1,0-.08l.07-.07a.54.54,0,0,1,.36-.14.53.53,0,0,1,.39.18.52.52,0,0,1,.14.35.53.53,0,0,1-.18.39l-.64.58h.76a.06.06,0,0,1,.06.06.06.06,0,0,1-.06.05h-.95A.06.06,0,0,1,368.91,141.06Z" style="fill:#263238"></path><path d="M370.8,139.54a.34.34,0,0,1,.2.61.53.53,0,0,1,.32.48.52.52,0,0,1-1,0,.53.53,0,0,1,.32-.48.35.35,0,0,1-.14-.27A.34.34,0,0,1,370.8,139.54Zm0,1.5a.41.41,0,0,0,.41-.41.41.41,0,1,0-.82,0A.41.41,0,0,0,370.8,141Zm0-.94a.22.22,0,0,0,.22-.22.22.22,0,0,0-.22-.23.22.22,0,0,0-.22.23A.22.22,0,0,0,370.8,140.1Z" style="fill:#263238"></path><path d="M376.17,141.06l.75-.68a.44.44,0,0,0,.14-.31.43.43,0,0,0-.11-.28.4.4,0,0,0-.31-.13.42.42,0,0,0-.28.1l-.08.07a0,0,0,0,1-.07,0,.05.05,0,0,1,0-.08l.08-.07a.54.54,0,0,1,.35-.14.51.51,0,0,1,.39.18.47.47,0,0,1,.14.35.56.56,0,0,1-.17.39l-.65.58h.76a.06.06,0,0,1,.06.06.06.06,0,0,1-.06.05h-.95A.05.05,0,0,1,376.17,141.06Z" style="fill:#263238"></path><path d="M378.09,139.54a.54.54,0,0,1,.53.47h0s0,.09,0,.14a1.29,1.29,0,0,1-.16.64.63.63,0,0,1-.56.35h0a0,0,0,0,1,0-.05.06.06,0,0,1,0-.06.54.54,0,0,0,.47-.29,1,1,0,0,0,.12-.32.54.54,0,0,1-.94-.36A.54.54,0,0,1,378.09,139.54Zm.42.53a.42.42,0,1,0-.42.42A.41.41,0,0,0,378.51,140.07Z" style="fill:#263238"></path><path d="M384.6,139.64l-.42.43a.55.55,0,0,1,.28.15.59.59,0,0,1,.16.39.55.55,0,0,1-.94.38.06.06,0,0,1,0-.08.07.07,0,0,1,.09,0,.39.39,0,0,0,.3.13.43.43,0,0,0,.31-.13.42.42,0,0,0,.12-.3.41.41,0,0,0-.43-.43s0,0,0,0h0a.06.06,0,0,1,0-.08l.4-.41h-.61a.06.06,0,1,1,0-.12h.75a.06.06,0,0,1,.06.06,0,0,0,0,1,0,0Z" style="fill:#263238"></path><path d="M385.05,140.35a1,1,0,0,1,.16-.57.51.51,0,0,1,.4-.24.49.49,0,0,1,.4.24,1,1,0,0,1,.16.57,1,1,0,0,1-.16.56.47.47,0,0,1-.4.24.48.48,0,0,1-.4-.24A1,1,0,0,1,385.05,140.35Zm.12,0a1,1,0,0,0,.13.5.41.41,0,0,0,.31.19.39.39,0,0,0,.31-.19,1,1,0,0,0,.14-.5.92.92,0,0,0-.14-.5.37.37,0,0,0-.31-.19.38.38,0,0,0-.31.19A.92.92,0,0,0,385.17,140.35Z" style="fill:#263238"></path><path d="M354.78,127.67l-.23.13s0,0,0,0,0,0,0,0a0,0,0,0,1,0-.07l.31-.19a0,0,0,0,1,.07,0,.06.06,0,0,1,0,0v1.48a.06.06,0,0,1-.05.06.06.06,0,0,1-.06-.06Z" style="fill:#263238"></path><path d="M355.29,129l.75-.68a.41.41,0,0,0,.14-.31.43.43,0,0,0-.11-.28.4.4,0,0,0-.31-.13.42.42,0,0,0-.28.1l-.08.08a0,0,0,0,1-.07,0,.05.05,0,0,1,0-.08l.08-.07a.54.54,0,0,1,.35-.14.51.51,0,0,1,.39.18.49.49,0,0,1,.14.35.54.54,0,0,1-.17.39l-.65.58h.76a.06.06,0,0,1,0,.12h-.9l-.05,0A.05.05,0,0,1,355.29,129Z" style="fill:#263238"></path><path d="M362.15,127.67l-.23.13h0a.05.05,0,0,1-.05,0,.06.06,0,0,1,0-.07l.32-.19a0,0,0,0,1,.07,0,.06.06,0,0,1,0,0v1.48a.06.06,0,0,1-.06.06.06.06,0,0,1-.05-.06Z" style="fill:#263238"></path><path d="M363.63,127.61l-.42.42a.59.59,0,0,1,.28.15.56.56,0,0,1,0,.78.59.59,0,0,1-.39.16.55.55,0,0,1-.38-.16,0,0,0,0,1,0-.08s0,0,.08,0a.42.42,0,0,0,.3.12.41.41,0,0,0,.43-.43.42.42,0,0,0-.12-.3.42.42,0,0,0-.31-.13l0,0h0a.06.06,0,0,1,0-.09l.4-.41h-.62a.06.06,0,0,1,0-.12h.75a.06.06,0,0,1,.06.06,0,0,0,0,1,0,0Z" style="fill:#263238"></path><path d="M369.41,127.67l-.23.13h0a.05.05,0,0,1,0,0,.05.05,0,0,1,0-.07l.31-.19a0,0,0,0,1,.07,0,.06.06,0,0,1,0,0v1.48a.06.06,0,0,1-.06.06.06.06,0,0,1,0-.06Z" style="fill:#263238"></path><path d="M370.84,128.79H370l0,0a0,0,0,0,1,0-.07l.93-1.17h0s.05,0,.07,0l0,0h0v1.11h.11s.06,0,.06,0a.06.06,0,0,1-.06.06H371v.27a.06.06,0,0,1-.05.06.06.06,0,0,1-.06-.06Zm0-.11v-1l-.76,1Z" style="fill:#263238"></path><path d="M376.8,127.67l-.22.13h0a.05.05,0,0,1-.05,0,0,0,0,0,1,0-.07l.31-.19a.05.05,0,0,1,.08,0,.06.06,0,0,1,0,0v1.48a.06.06,0,1,1-.12,0Z" style="fill:#263238"></path><path d="M377.35,129a.06.06,0,0,1,0-.08,0,0,0,0,1,.08,0,.47.47,0,0,0,.31.12.44.44,0,0,0,.3-.12.43.43,0,0,0,.13-.31.44.44,0,0,0-.43-.43.43.43,0,0,0-.31.13.06.06,0,0,1-.08,0v0h0v0h0l.07-.65s0,0,0,0l0,0h.75a.06.06,0,0,1,.06.06.05.05,0,0,1-.06.06h-.7l-.06.48a.55.55,0,0,1,.28-.07.54.54,0,0,1,.38.15.56.56,0,0,1,0,.78.54.54,0,0,1-.77,0Z" style="fill:#263238"></path><path d="M384.24,127.67l-.23.13h0a.05.05,0,0,1-.05,0,.06.06,0,0,1,0-.07l.31-.19a.05.05,0,0,1,.08,0,.06.06,0,0,1,0,0v1.48a.06.06,0,0,1-.06.06.06.06,0,0,1-.05-.06Z" style="fill:#263238"></path><path d="M384.92,127.86a.65.65,0,0,1,.57-.35s.05,0,.06,0a.06.06,0,0,1-.06.06.54.54,0,0,0-.47.29,1.24,1.24,0,0,0-.12.32.54.54,0,1,1-.13.37v-.1A1.29,1.29,0,0,1,384.92,127.86Zm0,.73a0,0,0,0,0,0,0v0a.4.4,0,0,0,.41.36.42.42,0,1,0-.42-.41Z" style="fill:#263238"></path><path d="M391.8,127.67l-.23.13h0s0,0,0,0a0,0,0,0,1,0-.07l.31-.19a0,0,0,0,1,.07,0,.06.06,0,0,1,0,0v1.48a.06.06,0,0,1-.06.06.06.06,0,0,1-.05-.06Z" style="fill:#263238"></path><path d="M392.57,129l.59-1.42h-.78a0,0,0,0,1-.05-.05.06.06,0,0,1,.05-.06h.89a0,0,0,0,1,0,0s0,0,0,0,0,0,0,0l-.63,1.48a.07.07,0,0,1-.05,0h0A.05.05,0,0,1,392.57,129Z" style="fill:#263238"></path><path d="M399,127.67l-.23.13s0,0,0,0a.05.05,0,0,1-.05,0,0,0,0,0,1,0-.07l.31-.19a.05.05,0,0,1,.08,0s0,0,0,0v1.48a.06.06,0,0,1,0,.06.06.06,0,0,1-.06-.06Z" style="fill:#263238"></path><path d="M400.08,127.5a.34.34,0,0,1,.33.34.32.32,0,0,1-.14.27.53.53,0,0,1,.33.48.52.52,0,0,1-.52.53.53.53,0,0,1-.53-.53.54.54,0,0,1,.32-.48.34.34,0,0,1,.21-.61Zm0,1.51a.42.42,0,0,0,0-.83.42.42,0,1,0,0,.83Zm0-.94a.24.24,0,0,0,.22-.23.22.22,0,0,0-.22-.22.22.22,0,0,0-.23.22A.24.24,0,0,0,400.08,128.07Z" style="fill:#263238"></path><path d="M328.93,109.79l-2.54,6a.26.26,0,0,1-.05.09h0a.18.18,0,0,1-.05.07s0,0,0,0l-.07,0h0a.24.24,0,0,1-.1.06h0l-.08,0h-.25l-.07,0h0a.2.2,0,0,1-.09-.06h0l-.07,0s0,0,0,0a.43.43,0,0,1,0-.07h0a.25.25,0,0,1,0-.09l-1.35-3.2-1.36,3.2,0,.09h0l-.06.07s0,0,0,0l-.06,0h0l-.09.06h0l-.08,0H322l-.07,0h0l-.09-.06h0s0,0-.08,0l0,0-.05-.07h0a.73.73,0,0,1,0-.09l-2.54-6a.57.57,0,0,1,.31-.74.55.55,0,0,1,.73.3l2,4.79,1.33-3.17a.57.57,0,0,1,.54-.36.59.59,0,0,1,.53.36l1.34,3.17,2-4.79a.58.58,0,0,1,.76-.3A.57.57,0,0,1,328.93,109.79Z" style="fill:#fff"></path><path d="M330.59,115.59V109.5a.56.56,0,0,1,.56-.57h3.38a.58.58,0,0,1,.57.57.59.59,0,0,1-.57.58h-2.8V112h2.41a.58.58,0,0,1,.57.57.57.57,0,0,1-.57.57h-2.41V115h2.8a.58.58,0,0,1,.57.57.58.58,0,0,1-.57.57h-3.38A.56.56,0,0,1,330.59,115.59Z" style="fill:#fff"></path><path d="M336.71,115.59V109.5a.56.56,0,0,1,.57-.57h1.22a3.62,3.62,0,0,1,0,7.23h-1.22A.57.57,0,0,1,336.71,115.59Zm1.15-.57h.64a2.47,2.47,0,0,0,0-4.94h-.64Z" style="fill:#fff"></path><path d="M325.92,122.26v16.39a1.56,1.56,0,0,1-1.56,1.53,1.51,1.51,0,0,1-1.53-1.53V125l-1.11.64a1.37,1.37,0,0,1-.78.22,1.56,1.56,0,0,1-.8-2.86l3.41-2s.09,0,.12,0,.08-.06.13-.09l.17,0a.15.15,0,0,1,.11,0,.46.46,0,0,1,.2,0h.3a.17.17,0,0,0,.11,0,.34.34,0,0,1,.17,0,.15.15,0,0,1,.11,0c.09.06.11.08.17.08a.35.35,0,0,0,.11.09l.11.08c.06,0,.08.08.11.11a.53.53,0,0,1,.09.11.57.57,0,0,0,.11.11l0,.06s0,.06,0,.08.06.09.06.14,0,.11.05.14a1.06,1.06,0,0,0,0,.14.24.24,0,0,0,.06.2Z" style="fill:#fff"></path><path d="M339.7,128.4a6.81,6.81,0,0,1,2,4.89,6.92,6.92,0,0,1-2,4.86,6.79,6.79,0,0,1-4.86,2h-.06a6.72,6.72,0,0,1-4.83-2,1.52,1.52,0,0,1,0-2.22,1.58,1.58,0,0,1,2.22,0,3.73,3.73,0,0,0,5.31,0,3.79,3.79,0,0,0,1.11-2.64,3.63,3.63,0,0,0-1.11-2.67,3.59,3.59,0,0,0-2.64-1.08,3.68,3.68,0,0,0-2.67,1.08,1.58,1.58,0,0,1-2.22,0c-.11-.11-.2-.25-.31-.36s0-.08,0-.08a.2.2,0,0,0-.05-.14c0-.09,0-.14,0-.2s0,0,0-.05a1.84,1.84,0,0,1,0-.47l.84-7.2A1.67,1.67,0,0,1,331,121c.06,0,.09,0,.11-.06s.06,0,.09,0a1.53,1.53,0,0,1,.72-.17h8.2a1.57,1.57,0,1,1,0,3.14h-6.84l-.33,2.75a7,7,0,0,1,1.86-.25A6.79,6.79,0,0,1,339.7,128.4Z" style="fill:#fff"></path><rect x="346.34" y="108.86" width="0.48" height="33.72" style="fill:#fff"></rect></g><g id="freepik--Images--inject-12"><rect x="236.93" y="284.63" width="153.23" height="56.74" transform="translate(627.09 626) rotate(180)" style="fill:#455a64"></rect><rect x="245.15" y="291.82" width="42.36" height="42.36" style="fill:#53BF80"></rect><path d="M281.71,326.33H251V299.66h30.75Zm-28.75-2h26.75V301.66H253Z" style="fill:#fff"></path><polygon points="251.96 325.33 260.3 317.34 267.87 325.33 251.96 325.33" style="fill:#fff"></polygon><polygon points="262.67 325.33 272.58 312.81 280.71 325.33 262.67 325.33" style="fill:#fff"></polygon><path d="M262.87,312.07a3,3,0,1,1-3-3A3,3,0,0,1,262.87,312.07Z" style="fill:#fff"></path><rect x="292.36" y="291.82" width="42.36" height="42.36" style="fill:#dbdbdb"></rect><path d="M328.92,326.33H298.16V299.66h30.76Zm-28.76-2h26.76V301.66H300.16Z" style="fill:#fff"></path><polygon points="299.16 325.33 307.51 317.34 315.07 325.33 299.16 325.33" style="fill:#fff"></polygon><polygon points="309.88 325.33 319.79 312.81 327.92 325.33 309.88 325.33" style="fill:#fff"></polygon><path d="M310.08,312.07a3,3,0,1,1-3-3A3,3,0,0,1,310.08,312.07Z" style="fill:#fff"></path><rect x="339.74" y="291.82" width="42.36" height="42.36" style="fill:#53BF80"></rect><path d="M376.3,326.33H345.55V299.66H376.3Zm-28.75-2H374.3V301.66H347.55Z" style="fill:#fff"></path><polygon points="346.55 325.33 354.89 317.34 362.46 325.33 346.55 325.33" style="fill:#fff"></polygon><polygon points="357.26 325.33 367.17 312.81 375.3 325.33 357.26 325.33" style="fill:#fff"></polygon><path d="M357.46,312.07a3,3,0,1,1-3-3A3,3,0,0,1,357.46,312.07Z" style="fill:#fff"></path></g></svg>