<svg width="98" height="98" viewBox="0 0 98 98" fill="none" xmlns="http://www.w3.org/2000/svg">
<path d="M35.8864 12.8294C38.592 6.90647 46.4236 5.52555 50.9918 10.1659L62.0082 21.3564C63.5036 22.8755 65.4802 23.834 67.6048 24.0705L83.2558 25.8126C89.7459 26.535 93.4731 33.5214 90.4448 39.2879L83.142 53.1939C82.1507 55.0817 81.8427 57.2509 82.2701 59.336L85.4183 74.696C86.7238 81.0655 81.1957 86.7642 74.756 85.6877L59.2262 83.0917C57.1181 82.7393 54.9512 83.1213 53.0907 84.1735L39.3854 91.9245C33.7022 95.1386 26.5584 91.6742 25.6067 85.2424L23.3116 69.732C23 67.6264 21.9688 65.6934 20.3915 64.2585L8.77304 53.6888C3.95513 49.3059 5.06808 41.466 10.9197 38.5674L25.0309 31.5774C26.9465 30.6286 28.4761 29.0518 29.3618 27.1128L35.8864 12.8294Z" fill="url(#paint0_linear_282_452)"/>
<defs>
<linearGradient id="paint0_linear_282_452" x1="-3.34752" y1="33.3683" x2="125.833" y2="69.6759" gradientUnits="userSpaceOnUse">
<stop stop-color="#97F5AC"/>
<stop offset="1" stop-color="#66D07E"/>
</linearGradient>
</defs>
</svg>
