<svg xmlns="http://www.w3.org/2000/svg" viewBox="0 0 500 500"><g id="freepik--background-complete--inject-46"><polygon points="108.12 285.5 106.91 285.5 106.91 284.7 107.31 284.7 107.31 284.3 108.12 284.3 108.12 285.5" style="fill:#ebebeb"></polygon><path d="M105.31,285.5h-1.6v-.8h1.6Zm-3.2,0h-1.6v-.8h1.6Zm-3.21,0H97.3v-.8h1.6Zm-3.2,0H94.1v-.8h1.6Zm-3.2,0H90.89v-.8H92.5Zm-3.21,0h-1.6v-.8h1.6Zm-3.2,0h-1.6v-.8h1.6Zm-3.21,0h-1.6v-.8h1.6Zm-3.2,0h-1.6v-.8h1.6Zm-3.2,0H74.87v-.8h1.61Zm-3.21,0h-1.6v-.8h1.6Zm-3.2,0h-1.6v-.8h1.6Zm-3.21,0h-1.6v-.8h1.6Zm-3.2,0h-1.6v-.8h1.6Zm-3.2,0H58.85v-.8h1.61Zm-3.21,0h-1.6v-.8h1.6Zm-3.2,0h-1.6v-.8h1.6Z" style="fill:#ebebeb"></path><polygon points="50.84 285.5 49.64 285.5 49.64 284.3 50.44 284.3 50.44 284.7 50.84 284.7 50.84 285.5" style="fill:#ebebeb"></polygon><path d="M50.44,282.7h-.8v-1.6h.8Zm0-3.21h-.8v-1.6h.8Zm0-3.2h-.8v-1.6h.8Zm0-3.2h-.8v-1.61h.8Zm0-3.21h-.8v-1.6h.8Zm0-3.2h-.8v-1.6h.8Zm0-3.21h-.8v-1.6h.8Zm0-3.2h-.8v-1.6h.8Zm0-3.2h-.8v-1.61h.8Zm0-3.21h-.8v-1.6h.8Zm0-3.2h-.8v-1.6h.8Zm0-3.21h-.8v-1.6h.8Zm0-3.2h-.8v-1.6h.8Zm0-3.2h-.8v-1.61h.8Zm0-3.21h-.8v-1.6h.8Zm0-3.2h-.8V233h.8Zm0-3.21h-.8v-1.6h.8Z" style="fill:#ebebeb"></path><polygon points="50.44 228.23 49.64 228.23 49.64 227.03 50.84 227.03 50.84 227.83 50.44 227.83 50.44 228.23" style="fill:#ebebeb"></polygon><path d="M105.31,227.83h-1.6V227h1.6Zm-3.2,0h-1.6V227h1.6Zm-3.21,0H97.3V227h1.6Zm-3.2,0H94.1V227h1.6Zm-3.2,0H90.89V227H92.5Zm-3.21,0h-1.6V227h1.6Zm-3.2,0h-1.6V227h1.6Zm-3.21,0h-1.6V227h1.6Zm-3.2,0h-1.6V227h1.6Zm-3.2,0H74.87V227h1.61Zm-3.21,0h-1.6V227h1.6Zm-3.2,0h-1.6V227h1.6Zm-3.21,0h-1.6V227h1.6Zm-3.2,0h-1.6V227h1.6Zm-3.2,0H58.85V227h1.61Zm-3.21,0h-1.6V227h1.6Zm-3.2,0h-1.6V227h1.6Z" style="fill:#ebebeb"></path><polygon points="108.12 228.23 107.31 228.23 107.31 227.83 106.91 227.83 106.91 227.03 108.12 227.03 108.12 228.23" style="fill:#ebebeb"></polygon><path d="M108.12,282.7h-.81v-1.6h.81Zm0-3.21h-.81v-1.6h.81Zm0-3.2h-.81v-1.6h.81Zm0-3.2h-.81v-1.61h.81Zm0-3.21h-.81v-1.6h.81Zm0-3.2h-.81v-1.6h.81Zm0-3.21h-.81v-1.6h.81Zm0-3.2h-.81v-1.6h.81Zm0-3.2h-.81v-1.61h.81Zm0-3.21h-.81v-1.6h.81Zm0-3.2h-.81v-1.6h.81Zm0-3.21h-.81v-1.6h.81Zm0-3.2h-.81v-1.6h.81Zm0-3.2h-.81v-1.61h.81Zm0-3.21h-.81v-1.6h.81Zm0-3.2h-.81V233h.81Zm0-3.2h-.81v-1.61h.81Z" style="fill:#ebebeb"></path><rect x="46.45" y="281.51" width="7.19" height="7.19" style="fill:#fff"></rect><path d="M54,289.09h-8v-8h8Zm-7.19-.8h6.39v-6.38H46.85Z" style="fill:#ebebeb"></path><rect x="46.48" y="252.67" width="7.19" height="7.19" style="fill:#fff"></rect><path d="M54,260.26h-8v-8h8Zm-7.19-.8h6.39v-6.39H46.85Z" style="fill:#ebebeb"></path><rect x="46.48" y="223.84" width="7.19" height="7.19" style="fill:#fff"></rect><path d="M54,231.42h-8v-8h8Zm-7.19-.8h6.39v-6.38H46.85Z" style="fill:#ebebeb"></path><rect x="104.15" y="281.51" width="7.19" height="7.19" style="fill:#fff"></rect><path d="M111.71,289.09h-8v-8h8Zm-7.19-.8h6.39v-6.38h-6.39Z" style="fill:#ebebeb"></path><rect x="104.15" y="252.67" width="7.19" height="7.19" style="fill:#fff"></rect><path d="M111.71,260.26h-8v-8h8Zm-7.19-.8h6.39v-6.39h-6.39Z" style="fill:#ebebeb"></path><rect x="104.15" y="223.84" width="7.19" height="7.19" style="fill:#fff"></rect><path d="M111.71,231.42h-8v-8h8Zm-7.19-.8h6.39v-6.38h-6.39Z" style="fill:#ebebeb"></path><rect x="75.32" y="223.84" width="7.19" height="7.19" style="fill:#fff"></rect><path d="M82.87,231.42h-8v-8h8Zm-7.18-.8h6.38v-6.38H75.69Z" style="fill:#ebebeb"></path><rect x="75.29" y="281.51" width="7.19" height="7.19" style="fill:#fff"></rect><path d="M82.87,289.09h-8v-8h8Zm-7.18-.8h6.38v-6.38H75.69Z" style="fill:#ebebeb"></path><polygon points="453.55 162.84 452.35 162.84 452.35 162.03 452.75 162.03 452.75 161.63 453.55 161.63 453.55 162.84" style="fill:#ebebeb"></polygon><path d="M450.75,162.84h-1.61V162h1.61Zm-3.21,0h-1.6V162h1.6Zm-3.2,0h-1.6V162h1.6Zm-3.21,0h-1.6V162h1.6Zm-3.2,0h-1.6V162h1.6Zm-3.2,0h-1.61V162h1.61Zm-3.21,0h-1.6V162h1.6Zm-3.2,0h-1.6V162h1.6Zm-3.21,0h-1.6V162h1.6Zm-3.2,0h-1.6V162h1.6Zm-3.2,0H417.1V162h1.61Zm-3.21,0h-1.6V162h1.6Zm-3.2,0h-1.6V162h1.6Zm-3.21,0h-1.6V162h1.6Zm-3.2,0h-1.6V162h1.6Zm-3.2,0h-1.61V162h1.61Zm-3.21,0h-1.6V162h1.6Z" style="fill:#ebebeb"></path><polygon points="396.28 162.84 395.08 162.84 395.08 161.63 395.88 161.63 395.88 162.03 396.28 162.03 396.28 162.84" style="fill:#ebebeb"></polygon><path d="M395.88,160h-.8v-1.6h.8Zm0-3.2h-.8v-1.6h.8Zm0-3.21h-.8V152h.8Zm0-3.2h-.8v-1.6h.8Zm0-3.2h-.8v-1.61h.8Zm0-3.21h-.8v-1.6h.8Zm0-3.2h-.8v-1.6h.8Zm0-3.21h-.8V136h.8Zm0-3.2h-.8v-1.6h.8Zm0-3.2h-.8v-1.61h.8Zm0-3.21h-.8v-1.6h.8Zm0-3.2h-.8v-1.6h.8Zm0-3.2h-.8V120h.8Zm0-3.21h-.8v-1.6h.8Zm0-3.2h-.8v-1.6h.8Zm0-3.21h-.8v-1.6h.8Zm0-3.2h-.8v-1.6h.8Z" style="fill:#ebebeb"></path><polygon points="395.88 105.57 395.08 105.57 395.08 104.36 396.28 104.36 396.28 105.17 395.88 105.17 395.88 105.57" style="fill:#ebebeb"></polygon><path d="M450.75,105.16h-1.61v-.8h1.61Zm-3.21,0h-1.6v-.8h1.6Zm-3.2,0h-1.6v-.8h1.6Zm-3.21,0h-1.6v-.8h1.6Zm-3.2,0h-1.6v-.8h1.6Zm-3.2,0h-1.61v-.8h1.61Zm-3.21,0h-1.6v-.8h1.6Zm-3.2,0h-1.6v-.8h1.6Zm-3.21,0h-1.6v-.8h1.6Zm-3.2,0h-1.6v-.8h1.6Zm-3.2,0H417.1v-.8h1.61Zm-3.21,0h-1.6v-.8h1.6Zm-3.2,0h-1.6v-.8h1.6Zm-3.21,0h-1.6v-.8h1.6Zm-3.2,0h-1.6v-.8h1.6Zm-3.2,0h-1.61v-.8h1.61Zm-3.21,0h-1.6v-.8h1.6Z" style="fill:#ebebeb"></path><polygon points="453.55 105.57 452.75 105.57 452.75 105.17 452.35 105.17 452.35 104.36 453.55 104.36 453.55 105.57" style="fill:#ebebeb"></polygon><path d="M453.55,160h-.8v-1.6h.8Zm0-3.2h-.8v-1.6h.8Zm0-3.21h-.8V152h.8Zm0-3.2h-.8v-1.6h.8Zm0-3.2h-.8v-1.61h.8Zm0-3.21h-.8v-1.6h.8Zm0-3.2h-.8v-1.6h.8Zm0-3.21h-.8V136h.8Zm0-3.2h-.8v-1.6h.8Zm0-3.2h-.8v-1.61h.8Zm0-3.21h-.8v-1.6h.8Zm0-3.2h-.8v-1.6h.8Zm0-3.2h-.8V120h.8Zm0-3.21h-.8v-1.6h.8Zm0-3.2h-.8v-1.6h.8Zm0-3.21h-.8v-1.6h.8Zm0-3.2h-.8v-1.6h.8Z" style="fill:#ebebeb"></path><rect x="391.88" y="158.84" width="7.19" height="7.19" style="fill:#fff"></rect><path d="M399.47,166.43h-8v-8h8Zm-7.19-.8h6.39v-6.39h-6.39Z" style="fill:#ebebeb"></path><rect x="391.91" y="130.01" width="7.19" height="7.19" style="fill:#fff"></rect><path d="M399.47,137.59h-8v-8h8Zm-7.19-.8h6.39v-6.38h-6.39Z" style="fill:#ebebeb"></path><rect x="391.91" y="101.17" width="7.19" height="7.19" style="fill:#fff"></rect><path d="M399.47,108.76h-8v-8h8Zm-7.19-.8h6.39v-6.39h-6.39Z" style="fill:#ebebeb"></path><rect x="449.59" y="158.84" width="7.19" height="7.19" style="fill:#fff"></rect><path d="M457.14,166.43h-8v-8h8Zm-7.18-.8h6.38v-6.39H450Z" style="fill:#ebebeb"></path><rect x="449.59" y="130.01" width="7.19" height="7.19" style="fill:#fff"></rect><path d="M457.14,137.59h-8v-8h8Zm-7.18-.8h6.38v-6.38H450Z" style="fill:#ebebeb"></path><rect x="449.59" y="101.17" width="7.19" height="7.19" style="fill:#fff"></rect><path d="M457.14,108.76h-8v-8h8ZM450,108h6.38v-6.39H450Z" style="fill:#ebebeb"></path><rect x="420.75" y="101.17" width="7.19" height="7.19" style="fill:#fff"></rect><path d="M428.31,108.76h-8v-8h8Zm-7.19-.8h6.39v-6.39h-6.39Z" style="fill:#ebebeb"></path><rect x="420.72" y="158.84" width="7.19" height="7.19" style="fill:#fff"></rect><path d="M428.31,166.43h-8v-8h8Zm-7.19-.8h6.39v-6.39h-6.39Z" style="fill:#ebebeb"></path><path d="M185.32,123.06H58.68V36.42H185.32Zm-125.64-1H184.32V37.42H59.68Z" style="fill:#ebebeb"></path><path d="M68.58,42a2.52,2.52,0,1,1-2.52-2.52A2.52,2.52,0,0,1,68.58,42Z" style="fill:#a6a6a6"></path><path d="M78.87,42a2.52,2.52,0,1,1-2.52-2.52A2.52,2.52,0,0,1,78.87,42Z" style="fill:#ebebeb"></path><path d="M89.17,42a2.52,2.52,0,1,1-2.52-2.52A2.52,2.52,0,0,1,89.17,42Z" style="fill:#53BF80"></path><rect x="59.18" y="46.44" width="125.64" height="1" style="fill:#ebebeb"></rect><path d="M54.88,205.68a2.14,2.14,0,0,1,2.26,0l.57.32.6.31a2.13,2.13,0,0,1,1.25,1.86l.09,2.76,9-.28-.09-2.76A2.16,2.16,0,0,1,69.71,206a12.15,12.15,0,0,0,1.15-.7,2.13,2.13,0,0,1,2.24-.15l2.43,1.31,4.27-8-2.44-1.3a2.17,2.17,0,0,1-1.12-1.95,12.07,12.07,0,0,0,0-1.34,2.14,2.14,0,0,1,1-2l2.35-1.46-4.75-7.66-2.37,1.46a2.13,2.13,0,0,1-2.24,0l-.57-.32q-.3-.16-.6-.3a2.15,2.15,0,0,1-1.25-1.87l-.09-2.77-9,.28.08,2.76a2.13,2.13,0,0,1-1.13,2,11.35,11.35,0,0,0-1.14.71,2.15,2.15,0,0,1-2.24.14l-2.44-1.3-4.26,8L50,192.7a2.16,2.16,0,0,1,1.12,2,12.18,12.18,0,0,0,0,1.35,2.14,2.14,0,0,1-1,2l-2.35,1.45,4.75,7.67Zm2.26-14.24a7.39,7.39,0,1,1,3,10A7.39,7.39,0,0,1,57.14,191.44Z" style="fill:#ebebeb"></path><path d="M77.94,171.18a1.48,1.48,0,0,1,1.39-.74h.94a1.51,1.51,0,0,1,1.39.73l1,1.68,5.47-3.15-1-1.68a1.5,1.5,0,0,1,.06-1.58,9.23,9.23,0,0,0,.47-.82,1.51,1.51,0,0,1,1.33-.83h1.94v-6.32H89a1.5,1.5,0,0,1-1.33-.83c-.15-.28-.3-.55-.47-.81a1.5,1.5,0,0,1-.06-1.58l1-1.68-5.47-3.16-1,1.69a1.49,1.49,0,0,1-1.39.73h-.93a1.49,1.49,0,0,1-1.39-.73l-1-1.69-5.48,3.16,1,1.68a1.48,1.48,0,0,1,0,1.57c-.17.27-.33.54-.47.82a1.5,1.5,0,0,1-1.34.83H68.67v6.32H70.6a1.51,1.51,0,0,1,1.34.84,8.13,8.13,0,0,0,.47.81,1.5,1.5,0,0,1,0,1.58l-1,1.68L77,172.85Zm-3.32-9.54a5.18,5.18,0,1,1,5.18,5.17A5.18,5.18,0,0,1,74.62,161.64Z" style="fill:#ebebeb"></path><path d="M438,339.26a1.5,1.5,0,0,1-.74-1.4c0-.15,0-.3,0-.46s0-.31,0-.47a1.49,1.49,0,0,1,.73-1.39l1.68-1-3.15-5.47-1.68,1a1.52,1.52,0,0,1-1.58-.06,7.28,7.28,0,0,0-.82-.47,1.51,1.51,0,0,1-.82-1.34v-1.93H425.3v1.93a1.5,1.5,0,0,1-.83,1.34,8.13,8.13,0,0,0-.81.47,1.52,1.52,0,0,1-1.58.06l-1.68-1-3.16,5.47,1.69,1a1.49,1.49,0,0,1,.73,1.38c0,.16,0,.31,0,.47s0,.31,0,.46a1.52,1.52,0,0,1-.73,1.4l-1.69,1,3.16,5.47,1.68-1a1.5,1.5,0,0,1,1.57.06c.27.17.54.33.82.47a1.5,1.5,0,0,1,.83,1.34v1.93h6.33V346.6a1.5,1.5,0,0,1,.83-1.34,8.13,8.13,0,0,0,.81-.47,1.52,1.52,0,0,1,1.58-.06l1.68,1,3.15-5.47Zm-9.54,3.32a5.18,5.18,0,1,1,5.17-5.18A5.18,5.18,0,0,1,428.47,342.58Z" style="fill:#ebebeb"></path><rect x="147.24" y="370.99" width="53.16" height="58.86" style="fill:#ebebeb"></rect><rect x="119.79" y="371" width="27.45" height="58.87" transform="translate(267.06 800.85) rotate(180)" style="fill:#dbdbdb"></rect><polygon points="169.3 383.72 170.43 383.72 171.27 383.72 171.76 382.74 172.43 383.72 173.35 381.7 174.22 383.72 176.71 383.72 177.84 383.72 178.25 382.37 178.64 383.72 179.38 383.72 179.38 371 169.3 371 169.3 383.72" style="fill:#fff"></polygon><path d="M121.68,425.81q3-6.29,6-12.6l6-12.66,5.88-12.72q2.92-6.36,5.78-12.78-3,6.29-6,12.6l-6,12.66L127.47,413Q124.54,419.41,121.68,425.81Z" style="fill:#ebebeb"></path><path d="M121.68,375.06q2.86,6.4,5.79,12.77l5.88,12.72,6,12.66q3,6.33,6,12.6-2.86-6.4-5.79-12.78l-5.88-12.72-6-12.66Q124.74,381.34,121.68,375.06Z" style="fill:#ebebeb"></path><rect x="161.49" y="312.22" width="53.16" height="58.86" style="fill:#ebebeb"></rect><rect x="134.04" y="312.23" width="27.45" height="58.87" transform="translate(295.55 683.31) rotate(180)" style="fill:#dbdbdb"></rect><polygon points="183.55 324.95 184.68 324.95 185.52 324.95 186 323.97 186.68 324.95 187.6 322.93 188.47 324.94 190.96 324.94 192.09 324.94 192.5 323.6 192.89 324.94 193.63 324.94 193.63 312.22 183.55 312.23 183.55 324.95" style="fill:#fff"></polygon><path d="M135.93,367q3-6.29,6-12.6l6-12.66,5.88-12.72q2.91-6.36,5.78-12.78-3,6.29-6,12.6l-6,12.66-5.88,12.72Q138.8,360.64,135.93,367Z" style="fill:#ebebeb"></path><path d="M135.93,316.28q2.87,6.42,5.79,12.78l5.88,12.72,6,12.66q3,6.31,6,12.6-2.86-6.42-5.79-12.78l-5.88-12.72-6-12.66Q139,322.57,135.93,316.28Z" style="fill:#ebebeb"></path></g><g id="freepik--Shadow--inject-46"><ellipse cx="250" cy="453.13" rx="197.8" ry="16.83" style="fill:#ebebeb"></ellipse></g><g id="freepik--Floor--inject-46"><polygon points="46.98 430.13 97.74 429.88 148.49 429.8 250 429.63 351.51 429.8 402.26 429.88 453.01 430.13 402.26 430.37 351.51 430.46 250 430.63 148.49 430.46 97.74 430.37 46.98 430.13" style="fill:#263238"></polygon></g><g id="freepik--Window--inject-46"><rect x="67.99" y="69.51" width="364.01" height="254.93" style="fill:#fff"></rect><path d="M432.27,324.71H67.73V69.25H432.27Zm-364-.53H431.74V69.78H68.26Z" style="fill:#dbdbdb"></path><rect x="67.99" y="69.51" width="364.01" height="8.86" style="fill:#53BF80"></rect><path d="M75,74a2.2,2.2,0,1,1-2.2-2.2A2.2,2.2,0,0,1,75,74Z" style="fill:#263238"></path><path d="M84,74a2.2,2.2,0,1,1-2.2-2.2A2.19,2.19,0,0,1,84,74Z" style="fill:#fff"></path><path d="M93,74a2.2,2.2,0,1,1-2.19-2.2A2.19,2.19,0,0,1,93,74Z" style="fill:#455a64"></path><rect x="67.99" y="78.38" width="364.01" height="29.58" style="fill:#37474f"></rect><rect x="87.2" y="86.65" width="95.58" height="13.04" style="fill:#fff"></rect><path d="M182.91,99.82H87.06V86.51h95.85Zm-95.58-.27h95.31V86.78H87.33Z" style="fill:#c7c7c7"></path><rect x="169.6" y="86.51" width="13.31" height="13.31" style="fill:#53BF80"></rect><path d="M180.39,96.82l-1.2.91L177,94.79l-.81-1.08a2,2,0,0,0,.47-.26,1.92,1.92,0,0,0,.61-.81l.87,1.15Z" style="fill:#fff"></path><path d="M178,89.88a3.31,3.31,0,1,0-.61,4.61,3,3,0,0,0,.68-.7A3.3,3.3,0,0,0,178,89.88Zm-1.41,3.57a2,2,0,0,1-.47.26,2,2,0,1,1,1.08-1.07A1.92,1.92,0,0,1,176.61,93.45Z" style="fill:#fff"></path><rect x="89.92" y="89.21" width="0.7" height="7.91" style="fill:#c7c7c7"></rect><rect x="399.62" y="86.51" width="13.31" height="2.6" style="fill:#ebebeb"></rect><rect x="399.62" y="91.86" width="13.31" height="2.6" style="fill:#ebebeb"></rect><rect x="399.62" y="97.22" width="13.31" height="2.6" style="fill:#ebebeb"></rect><rect x="261.18" y="253.22" width="71.14" height="53.57" transform="translate(593.51 560.01) rotate(180)" style="fill:#53BF80"></rect><path d="M268.83,264.94a6.34,6.34,0,1,0,5-5A6.35,6.35,0,0,0,268.83,264.94Z" style="opacity:0.2"></path><polygon points="281.32 295.25 332.74 295.25 307.03 266.42 281.32 295.25" style="opacity:0.2"></polygon><polygon points="261.18 295.27 303.63 295.27 282.41 276.5 261.18 295.27" style="fill:#53BF80"></polygon><polygon points="261.18 295.27 303.63 295.27 282.41 276.5 261.18 295.27" style="opacity:0.30000000000000004"></polygon><rect x="261.18" y="295.25" width="71.14" height="11.54" style="fill:#53BF80"></rect><rect x="261.18" y="295.25" width="71.14" height="11.54" style="opacity:0.30000000000000004"></rect><rect x="261.04" y="180.31" width="52.55" height="4.42" style="fill:#a6a6a6"></rect><rect x="261.04" y="190.57" width="152.07" height="4.42" style="fill:#ebebeb"></rect><rect x="261.04" y="200.29" width="152.07" height="4.42" style="fill:#ebebeb"></rect><rect x="261.04" y="210.02" width="152.07" height="4.42" style="fill:#ebebeb"></rect><rect x="261.04" y="219.75" width="152.07" height="4.42" style="fill:#ebebeb"></rect><rect x="340.06" y="253.2" width="52.55" height="4.42" style="fill:#a6a6a6"></rect><rect x="340.06" y="263.46" width="73.04" height="4.42" style="fill:#ebebeb"></rect><rect x="340.06" y="273.19" width="73.04" height="4.42" style="fill:#ebebeb"></rect><rect x="340.06" y="282.91" width="73.04" height="4.42" style="fill:#ebebeb"></rect><rect x="340.06" y="292.64" width="73.04" height="4.42" style="fill:#ebebeb"></rect><rect x="340.06" y="302.37" width="73.04" height="4.42" style="fill:#ebebeb"></rect><rect x="261.04" y="231.14" width="152.07" height="12.06" style="fill:#455a64"></rect><rect x="86.89" y="262.93" width="52.55" height="4.42" style="fill:#a6a6a6"></rect><rect x="86.89" y="273.19" width="152.07" height="4.42" style="fill:#ebebeb"></rect><rect x="86.89" y="282.91" width="152.07" height="4.42" style="fill:#ebebeb"></rect><rect x="86.89" y="292.64" width="152.07" height="4.42" style="fill:#ebebeb"></rect><rect x="86.89" y="302.37" width="152.07" height="4.42" style="fill:#ebebeb"></rect><rect x="86.89" y="231.14" width="152.07" height="12.06" style="fill:#455a64"></rect><polygon points="413.19 172.44 411.44 172.44 411.44 171.94 412.69 171.94 412.69 170.69 413.19 170.69 413.19 172.44" style="fill:#a6a6a6"></polygon><path d="M408.4,172.44h-3v-.5h3Zm-6.08,0h-3v-.5h3Zm-6.07,0h-3v-.5h3Zm-6.08,0h-3v-.5h3Zm-6.08,0h-3v-.5h3Zm-6.08,0h-3v-.5h3Zm-6.07,0h-3v-.5h3Zm-6.08,0h-3v-.5h3Zm-6.08,0h-3v-.5h3Zm-6.08,0h-3v-.5h3Zm-6.07,0h-3v-.5h3Zm-6.08,0h-3v-.5h3Zm-6.08,0h-3v-.5h3Zm-6.08,0h-3v-.5h3Zm-6.07,0h-3v-.5h3Zm-6.08,0h-3v-.5h3Zm-6.08,0h-3v-.5h3Zm-6.08,0h-3v-.5h3Zm-6.07,0h-3v-.5h3Zm-6.08,0h-3v-.5h3Zm-6.08,0h-3v-.5h3Zm-6.08,0h-3v-.5h3Zm-6.07,0h-3v-.5h3Zm-6.08,0h-3v-.5h3Z" style="fill:#a6a6a6"></path><polygon points="262.54 172.44 260.79 172.44 260.79 170.69 261.29 170.69 261.29 171.94 262.54 171.94 262.54 172.44" style="fill:#a6a6a6"></polygon><path d="M261.29,167.79h-.5V164.9h.5Zm0-5.79h-.5v-2.89h.5Zm0-5.79h-.5v-2.89h.5Zm0-5.79h-.5v-2.89h.5Zm0-5.79h-.5v-2.89h.5Zm0-5.79h-.5V136h.5Zm0-5.79h-.5v-2.89h.5Zm0-5.79h-.5v-2.89h.5Z" style="fill:#a6a6a6"></path><polygon points="261.29 121.47 260.79 121.47 260.79 119.72 262.54 119.72 262.54 120.22 261.29 120.22 261.29 121.47" style="fill:#a6a6a6"></polygon><path d="M408.4,120.22h-3v-.5h3Zm-6.08,0h-3v-.5h3Zm-6.07,0h-3v-.5h3Zm-6.08,0h-3v-.5h3Zm-6.08,0h-3v-.5h3Zm-6.08,0h-3v-.5h3Zm-6.07,0h-3v-.5h3Zm-6.08,0h-3v-.5h3Zm-6.08,0h-3v-.5h3Zm-6.08,0h-3v-.5h3Zm-6.07,0h-3v-.5h3Zm-6.08,0h-3v-.5h3Zm-6.08,0h-3v-.5h3Zm-6.08,0h-3v-.5h3Zm-6.07,0h-3v-.5h3Zm-6.08,0h-3v-.5h3Zm-6.08,0h-3v-.5h3Zm-6.08,0h-3v-.5h3Zm-6.07,0h-3v-.5h3Zm-6.08,0h-3v-.5h3Zm-6.08,0h-3v-.5h3Zm-6.08,0h-3v-.5h3Zm-6.07,0h-3v-.5h3Zm-6.08,0h-3v-.5h3Z" style="fill:#a6a6a6"></path><polygon points="413.19 121.47 412.69 121.47 412.69 120.22 411.44 120.22 411.44 119.72 413.19 119.72 413.19 121.47" style="fill:#a6a6a6"></polygon><path d="M413.19,167.79h-.5V164.9h.5Zm0-5.79h-.5v-2.89h.5Zm0-5.79h-.5v-2.89h.5Zm0-5.79h-.5v-2.89h.5Zm0-5.79h-.5v-2.89h.5Zm0-5.79h-.5V136h.5Zm0-5.79h-.5v-2.89h.5Zm0-5.79h-.5v-2.89h.5Z" style="fill:#a6a6a6"></path></g><g id="freepik--Screens--inject-46"><rect x="189.97" y="341.14" width="152.72" height="101.13" style="fill:#37474f"></rect><circle cx="266.33" cy="391.71" r="17.34" transform="translate(-189.7 519.78) rotate(-71.47)" style="fill:#455a64"></circle><polygon points="259.02 399.04 259.02 384.38 277.35 391.7 259.02 399.04" style="fill:#fff"></polygon><rect x="189.98" y="434.37" width="152.72" height="7.9" style="fill:#ebebeb"></rect><rect x="199.23" y="437.15" width="128.54" height="2.34" style="fill:#c7c7c7"></rect><rect x="191.37" y="435.84" width="4.99" height="4.99" style="fill:#c7c7c7"></rect><rect x="192.54" y="436.73" width="0.95" height="3.21" style="fill:#a6a6a6"></rect><rect x="194.24" y="436.73" width="0.95" height="3.21" style="fill:#a6a6a6"></rect><rect x="329.82" y="435.81" width="4.99" height="4.99" style="fill:#c7c7c7"></rect><rect x="330.57" y="437.7" width="0.98" height="1.21" style="fill:#a6a6a6"></rect><polygon points="332.64 439.69 331.17 438.91 331.17 437.7 332.64 436.92 332.64 439.69" style="fill:#a6a6a6"></polygon><g id="freepik--u5Zjqx--inject-46"><path d="M333.37,437.39l.22-.23a1.62,1.62,0,0,1,.46.92,1.58,1.58,0,0,1-.45,1.37l-.23-.22a1.28,1.28,0,0,0,.38-.92A1.26,1.26,0,0,0,333.37,437.39Z" style="fill:#a6a6a6"></path><path d="M333.15,439l-.23-.22a.65.65,0,0,0,.2-.47.63.63,0,0,0-.2-.47l.22-.23A1,1,0,0,1,333.15,439Z" style="fill:#a6a6a6"></path></g><rect x="335.78" y="435.81" width="4.99" height="4.99" style="fill:#c7c7c7"></rect><rect x="336.58" y="436.61" width="2.06" height="2.06" style="fill:#a6a6a6"></rect><rect x="337.94" y="438.03" width="2.06" height="2.06" style="fill:#fff"></rect><path d="M223.32,438.33a2.55,2.55,0,0,0,.27,1.17H199.24v-2.35H223.6A2.6,2.6,0,0,0,223.32,438.33Z" style="fill:#a6a6a6"></path><path d="M228.67,438.33A2.67,2.67,0,0,1,226,441a2.64,2.64,0,0,1-2.4-1.5,2.55,2.55,0,0,1-.27-1.17,2.6,2.6,0,0,1,.28-1.18,2.64,2.64,0,0,1,2.39-1.5,2.68,2.68,0,0,1,2.4,1.5A2.88,2.88,0,0,1,228.67,438.33Z" style="fill:#a6a6a6"></path><rect x="292.3" y="340" width="72.99" height="142.11" transform="translate(739.85 82.26) rotate(90)" style="fill:#fff"></rect><path d="M400.1,447.8H257.49V374.31H400.1ZM258,447.3H399.6V374.81H258Z" style="fill:#dbdbdb"></path><rect x="266.33" y="384.05" width="59.7" height="54.01" transform="translate(592.36 822.11) rotate(180)" style="fill:#53BF80"></rect><path d="M274,395.86a6.39,6.39,0,1,0,5-5A6.4,6.4,0,0,0,274,395.86Z" style="opacity:0.2"></path><polygon points="283.14 426.42 326.03 426.42 304.58 397.35 283.14 426.42" style="opacity:0.2"></polygon><polygon points="266.33 426.45 301.75 426.45 284.04 407.52 266.33 426.45" style="fill:#53BF80"></polygon><polygon points="266.33 426.45 301.75 426.45 284.04 407.52 266.33 426.45" style="opacity:0.30000000000000004"></polygon><rect x="266.33" y="426.42" width="59.7" height="11.64" style="fill:#53BF80"></rect><rect x="266.33" y="426.42" width="59.7" height="11.64" style="opacity:0.30000000000000004"></rect><rect x="336.03" y="384.05" width="50.85" height="3.7" style="fill:#ebebeb"></rect><rect x="336.03" y="391.71" width="50.85" height="3.7" style="fill:#ebebeb"></rect><rect x="336.03" y="399.37" width="50.85" height="3.7" style="fill:#ebebeb"></rect><rect x="336.03" y="407.03" width="50.85" height="3.7" style="fill:#ebebeb"></rect><rect x="336.03" y="414.68" width="50.85" height="3.7" style="fill:#ebebeb"></rect></g><g id="freepik--Plant--inject-46"><path d="M399.76,392.6s-15.69-3.55-24.29-11.48S362.07,359,362.07,359a134.83,134.83,0,0,1,17.59,4.62,29.53,29.53,0,0,1,5.32,7.52,36,36,0,0,0,0-5.38,23.94,23.94,0,0,1,5.58,3.39C397.74,375.4,399.76,392.6,399.76,392.6Z" style="fill:#53BF80"></path><path d="M371.86,365.9c-2.14-1.48-4.31-2.9-6.44-4.4a.12.12,0,0,1,.13-.21c4,2.42,8,5,11.88,7.7q2,1.42,4,2.93l-.27-.47c-.47-.79-1-1.56-1.47-2.33a32.64,32.64,0,0,0-3.33-4.45.05.05,0,0,1,.08-.07c1.22,1.41,2.44,2.8,3.56,4.3.53.71,1,1.44,1.49,2.19.24.39.48.79.7,1.19l.24.4c2,1.6,4,3.26,5.89,5q1.74,1.63,3.37,3.37c-.61-1.9-1.14-3.82-1.84-5.69,0-.06.08-.09.1,0,.68,2,1.43,3.93,2,5.94,1.2,1.3,2.35,2.65,3.43,4,0-.09,0-.17-.05-.26-.18-.74-.37-1.48-.56-2.21-.39-1.42-.8-2.83-1.28-4.22a24.49,24.49,0,0,0-4.22-8c0-.05,0-.13.08-.07a30.62,30.62,0,0,1,6,12.54q.25,1,.48,2c.08.36.17.72.23,1.09.48.64.94,1.29,1.39,1.95a67.94,67.94,0,0,1,6.64,13,151.1,151.1,0,0,1,5,15.67c0,.11-.12.14-.16,0-3.06-9.18-6.2-18.49-11.45-26.69a61.63,61.63,0,0,0-3.58-5,29.19,29.19,0,0,1-7.63-1.52,33.74,33.74,0,0,1-7.65-3.69,46.8,46.8,0,0,1-3.92-3,.05.05,0,1,1,.07-.08,31.33,31.33,0,0,0,7.19,4.35,39.34,39.34,0,0,0,7.91,2.65c1.16.26,2.34.44,3.51.6a67.75,67.75,0,0,0-4.62-5.12c-.53-.53-1.08-1-1.63-1.55a37.35,37.35,0,0,0-5.8-3.32c-2.57-1.24-5.1-2.56-7.64-3.85-1.44-.73-2.86-1.48-4.31-2.19-.06,0,0-.12.06-.09,2.57,1.25,5.19,2.41,7.8,3.6,2.45,1.13,4.92,2.25,7.28,3.57l.29.18c-2.12-1.85-4.32-3.61-6.57-5.31Q375.08,368.13,371.86,365.9Z" style="fill:#263238"></path><path d="M372.75,374c1.28.56,2.58,1.06,3.84,1.65s2.53,1.32,3.76,2.05c.06,0,0,.1-.05.08-1.25-.6-2.51-1.16-3.75-1.78s-2.53-1.32-3.83-1.89C372.66,374.07,372.69,374,372.75,374Z" style="fill:#263238"></path><path d="M450.72,313.54a22.44,22.44,0,0,0-4.69,13c0,1.41.17,3.37.34,5.67A37.18,37.18,0,0,0,436.13,341a18.65,18.65,0,0,1,10.35-2.48,32.55,32.55,0,0,1-.6,4.69,17.76,17.76,0,0,0-6.66,1.32,14.83,14.83,0,0,1,6,1.19c-2.79,8.9-11.11,18-34.06,21.92a48.16,48.16,0,0,1,4.06-32.3C422.1,321.8,450.72,313.54,450.72,313.54Z" style="fill:#53BF80"></path><path d="M403.21,405.7q.6-5.7,1.49-11.37a226.63,226.63,0,0,1,4.63-22.47,90.54,90.54,0,0,1,3.31-10.24,16,16,0,0,1-.08-1.83c0-.74,0-1.47,0-2.21,0-1.47.08-2.94.21-4.4a51.2,51.2,0,0,1,1.41-8.61c.42-1.63.9-3.24,1.38-4.86a.06.06,0,0,1,.11,0,62.73,62.73,0,0,0-1.7,8.59,82.68,82.68,0,0,0-.77,8.61c0,.79,0,1.58,0,2.37,0,.34,0,.68,0,1a73.74,73.74,0,0,1,3.87-8,97.09,97.09,0,0,1,7.86-11.76,4.67,4.67,0,0,1,.19-1.28c.1-.51.22-1,.33-1.54.24-1,.5-2.09.78-3.12.57-2.08,1.33-4.09,2-6.15,0-.06.12,0,.1,0-.61,2-1,4.14-1.47,6.21-.23,1-.46,2.05-.68,3.08q-.18.76-.33,1.53a.5.5,0,0,0,0,.12c.92-1.17,1.87-2.33,2.84-3.46,4.38-5.14,9.19-9.89,14-14.59.59-.58,1.2-1.15,1.8-1.72a.06.06,0,0,1,.08.08c-4.63,4.82-9.18,9.7-13.49,14.81q-1.53,1.81-3,3.68l1.56-1c1.34-.88,2.69-1.73,4.09-2.51s2.79-1.54,4.22-2.25,3.05-1.33,4.47-2.15c.06,0,.11.07.05.09a34.27,34.27,0,0,0-4.19,2.32c-1.4.83-2.79,1.67-4.16,2.54s-2.71,1.7-4.05,2.57c-1.11.72-2.21,1.51-3.37,2.18a108.64,108.64,0,0,0-7.36,10.71,80,80,0,0,0-3.8,7.21l.83-.36,2.1-.93,4.06-1.78c2.57-1.12,5.19-2.14,7.71-3.37a35.18,35.18,0,0,0,4.12-2.29c.06,0,.11.05.06.09-4.71,3.25-10,5.53-15.2,7.84l-2.26,1c-.62.27-1.24.58-1.88.82a81.86,81.86,0,0,0-3.88,10.64,216.34,216.34,0,0,0-5,22.2c-1.32,7.5-2.21,15.05-2.9,22.63-.09.95-.17,1.89-.28,2.83a.3.3,0,0,1-.6,0C402.42,413.38,402.81,409.53,403.21,405.7Z" style="fill:#263238"></path><path d="M417.18,342.31c.42-2.34,1-4.62,1.67-6.9a.05.05,0,1,1,.1,0c-.58,2.24-1,4.53-1.42,6.8s-.81,4.66-1.13,7c0,0-.07,0-.07,0A62,62,0,0,1,417.18,342.31Z" style="fill:#263238"></path><path d="M427.07,348.64a41.43,41.43,0,0,1,5-2.81c.84-.43,1.69-.84,2.53-1.26s1.79-.77,2.65-1.21c.06,0,.12.07.05.1-.83.42-1.63.93-2.46,1.38l-2.54,1.39a57.1,57.1,0,0,1-5.1,2.63A.13.13,0,0,1,427.07,348.64Z" style="fill:#263238"></path><path d="M399.47,365.43S385,362,378.29,352.22c-6.37-9.3-8.43-25.16-8.59-26.55C370,327,373,340.8,382.84,347.26,390.41,352.21,397.72,356.27,399.47,365.43Z" style="fill:#263238;opacity:0.1"></path><path d="M386.07,340.34a18.51,18.51,0,0,1,5.35,8.82s0,0,0,0a21.65,21.65,0,0,0-5.38-8.75C386,340.37,386,340.29,386.07,340.34Z" style="fill:#263238"></path><path d="M399.47,365.43S385,362,378.29,352.22c-6.37-9.3-8.43-25.16-8.59-26.55a.65.65,0,0,0,0-.1s7,9.9,14.29,12.42S401.57,349.25,399.47,365.43Z" style="fill:#53BF80"></path><path d="M372.26,331a58.24,58.24,0,0,0,4.49,7.67,30.52,30.52,0,0,0,6,6.15c2,1.57,4,3,6,4.52l0-.07c-.38-.56-.78-1.1-1.19-1.63-.83-1.06-1.74-2.06-2.66-3.05-1.8-2-3.64-3.88-5.26-6a22.59,22.59,0,0,1-2.33-3.75c0-.06.07-.09.1,0,2.36,4.9,7.06,8,10.42,12.19.47.59.93,1.2,1.34,1.83a7.13,7.13,0,0,1,.83,1.48,30.08,30.08,0,0,1,5,5,19,19,0,0,0-.59-2.81,14.32,14.32,0,0,0-1.53-3.68c0-.06.05-.12.08-.06a17.81,17.81,0,0,1,1.7,3.65,13.06,13.06,0,0,1,.53,3.14h0a27.84,27.84,0,0,1,2,3.05l-.18-.93c-.29-1.45-.61-2.89-1-4.32a25.9,25.9,0,0,0-3.49-8.18s.05-.11.09-.06a31.37,31.37,0,0,1,3.87,8c.46,1.42.83,2.87,1.16,4.33.16.71.3,1.43.44,2.15.07.37.15.75.21,1.13a52.24,52.24,0,0,1,3.35,9.85A144,144,0,0,1,404.65,389a151.12,151.12,0,0,1,1,19.49c0,.82-.06,1.64-.1,2.45,0,.21-.33.24-.34,0-.14-3.22-.22-6.44-.41-9.66s-.48-6.44-.82-9.65a170.19,170.19,0,0,0-3-18.77c-1.17-5.31-2.7-10.65-5.6-15.3a28.66,28.66,0,0,0-5.24-6.23c-2-1.82-4.26-3.43-6.4-5.12a34.57,34.57,0,0,1-5.88-5.65,45.71,45.71,0,0,1-4.62-7.49c-.34-.66-.69-1.31-1-2C372.14,331,372.23,331,372.26,331Z" style="fill:#263238"></path><path d="M374.76,333.16a49.41,49.41,0,0,0,3.24,5.65,0,0,0,0,1-.07.05,39.91,39.91,0,0,1-3.27-5.67C374.63,333.13,374.73,333.1,374.76,333.16Z" style="fill:#263238"></path><path d="M452.75,359s.23,20.63-12.11,26.58-18.95,1-27.33,3h0c.33-.49,6.31-9.09,15.83-11.46C438.93,374.67,449.78,367.6,452.75,359Z" style="fill:#53BF80"></path><path d="M452.75,359s.23,20.63-12.11,26.58-18.95,1-27.33,3h0a46.77,46.77,0,0,1,14-4.14C435.13,383.5,450,378.43,452.75,359Z" style="opacity:0.1"></path><path d="M412.5,389a20.55,20.55,0,0,1,4.9-3.32c.27-.13.54-.23.81-.35s.27-.32.41-.47a15,15,0,0,1,1.16-1.1,16.68,16.68,0,0,1,2.49-1.79c2-1.2,4.28-2.05,6.37-3.16.06,0,.11.06.05.09-1,.54-2,1.13-3,1.72s-2,1.11-2.93,1.72a24.25,24.25,0,0,0-2.44,1.83c-.21.19-.42.4-.63.61a33.26,33.26,0,0,1,4.17-1.11c2.26-.45,4.54-.78,6.79-1.26a31.11,31.11,0,0,0,3.28-.88c1-.82,2-1.64,3-2.54a24.82,24.82,0,0,0,3.19-3.53c0-.06.13,0,.09,0a36.66,36.66,0,0,1-5.06,5.58c.54-.2,1.06-.41,1.58-.65a25.41,25.41,0,0,0,10.51-8.75c0-.05.13,0,.09.06a28.63,28.63,0,0,1-8.5,8.16,25.91,25.91,0,0,1-5.37,2.55,52.7,52.7,0,0,1-6.68,1.58,47.44,47.44,0,0,0-6.54,1.55,19.72,19.72,0,0,0-5.48,2.89,25.53,25.53,0,0,0-7.39,9.16,45.93,45.93,0,0,0-4.07,15.09c0,.22-.37.22-.36,0C403.49,404,405.81,395,412.5,389Z" style="fill:#263238"></path><path d="M426.81,382.22a7.2,7.2,0,0,1,2.54-2.3,9.44,9.44,0,0,0,3-2.49c0-.06.13,0,.09.05a10.15,10.15,0,0,1-2.67,2.39,9.34,9.34,0,0,0-2.9,2.4C426.86,382.32,426.78,382.27,426.81,382.22Z" style="fill:#263238"></path><polygon points="420.27 404.18 419.71 415.52 417.99 450.18 392.11 450.18 390.39 415.52 389.83 404.18 420.27 404.18" style="fill:#37474f"></polygon><polygon points="420.27 404.18 419.71 415.52 390.39 415.52 389.83 404.18 420.27 404.18" style="fill:#263238"></polygon><rect x="388.01" y="399.44" width="34.07" height="10.82" style="fill:#37474f"></rect></g><g id="freepik--Character--inject-46"><path d="M120.47,182.1c8,5.82,28.29,18.94,37,19,10.08,0,38.37-13.92,43.51-22.26,2.45-4-19.41-12-24.49-10.18-7.27,2.55-16.31,8.62-21,9.07-2.43.24-20.41-5.87-32.77-7.25C112.08,169.27,111.14,175.32,120.47,182.1Z" style="fill: rgb(255, 196, 192);"></path><path d="M177.88,196.35l-11.47-24S157.69,176,156.1,176c-4.55,0-24.25-3.7-32.29-5.72s-15.11,2.7-5.29,11.38,36.57,20.74,40.05,21.05S177.88,196.35,177.88,196.35Z" style="fill:#53BF80"></path><path d="M158.43,198.13a7.44,7.44,0,0,0-1.88,1,7.54,7.54,0,0,0,2.07-.49,7.44,7.44,0,0,0,1.88-1A7.46,7.46,0,0,0,158.43,198.13Zm-20.35-11.9a7.44,7.44,0,0,0-1.88,1,8.1,8.1,0,0,0,4-1.5A7.54,7.54,0,0,0,138.08,186.23Zm19.42-1.5a7.44,7.44,0,0,0-1.88,1,7.47,7.47,0,0,0,2.07-.5,7.1,7.1,0,0,0,1.88-1A7.54,7.54,0,0,0,157.5,184.73Zm-7.8,7a7.79,7.79,0,0,0-1-1.88,8.1,8.1,0,0,0,1.5,4A7.54,7.54,0,0,0,149.7,191.77Zm17.46-12.46a7.4,7.4,0,0,0-1-1.88,7.54,7.54,0,0,0,.49,2.07,7.13,7.13,0,0,0,1,1.88A7.47,7.47,0,0,0,167.16,179.31Zm-34.69-2.47a7.44,7.44,0,0,0-1-1.88A7.55,7.55,0,0,0,132,177a7.4,7.4,0,0,0,1,1.88A7.12,7.12,0,0,0,132.47,176.84ZM167,191.74a7.41,7.41,0,0,0-2-.61,7.57,7.57,0,0,0,1.81,1.12,7.41,7.41,0,0,0,2,.61A7.57,7.57,0,0,0,167,191.74Zm-41.39-5.5a7.89,7.89,0,0,0-1.8-.58c.56.38,1.14.76,1.73,1.14h0a6.59,6.59,0,0,0,1.88.55A7.79,7.79,0,0,0,125.63,186.24Zm21.94-7a7.41,7.41,0,0,0-.61,2,7.57,7.57,0,0,0,1.12-1.81,7.77,7.77,0,0,0,.61-2A7.57,7.57,0,0,0,147.57,179.29Zm-29-1.93a7.41,7.41,0,0,0-.61,2,7.57,7.57,0,0,0,1.12-1.81,7.77,7.77,0,0,0,.61-2A7.77,7.77,0,0,0,118.61,177.36Z" style="fill:#fff"></path><path d="M172.06,197.78c-1.5-3.79-3.23-7.47-4.92-11.18s-3.38-7.4-5.26-11a.08.08,0,0,0-.14.06c1.4,3.83,3,7.56,4.71,11.27s3.37,7.42,5.34,11A.15.15,0,0,0,172.06,197.78Z" style="fill:#263238"></path><path d="M161.62,202.25a10.76,10.76,0,0,1-3,.46c-3.49-.31-30.24-12.36-40.06-21.05-8.78-7.77-4-12.36,2.82-11.79Z" style="fill:#263238"></path><rect x="120.6" y="170.64" width="128.39" height="85.02" transform="translate(-29.54 29.73) rotate(-8.52)" style="fill:#53BF80"></rect><rect x="120.6" y="170.64" width="128.39" height="85.02" transform="translate(-29.54 29.73) rotate(-8.52)" style="opacity:0.2"></rect><path d="M199.21,211a14.58,14.58,0,1,1-16.58-12.25A14.57,14.57,0,0,1,199.21,211Z" style="fill:#53BF80"></path><polygon points="179.63 220.15 177.8 207.96 193.95 211.77 179.63 220.15" style="fill:#fff"></polygon><rect x="126.4" y="248.58" width="128.39" height="6.64" transform="translate(-35.22 31.02) rotate(-8.52)" style="fill:#ebebeb"></rect><rect x="134.21" y="251.27" width="108.07" height="1.97" transform="translate(-35.29 30.67) rotate(-8.52)" style="fill:#c7c7c7"></rect><rect x="128.24" y="258.83" width="4.2" height="4.2" transform="translate(-37.22 22.19) rotate(-8.52)" style="fill:#c7c7c7"></rect><rect x="129.23" y="259.68" width="0.79" height="2.7" transform="translate(-37.26 22.1) rotate(-8.52)" style="fill:#a6a6a6"></rect><rect x="130.65" y="259.47" width="0.79" height="2.7" transform="translate(-37.18 22.28) rotate(-8.52)" style="fill:#a6a6a6"></rect><rect x="243.36" y="241.58" width="4.2" height="4.2" transform="translate(-33.4 39.06) rotate(-8.52)" style="fill:#c7c7c7"></rect><rect x="244" y="243.33" width="0.82" height="1.02" transform="translate(-33.42 38.89) rotate(-8.52)" style="fill:#a6a6a6"></rect><polygon points="245.9 244.79 244.57 244.33 244.42 243.32 245.55 242.49 245.9 244.79" style="fill:#a6a6a6"></polygon><g id="freepik--u5zjqx--inject-46"><path d="M246.21,242.78l.16-.21a1.36,1.36,0,0,1,.5.7,1.41,1.41,0,0,1-.21,1.21l-.22-.16a1.05,1.05,0,0,0,.2-.82A1.07,1.07,0,0,0,246.21,242.78Z" style="fill:#a6a6a6"></path><path d="M246.23,244.16,246,244a.57.57,0,0,0,.11-.42.59.59,0,0,0-.23-.37l.16-.21A.83.83,0,0,1,246.23,244.16Z" style="fill:#a6a6a6"></path></g><rect x="248.31" y="240.84" width="4.2" height="4.2" transform="translate(-33.23 39.78) rotate(-8.52)" style="fill:#c7c7c7"></rect><rect x="248.9" y="241.6" width="1.73" height="1.73" transform="translate(-33.17 39.68) rotate(-8.52)" style="fill:#a6a6a6"></rect><rect x="250.21" y="242.62" width="1.73" height="1.73" transform="translate(-33.3 39.89) rotate(-8.52)" style="fill:#fff"></rect><path d="M154.83,257.26a2.16,2.16,0,0,0,.37.94l-20.25,3-.29-2,20.25-3A2.33,2.33,0,0,0,154.83,257.26Z" style="fill:#a6a6a6"></path><path d="M159.28,256.59a2.25,2.25,0,0,1-1.9,2.56,2.23,2.23,0,0,1-2.18-.95,2.16,2.16,0,0,1-.37-.94,2.33,2.33,0,0,1,.08-1,2.24,2.24,0,0,1,4-.59A2.3,2.3,0,0,1,159.28,256.59Z" style="fill:#a6a6a6"></path><path d="M85.49,420.29c-3.52-1.65-8.18-2.26-11.68-.36-.14.07,0,.27.1.26a54.11,54.11,0,0,1,11.44.56A.24.24,0,0,0,85.49,420.29Z" style="fill:#263238"></path><path d="M87.73,422.59c-3.51-1.65-8.17-2.26-11.68-.36-.13.07,0,.26.1.26a53.51,53.51,0,0,1,11.45.56A.24.24,0,0,0,87.73,422.59Z" style="fill:#263238"></path><path d="M90,424.89c-3.51-1.65-8.17-2.26-11.68-.36-.13.07,0,.26.1.26a52.9,52.9,0,0,1,11.45.56A.24.24,0,0,0,90,424.89Z" style="fill:#263238"></path><path d="M92.23,427.18c-3.51-1.64-8.18-2.25-11.68-.35-.14.07,0,.26.1.25a53.46,53.46,0,0,1,11.44.57A.25.25,0,0,0,92.23,427.18Z" style="fill:#263238"></path><path d="M49.33,406.22c-.55,2.22-1.07,4.41-1.56,6.53-.31,1.33-.6,2.62-.88,3.87-1.8,8-3,14.25-2.38,14.86,1.76,1.89,57.13,16.47,59.23,16.34s1.86-6.16.16-8.43c-1-1.39-8.35-7.5-13.93-12.07l0,0c-3.59-2.93-6.46-5.24-6.46-5.24l1.87-6.46,8.21-29.48L57,376.59S52.82,391.78,49.33,406.22Z" style="fill: rgb(255, 196, 192);"></path><path d="M104.16,448c-1.38.09-25.13-5.91-42.31-10.71-4-1.11-7.6-2.16-10.51-3-4-1.23-6.69-2.15-7.06-2.55-.82-.88,1.77-12.91,4.78-25.54l36.43,9.36L83.62,422s18.94,15.15,20.67,17.45S106.28,447.84,104.16,448Z" style="fill:#53BF80"></path><path d="M103.94,445.55c-9.33-2.67-47.18-12.55-56.59-14.48-.08,0-.09,0,0,.05,9.18,2.85,47.11,12.43,56.57,14.58C104.1,445.74,104.13,445.6,103.94,445.55Z" style="fill:#263238"></path><path d="M90.69,414c.41-.2,14.68-54.78,19.67-73.93,7.2-27.62,14.17-72.65,16.27-82a138,138,0,0,0,8.72-33.65s-45.38,0-45.38,0-11.9,22.76-5.76,38.85c.56,1.47-7.93,58.34-12.32,67.55-3.79,8-24.26,71.58-24.26,71.58Z" style="fill:#37474f"></path><path d="M90.28,404.11c-1.09-.45-2.27-.7-3.4-1s-2.39-.71-3.59-1c-2.41-.65-4.83-1.27-7.24-1.89-4.82-1.25-9.67-2.44-14.51-3.62-1.32-.33-2.65-.64-4-.95a22.52,22.52,0,0,0-4-.78.07.07,0,0,0,0,.14,21.64,21.64,0,0,0,3.36,1.1l3.6,1c2.37.63,4.74,1.28,7.12,1.9,4.78,1.24,9.56,2.51,14.37,3.68,1.36.33,2.72.67,4.1,1s2.73.7,4.11.86C90.34,404.45,90.48,404.19,90.28,404.11Z" style="fill:#263238"></path><path d="M114.75,255.28c-.88,4.73-1.6,9.48-2.38,14.22-.4,2.42-.93,4.81-1.33,7.23s-.78,4.74-1.16,7.12q-2.3,14.31-4.57,28.64-1.14,7.11-2.29,14.22a131.55,131.55,0,0,1-2.86,13.86c-1.25,4.56-2.72,9.06-4.11,13.58s-2.85,9.26-4.27,13.9c-2.83,9.21-5.76,18.41-8.3,27.71-.31,1.15-.63,2.31-1,3.46a.11.11,0,0,0,.21.06c3.13-9.13,6-18.34,8.94-27.54s5.83-18.31,8.56-27.52a114.08,114.08,0,0,0,3.2-13.65c.81-4.75,1.52-9.51,2.28-14.26Q108,302,110.29,287.67c.75-4.69,1.58-9.39,2.16-14.1.6-4.89,1.44-9.74,2.17-14.61.18-1.19.35-2.38.51-3.58C115.17,255.13,114.8,255,114.75,255.28Z" style="fill:#263238"></path><path d="M153.59,423.55c-3.81-.71-8.48-.13-11.39,2.59-.11.11,0,.27.16.23A53.56,53.56,0,0,1,153.58,424,.24.24,0,0,0,153.59,423.55Z" style="fill:#263238"></path><path d="M156.35,425.21c-3.82-.71-8.48-.13-11.4,2.59-.11.11,0,.26.17.23a53.47,53.47,0,0,1,11.21-2.34A.24.24,0,0,0,156.35,425.21Z" style="fill:#263238"></path><path d="M159.1,426.86c-3.81-.71-8.48-.12-11.39,2.6-.12.1,0,.26.16.22a53.54,53.54,0,0,1,11.22-2.33A.25.25,0,0,0,159.1,426.86Z" style="fill:#263238"></path><path d="M161.85,428.52c-3.81-.71-8.48-.12-11.39,2.6-.11.1,0,.26.16.22A54.34,54.34,0,0,1,161.84,429,.24.24,0,0,0,161.85,428.52Z" style="fill:#263238"></path><path d="M115.05,419c0,2.29.08,4.54.14,6.72,0,1.36.08,2.68.13,4,.28,8.23.72,14.54,1.43,15,2.18,1.38,59.44,1.55,61.44.89s.25-6.42-2-8.2c-1.35-1.07-10-5.15-16.52-8.17l0,0-7.56-3.45.18-6.72.52-30.59H115S114.8,404.19,115.05,419Z" style="fill: rgb(255, 196, 192);"></path><path d="M178.64,445.66c-1.31.43-25.8.6-43.64.29-4.13-.08-7.9-.18-11-.3-4.19-.18-7-.4-7.47-.69-1-.65-1.53-12.95-1.8-25.92l37.62-.12-.18,6.78s22.15,9.9,24.4,11.69S180.65,445,178.64,445.66Z" style="fill:#53BF80"></path><path d="M177.81,443.35c-9.7-.24-48.81-.27-58.41.23-.08,0-.08.06,0,.06,9.6.44,48.72.16,58.41-.14C178,443.5,178,443.35,177.81,443.35Z" style="fill:#263238"></path><path d="M108.3,264.94s6.47,63.44,6.57,64.94c0,.58-2.78,84.88-2.78,84.88h42.77s-1.53-79.42-2.17-88.38c-.08-1-2.84-65.53-15.29-102H89.91s.41,21.45,10.16,37A80.05,80.05,0,0,1,108.3,264.94Z" style="fill:#37474f"></path><path d="M152.16,406.75c-1.17-.17-2.38-.13-3.56-.19s-2.49-.12-3.74-.14c-2.49-.06-5-.08-7.47-.11-5-.05-10-.05-15,0l-4.08,0a22.57,22.57,0,0,0-4.11.21.07.07,0,0,0,0,.14,19.91,19.91,0,0,0,3.53.26c1.25.05,2.49.08,3.74.11,2.45.05,4.91.11,7.36.14,4.95.06,9.89.14,14.84.13,1.4,0,2.8,0,4.2-.06s2.82,0,4.21-.15C152.29,407.07,152.37,406.78,152.16,406.75Z" style="fill:#263238"></path><path d="M142.46,333.42c-1.12-22.85-3.52-45.6-6.54-68.27-1.66-12.41-3.6-24.81-6.95-36.89a0,0,0,0,0-.08,0,295.1,295.1,0,0,1,5.9,33.53c1.42,11.17,2.76,22.35,3.9,33.55,2.3,22.72,3.33,45.53,3.47,68.36.08,12.84-.27,25.67-.62,38.51,0,.12.18.12.19,0A524.94,524.94,0,0,0,142.46,333.42Z" style="fill:#263238"></path><path d="M140.18,233.18c0-.08-.15-.06-.14,0,.18,2.71.63,5.66-.57,8.2-1.06,2.26-3.08,3.52-4.93,5-.06.05,0,.14.07.12,2.47-.75,4.93-2.12,5.9-4.64C141.6,239.08,141,236,140.18,233.18Z" style="fill:#263238"></path><path d="M119.58,263.55a45.21,45.21,0,0,0-5.93.2,40.07,40.07,0,0,1-5.8-.11,23.35,23.35,0,0,1-2.88-.47c-1-.23-1.92-.6-2.89-.87a5.37,5.37,0,0,0-2.67.1,30.15,30.15,0,0,1-3.11.53,29.82,29.82,0,0,1-7.19.19c-.09,0-.13.12,0,.14a29.24,29.24,0,0,0,6.12.64,23.63,23.63,0,0,0,3.14-.28,9.94,9.94,0,0,1,3-.39,26.84,26.84,0,0,1,2.87,1,22.23,22.23,0,0,0,2.92.6,30.33,30.33,0,0,0,6,.18,26.4,26.4,0,0,0,6.62-1A.21.21,0,0,0,119.58,263.55Z" style="fill:#263238"></path><path d="M115,326.38a.09.09,0,0,0-.06,0l0,0a.07.07,0,0,0,0,.06l0,.15s0,0,0,0h0a.06.06,0,0,0,.06,0l0-.15A.09.09,0,0,0,115,326.38Z" style="fill:#263238"></path><path d="M113.85,315.46q-.57-6.16-1.21-12.33c-.87-8.22-1.68-16.45-2.53-24.67-.48-4.66-.83-9.37-1.59-14a.1.1,0,0,0-.2,0c.07,4.12.51,8.24.86,12.35s.71,8.22,1.1,12.34c.77,8.22,1.5,16.45,2.47,24.66q.41,3.49.87,7c.3,2.33.71,4.66,1,7,0,.09.16.09.15,0C114.42,323.69,114.22,319.57,113.85,315.46Z" style="fill:#263238"></path><path d="M113,169.93c.28.9,5.07,6.53,9.24,6,1.35-.17.79-7.61.79-7.61l.09-.56,1.17-7.83-9.46-5.16-1.36-.68s-.18,2.16-.38,4.86l0,.38c0,.16,0,.3,0,.44,0,.4-.07.82-.09,1.22s0,.62,0,.95,0,.65,0,1A50.65,50.65,0,0,0,113,169.93Z" style="fill: rgb(255, 196, 192);"></path><path d="M113,159a15.88,15.88,0,0,0,10,8.81l1.17-7.83-9.46-5.16-1.36-.68S113.24,156.29,113,159Z" style="fill:#263238"></path><path d="M135.18,146.9c2.93,13.58-4.81,17-7.8,17.49-2.68.45-11.78,2.18-16.1-11s1.07-18.86,7.08-20.49S132.25,133.32,135.18,146.9Z" style="fill: rgb(255, 196, 192);"></path><path d="M133.88,144.11c-.33,0-.64,0-1-.06a1.64,1.64,0,0,1-1-.25.5.5,0,0,1-.08-.6,1.24,1.24,0,0,1,1.15-.46,1.83,1.83,0,0,1,1.21.47A.53.53,0,0,1,133.88,144.11Z" style="fill:#263238"></path><path d="M125.07,145.87a8.16,8.16,0,0,0,.9-.33,1.56,1.56,0,0,0,.85-.51.5.5,0,0,0-.08-.6,1.25,1.25,0,0,0-1.24-.11,1.81,1.81,0,0,0-1,.79A.53.53,0,0,0,125.07,145.87Z" style="fill:#263238"></path><path d="M127.58,149s-.07.06-.06.1c.19.93.24,2-.55,2.47,0,0,0,.06,0,.05C128,151.26,127.9,149.81,127.58,149Z" style="fill:#263238"></path><path d="M126.58,148.13c-1.52.14-1.13,3.16.28,3S127.86,148,126.58,148.13Z" style="fill:#263238"></path><path d="M126,148.36c-.24.21-.46.55-.78.62s-.68-.2-1-.47c0,0,0,0,0,0,.07.58.36,1.15,1,1.15s.92-.56,1-1.16C126.22,148.43,126.11,148.28,126,148.36Z" style="fill:#263238"></path><path d="M132.56,147.8s.07,0,.08.07c.08.94.33,2,1.22,2.22,0,0,0,0,0,0C132.8,150.12,132.48,148.7,132.56,147.8Z" style="fill:#263238"></path><path d="M133.28,146.72c1.49-.3,2,2.72.59,3S132,147,133.28,146.72Z" style="fill:#263238"></path><path d="M133.94,146.81c.26.13.54.38.83.35s.53-.39.69-.74c0,0,0,0,0,0,.11.58,0,1.21-.52,1.41s-.94-.26-1.17-.81C133.77,146.94,133.83,146.76,133.94,146.81Z" style="fill:#263238"></path><path d="M128.49,156.21c.24.2.49.49.84.49a2.51,2.51,0,0,0,1-.32,0,0,0,0,1,.05,0,1.3,1.3,0,0,1-1.16.61,1,1,0,0,1-.81-.77S128.45,156.18,128.49,156.21Z" style="fill:#263238"></path><path d="M131.93,152.28s.39,1.37.48,2c0,.06-.14.11-.37.16h0a3.16,3.16,0,0,1-3.21-.75c-.06-.05,0-.13.08-.1a4.74,4.74,0,0,0,3,.42c0-.19-.74-2.33-.64-2.35a5.69,5.69,0,0,1,1.55.13c-.73-2.88-1.91-5.62-2.59-8.5,0-.11.12-.16.16-.07a47.16,47.16,0,0,1,3.18,9C133.64,152.66,132.21,152.35,131.93,152.28Z" style="fill:#263238"></path><path d="M131.92,154a3.83,3.83,0,0,1-1.2,1.55,1.74,1.74,0,0,1-1,.33c-.79,0-1-.68-1-1.3a3.86,3.86,0,0,1,.1-1A5,5,0,0,0,131.92,154Z" style="fill:#263238"></path><path d="M130.72,155.52a1.74,1.74,0,0,1-1,.33c-.79,0-1-.68-1-1.3A1.81,1.81,0,0,1,130.72,155.52Z" style="fill:#ff98b9"></path><path d="M138.5,211.71l4.18,22.37s-49.54.69-61.17-.13c0,0,12.16-47.37,24.67-60.95,6.26-6.8,13.6-6.29,18.28-1.54,1.19,1.2,15.32,19.88,16.81,27C142.57,204.78,138.5,211.71,138.5,211.71Z" style="fill:#53BF80"></path><path d="M115.78,177.36a7.41,7.41,0,0,0-.61,2,7.57,7.57,0,0,0,1.12-1.81,7.77,7.77,0,0,0,.61-2A7.77,7.77,0,0,0,115.78,177.36Zm-7.1,26.43a7.41,7.41,0,0,0-.61,2,7.23,7.23,0,0,0,1.11-1.81,7.79,7.79,0,0,0,.62-2A7.27,7.27,0,0,0,108.68,203.79Zm30.58,12c-.11.2-.21.39-.3.59a7.79,7.79,0,0,0-.62,2,6.9,6.9,0,0,0,1.08-1.74Zm-37.32,16.07a7.31,7.31,0,0,0-.61,2,7.47,7.47,0,0,0,1.11-1.82,7.32,7.32,0,0,0,.62-2A7.51,7.51,0,0,0,101.94,231.83Zm28.95-34.51a7.31,7.31,0,0,0-.61,2,7.47,7.47,0,0,0,1.11-1.82,7.32,7.32,0,0,0,.62-2A7.51,7.51,0,0,0,130.89,197.32Zm-14.24,30.8a7.67,7.67,0,0,0-.62,2,7.51,7.51,0,0,0,1.12-1.82,7.67,7.67,0,0,0,.62-2A7.51,7.51,0,0,0,116.65,228.12ZM87.9,214.76a7.41,7.41,0,0,0-.61,2A7.57,7.57,0,0,0,88.41,215a7.77,7.77,0,0,0,.61-2A7.77,7.77,0,0,0,87.9,214.76Zm8.2-22a7.41,7.41,0,0,0-.61,2,8.46,8.46,0,0,0,1.73-3.86A7.51,7.51,0,0,0,96.1,192.75Zm26.7-6.51a7.43,7.43,0,0,0-2-.62,8.19,8.19,0,0,0,3.86,1.73A7.79,7.79,0,0,0,122.8,186.24Zm6,23.27a7.31,7.31,0,0,0-2-.61,7.83,7.83,0,0,0,1.82,1.12,7.31,7.31,0,0,0,2,.61A7.83,7.83,0,0,0,128.77,209.51Zm-.16,24.36a5.19,5.19,0,0,0,.46.36H130A5.92,5.92,0,0,0,128.61,233.87Zm-26.73-20.11a7.32,7.32,0,0,0-2-.62,7.51,7.51,0,0,0,1.82,1.12,7.67,7.67,0,0,0,2,.62A7.51,7.51,0,0,0,101.88,213.76ZM140,202.15a7.61,7.61,0,0,0-1-1.88,8.1,8.1,0,0,0,1.5,3.95A7.54,7.54,0,0,0,140,202.15ZM139.47,229a7.44,7.44,0,0,0-1-1.88,7.54,7.54,0,0,0,.49,2.07,7.44,7.44,0,0,0,1,1.88A7.46,7.46,0,0,0,139.47,229ZM108.81,189.8a7.13,7.13,0,0,0-1-1.88,7.55,7.55,0,0,0,.5,2.07,7.4,7.4,0,0,0,1,1.88A7.12,7.12,0,0,0,108.81,189.8Zm9.49,24a7.44,7.44,0,0,0-1-1.88,7.54,7.54,0,0,0,.49,2.07,7.44,7.44,0,0,0,1,1.88A7.46,7.46,0,0,0,118.3,213.83Zm-25.18,10a7.61,7.61,0,0,0-1-1.88,8.1,8.1,0,0,0,1.5,3.95A7.54,7.54,0,0,0,93.12,223.85ZM110,169.77l-.43.28a6.29,6.29,0,0,0,.72,1.19A6.49,6.49,0,0,0,110,169.77Zm-7.62,10.58a7.44,7.44,0,0,0-1.88,1,8.2,8.2,0,0,0,3.95-1.5A7.54,7.54,0,0,0,102.42,180.35Zm26.05,41.82a7.13,7.13,0,0,0-1.88,1,7.55,7.55,0,0,0,2.07-.5,7.13,7.13,0,0,0,1.88-1A7.55,7.55,0,0,0,128.47,222.17Zm-34-17.76a7.44,7.44,0,0,0-1.88,1,7.54,7.54,0,0,0,2.07-.49,7.44,7.44,0,0,0,1.88-1A7.46,7.46,0,0,0,94.46,204.41Zm13.25,17.76a7.13,7.13,0,0,0-1.88,1,7.55,7.55,0,0,0,2.07-.5,7.13,7.13,0,0,0,1.88-1A7.47,7.47,0,0,0,107.71,222.17Zm-22.5,8.63a7.55,7.55,0,0,0-1.87,1,8.2,8.2,0,0,0,4-1.5A7.61,7.61,0,0,0,85.21,230.8Zm33.57-33.21a7.44,7.44,0,0,0-1.88,1,7.55,7.55,0,0,0,2.07-.5,7.4,7.4,0,0,0,1.88-1A7.2,7.2,0,0,0,118.78,197.59Zm16.31-11.3a7.43,7.43,0,0,0-1.72,1,7.53,7.53,0,0,0,2-.47Z" style="fill:#fff"></path><path d="M114.68,180.52c.3,9.92,2.87,38.15,8.06,45.1,8.42,11.24,18,21.34,22.76,24.72,3.81,2.72,24.61-12.55,20.51-16-5.87-5-21.71-21-24.44-24.77-1.44-2-10.66-21.58-15.7-32.94C121.53,166.81,114.34,169,114.68,180.52Z" style="fill: rgb(255, 196, 192);"></path><path d="M182.42,261a4,4,0,0,1-4.29,1.36,5.87,5.87,0,0,1-1.58,3.65c-1.73,1.67-5.11-.31-5.11-.31a7.22,7.22,0,0,1-2.28,3.58c-1.82,1.44-5.51-.08-5.51-.08a6.34,6.34,0,0,1-4,1.89c-4,.19-7.58-4.91-9.85-8.13s-5.7-14.48-6.57-16.56L162.07,231s12,4.55,18.13,16.39C182,250.84,184.2,258.49,182.42,261Z" style="fill: rgb(255, 196, 192);"></path><path d="M178.36,262c-1-4.19-3.22-7.85-5.21-11.63,0-.08-.17,0-.13.07,2,3.74,3.28,7.83,5.15,11.63C178.22,262.16,178.38,262.09,178.36,262Z" style="fill:#263238"></path><path d="M171.66,265.44a11.57,11.57,0,0,0-1.32-2.63c-.53-.89-1.08-1.78-1.63-2.66-1.12-1.75-2.29-3.49-3.5-5.18-.05-.08-.18,0-.13.07q1.68,2.63,3.24,5.32c.52.9,1,1.81,1.54,2.71a13.06,13.06,0,0,0,1.55,2.5A.15.15,0,0,0,171.66,265.44Z" style="fill:#263238"></path><path d="M163.6,269.13a7.74,7.74,0,0,0-1.31-2.3c-.53-.79-1-1.59-1.57-2.38-1-1.59-2.07-3.19-3.05-4.81,0-.08-.18,0-.13.07,1,1.65,2,3.33,3,5,.49.81,1,1.61,1.49,2.42a7.36,7.36,0,0,0,1.54,2.07A.05.05,0,0,0,163.6,269.13Z" style="fill:#263238"></path><path d="M133.05,240.49,153,220.05s-10-9.06-12.37-13-11.11-22.65-14.12-30.37S115.57,166,114.17,179s4.26,41.83,6,44.85S133.05,240.49,133.05,240.49Z" style="fill:#53BF80"></path><path d="M115.78,177.36a7.41,7.41,0,0,0-.61,2,7.57,7.57,0,0,0,1.12-1.81,7.77,7.77,0,0,0,.61-2A7.77,7.77,0,0,0,115.78,177.36Zm23.18,39a7.79,7.79,0,0,0-.62,2,7.45,7.45,0,0,0,1.12-1.81,7.79,7.79,0,0,0,.62-2A7.27,7.27,0,0,0,139,216.35Zm-8.07-19a7.31,7.31,0,0,0-.61,2,7.47,7.47,0,0,0,1.11-1.82,7.32,7.32,0,0,0,.62-2A7.51,7.51,0,0,0,130.89,197.32Zm-8.09-11.08a7.43,7.43,0,0,0-2-.62,8.19,8.19,0,0,0,3.86,1.73A7.79,7.79,0,0,0,122.8,186.24Zm6,23.27a7.31,7.31,0,0,0-2-.61,7.83,7.83,0,0,0,1.82,1.12,7.31,7.31,0,0,0,2,.61A7.83,7.83,0,0,0,128.77,209.51Zm20,9.86a7.41,7.41,0,0,0-2-.61,7.27,7.27,0,0,0,1.81,1.12,7.41,7.41,0,0,0,2,.61A7.77,7.77,0,0,0,148.77,219.37Zm-18.12,15.11a7.31,7.31,0,0,0-2-.61,8.46,8.46,0,0,0,3.86,1.73A7.51,7.51,0,0,0,130.65,234.48Zm8.82-5.49a7.44,7.44,0,0,0-1-1.88,7.54,7.54,0,0,0,.49,2.07,7.44,7.44,0,0,0,1,1.88A7.46,7.46,0,0,0,139.47,229ZM118.3,213.83a7.44,7.44,0,0,0-1-1.88,7.54,7.54,0,0,0,.49,2.07,7.44,7.44,0,0,0,1,1.88A7.46,7.46,0,0,0,118.3,213.83Zm10.17,8.34a7.13,7.13,0,0,0-1.88,1,7.55,7.55,0,0,0,2.07-.5,7.13,7.13,0,0,0,1.88-1A7.55,7.55,0,0,0,128.47,222.17Zm-9.69-24.58a7.44,7.44,0,0,0-1.88,1,7.55,7.55,0,0,0,2.07-.5,7.4,7.4,0,0,0,1.88-1A7.2,7.2,0,0,0,118.78,197.59Z" style="fill:#fff"></path><path d="M127.69,233.91c-1.56-2.54-3.39-4.94-5.13-7.36a23.6,23.6,0,0,1-3.88-7.52c-.77-2.79-1.25-5.68-1.75-8.53s-1-5.93-1.44-8.9c-.56-3.42-1.06-6.86-1.41-10.32,0-.08-.14-.08-.13,0,.22,3.25.47,6.5.8,9.74-.3-1.08-.6-2.16-.93-3.23a.09.09,0,0,0-.18.06c.38,1.42.81,2.83,1.24,4.24.27,2.49.58,5,1,7.46.5,3,1,5.94,1.72,8.86a21.51,21.51,0,0,0,3.58,7.64,97.46,97.46,0,0,0,6.39,7.95C127.63,234.07,127.74,234,127.69,233.91Z" style="fill:#263238"></path><path d="M147.79,217.48c-3,2.77-5.79,5.72-8.62,8.65s-5.67,5.84-8.35,8.9a.08.08,0,0,0,.11.11c3.06-2.69,5.94-5.58,8.78-8.49s5.68-5.83,8.29-9A.15.15,0,0,0,147.79,217.48Z" style="fill:#263238"></path><path d="M139.47,204.34c-.34-.79-.7-1.57-1.06-2.35-.8-1.7-1.58-3.4-2.4-5.08-.41-.85-.82-1.7-1.22-2.56-.29-1.41-.56-2.82-1-4.21,0-.06-.12,0-.11,0,.17,1.16.45,2.3.72,3.44-1.08-2.27-2.17-4.53-3.42-6.71,0-.06-.16,0-.13.06,1.28,3.44,2.93,6.75,4.44,10.1.76,1.66,1.55,3.31,2.33,5,.39.82.78,1.65,1.19,2.46s1,1.71,1.48,2.59c0,.07.18,0,.14-.07C140.08,206.14,139.84,205.21,139.47,204.34Z" style="fill:#263238"></path><path d="M122.65,130.37c1,.28,7.1-.6,9.27,4,1.65,3.49-.31,6-3.68,7.16-3.72,1.21-8.45-.21-8.45-.21.07,3.93.15,9-1.13,9.89-1,.72-2.76-.58-2.76-.58-.72,3.26.38,10,1.06,11.31,1.6,3.16,5.39,7.45,1.91,12a8.83,8.83,0,0,1-8.15,2.24c-4-.92-4.94-3.89-6.53-4.82s-6-.36-7.6-2.75-1.54-5.23-2.26-6.39S91.77,161,91,158.44s1.71-3.74,2.33-5.77c.43-1.42-.66-2.93.56-5,1.69-2.85,5.3-1.66,7.17-4.57,1.47-2.28,4.92-10.68,11.5-13.08A13.75,13.75,0,0,1,122.65,130.37Z" style="fill:#263238"></path><path d="M107.11,134.11a46.79,46.79,0,0,0-3.61,5.27c-.6.88-1.16,1.78-1.81,2.6a6.58,6.58,0,0,1-1.07,1.1,1,1,0,0,1-.29.19,1.39,1.39,0,0,1-.32.14l-.79.2a31.69,31.69,0,0,0-3.29.83,5.35,5.35,0,0,0-2.78,1.92,3.14,3.14,0,0,0-.55,1.6,4.32,4.32,0,0,0,.32,1.67,6.89,6.89,0,0,1,.7,3.15,6.29,6.29,0,0,0-.36-3.23,4,4,0,0,1-.2-1.54,2.7,2.7,0,0,1,.56-1.34A5.29,5.29,0,0,1,96.19,145a31.53,31.53,0,0,1,3.25-.75c.27-.07.55-.14.83-.23a2.44,2.44,0,0,0,.82-.45,6.91,6.91,0,0,0,1.14-1.23,26,26,0,0,0,1.76-2.7l1.54-2.8A24.29,24.29,0,0,1,107.11,134.11Z" style="fill:#263238"></path><path d="M93.44,161.39a5.6,5.6,0,0,1,.37,2.2c0,.75.1,1.51.18,2.27a11.34,11.34,0,0,0,.48,2.27,5.05,5.05,0,0,0,1.22,2.07,6.31,6.31,0,0,0,4.5,1.2c.76,0,1.51-.1,2.26-.11a4.69,4.69,0,0,1,2.19.33,4.38,4.38,0,0,0-2.18-.66c-.77-.06-1.53,0-2.27-.08a6.42,6.42,0,0,1-4-1.18,4.49,4.49,0,0,1-1.07-1.78,12.69,12.69,0,0,1-.56-2.14c-.15-.73-.26-1.48-.38-2.23-.07-.37-.14-.75-.23-1.12A2.18,2.18,0,0,0,93.44,161.39Z" style="fill:#263238"></path><path d="M118.75,140.5a12.46,12.46,0,0,0,5.8,1.79,10.87,10.87,0,0,0,1.51,0l.76-.07.75-.13c.51-.07,1-.24,1.5-.35s1-.33,1.49-.47a15.24,15.24,0,0,1-1.38.76,11,11,0,0,1-1.49.54,10,10,0,0,1-3.18.37,9.3,9.3,0,0,1-3.12-.69A7.81,7.81,0,0,1,118.75,140.5Z" style="fill:#263238"></path><path d="M119,139.67a16.6,16.6,0,0,1,1.69,5.92,8.89,8.89,0,0,1-.23,3.12,3.86,3.86,0,0,1-1.8,2.49,4.49,4.49,0,0,0,1.32-2.6,11.27,11.27,0,0,0,.08-3A43,43,0,0,0,119,139.67Z" style="fill:#263238"></path><path d="M116.42,151.65s-3.41-4.05-5.27-2.79,1,7.31,3.35,7.95a2.34,2.34,0,0,0,3-1.54Z" style="fill: rgb(255, 196, 192);"></path><path d="M112,150.57s0,.06,0,.07a5.89,5.89,0,0,1,3.39,3.42,1.29,1.29,0,0,0-2-.18s0,.1,0,.08a1.45,1.45,0,0,1,1.63.36,6.87,6.87,0,0,1,.87,1.21c.09.14.34,0,.27-.12v0C116.09,153.31,114.23,150.58,112,150.57Z" style="fill:#263238"></path><path d="M160.78,172.49c3.79-3.13,7.84-9.62,11.25-10.93a4.19,4.19,0,0,1,4.86,1.17s.86-3.95,4.15-4.63c1.7-.35,3.74,2.05,3.74,2.05s.83-3.13,3.79-3.56c2.36-.33,4.06,2.12,4.06,2.12s2.2-2.64,4.71-2.21c5.11.87,10.12,20.72,3.58,25.63-3,2.29-4-2.63-4-2.63s-.33,7.41-4.39,8.54-4.93-5.32-4.93-5.32-.38,7.17-4.71,7.92c-4.51.79-4.27-5.82-4.27-5.82s-1.88,5.17-5.33,5c-5.7-.31-1.41-13-3.55-17.14l-8.12,1.66Z" style="fill: rgb(255, 196, 192);"></path><path d="M166.43,166.48c-4,2.39-11.5-2.73-15.67-1-5.64,2.35,2.42,10.26,10.91,8.88l8.06-1.69Z" style="fill: rgb(255, 196, 192);"></path><path d="M193,159.06a.05.05,0,1,1,.09-.05A35.57,35.57,0,0,1,197,179.77c0,.22-.42.27-.43,0A72.71,72.71,0,0,0,193,159.06Z" style="fill:#263238"></path><path d="M184.8,160c0-.07.1-.12.14,0,3.3,6.33,4.95,15.08,2.89,22.91-.07.27-.4.44-.35.12C188.46,177.73,187,166.3,184.8,160Z" style="fill:#263238"></path><path d="M178.28,185.34c1.69-7.58.78-14.93-1.24-22.36,0-.09.11-.12.15,0,2,3.37,2.78,8.23,3.08,12.07a20.59,20.59,0,0,1-1.72,10.4C178.49,185.53,178.25,185.5,178.28,185.34Z" style="fill:#263238"></path></g></svg>