<svg width="26" height="26" viewBox="0 0 26 26" fill="none" xmlns="http://www.w3.org/2000/svg">
<g clip-path="url(#clip0_2347_22747)">
<path d="M17.3333 2.16668C17.3333 1.56837 16.8483 1.08334 16.25 1.08334H4.33329C3.14163 1.08334 2.16663 2.05834 2.16663 3.25001V17.3333C2.16663 17.9316 2.65165 18.4167 3.24996 18.4167C3.84827 18.4167 4.33329 17.9316 4.33329 17.3333V3.25001H16.25C16.8483 3.25001 17.3333 2.76499 17.3333 2.16668ZM20.5833 5.41668H8.66663C7.47496 5.41668 6.49996 6.39168 6.49996 7.58334V22.75C6.49996 23.9417 7.47496 24.9167 8.66663 24.9167H20.5833C21.775 24.9167 22.75 23.9417 22.75 22.75V7.58334C22.75 6.39168 21.775 5.41668 20.5833 5.41668ZM20.5833 22.75H8.66663V7.58334H20.5833V22.75Z" fill="white"/>
</g>
<defs>
<clipPath id="clip0_2347_22747">
<rect width="26" height="26" fill="white"/>
</clipPath>
</defs>
</svg>
