<svg width="24" height="24" viewBox="0 0 24 24" fill="none" xmlns="http://www.w3.org/2000/svg">
<path fill-rule="evenodd" clip-rule="evenodd" d="M7 5H17C18.1046 5 19 5.89543 19 7V17C19 18.1046 18.1046 19 17 19H7C5.89543 19 5 18.1046 5 17V16H3V17C3 19.2091 4.79086 21 7 21H17C19.2091 21 21 19.2091 21 17V7C21 4.79086 19.2091 3 17 3H7C4.79086 3 3 4.79086 3 7V8H5V7C5 5.89543 5.89543 5 7 5Z" fill="#F42D2D"/>
<rect x="3" y="7" width="2" height="2" rx="1" fill="#F42D2D"/>
<rect x="3" y="15" width="2" height="2" rx="1" fill="#F42D2D"/>
<path fill-rule="evenodd" clip-rule="evenodd" d="M11.3431 7.92894L14.7071 11.2929C15.0976 11.6834 15.0976 12.3166 14.7071 12.7071L11.3431 16.0711C10.9526 16.4616 10.3195 16.4616 9.92893 16.0711C9.53841 15.6806 9.53841 15.0474 9.92893 14.6569L11.5858 13H2C1.44772 13 1 12.5523 1 12C1 11.4477 1.44772 11 2 11H11.5858L9.92893 9.34315C9.53841 8.95263 9.53841 8.31947 9.92893 7.92894C10.3195 7.53842 10.9526 7.53842 11.3431 7.92894Z" fill="#F42D2D"/>
</svg>
