<svg width="24" height="24" viewBox="0 0 24 24" fill="none" xmlns="http://www.w3.org/2000/svg">
<path d="M12.0003 6.50004C15.1214 6.50004 17.9645 7.94455 19.7923 10.3365C20.5425 11.3183 20.5425 12.6817 19.7928 13.6639C17.9671 16.0557 15.1295 17.5 12.0003 17.5C8.87108 17.5 6.03346 16.0557 4.20778 13.6639C3.4581 12.6817 3.4581 11.3183 4.20829 10.3365C6.03611 7.94455 8.87917 6.50004 12.0003 6.50004ZM12.0003 4.50004C8.12417 4.50004 4.68676 6.36906 2.53132 9.25454C1.31888 10.8776 1.31888 13.1225 2.53132 14.7455C4.68676 17.631 8.12417 19.5 12.0003 19.5C15.8764 19.5 19.3138 17.631 21.4693 14.7455C22.6817 13.1225 22.6817 10.8776 21.4693 9.25454C19.3138 6.36906 15.8764 4.50004 12.0003 4.50004ZM12.0003 9.50004C13.3803 9.50004 14.5003 10.62 14.5003 12C14.5003 13.38 13.3803 14.5 12.0003 14.5C10.6203 14.5 9.50029 13.38 9.50029 12C9.50029 10.62 10.6203 9.50004 12.0003 9.50004ZM12.0003 7.50004C9.52029 7.50004 7.50029 9.52004 7.50029 12C7.50029 14.48 9.52029 16.5 12.0003 16.5C14.4803 16.5 16.5003 14.48 16.5003 12C16.5003 9.52004 14.4803 7.50004 12.0003 7.50004Z" fill="black"/>
</svg>
