<svg width="24" height="24" viewBox="0 0 24 24" fill="none" xmlns="http://www.w3.org/2000/svg">
<path d="M12 6C15.1253 6 17.9718 7.44836 19.7993 9.84605C20.5442 10.8233 20.5479 12.179 19.7998 13.1537C19.3861 13.6927 18.9192 14.1828 18.41 14.62L19.82 16.03C20.4303 15.4899 20.9848 14.8901 21.4731 14.2381C22.6847 12.6204 22.6823 10.381 21.4738 8.76102C19.3187 5.87184 15.879 4 12 4C10.73 4 9.51 4.2 8.36 4.57L10.01 6.22C10.66 6.09 11.32 6 12 6ZM10.93 7.14L13 9.21C13.77 9.25468 14.2083 9.72 14.28 10.49L16.35 12.56C16.43 12.22 16.49 11.86 16.49 11.49C16.5 9.01 14.48 7 12 7C11.63 7 11.28 7.05 10.93 7.14ZM2.71241 3.16261C2.32408 3.55369 2.32519 4.18519 2.7149 4.57491L4.69 6.55C3.8753 7.18977 3.14553 7.93446 2.52318 8.76535C1.31325 10.3807 1.31725 12.617 2.52333 14.2352C4.67828 17.1265 8.11926 19 12 19C13.52 19 14.98 18.71 16.32 18.18C17.4021 19.2621 18.099 19.959 19.0348 20.8948C19.4242 21.2842 20.0557 21.2843 20.4451 20.8949C20.8344 20.5056 20.8345 19.8743 20.4453 19.4849L4.12991 3.16031C3.73828 2.76846 3.10276 2.76949 2.71241 3.16261ZM9.51 11.37L12.12 13.98C12.08 13.99 12.04 14 12 14C10.62 14 9.5 12.88 9.5 11.5C9.5 11.45 9.51 11.42 9.51 11.37ZM6.11 7.97L7.86 9.72C7.63 10.27 7.5 10.87 7.5 11.5C7.5 13.98 9.52 16 12 16C12.63 16 13.23 15.87 13.77 15.64L14.75 16.62C13.87 16.86 12.95 17 12 17C8.87881 17 6.03568 15.5554 4.20788 13.1633C3.45777 12.1817 3.4577 10.8178 4.21413 9.84102C4.76444 9.13039 5.40496 8.50606 6.11 7.97Z" fill="black"/>
</svg>
