<svg width="24" height="24" viewBox="0 0 24 24" fill="none" xmlns="http://www.w3.org/2000/svg">
<path d="M12.6311 6.00266L11.3483 6.00002C8.42237 5.99296 5.88229 8.39031 5.86217 11.2941V14.6382C5.86217 15.3353 5.77467 16.0156 5.39755 16.5953L5.14643 16.9818C4.76406 17.5676 5.17531 18.3529 5.86217 18.3529H18.1382C18.8251 18.3529 19.2354 17.5676 18.8539 16.9818L18.6028 16.5953C18.2266 16.0156 18.1382 15.3344 18.1382 14.6374V11.295C18.1032 8.39031 15.557 6.00972 12.6311 6.00266Z" stroke="#333333" stroke-width="2" stroke-linecap="round" stroke-linejoin="round"/>
<path d="M14 6V5C14 4.46957 13.7893 3.96086 13.4142 3.58579C13.0391 3.21071 12.5304 3 12 3C11.4696 3 10.9609 3.21071 10.5858 3.58579C10.2107 3.96086 10 4.46957 10 5V6" stroke="#333333" stroke-width="2" stroke-linecap="round" stroke-linejoin="round"/>
<path d="M15 18C15 18.7956 14.6839 19.5587 14.1213 20.1213C13.5587 20.6839 12.7956 21 12 21C11.2044 21 10.4413 20.6839 9.87868 20.1213C9.31607 19.5587 9 18.7956 9 18" stroke="#333333" stroke-width="2" stroke-linejoin="round"/>
</svg>
