<?xml version="1.0" standalone="no"?>
<!DOCTYPE svg PUBLIC "-//W3C//DTD SVG 20010904//EN"
 "http://www.w3.org/TR/2001/REC-SVG-20010904/DTD/svg10.dtd">
<svg version="1.0" xmlns="http://www.w3.org/2000/svg"
 width="512.000000pt" height="512.000000pt" viewBox="0 0 512.000000 512.000000"
 preserveAspectRatio="xMidYMid meet">
<metadata>
Created by potrace 1.14, written by Peter Selinger 2001-2017
</metadata>
<g transform="translate(0.000000,512.000000) scale(0.100000,-0.100000)"
fill="#000000" stroke="none">
<path d="M0 2560 l0 -2560 2560 0 2560 0 0 2560 0 2560 -2560 0 -2560 0 0
-2560z m3659 1155 c31 -13 51 -31 72 -64 27 -41 29 -53 29 -138 0 -107 -13
-147 -59 -186 -45 -38 -101 -50 -211 -45 -114 5 -156 23 -194 81 -24 37 -26
50 -26 142 0 143 29 191 137 221 62 18 194 12 252 -11z m-2041 -820 c73 -110
139 -201 145 -203 7 -1 75 90 151 203 l138 205 214 0 c118 0 214 -3 214 -7 0
-3 -111 -154 -246 -334 -135 -181 -244 -334 -241 -341 2 -7 107 -152 232 -323
125 -170 243 -331 262 -357 l35 -48 -239 0 -238 1 -153 224 c-85 124 -159 225
-165 225 -7 0 -47 -53 -89 -118 -42 -64 -111 -165 -153 -224 l-76 -108 -214 0
c-118 0 -215 2 -215 5 0 3 119 163 265 356 257 340 265 352 251 374 -9 13
-118 164 -244 337 -125 172 -231 319 -236 326 -6 10 40 12 230 10 l238 -3 134
-200z m2104 -342 l3 -548 213 -3 212 -2 0 -155 0 -155 -650 0 -650 0 0 155 0
155 228 2 227 3 3 388 2 387 -230 0 -230 0 0 160 0 160 435 0 435 0 2 -547z"/>
</g>
</svg>
