<?xml version="1.0" standalone="no"?>
<!DOCTYPE svg PUBLIC "-//W3C//DTD SVG 20010904//EN"
 "http://www.w3.org/TR/2001/REC-SVG-20010904/DTD/svg10.dtd">
<svg version="1.0" xmlns="http://www.w3.org/2000/svg"
 width="280.000000pt" height="280.000000pt" viewBox="0 0 280.000000 280.000000"
 preserveAspectRatio="xMidYMid meet">
<g transform="translate(0.000000,280.000000) scale(0.100000,-0.100000)"
fill="#000000" stroke="none">
<path d="M1676 2791 c-3 -4 -34 -22 -68 -38 -73 -35 -148 -106 -179 -169 -22
-47 -39 -57 -39 -24 0 11 -4 20 -10 20 -5 0 -10 5 -10 10 0 10 -18 33 -85 107
-29 33 -49 40 -90 29 -11 -2 -23 -5 -26 -5 -10 -2 -29 -51 -29 -77 0 -14 13
-38 31 -57 40 -41 77 -98 96 -151 34 -92 61 -221 59 -289 l-1 -70 -180 1
c-178 2 -278 -11 -312 -40 -7 -6 -13 -7 -13 -3 0 4 -11 0 -25 -9 -14 -9 -25
-14 -25 -10 0 3 -16 -6 -35 -20 -19 -15 -35 -24 -35 -21 0 8 -22 -10 -116
-101 -46 -44 -84 -84 -84 -88 0 -4 -10 -22 -23 -39 -60 -86 -132 -246 -151
-338 -3 -13 -8 -35 -11 -49 -16 -71 -23 -347 -11 -418 7 -35 31 -136 46 -187
14 -50 84 -209 95 -217 5 -4 6 -8 1 -8 -4 0 -1 -11 8 -25 9 -14 14 -25 11 -25
-3 0 6 -18 20 -40 14 -22 22 -40 18 -40 -5 0 -3 -4 3 -8 5 -4 20 -23 32 -42
11 -20 31 -47 42 -60 12 -14 31 -37 43 -52 12 -15 28 -28 36 -28 8 0 12 -3 8
-6 -7 -7 60 -65 118 -102 51 -33 144 -70 192 -78 21 -4 218 -7 438 -7 345 1
430 3 443 13 1 2 5 3 10 5 47 13 176 79 202 104 9 9 34 32 56 52 36 34 105
110 122 135 26 38 75 124 77 134 0 3 17 40 38 83 20 44 37 84 37 91 0 7 4 16
9 22 21 22 73 200 86 294 15 110 5 391 -14 430 -5 8 -12 33 -16 55 -10 47 -8
42 -24 80 -15 38 -22 59 -22 62 2 14 -107 196 -120 201 -5 2 -9 8 -9 14 0 5
-16 26 -35 46 -19 21 -43 45 -52 56 -25 26 -120 96 -131 96 -5 0 -15 7 -22 15
-7 8 -16 12 -20 10 -5 -3 -37 9 -72 27 -57 29 -72 32 -153 33 -49 0 -93 5 -97
10 -5 7 -8 7 -8 0 0 -6 -38 -9 -99 -7 -88 3 -100 5 -104 23 -6 21 27 47 37 30
3 -5 16 -7 28 -3 16 4 19 2 13 -9 -6 -11 -5 -12 6 -1 16 14 49 16 49 2 0 -5 5
-10 11 -10 5 0 7 5 4 10 -3 6 3 10 15 10 14 0 19 -4 14 -12 -6 -10 -5 -10 7
-1 8 6 37 10 65 9 83 -4 208 35 245 76 9 10 18 16 20 14 2 -2 17 9 32 25 16
16 26 29 23 29 -3 0 6 12 20 27 45 49 64 138 64 305 0 210 15 198 -259 198
-115 0 -212 -4 -215 -9z"/>
</g>
</svg>
