<?xml version="1.0" encoding="utf-8"?>
<svg width="80" height="80" viewBox="0 0 80 80" fill="none" xmlns="http://www.w3.org/2000/svg">
<mask id="mask0" mask-type="alpha" maskUnits="userSpaceOnUse" x="0" y="0" width="80" height="80">
<circle cx="40" cy="40" r="40" fill="#C4C4C4"/>
</mask>
<g mask="url(#mask0)">
<circle cx="40" cy="40" r="40" fill="#87D6F4"/>
<path d="M62.4594 84.9136L61.197 86.8118C59.6469 84.8286 60.6614 82.5745 60.6614 82.5745C58.0459 78.2876 55.2963 77.0242 49.4698 76.8284C44.1038 76.649 43.2219 73.7615 43.3919 71.9268C43.7856 67.7238 48.6926 66.9741 50.7623 67.2666C61.2559 68.7511 64.1382 80.5276 64.1382 80.5276C67.3077 81.1159 67.5618 83.9967 67.5618 83.9967L65.1799 83.6312C65.6037 85.2623 65.0131 86.7852 65.0131 86.7852C63.4546 86.2286 62.4594 84.9136 62.4594 84.9136Z" fill="#E2405B"/>
<path d="M24.9279 76.3086C21.636 98.3562 7.67456 94.7651 8.82885 97.8066C9.53731 99.6815 21.9964 100.671 31.1513 94.478L24.9279 76.3086Z" fill="#FF5564"/>
<path d="M22.5092 33.8457L25.6972 35.1649L26.2041 60.5716L22.8634 57.9759C22.4176 57.6461 22.1244 57.1392 22.0694 56.5835C21.99 56.0338 22.1427 55.4719 22.4847 55.0322L24.1887 52.8274L16.2247 46.9033C15.4429 46.3231 15.2414 45.2421 15.7666 44.4237L22.5092 33.8457Z" fill="#3B2057"/>
<path d="M24.7566 41.0226C23.8649 34.1213 37.6187 34.8237 41.5702 35.0802C49.4853 35.581 49.9068 37.7918 50.774 44.7359C52.2825 56.8896 60.5885 78.7845 52.4291 90.2175C47.5432 97.0578 35.7254 96.7463 29.3249 93.7537C23.5473 91.0482 23.8405 83.9575 24.7749 77.4654C26.5094 65.4155 25.5689 53.5122 24.7566 41.0226Z" fill="#FF5564"/>
<path d="M53.5898 58.9407L37.5824 53.8105L37.2465 61.1577C37.2465 61.1577 37.3442 67.888 35.8357 75.3146C33.637 86.1552 35.231 91.2793 38.8955 93.5696C42.4866 95.8171 46.7007 94.4735 46.7007 94.4735C48.991 93.5818 51.0003 92.2015 52.4172 90.2166C57.9383 82.4847 55.935 69.9829 53.5898 58.9407Z" fill="#FF90A0"/>
<path d="M32.0674 52.6152L32.4766 55.5651C32.672 56.9759 34.5653 69.3311 41.2284 69.6792C41.3506 69.6853 41.4666 69.6915 41.5888 69.6915C44.4715 69.6915 46.7129 67.8348 47.8977 64.4574C48.6856 62.2099 48.7711 59.9868 48.7711 59.8952L48.8138 58.5699L47.5679 58.1241L34.8707 53.6107L32.0674 52.6152Z" fill="#FF5564"/>
<path d="M34.2661 55.3203C34.2661 55.3203 35.9579 67.5961 41.3201 67.8771C46.6824 68.158 46.9633 59.8337 46.9633 59.8337L34.2661 55.3203Z" fill="#3B2057"/>
<path d="M37.5757 59.4668L49.3018 62.4228L47.5674 64.2C47.3169 64.4687 46.9627 64.6153 46.5902 64.6031C46.2237 64.5909 45.8756 64.4321 45.6374 64.1512L44.2205 62.5632L42.2478 63.8824C41.9241 64.1023 41.521 64.1756 41.1363 64.0901C40.7454 64.0168 40.4034 63.7786 40.2019 63.4305L37.5757 59.4668Z" fill="white"/>
<path d="M51.2748 32.2939C53.394 32.0618 55.5377 32.1717 57.6264 32.6237C59.2937 33.0207 60.8084 33.8879 61.9993 35.1155C63.3124 36.6118 64.3018 38.3646 64.9125 40.2579C66.1951 43.8735 67.0257 48.5517 67.3982 54.2866C67.5326 55.9355 67.1478 57.5845 66.305 59.0076C65.6698 60.2474 64.5339 61.1451 63.1841 61.481C60.2893 62.1223 57.3516 62.5559 54.3895 62.788C49.8762 63.1239 46.1934 62.9712 43.3291 62.33C38.9195 61.4383 35.0047 58.9221 32.3602 55.2821L25.6055 36.8683C33.4046 35.3842 39.0356 34.3032 42.4924 33.6253C45.3934 33.0146 48.3249 32.5687 51.2748 32.2939Z" fill="#FF5564"/>
<path d="M19.0409 87.6315L20.8936 88.951C21.6331 86.5469 19.8891 84.7998 19.8891 84.7998C20.8047 79.8569 22.93 77.7019 28.2984 75.4451C33.2463 73.3624 33.0464 70.3555 32.2262 68.6981C30.3604 64.9089 25.5099 65.9593 23.6795 66.9704C14.3989 72.0984 15.9068 84.1261 15.9068 84.1261C13.1563 85.8046 13.9407 88.5854 13.9407 88.5854L16.0392 87.3927C16.2226 89.0683 17.3224 90.2782 17.3224 90.2782C18.5697 89.212 19.0409 87.6315 19.0409 87.6315Z" fill="#FF5564"/>
<path fill-rule="evenodd" clip-rule="evenodd" d="M63.966 30.5839C62.8789 30.1075 61.4559 30.59 60.3627 31.6893C60.2527 29.7472 59.1106 28.2325 57.5655 28.1409C55.7821 28.0371 54.1331 29.8632 53.8827 32.2268C53.6323 34.5903 54.8721 36.5874 56.6555 36.6974C57.4433 36.7462 58.2006 36.4103 58.8297 35.824C58.9641 36.6424 59.3977 37.3081 60.1061 37.6196C61.5536 38.2548 63.5874 37.1921 64.6561 35.2499C65.7188 33.3078 65.4135 31.2191 63.966 30.5839Z" fill="#FF5564"/>
<path fill-rule="evenodd" clip-rule="evenodd" d="M57.9138 30.1933C58.5673 30.3705 58.9032 31.3599 58.6711 32.3981C58.439 33.4364 57.7183 34.1387 57.071 33.9616C56.4175 33.7845 56.0816 32.7951 56.3136 31.7568C56.5457 30.7186 57.2603 30.0162 57.9138 30.1933Z" fill="#3A2359"/>
<path fill-rule="evenodd" clip-rule="evenodd" d="M63.2639 32.2093C63.7952 32.5146 63.8257 33.388 63.331 34.1575C62.8363 34.9271 62.0057 35.3057 61.4744 35.0003C60.9431 34.695 60.9125 33.8216 61.4072 33.0521C61.9019 32.2826 62.7325 31.9039 63.2639 32.2093Z" fill="#3A2359"/>
<path fill-rule="evenodd" clip-rule="evenodd" d="M39.0602 17.7287C39.3472 17.1057 38.309 15.8049 35.7439 16.0247C33.6674 16.208 32.7574 17.2584 33.1971 18.1868C33.7773 19.4204 35.3164 18.26 36.6661 18.1745C38.1624 18.0829 38.7976 18.2845 39.0602 17.7287Z" fill="#3B2057"/>
<path fill-rule="evenodd" clip-rule="evenodd" d="M22.5641 21.668C22.0267 21.2405 22.3687 19.6098 24.7567 18.6509C26.6866 17.8753 27.9813 18.4005 28.0058 19.4266C28.0424 20.7885 26.1491 20.4465 24.9093 20.984C23.523 21.5764 23.0466 22.0466 22.5641 21.668Z" fill="#3B2057"/>
<path d="M27.5662 40.3014C31.2496 40.3014 34.2355 37.3155 34.2355 33.6321C34.2355 29.9488 31.2496 26.9629 27.5662 26.9629C23.8829 26.9629 20.897 29.9488 20.897 33.6321C20.897 37.3155 23.8829 40.3014 27.5662 40.3014Z" fill="white"/>
<path d="M40.679 37.3268C44.3623 37.3268 47.3483 34.3409 47.3483 30.6575C47.3483 26.9742 44.3623 23.9883 40.679 23.9883C36.9957 23.9883 34.0098 26.9742 34.0098 30.6575C34.0098 34.3409 36.9957 37.3268 40.679 37.3268Z" fill="white"/>
<path d="M27.5662 36.3198C29.0503 36.3198 30.2534 35.1167 30.2534 33.6326C30.2534 32.1484 29.0503 30.9453 27.5662 30.9453C26.082 30.9453 24.8789 32.1484 24.8789 33.6326C24.8789 35.1167 26.082 36.3198 27.5662 36.3198Z" fill="#3B2057"/>
<path d="M40.6785 33.3452C42.1626 33.3452 43.3657 32.1421 43.3657 30.6579C43.3657 29.1738 42.1626 27.9707 40.6785 27.9707C39.1943 27.9707 37.9912 29.1738 37.9912 30.6579C37.9912 32.1421 39.1943 33.3452 40.6785 33.3452Z" fill="#3B2057"/>
<path d="M26.1187 24.8549C24.3109 25.1419 22.6436 25.9908 21.3489 27.2917L16.4019 27.6826L18.9548 31.4142V31.4814L16.3652 32.5441L18.7227 34.4618L18.8082 35.1336C19.6266 39.9767 24.2132 43.2381 29.0564 42.4258C30.4244 42.212 31.7192 41.6868 32.8429 40.8867C33.9239 40.0989 34.8095 39.0851 35.4447 37.9063C36.3852 38.5842 37.4479 39.0728 38.5717 39.3355C42.1078 40.1966 45.815 38.8224 47.9465 35.8726C49.3634 33.9671 49.9192 31.5547 49.4855 29.2216C49.3695 28.5315 49.1741 27.8597 48.9053 27.2123L49.8031 23.9815L47.1831 24.5617L47.0243 24.4029L46.9693 20.0117L43.3598 22.1615C40.6604 21.3187 37.7227 21.7951 35.4325 23.4563C34.3576 24.2441 33.4781 25.258 32.8429 26.4306C31.9024 25.7527 30.8397 25.258 29.716 24.9892C28.5433 24.7022 27.328 24.6533 26.1431 24.861L26.1187 24.8549ZM26.6684 27.9941C29.7892 27.4871 32.7391 29.5942 33.2766 32.709C33.759 35.8604 31.5909 38.8041 28.4395 39.2866C26.9799 39.5065 25.4897 39.1644 24.2804 38.3277C21.697 36.4894 21.0923 32.8983 22.9307 30.3149C23.8101 29.0812 25.1415 28.2445 26.6317 27.988L26.6684 27.9941ZM45.3386 33.9854C43.4942 36.5627 39.9031 37.1612 37.3257 35.3107C36.0921 34.4312 35.2615 33.0937 35.0049 31.5974C34.724 30.1011 35.0843 28.5498 36.0004 27.3284C37.8388 24.7449 41.4238 24.1464 44.0072 25.9847C45.247 26.8703 46.0898 28.2078 46.3402 29.7163C46.6151 31.2126 46.2547 32.7639 45.3386 33.9854Z" fill="#6F568E"/>
</g>
</svg>
