<svg width="527" height="364" viewBox="0 0 527 364" fill="none" xmlns="http://www.w3.org/2000/svg">
<path d="M104.768 230.217C90.3492 244.344 87.904 266.205 90.9606 285.355C91.0449 285.788 91.7194 285.671 91.7194 285.26C91.7194 280.903 91.5824 276.587 91.593 272.283C91.6773 272.082 91.7405 271.892 91.8248 271.702C95.5876 268.959 99.0764 265.878 101.184 261.658C103.598 256.91 104.547 251.572 106.381 246.613C106.56 246.138 106.054 246.275 105.717 246.528C96.9473 252.996 94.1226 259.97 91.6351 269.276C91.6847 264.406 92.1965 259.552 93.1634 254.779C95.0606 245.948 98.8023 237.18 105.147 230.628C105.202 230.578 105.234 230.508 105.237 230.434C105.24 230.36 105.214 230.287 105.163 230.233C105.113 230.178 105.043 230.146 104.969 230.143C104.895 230.14 104.822 230.166 104.768 230.217Z" fill="#A6A6A6"/>
<path d="M107.508 231.863C109.985 231.947 111.545 235.914 113.474 237.075C113.677 237.24 113.913 237.36 114.165 237.428C114.418 237.496 114.682 237.51 114.941 237.47C115.199 237.429 115.446 237.334 115.665 237.192C115.885 237.049 116.072 236.862 116.214 236.642C118.133 233.962 115.498 230.66 113.052 228.814C114.823 229.542 116.288 230.818 118.196 231.187C118.44 231.265 118.697 231.29 118.951 231.26C119.205 231.23 119.45 231.147 119.67 231.015C119.889 230.883 120.078 230.707 120.223 230.496C120.369 230.286 120.468 230.047 120.515 229.795C121.347 226.144 116.784 224.519 113.643 224.446C115.16 223.39 119.524 220.51 117.205 219.096C114.886 217.683 109.743 221.787 108.078 223.137C105.622 225.131 102.702 228.107 102.586 231.219C102.397 234.859 105.569 232.622 107.508 231.863Z" fill="#DBDBDB"/>
<path d="M106.76 232.475C109.922 231.029 116.024 233.108 116.541 231.905C117.595 229.457 112.725 227.78 110.09 227.453C112.515 226.798 117.152 225.754 117.015 223.422C116.836 220.563 109.901 223.021 106.38 225.712C101.964 229.109 101.985 232.39 102.723 233.044C103.724 233.941 106.233 232.707 106.76 232.475Z" fill="#EBEBEB"/>
<path d="M71.9247 228.814C86.8704 242.382 90.1272 264.137 87.8084 283.392C87.8084 283.825 87.0706 283.741 87.0601 283.329C86.8915 278.972 86.8598 274.646 86.6807 270.352L86.4383 269.771C82.5806 267.187 78.997 264.222 76.6993 260.065C74.1064 255.422 72.9576 250.115 70.9339 245.23C70.7442 244.766 71.2501 244.882 71.5874 245.114C80.5991 251.255 83.6662 258.113 86.5331 267.324C86.2843 262.457 85.5785 257.625 84.4251 252.89C82.1906 244.133 78.1011 235.524 71.5242 229.215C71.3134 228.951 71.6717 228.571 71.9247 228.814Z" fill="#A6A6A6"/>
<path d="M69.2798 230.565C66.8029 230.744 65.4011 234.785 63.5144 235.999C63.3186 236.172 63.0883 236.303 62.8386 236.381C62.5889 236.459 62.3255 236.483 62.0657 236.453C61.8059 236.422 61.5556 236.336 61.3312 236.202C61.1067 236.067 60.9133 235.886 60.7635 235.672C58.7504 233.066 61.2483 229.668 63.6515 227.727C61.9124 228.529 60.4895 229.837 58.6028 230.291C58.3597 230.379 58.1002 230.414 57.8423 230.393C57.5844 230.372 57.3342 230.295 57.1088 230.167C56.8835 230.04 56.6883 229.865 56.5369 229.655C56.3854 229.445 56.2811 229.205 56.2313 228.951C55.2511 225.332 59.7622 223.538 62.8926 223.338C61.3327 222.346 56.8637 219.635 59.1298 218.136C61.3959 216.638 66.687 220.542 68.405 221.829C70.9346 223.728 73.9701 226.587 74.1915 229.7C74.476 233.372 71.2192 231.251 69.2798 230.565Z" fill="#DBDBDB"/>
<path d="M70.0172 231.145C66.8025 229.826 60.7842 232.137 60.2255 230.955C59.0872 228.55 63.8829 226.735 66.5495 226.26C64.1043 225.701 59.435 224.825 59.4877 222.494C59.551 219.634 66.5812 221.818 70.1964 224.382C74.7391 227.611 74.834 230.882 74.1278 231.567C73.116 232.506 70.5547 231.367 70.0172 231.145Z" fill="#EBEBEB"/>
<path d="M87.2083 264.654C88.2221 271.914 89.7758 279.087 91.8565 286.115C91.8868 286.252 91.9698 286.372 92.0876 286.449C92.2055 286.526 92.3488 286.554 92.4868 286.526C92.6248 286.499 92.7465 286.418 92.8257 286.302C92.9049 286.185 92.9354 286.042 92.9105 285.904C91.9303 279.299 90.1384 272.8 89.1582 266.195C88.0811 259.503 87.6961 252.719 88.0094 245.948C88.6312 234.806 91.6562 222.947 98.9183 214.233C99.0869 214.022 98.7391 213.737 98.581 213.927C84.0358 230.903 86.3546 251.709 86.3651 253.576C84.2571 246.549 82.1491 238.489 74.3917 231.335C74.0544 231.029 73.7909 231.177 73.8541 231.705C75.2349 244.777 78.8501 251.54 86.4284 258.493C86.6181 260.603 86.8816 262.629 87.2083 264.654Z" fill="#A6A6A6"/>
<path d="M99.0765 216.184C101.69 215.024 105.306 218.358 107.888 218.579C108.182 218.655 108.488 218.667 108.787 218.614C109.086 218.56 109.369 218.443 109.618 218.269C109.868 218.096 110.076 217.871 110.231 217.61C110.385 217.348 110.481 217.056 110.512 216.754C111.155 213.009 106.771 210.909 103.271 210.244C105.474 210.107 107.635 210.687 109.796 210.107C110.086 210.061 110.363 209.954 110.61 209.794C110.857 209.634 111.067 209.424 111.228 209.177C111.389 208.931 111.497 208.654 111.544 208.363C111.591 208.073 111.577 207.775 111.503 207.491C110.544 203.27 104.979 203.903 101.69 205.38C102.744 203.513 105.812 198.333 102.744 197.995C99.6772 197.657 96.3571 204.547 95.3137 206.794C93.7643 210.097 92.2254 214.665 93.68 217.946C95.282 221.861 97.4428 217.936 99.0765 216.184Z" fill="#DBDBDB"/>
<path d="M98.6021 217.176C101.174 214.085 108.541 213.167 108.468 211.658C108.331 208.598 102.439 209.305 99.5507 210.297C101.722 208.398 106.012 204.969 104.694 202.616C103.071 199.746 97.1054 205.781 94.8182 210.36C91.9408 216.111 93.6167 219.497 94.7023 219.803C96.199 220.236 98.1805 217.693 98.6021 217.176Z" fill="#EBEBEB"/>
<path d="M77.6378 268.579L71.2295 317.64H110.227C109.426 313.293 102.164 268.526 102.164 268.526L77.6378 268.579Z" fill="#DBDBDB"/>
<path d="M458.28 125.163H486.189V113.357H458.28V125.163Z" fill="#EBEBEB"/>
<path d="M473.847 110.276H501.757V98.4699H473.847V110.276Z" fill="#EBEBEB"/>
<path d="M442.701 110.276H470.611V98.4699H442.701V110.276Z" fill="#EBEBEB"/>
<path d="M40.8108 277.431H68.7207V265.625H40.8108V277.431Z" fill="#EBEBEB"/>
<path d="M25.2444 262.544H53.1543V250.738H25.2444V262.544Z" fill="#EBEBEB"/>
<path d="M473.847 277.421H501.757V265.615H473.847V277.421Z" fill="#EBEBEB"/>
<path d="M146.412 15.0453H118.502V26.8516H146.412V15.0453Z" fill="#EBEBEB"/>
<path d="M130.834 29.9324H102.924V41.7387H130.834V29.9324Z" fill="#EBEBEB"/>
<path d="M61.0791 317.598L111.682 317.345L162.284 317.25L263.5 317.07L364.705 317.25L415.318 317.345L465.92 317.598L415.318 317.862L364.705 317.946L263.5 318.125L162.284 317.946L111.682 317.851L61.0791 317.598Z" fill="white"/>
<path d="M182.763 167.63C182.494 167.32 182.205 167.028 181.899 166.754C181.623 166.45 181.331 166.161 181.024 165.889C180.752 165.582 180.463 165.289 180.16 165.013C179.887 164.707 179.595 164.418 179.285 164.148C179.011 163.842 178.716 163.547 178.421 163.273C178.154 162.963 177.865 162.674 177.556 162.407C177.281 162.1 176.989 161.808 176.682 161.532C176.415 161.223 176.126 160.933 175.817 160.666C175.542 160.362 175.25 160.074 174.942 159.801C174.05 158.817 173.008 157.98 171.854 157.322V70.1307C171.854 69.6665 171.633 69.4344 171.633 68.9701C171.69 68.4967 171.609 68.0168 171.401 67.588C171.401 67.3559 171.18 66.8916 171.18 66.6595C171.053 66.1852 170.894 65.7199 170.705 65.2668C170.462 65.012 170.303 64.6875 170.252 64.3384C169.987 63.9216 169.676 63.5359 169.325 63.1883C169.082 62.9562 168.861 62.5025 168.629 62.2599L167.701 61.3314C167.701 61.1943 167.522 61.0465 167.322 60.9621L166.869 60.4979H166.816C166.816 60.3502 166.647 60.213 166.447 60.1181L165.983 59.6644C165.983 59.5272 165.804 59.3795 165.604 59.2846L165.151 58.8309C165.151 58.6832 164.972 58.546 164.771 58.4511L164.318 57.9868C164.318 57.8497 164.139 57.702 163.939 57.607L163.475 57.1533V57.1006C163.475 56.9634 163.296 56.8263 163.095 56.7313L162.642 56.2671H162.59C162.59 56.1299 162.421 55.9822 162.221 55.8872L161.757 55.4335V55.3808C161.757 55.2436 161.578 55.1065 161.377 55.0115L160.924 54.5473H160.872C160.872 54.3996 160.703 54.2624 160.503 54.1675L160.039 53.7138C160.039 53.5766 159.86 53.4289 159.659 53.3445L159.153 52.8381C159.153 52.606 158.7 52.3738 158.458 52.3738C158.459 52.3439 158.455 52.3139 158.444 52.2858C158.434 52.2577 158.418 52.232 158.397 52.2103C158.376 52.1886 158.351 52.1713 158.324 52.1595C158.296 52.1478 158.266 52.1417 158.237 52.1417C157.773 51.9202 157.53 51.6775 157.077 51.4454C156.678 51.1559 156.295 50.846 155.928 50.5169C155.696 50.5169 155.233 50.2954 155.001 50.2954C154.537 50.0632 153.841 50.0632 153.609 49.8206C153.21 49.8531 152.809 49.7765 152.45 49.599H148.529C148.254 49.7759 147.927 49.854 147.602 49.8206C146.906 50.0632 146.453 50.0632 146.21 50.2954C145.757 50.2954 145.525 50.5169 145.283 50.9917C144.788 51.0032 144.308 51.1611 143.902 51.4454C143.681 51.6775 143.206 51.9202 142.975 52.1417C142.667 52.4798 142.268 52.7216 141.826 52.8381C141.653 53.1878 141.417 53.5026 141.13 53.7665C140.898 53.9987 140.898 54.2202 140.677 54.2202L54.8075 160.371C52.7769 162.812 51.7634 165.942 51.9773 169.111C52.1913 172.28 53.6162 175.244 55.9563 177.389C56.2273 177.708 56.5233 178.004 56.8417 178.276C57.1064 178.593 57.3992 178.886 57.7165 179.151C57.9874 179.47 58.2835 179.766 58.6019 180.038C58.8691 180.356 59.1617 180.653 59.4767 180.924C59.7477 181.239 60.0438 181.532 60.3621 181.8C60.6293 182.118 60.9219 182.415 61.2369 182.686C61.5079 183.001 61.804 183.294 62.1222 183.562C62.3895 183.88 62.6821 184.177 62.9971 184.448C63.2681 184.763 63.5642 185.056 63.8824 185.324C64.4275 185.944 65.035 186.506 65.6953 187.001C67.866 188.89 70.6732 189.882 73.5476 189.776H137.546V198.544C137.528 200.328 137.886 202.097 138.598 203.734C139.31 205.37 140.36 206.837 141.678 208.039C141.952 208.335 142.237 208.62 142.521 208.883C142.79 209.184 143.075 209.469 143.375 209.738C143.649 210.033 143.934 210.318 144.229 210.582C144.497 210.882 144.782 211.168 145.083 211.437C145.357 211.732 145.641 212.017 145.936 212.291C146.202 212.594 146.487 212.88 146.79 213.146C147.054 213.441 147.338 213.726 147.633 214C147.902 214.301 148.187 214.586 148.487 214.855C148.751 215.14 149.035 215.425 149.33 215.699C151.071 217.583 153.339 218.899 155.837 219.474C158.336 220.05 160.949 219.859 163.338 218.927C165.727 217.994 167.779 216.363 169.229 214.246C170.678 212.129 171.457 209.624 171.464 207.058V189.734H173.783C175.47 189.762 177.147 189.453 178.714 188.827C180.281 188.2 181.708 187.267 182.911 186.083C184.115 184.899 185.071 183.487 185.724 181.929C186.377 180.371 186.714 178.699 186.716 177.01C186.741 175.257 186.403 173.519 185.723 171.905C185.042 170.29 184.034 168.834 182.763 167.63ZM137.525 118.042V155.433H107.423L137.525 118.042Z" fill="#254833"/>
<path d="M178.189 168.189C178.188 169.879 177.85 171.553 177.197 173.111C176.543 174.669 175.586 176.082 174.381 177.266C173.176 178.451 171.748 179.383 170.18 180.009C168.611 180.635 166.934 180.943 165.246 180.913H162.937V198.501C162.937 201.876 161.598 205.112 159.214 207.499C156.83 209.885 153.597 211.226 150.226 211.226C146.855 211.226 143.622 209.885 141.238 207.499C138.854 205.112 137.515 201.876 137.515 198.501V180.913H64.7151C61.858 181.01 59.0705 180.019 56.9155 178.138C55.5802 177.134 54.4623 175.868 53.6291 174.419C52.7959 172.97 52.2647 171.366 52.0677 169.706C51.8707 168.045 52.0119 166.362 52.4828 164.758C52.9537 163.153 53.7445 161.661 54.8075 160.371L140.287 53.9037C140.519 53.9037 140.519 53.6821 140.751 53.45C141.038 53.1861 141.274 52.8713 141.446 52.5215C141.89 52.4016 142.291 52.1604 142.606 51.8252C142.827 51.5931 143.291 51.361 143.523 51.1289C143.929 50.8377 144.414 50.6759 144.914 50.6646C145.146 50.2109 145.378 49.9788 145.841 49.9788C146.063 49.7467 146.527 49.7467 147.222 49.5146C147.549 49.5493 147.878 49.4671 148.15 49.2825H152.081C152.433 49.471 152.833 49.5517 153.23 49.5146C153.462 49.7467 154.158 49.7467 154.621 49.9788C154.853 49.9788 155.317 50.2109 155.549 50.2109C156.002 50.6646 156.466 50.8967 156.698 51.1289C157.161 51.361 157.393 51.5931 157.857 51.8252C157.919 51.8252 157.978 51.8496 158.021 51.8932C158.064 51.9367 158.089 51.9957 158.089 52.0573C158.321 52.0573 158.785 52.2894 158.785 52.5215L159.702 53.45C159.933 53.6821 160.165 54.1358 160.397 54.3679C160.751 54.717 161.062 55.1065 161.325 55.5285C161.383 55.8776 161.544 56.2011 161.788 56.457C161.979 56.9038 162.131 57.3662 162.242 57.8391C162.242 58.0712 162.474 58.5355 162.474 58.7676C162.682 59.2 162.763 59.6834 162.705 60.1603C162.705 60.614 162.937 60.8461 162.937 61.3103V155.465H165.246C168.643 155.448 171.91 156.776 174.335 159.159C176.759 161.542 178.144 164.788 178.189 168.189ZM137.515 98.3222L91.5288 155.465H137.515V98.3222Z" fill="#3A8559"/>
<path d="M313.385 83.7728C310.776 79.7984 307.744 76.1192 304.342 72.8C304.216 72.6619 304.082 72.5316 303.941 72.4096L303.825 72.2936C303.72 72.1775 303.614 72.0615 303.498 71.9559C303.203 71.6394 302.887 71.344 302.581 71.038L302.497 70.9642L302.181 70.6477C302.145 70.6064 302.106 70.5676 302.065 70.5316C301.96 70.4156 301.854 70.2995 301.738 70.194C301.443 69.8775 301.127 69.582 300.821 69.2761L300.737 69.2022L300.421 68.8857L300.305 68.7696C300.199 68.6536 300.094 68.5375 299.978 68.432C299.683 68.1155 299.367 67.8201 299.061 67.5141L298.977 67.4402L298.661 67.1237C298.661 67.1237 298.587 67.0393 298.545 67.0077C298.44 66.8873 298.328 66.7745 298.207 66.67C297.923 66.343 297.607 66.0581 297.301 65.7521L297.217 65.6783C297.119 65.565 297.014 65.4592 296.9 65.3617C296.9 65.3617 296.827 65.2773 296.784 65.2457C287.499 55.6656 275.399 49.3246 261.823 49.3246C243.557 49.3246 228.548 60.2024 218.831 74.9946C208.659 89.7656 203.358 109.021 203.126 130.291C203.358 151.392 208.659 170.774 218.831 185.587C221.435 189.503 224.434 193.141 227.779 196.444L228.243 196.898V196.95L229.065 197.773C229.202 197.932 229.349 198.069 229.487 198.206L229.95 198.66L230.003 198.712L230.825 199.535L231.247 199.978L231.71 200.422C231.733 200.433 231.751 200.452 231.763 200.474L232.585 201.297L233.007 201.74L233.471 202.184C233.483 202.19 233.494 202.199 233.503 202.21C233.512 202.221 233.519 202.233 233.523 202.247L234.345 203.07L234.778 203.502L235.231 203.946L235.294 204.009L236.116 204.832C245.244 213.958 257.028 220.088 270.571 220.088C288.363 220.088 303.614 208.978 313.332 194.397C323.261 179.626 328.815 160.16 328.815 139.111C328.847 117.788 323.314 98.586 313.385 83.7728ZM283.314 171.207C276.611 181.145 268.98 185.545 261.823 185.545C257.419 185.438 253.158 183.963 249.628 181.325C249.302 180.903 248.986 180.46 248.669 179.995C242.198 170.278 237.571 155.475 237.571 139.048C237.571 122.388 242.198 107.818 248.669 97.9002C255.615 88.183 263.425 83.5618 270.624 83.7833C274.797 83.7643 278.864 85.0966 282.218 87.5816C282.587 88.0775 282.945 88.5628 283.272 89.0798C289.744 99.0291 294.36 113.6 294.36 130.228C294.402 146.655 289.786 161.479 283.314 171.207Z" fill="#254833"/>
<path d="M203.116 130.249C203.348 108.968 208.671 89.7656 218.831 74.9629C228.539 60.1919 243.558 49.2825 261.824 49.2825C279.616 49.2825 294.867 60.1603 304.574 74.9629C314.513 89.734 320.058 108.968 320.058 130.249C320.058 151.35 314.513 170.742 304.574 185.545C294.867 200.116 279.616 211.226 261.824 211.226C243.558 211.226 228.539 200.116 218.831 185.545C208.692 170.742 203.348 151.308 203.116 130.249ZM294.403 130.249C294.403 113.6 289.787 99.0186 283.315 89.1009C276.612 79.3837 268.991 74.7625 261.824 74.9946C254.657 74.7625 246.794 79.3837 239.869 89.1009C233.398 99.0502 228.771 113.631 228.771 130.249C228.771 146.676 233.398 161.489 239.869 171.196C246.794 181.145 254.625 185.545 261.824 185.545C269.023 185.545 276.58 181.145 283.315 171.196C289.787 161.489 294.403 146.655 294.403 130.249Z" fill="#3A8559"/>
<path d="M470.832 167.63C470.558 167.324 470.263 167.029 469.968 166.754C469.683 166.448 469.388 166.163 469.093 165.889C468.808 165.583 468.523 165.288 468.228 165.013C467.944 164.707 467.649 164.412 467.354 164.148C467.069 163.842 466.784 163.547 466.489 163.273C466.205 162.967 465.91 162.671 465.614 162.407C465.33 162.101 465.035 161.806 464.75 161.532C464.478 161.228 464.19 160.939 463.886 160.666C463.601 160.361 463.306 160.076 463.011 159.801C462.118 158.814 461.072 157.976 459.912 157.322V70.1307C459.912 69.6665 459.691 69.4344 459.691 68.9701C459.748 68.4967 459.668 68.0168 459.459 67.588C459.459 67.3559 459.238 66.8916 459.238 66.6595C459.111 66.1852 458.953 65.7199 458.763 65.2668C458.524 65.0089 458.366 64.6858 458.31 64.3384C458.048 63.9191 457.737 63.533 457.383 63.1883C457.14 62.9562 456.919 62.5025 456.687 62.2599L455.76 61.3314C455.76 61.1943 455.58 61.0465 455.38 60.9621L454.927 60.4979H454.874C454.874 60.3502 454.706 60.213 454.505 60.1181L454.042 59.6644C454.042 59.5272 453.862 59.3795 453.662 59.2846L453.209 58.8309C453.209 58.6832 453.03 58.546 452.829 58.4511L452.376 57.9868C452.376 57.8497 452.197 57.702 451.997 57.607L451.533 57.1533V57.1006C451.533 56.9634 451.354 56.8263 451.154 56.7313L450.7 56.2671H450.648C450.648 56.1299 450.479 55.9822 450.279 55.8872L449.815 55.4335V55.3808C449.815 55.2436 449.636 55.1065 449.436 55.0115L448.982 54.5473H448.93C448.93 54.3996 448.761 54.2624 448.561 54.1675L448.097 53.7138C448.097 53.5766 447.918 53.4289 447.718 53.3445L447.212 52.8381C447.212 52.606 446.758 52.3738 446.516 52.3738C446.516 52.3434 446.51 52.3132 446.498 52.285C446.487 52.2569 446.47 52.2313 446.448 52.2097C446.427 52.1882 446.401 52.1711 446.373 52.1594C446.345 52.1477 446.315 52.1417 446.284 52.1417C445.831 51.9202 445.588 51.6775 445.135 51.4454C444.737 51.1559 444.353 50.846 443.986 50.5169C443.755 50.5169 443.291 50.2954 443.059 50.2954C442.595 50.0632 441.91 50.0632 441.668 49.8206C441.268 49.8542 440.867 49.7776 440.508 49.599H436.587C436.312 49.7759 435.985 49.854 435.66 49.8206C434.964 50.0632 434.511 50.0632 434.269 50.2954C433.815 50.2954 433.583 50.5169 433.341 50.9917C432.846 51.0045 432.366 51.1622 431.96 51.4454C431.739 51.6775 431.265 51.9202 431.043 52.1417C430.729 52.477 430.327 52.7181 429.884 52.8381C429.708 53.1857 429.472 53.4999 429.188 53.7665C428.956 53.9987 428.956 54.2202 428.735 54.2202L342.845 160.371C340.814 162.812 339.801 165.942 340.014 169.111C340.228 172.28 341.653 175.244 343.993 177.389C344.264 177.708 344.56 178.004 344.879 178.276C345.143 178.593 345.436 178.886 345.754 179.151C346.025 179.47 346.321 179.766 346.639 180.038C347.523 180.915 348.401 181.798 349.274 182.686C349.868 183.266 350.454 183.854 351.034 184.448C351.305 184.763 351.601 185.056 351.92 185.324C352.465 185.944 353.072 186.506 353.732 187.001C355.903 188.89 358.71 189.882 361.585 189.776H425.584V198.544C425.565 200.328 425.923 202.097 426.635 203.734C427.347 205.37 428.397 206.837 429.715 208.039C429.989 208.345 430.284 208.63 430.569 208.894C430.832 209.189 431.117 209.464 431.412 209.738C431.684 210.039 431.973 210.324 432.276 210.593C432.551 210.888 432.825 211.162 433.12 211.437C433.394 211.743 433.689 212.027 433.984 212.302C434.258 212.597 434.532 212.882 434.827 213.146C435.101 213.452 435.396 213.737 435.691 214.011C435.965 214.306 436.24 214.591 436.535 214.855C436.803 215.159 437.088 215.448 437.388 215.72C439.13 217.605 441.398 218.921 443.898 219.496C446.397 220.071 449.012 219.88 451.401 218.946C453.79 218.012 455.843 216.38 457.291 214.261C458.74 212.142 459.517 209.636 459.522 207.069V189.734H461.841C463.53 189.763 465.208 189.456 466.777 188.83C468.346 188.204 469.775 187.272 470.98 186.087C472.186 184.903 473.144 183.491 473.799 181.932C474.454 180.374 474.792 178.7 474.795 177.01C474.819 175.257 474.479 173.518 473.797 171.903C473.115 170.289 472.105 168.834 470.832 167.63ZM425.584 118.042V155.433H395.481L425.584 118.042Z" fill="#254833"/>
<path d="M466.246 168.189C466.245 169.879 465.908 171.553 465.254 173.111C464.6 174.669 463.643 176.082 462.439 177.266C461.234 178.451 459.806 179.383 458.237 180.009C456.669 180.635 454.992 180.943 453.303 180.913H450.995V198.501C450.995 201.876 449.656 205.112 447.272 207.499C444.888 209.885 441.655 211.226 438.284 211.226C434.912 211.226 431.679 209.885 429.296 207.499C426.912 205.112 425.572 201.876 425.572 198.501V180.913H352.773C349.898 181.024 347.089 180.031 344.92 178.138C343.579 177.133 342.455 175.866 341.618 174.413C340.781 172.96 340.248 171.352 340.051 169.686C339.854 168.021 339.997 166.332 340.471 164.724C340.946 163.115 341.743 161.62 342.812 160.329L428.344 53.9037C428.576 53.9037 428.576 53.6821 428.808 53.45C429.095 53.1861 429.331 52.8713 429.504 52.5215C429.947 52.4016 430.349 52.1604 430.663 51.8252C430.895 51.5931 431.359 51.361 431.591 51.1289C431.993 50.8361 432.475 50.674 432.972 50.6646C433.203 50.2109 433.435 49.9788 433.889 49.9788C434.12 49.7467 434.584 49.7467 435.28 49.5146C435.607 49.5493 435.935 49.4671 436.207 49.2825H440.139C440.491 49.471 440.89 49.5517 441.288 49.5146C441.52 49.7467 442.215 49.7467 442.679 49.9788C442.911 49.9788 443.375 50.2109 443.606 50.2109C444.07 50.6646 444.523 50.8967 444.755 51.1289C445.219 51.361 445.451 51.5931 445.915 51.8252C445.976 51.8252 446.035 51.8496 446.079 51.8932C446.122 51.9367 446.147 51.9957 446.147 52.0573C446.378 52.0573 446.832 52.2894 446.832 52.5215L447.759 53.45C447.991 53.6821 448.223 54.1358 448.455 54.3679C448.808 54.717 449.12 55.1065 449.382 55.5285C449.44 55.8776 449.602 56.2011 449.846 56.457C450.036 56.9051 450.191 57.3672 450.31 57.8391C450.31 58.0712 450.531 58.5355 450.531 58.7676C450.74 59.2 450.82 59.6834 450.763 60.1603C450.763 60.614 450.995 60.8461 450.995 61.3103V155.465H453.303C456.701 155.448 459.968 156.776 462.392 159.159C464.817 161.542 466.202 164.788 466.246 168.189ZM425.572 98.3222L379.586 155.465H425.572V98.3222Z" fill="#3A8559"/>
<path d="M295.404 181.209C295.368 181.45 295.416 181.697 295.541 181.906C295.666 182.116 295.86 182.276 296.089 182.359C297.196 182.528 298.545 182.707 300.042 182.918C304.5 173.232 309.054 165.604 307.768 168.622C305.804 173.362 304.516 178.356 303.942 183.456C305.681 183.688 309.739 184.184 311.762 184.427C316.421 167.145 321.554 154.442 320.953 158.43C318.508 174.52 318.94 179.774 319.499 185.397C338.397 187.697 363.219 190.42 381.211 191.97C384.151 182.475 386.902 172.093 387.155 172.853C389.126 178.497 389.084 186.474 388.589 192.593C394.322 193.047 398.918 193.289 401.732 193.289C401.732 193.289 403.84 185.25 404.219 182.591C405.348 175.788 405.284 168.84 404.03 162.059C402.733 155.138 399.972 148.913 397.389 142.551C397.382 142.511 397.371 142.473 397.358 142.435C395.645 138.267 394.414 133.916 393.69 129.468C393.683 129.433 393.683 129.397 393.69 129.362C393.208 126.119 393 122.84 393.068 119.561C393.3 107.554 387.924 96.7607 377.711 92.8569C360.268 75.0157 336.31 83.203 329.543 98.2906C326.898 105.054 324.273 113.885 321.986 120.69C321.993 120.701 321.996 120.714 321.996 120.727C321.996 120.74 321.993 120.752 321.986 120.764C321.123 123.433 320.099 126.047 318.919 128.592C312.648 140.747 300.569 147.014 295.404 181.209Z" fill="#263238"/>
<path d="M381.916 96.4019C388.461 100.738 392.192 106.657 392.456 115.457C392.624 120.584 392.456 125.575 393.9 130.502C395.344 135.587 397.958 139.871 400.666 144.144C404.956 150.939 407.781 157.607 407.77 166.216C407.76 174.825 406.463 185.207 402.996 193.11C402.996 193.163 402.911 193.11 402.933 193.11C405.884 185.039 406.959 173.665 406.358 164.95C405.694 155.37 401.225 149.061 396.735 141.496C393.117 135.491 391.116 128.649 390.928 121.639C390.801 117.292 391.265 112.808 390 108.63C388.503 103.65 384.92 100.285 381.336 97.2776C380.862 96.8451 381.42 96.0748 381.916 96.4019Z" fill="#263238"/>
<path d="M306.039 141.179C311.499 134.754 317.075 129.341 320.679 121.133C323.957 113.652 326.16 105.665 329.48 98.2061C329.48 98.0795 329.702 98.1428 329.649 98.28C324.379 111.574 322.355 125.227 313.143 136.062C308.126 141.949 303.162 147.383 299.557 154.61C295.871 162.232 293.566 170.449 292.748 178.877C292.748 179.172 292.358 179.13 292.358 178.877C292.353 165.092 297.197 151.746 306.039 141.179Z" fill="#263238"/>
<path d="M252.96 304.916C252.96 304.916 303.836 318.632 312.247 317.155C320.658 315.678 349.053 277.421 355.356 263.547C361.659 249.672 372.125 180.649 370.112 173.053C368.099 165.456 357.569 165.351 348.684 184.933C339.799 204.515 318.793 247.562 315.051 251.107C311.309 254.652 248.86 301.244 252.96 304.916Z" fill="#F7A9A0"/>
<path d="M307.83 312.618C300.03 308.535 290.534 298.628 284.062 297.594C282.479 297.284 280.838 297.492 279.383 298.187C277.927 298.882 276.733 300.028 275.978 301.455C275.978 301.455 273.006 294.84 266.977 294.872C263.889 294.872 261.19 299.852 261.19 299.852C261.19 299.852 258.566 294.65 253.222 295.009C248.954 295.294 246.898 300.231 246.898 300.231C246.898 300.231 242.071 296.412 237.813 298.121C229.191 301.529 227.758 338.214 241.038 344.418C247.225 347.309 247.088 338.33 247.088 338.33C247.088 338.33 250.397 351.202 257.944 351.687C265.491 352.173 264.616 340.525 264.616 340.525C264.616 340.525 267.936 352.964 275.809 352.679C284.01 352.394 281.143 340.883 281.143 340.883C281.143 340.883 286.349 349.261 292.326 347.657C302.202 345.019 291.588 325.163 293.822 317.176H306.228L307.83 312.618Z" fill="#F7A9A0"/>
<path d="M296.574 304.81C304.3 308.039 313.111 295.832 321.058 298.67C331.366 302.352 321.838 315.087 306.218 317.155H293.812L296.574 304.81Z" fill="#F7A9A0"/>
<path d="M246.446 300.959C246.446 300.934 246.436 300.91 246.418 300.892C246.4 300.874 246.376 300.864 246.351 300.864C246.326 300.864 246.302 300.874 246.284 300.892C246.266 300.91 246.256 300.934 246.256 300.959C242.852 312.913 242.757 327.094 247.026 338.847C247.163 339.227 247.858 339.174 247.784 338.72C245.697 325.722 244.875 314.053 246.446 300.959Z" fill="#263238"/>
<path d="M261.117 299.641C261.117 299.493 260.895 299.461 260.853 299.641C257.406 311.985 257.691 327.948 264.257 340.926C264.479 341.369 265.132 341.537 264.911 341.01C261.232 332.063 259.641 311.447 261.117 299.641Z" fill="#263238"/>
<path d="M281.901 341.654C276.136 328.993 275.008 315.73 275.809 301.951C275.809 301.772 275.567 301.772 275.514 301.951C273.29 308.588 273.701 317.419 274.597 324.266C275.298 330.621 277.649 336.681 281.417 341.843C281.606 342.065 282.028 341.928 281.901 341.654Z" fill="#263238"/>
<path d="M321.67 297.699C316.611 296.011 311.414 300.063 307.156 302.331C305.793 303.143 304.357 303.825 302.866 304.367C299.494 305.422 296.996 304.747 295.488 303.808C293.128 302.299 285.76 294.935 280.437 297.383C278.601 298.243 277.029 299.58 275.884 301.255C274.261 298.301 272.185 295.083 268.59 294.492C267.798 294.357 266.987 294.392 266.21 294.594C265.432 294.796 264.706 295.16 264.079 295.663C263.409 296.18 262.814 296.788 262.309 297.467C261.808 298.078 261.396 298.756 261.086 299.482C261.085 299.458 261.085 299.433 261.086 299.408L260.97 299.187L260.749 298.733C260.448 298.125 260.02 297.589 259.494 297.161C259.394 297.059 259.274 296.978 259.142 296.924C259.01 296.869 258.868 296.842 258.725 296.845C258.703 296.845 258.681 296.854 258.665 296.869C258.65 296.885 258.641 296.907 258.641 296.929C258.641 296.951 258.65 296.973 258.665 296.989C258.681 297.005 258.703 297.013 258.725 297.013C258.972 297.131 259.172 297.328 259.294 297.573C259.463 297.826 259.621 298.09 259.8 298.332C259.979 298.575 260.148 298.828 260.327 299.071L260.591 299.461L260.706 299.662C260.757 299.726 260.814 299.786 260.875 299.841C260.89 299.861 260.909 299.877 260.931 299.888C260.953 299.899 260.977 299.904 261.002 299.904C261.026 299.904 261.05 299.899 261.072 299.888C261.094 299.877 261.113 299.861 261.128 299.841C261.67 299.358 262.161 298.821 262.593 298.237C263.124 297.619 263.714 297.054 264.353 296.549C264.961 296.079 265.661 295.742 266.407 295.56C267.153 295.378 267.93 295.356 268.685 295.494C271.91 296.127 273.955 298.997 275.673 301.561C275.673 301.561 275.673 301.561 275.726 301.561C275.673 301.645 275.789 301.719 275.852 301.656C277.623 300.105 279.31 298.364 281.755 298.005C284.39 297.615 286.888 298.881 289.07 300.21C290.162 300.854 291.218 301.558 292.232 302.32C293.128 303.017 293.981 303.798 294.94 304.431C299.04 307.016 303.531 305.011 304.648 304.536C306.851 303.542 308.988 302.408 311.045 301.139C313.113 299.751 315.446 298.806 317.896 298.364C319.022 298.198 320.17 298.32 321.236 298.719C322.301 299.117 323.248 299.779 323.989 300.643C324.758 301.635 325.738 303.492 323.725 307.722C323.725 307.722 323.725 307.807 323.788 307.775C324.842 306.678 328.194 299.883 321.67 297.699Z" fill="#263238"/>
<path d="M366.117 237.159L318.107 229.478C318.107 229.478 341.042 184.015 354.818 170.827C368.415 157.807 375.034 171.143 373.031 191.253C370.818 213.547 366.117 237.159 366.117 237.159Z" fill="#318D58"/>
<path d="M364.557 228.212C363.208 227.896 361.827 227.695 360.478 227.389C359.129 227.083 357.832 226.893 356.504 226.693C353.795 226.271 351.076 225.891 348.367 225.522C343.013 224.783 337.659 223.971 332.283 223.412C329.227 223.074 326.191 222.61 323.124 222.357C323.029 222.357 323.019 222.504 323.124 222.525C328.447 223.77 333.864 224.635 339.261 225.574C344.657 226.513 349.969 227.273 355.345 227.853C356.852 228.022 358.37 228.212 359.877 228.286C361.384 228.36 362.986 228.508 364.536 228.529C364.578 228.531 364.619 228.517 364.65 228.49C364.682 228.462 364.701 228.423 364.704 228.381C364.707 228.339 364.693 228.298 364.665 228.266C364.638 228.234 364.599 228.215 364.557 228.212Z" fill="#263238"/>
<path d="M339.388 317.577H466.532C466.532 317.577 413.684 186.284 386.818 167.102C378.755 161.342 365.906 160.698 357.243 172.262C350.139 181.757 330.418 219.476 329.522 233.044C328.626 246.613 339.261 260.023 339.261 260.023L339.388 317.577Z" fill="#53BF80"/>
<path d="M381.484 228.613C381.811 228.529 382.127 228.486 382.444 228.423C382.722 228.36 383.012 228.36 383.29 228.424C383.569 228.488 383.83 228.613 384.054 228.792C384.277 228.97 384.458 229.196 384.582 229.454C384.707 229.712 384.772 229.994 384.773 230.28C384.765 230.535 384.823 230.787 384.941 231.012C385.059 231.238 385.234 231.429 385.447 231.567C385.687 231.718 385.957 231.812 386.238 231.842C386.561 231.889 386.881 231.952 387.197 232.032C386.881 232.116 386.565 232.158 386.238 232.221C385.885 232.292 385.519 232.259 385.184 232.126C384.827 231.974 384.524 231.719 384.312 231.395C384.1 231.07 383.989 230.689 383.993 230.301C383.987 230.048 383.917 229.8 383.79 229.58C383.663 229.361 383.483 229.177 383.266 229.046C383.015 228.909 382.739 228.826 382.454 228.803C382.127 228.74 381.811 228.697 381.484 228.613Z" fill="white"/>
<path d="M332.853 228.613C333.169 228.529 333.485 228.486 333.801 228.423C334.08 228.36 334.369 228.36 334.648 228.424C334.927 228.488 335.188 228.613 335.411 228.792C335.635 228.97 335.816 229.196 335.94 229.454C336.065 229.712 336.13 229.994 336.13 230.28C336.125 230.535 336.185 230.788 336.305 231.013C336.425 231.239 336.601 231.43 336.816 231.567C337.053 231.721 337.324 231.815 337.606 231.842C337.922 231.905 338.238 231.937 338.555 232.032C338.238 232.116 337.922 232.158 337.606 232.221C337.253 232.29 336.887 232.257 336.552 232.126C336.198 231.971 335.897 231.715 335.685 231.391C335.474 231.067 335.361 230.688 335.361 230.301C335.355 230.048 335.285 229.8 335.158 229.58C335.031 229.361 334.851 229.177 334.634 229.046C334.384 228.907 334.107 228.825 333.822 228.803C333.485 228.74 333.169 228.697 332.853 228.613Z" fill="white"/>
<path d="M399.148 291.854C399.465 291.77 399.791 291.727 400.108 291.664C400.386 291.605 400.675 291.608 400.952 291.674C401.229 291.74 401.489 291.867 401.711 292.046C401.933 292.225 402.112 292.451 402.236 292.708C402.36 292.965 402.425 293.246 402.426 293.532C402.424 293.786 402.485 294.038 402.605 294.263C402.724 294.488 402.899 294.679 403.111 294.819C403.351 294.966 403.622 295.056 403.902 295.083C404.218 295.146 404.545 295.188 404.861 295.272C404.545 295.367 404.218 295.41 403.902 295.473C403.548 295.539 403.182 295.503 402.848 295.367C402.491 295.214 402.187 294.96 401.973 294.635C401.76 294.311 401.646 293.931 401.646 293.542C401.645 293.289 401.577 293.041 401.449 292.822C401.321 292.604 401.139 292.423 400.919 292.297C400.675 292.154 400.401 292.071 400.118 292.055C399.791 291.991 399.465 291.949 399.148 291.854Z" fill="white"/>
<path d="M421.136 232.031C421.452 231.937 421.779 231.905 422.095 231.842C422.373 231.778 422.662 231.778 422.94 231.842C423.219 231.906 423.479 232.032 423.702 232.21C423.925 232.389 424.104 232.615 424.228 232.873C424.351 233.131 424.415 233.413 424.414 233.698C424.41 233.954 424.471 234.205 424.591 234.43C424.71 234.656 424.885 234.847 425.099 234.986C425.336 235.139 425.608 235.23 425.889 235.249C426.206 235.323 426.532 235.355 426.848 235.45C426.532 235.534 426.206 235.577 425.889 235.64C425.536 235.711 425.17 235.678 424.835 235.545C424.478 235.392 424.174 235.137 423.961 234.813C423.747 234.488 423.633 234.108 423.634 233.72C423.632 233.465 423.564 233.216 423.436 232.995C423.309 232.775 423.126 232.592 422.906 232.464C422.66 232.326 422.387 232.243 422.105 232.221C421.779 232.116 421.452 232.116 421.136 232.031Z" fill="white"/>
<path d="M364.926 199.862C365.253 199.778 365.569 199.736 365.885 199.672C366.236 199.595 366.602 199.621 366.939 199.746C367.305 199.883 367.621 200.128 367.845 200.448C368.069 200.768 368.19 201.149 368.193 201.54C368.192 201.794 368.254 202.045 368.374 202.27C368.493 202.494 368.667 202.686 368.878 202.827C369.12 202.97 369.39 203.059 369.669 203.091C369.996 203.154 370.312 203.196 370.628 203.281C370.312 203.376 369.996 203.407 369.669 203.481C369.314 203.542 368.95 203.506 368.615 203.376C368.253 203.221 367.946 202.962 367.734 202.631C367.521 202.3 367.413 201.912 367.424 201.519C367.419 201.266 367.35 201.019 367.222 200.801C367.095 200.583 366.914 200.402 366.697 200.274C366.449 200.129 366.171 200.042 365.885 200.021C365.569 199.989 365.253 199.957 364.926 199.862Z" fill="white"/>
<path d="M399.528 199.134C399.845 199.05 400.161 199.008 400.487 198.944C400.839 198.87 401.204 198.896 401.541 199.018C401.907 199.157 402.223 199.402 402.448 199.721C402.673 200.041 402.798 200.421 402.806 200.812C402.801 201.067 402.862 201.319 402.982 201.545C403.102 201.77 403.277 201.961 403.491 202.099C403.731 202.248 404.001 202.338 404.282 202.363C404.598 202.426 404.914 202.468 405.241 202.553C404.914 202.648 404.598 202.69 404.282 202.753C403.928 202.82 403.562 202.784 403.228 202.648C402.871 202.495 402.567 202.24 402.353 201.916C402.14 201.591 402.026 201.211 402.026 200.822C402.022 200.57 401.954 200.322 401.826 200.104C401.699 199.886 401.517 199.705 401.299 199.577C401.055 199.434 400.78 199.351 400.498 199.335C400.172 199.285 399.848 199.218 399.528 199.134Z" fill="white"/>
<path d="M377.131 165.889C377.447 165.805 377.774 165.762 378.09 165.699C378.368 165.636 378.657 165.636 378.935 165.7C379.214 165.763 379.474 165.889 379.697 166.068C379.92 166.246 380.099 166.473 380.223 166.73C380.346 166.988 380.41 167.27 380.409 167.556C380.403 167.811 380.463 168.064 380.583 168.289C380.703 168.515 380.879 168.706 381.094 168.843C381.332 168.995 381.603 169.089 381.884 169.118C382.201 169.181 382.527 169.212 382.844 169.307C382.527 169.392 382.201 169.434 381.884 169.497C381.531 169.568 381.165 169.535 380.83 169.402C380.474 169.249 380.169 168.995 379.956 168.67C379.742 168.346 379.628 167.966 379.629 167.577C379.627 167.323 379.559 167.073 379.431 166.853C379.304 166.633 379.121 166.45 378.902 166.322C378.655 166.183 378.382 166.1 378.101 166.079C377.774 166.016 377.447 165.973 377.131 165.889Z" fill="white"/>
<path d="M356.441 255.074C356.758 254.99 357.074 254.948 357.39 254.884C357.741 254.807 358.107 254.832 358.444 254.958C358.81 255.093 359.127 255.335 359.353 255.653C359.579 255.972 359.703 256.351 359.709 256.741C359.703 256.997 359.763 257.249 359.883 257.475C360.003 257.7 360.179 257.891 360.394 258.028C360.632 258.182 360.903 258.276 361.184 258.303C361.501 258.366 361.817 258.408 362.133 258.493C361.817 258.588 361.501 258.619 361.184 258.683C360.831 258.751 360.466 258.718 360.13 258.588C359.776 258.432 359.475 258.177 359.264 257.852C359.052 257.528 358.939 257.15 358.939 256.762C358.933 256.509 358.864 256.261 358.736 256.041C358.609 255.822 358.429 255.638 358.212 255.507C357.961 255.37 357.685 255.287 357.401 255.264C357.074 255.201 356.758 255.169 356.441 255.074Z" fill="white"/>
<path d="M394.195 313.029C394.512 312.934 394.838 312.892 395.154 312.829C395.433 312.769 395.722 312.773 395.999 312.839C396.276 312.905 396.535 313.032 396.757 313.211C396.98 313.39 397.159 313.616 397.283 313.873C397.407 314.13 397.472 314.411 397.473 314.696C397.47 314.951 397.532 315.203 397.651 315.428C397.771 315.653 397.945 315.844 398.158 315.984C398.396 316.135 398.668 316.226 398.949 316.247C399.265 316.311 399.592 316.353 399.908 316.437C399.592 316.532 399.265 316.574 398.949 316.638C398.595 316.704 398.229 316.667 397.895 316.532C397.537 316.38 397.232 316.126 397.018 315.801C396.805 315.477 396.692 315.096 396.693 314.707C396.692 314.454 396.623 314.206 396.496 313.987C396.368 313.769 396.186 313.588 395.966 313.462C395.722 313.319 395.447 313.236 395.165 313.219C394.807 313.156 394.48 313.114 394.195 313.029Z" fill="white"/>
<path d="M375.592 281.884C375.908 281.799 376.224 281.757 376.54 281.694C376.892 281.621 377.256 281.647 377.594 281.768C377.961 281.904 378.279 282.148 378.504 282.468C378.73 282.788 378.854 283.169 378.859 283.561C378.854 283.816 378.915 284.069 379.035 284.294C379.155 284.519 379.33 284.71 379.544 284.848C379.783 284.999 380.054 285.089 380.335 285.112C380.651 285.176 380.967 285.218 381.294 285.302C380.967 285.397 380.651 285.429 380.335 285.503C379.98 285.562 379.616 285.526 379.281 285.397C378.927 285.241 378.626 284.986 378.414 284.662C378.203 284.338 378.09 283.959 378.09 283.572C378.083 283.32 378.013 283.074 377.886 282.856C377.759 282.638 377.579 282.456 377.363 282.327C377.117 282.178 376.838 282.094 376.551 282.084C376.277 282.01 375.908 281.979 375.592 281.884Z" fill="white"/>
<path d="M341.221 287.549C341.547 287.454 341.864 287.412 342.18 287.349C342.459 287.289 342.747 287.293 343.024 287.359C343.302 287.425 343.561 287.552 343.783 287.731C344.005 287.91 344.184 288.136 344.308 288.393C344.432 288.65 344.497 288.931 344.499 289.216C344.496 289.471 344.557 289.723 344.677 289.948C344.797 290.173 344.971 290.364 345.184 290.504C345.422 290.655 345.693 290.746 345.974 290.767C346.301 290.831 346.617 290.873 346.933 290.957C346.617 291.04 346.297 291.107 345.974 291.158C345.62 291.224 345.254 291.187 344.92 291.052C344.563 290.9 344.258 290.646 344.044 290.321C343.83 289.997 343.717 289.616 343.719 289.227C343.717 288.975 343.65 288.728 343.524 288.51C343.399 288.292 343.219 288.11 343.002 287.982C342.753 287.841 342.476 287.758 342.19 287.739C341.864 287.676 341.547 287.634 341.221 287.549Z" fill="white"/>
<path d="M391.412 255.834C391.728 255.75 392.045 255.707 392.361 255.644C392.64 255.585 392.929 255.588 393.207 255.654C393.485 255.72 393.744 255.847 393.967 256.026C394.19 256.204 394.37 256.43 394.495 256.687C394.62 256.944 394.687 257.226 394.69 257.512C394.685 257.767 394.746 258.019 394.866 258.244C394.985 258.469 395.161 258.66 395.375 258.799C395.614 258.949 395.885 259.04 396.166 259.062C396.482 259.126 396.798 259.168 397.114 259.252C396.798 259.347 396.482 259.379 396.166 259.453C395.811 259.517 395.446 259.481 395.112 259.347C394.758 259.192 394.456 258.936 394.245 258.612C394.033 258.288 393.921 257.909 393.921 257.522C393.914 257.27 393.844 257.024 393.717 256.806C393.589 256.589 393.409 256.407 393.193 256.277C392.947 256.131 392.668 256.048 392.382 256.034C392.087 255.961 391.728 255.929 391.412 255.834Z" fill="white"/>
<path d="M435.354 298.469C435.671 298.385 435.997 298.343 436.314 298.279C436.665 298.203 437.031 298.228 437.368 298.353C437.734 298.49 438.049 298.735 438.273 299.055C438.497 299.375 438.619 299.756 438.622 300.147C438.621 300.401 438.683 300.652 438.803 300.877C438.922 301.102 439.095 301.293 439.307 301.434C439.549 301.577 439.818 301.666 440.097 301.698C440.424 301.761 440.74 301.803 441.057 301.888C440.74 301.983 440.424 302.014 440.097 302.088C439.817 302.14 439.529 302.129 439.254 302.055C438.978 301.981 438.723 301.847 438.506 301.662C438.289 301.477 438.116 301.246 437.999 300.986C437.882 300.726 437.825 300.443 437.831 300.158C437.83 299.904 437.762 299.656 437.634 299.438C437.506 299.219 437.324 299.038 437.104 298.913C436.861 298.766 436.586 298.679 436.303 298.659C435.997 298.585 435.671 298.585 435.354 298.469Z" fill="white"/>
<path d="M417.911 272.441C418.227 272.356 418.554 272.314 418.87 272.251C419.149 272.191 419.438 272.195 419.715 272.261C419.992 272.327 420.251 272.454 420.473 272.633C420.695 272.812 420.875 273.038 420.999 273.295C421.122 273.552 421.188 273.833 421.189 274.118C421.184 274.374 421.245 274.626 421.365 274.851C421.484 275.076 421.66 275.267 421.874 275.406C422.111 275.559 422.383 275.649 422.665 275.669C422.981 275.733 423.308 275.775 423.624 275.859C423.308 275.954 422.981 275.996 422.665 276.06C422.311 276.127 421.945 276.09 421.611 275.954C421.253 275.802 420.948 275.548 420.734 275.223C420.521 274.899 420.407 274.518 420.409 274.129C420.407 273.876 420.339 273.628 420.212 273.409C420.084 273.191 419.901 273.01 419.682 272.884C419.438 272.741 419.163 272.658 418.881 272.641C418.554 272.578 418.227 272.536 417.911 272.441Z" fill="white"/>
<path d="M454.99 310.371C455.317 310.286 455.633 310.244 455.949 310.181C456.228 310.121 456.517 310.124 456.794 310.191C457.071 310.257 457.33 310.384 457.552 310.562C457.774 310.741 457.954 310.967 458.078 311.224C458.202 311.481 458.267 311.763 458.268 312.048C458.265 312.303 458.327 312.555 458.446 312.779C458.566 313.004 458.74 313.196 458.953 313.335C459.191 313.487 459.463 313.577 459.744 313.599C460.071 313.662 460.387 313.705 460.703 313.789C460.387 313.872 460.067 313.939 459.744 313.99C459.39 314.056 459.024 314.019 458.69 313.884C458.332 313.733 458.028 313.478 457.816 313.153C457.604 312.828 457.493 312.447 457.499 312.059C457.492 311.807 457.422 311.561 457.295 311.343C457.168 311.125 456.988 310.943 456.771 310.814C456.523 310.672 456.245 310.589 455.96 310.571C455.633 310.508 455.328 310.466 454.99 310.371Z" fill="white"/>
<path d="M367.846 217.83C367.688 218.115 367.488 218.368 367.308 218.643C367.155 218.885 366.95 219.089 366.707 219.241C366.464 219.392 366.191 219.487 365.906 219.519C365.622 219.55 365.334 219.517 365.064 219.422C364.794 219.327 364.549 219.172 364.347 218.97C364.171 218.785 363.95 218.649 363.707 218.575C363.463 218.501 363.204 218.492 362.955 218.548C362.68 218.609 362.424 218.736 362.207 218.917C361.946 219.111 361.676 219.29 361.396 219.455C361.564 219.17 361.754 218.917 361.933 218.643C362.14 218.339 362.429 218.102 362.766 217.957C363.122 217.817 363.511 217.784 363.886 217.863C364.261 217.941 364.604 218.128 364.874 218.4C365.056 218.576 365.281 218.703 365.527 218.767C365.772 218.832 366.03 218.833 366.276 218.769C366.549 218.695 366.802 218.557 367.013 218.368C367.351 218.189 367.604 217.988 367.846 217.83Z" fill="white"/>
<path d="M355.123 196.465C354.965 196.75 354.765 197.003 354.586 197.277C354.433 197.519 354.227 197.724 353.984 197.875C353.742 198.027 353.468 198.122 353.183 198.154C352.899 198.185 352.611 198.152 352.341 198.057C352.071 197.962 351.826 197.807 351.624 197.605C351.449 197.419 351.228 197.283 350.984 197.209C350.74 197.135 350.481 197.126 350.233 197.183C349.958 197.244 349.701 197.371 349.484 197.552C349.224 197.746 348.953 197.925 348.673 198.09C348.841 197.805 349.031 197.552 349.21 197.277C349.417 196.974 349.706 196.736 350.043 196.592C350.399 196.451 350.789 196.419 351.163 196.497C351.538 196.576 351.881 196.763 352.151 197.035C352.333 197.212 352.558 197.339 352.804 197.404C353.049 197.468 353.307 197.468 353.553 197.404C353.826 197.329 354.079 197.192 354.291 197.003C354.586 196.824 354.839 196.623 355.123 196.465Z" fill="white"/>
<path d="M419.491 255.022C419.323 255.317 419.133 255.57 418.954 255.834C418.754 256.14 418.473 256.385 418.142 256.541C417.793 256.693 417.406 256.738 417.031 256.671C416.656 256.603 416.309 256.426 416.034 256.161C415.857 255.979 415.636 255.845 415.393 255.771C415.15 255.697 414.892 255.686 414.643 255.739C414.368 255.801 414.111 255.928 413.895 256.108C413.621 256.288 413.368 256.488 413.083 256.646C413.241 256.361 413.441 256.108 413.621 255.834C413.823 255.531 414.109 255.293 414.443 255.148C414.799 255.012 415.188 254.981 415.562 255.06C415.935 255.138 416.279 255.323 416.551 255.591C416.731 255.768 416.954 255.896 417.197 255.96C417.441 256.025 417.698 256.025 417.942 255.961C418.218 255.888 418.473 255.755 418.69 255.57C418.985 255.391 419.238 255.19 419.491 255.022Z" fill="white"/>
<path d="M387.302 185.777C387.144 186.062 386.944 186.315 386.765 186.59C386.567 186.892 386.29 187.133 385.963 187.286C385.608 187.447 385.212 187.498 384.827 187.432C384.442 187.366 384.085 187.187 383.803 186.917C383.626 186.733 383.406 186.597 383.163 186.521C382.92 186.445 382.661 186.433 382.411 186.484C382.137 186.548 381.881 186.674 381.663 186.853C381.389 187.033 381.136 187.233 380.852 187.402C381.01 187.107 381.21 186.853 381.389 186.579C381.593 186.276 381.883 186.041 382.222 185.904C382.578 185.764 382.967 185.731 383.342 185.81C383.717 185.888 384.06 186.075 384.33 186.347C384.514 186.531 384.743 186.665 384.994 186.735C385.245 186.806 385.51 186.81 385.763 186.748C386.035 186.669 386.287 186.532 386.501 186.347C386.817 186.136 387.017 185.935 387.302 185.777Z" fill="white"/>
<path d="M364.978 169.993C364.82 170.278 364.619 170.531 364.44 170.806C364.241 171.109 363.965 171.353 363.639 171.513C363.282 171.672 362.886 171.721 362.501 171.653C362.116 171.586 361.76 171.404 361.479 171.133C361.303 170.948 361.082 170.812 360.838 170.738C360.595 170.664 360.336 170.655 360.087 170.711C359.811 170.77 359.554 170.897 359.339 171.08C359.065 171.259 358.812 171.46 358.527 171.618C358.685 171.333 358.886 171.08 359.065 170.806C359.269 170.5 359.559 170.261 359.898 170.12C360.254 169.98 360.643 169.947 361.018 170.026C361.392 170.104 361.736 170.291 362.006 170.563C362.187 170.741 362.412 170.869 362.658 170.933C362.903 170.998 363.162 170.998 363.407 170.932C363.681 170.857 363.933 170.72 364.145 170.531C364.44 170.352 364.683 170.151 364.978 169.993Z" fill="white"/>
<path d="M386.048 205.866C386.143 206.182 386.174 206.509 386.248 206.826C386.313 207.178 386.288 207.541 386.174 207.881C386.035 208.246 385.79 208.56 385.471 208.784C385.151 209.008 384.772 209.13 384.382 209.136C384.128 209.133 383.876 209.194 383.651 209.313C383.426 209.433 383.236 209.608 383.097 209.822C382.944 210.06 382.853 210.332 382.833 210.614C382.759 210.93 382.728 211.257 382.633 211.574C382.548 211.257 382.506 210.93 382.443 210.614C382.371 210.259 382.408 209.892 382.548 209.558C382.699 209.2 382.953 208.894 383.277 208.679C383.602 208.465 383.983 208.353 384.372 208.356C384.624 208.353 384.872 208.284 385.09 208.157C385.308 208.029 385.489 207.847 385.616 207.628C385.754 207.381 385.836 207.108 385.858 206.826C385.921 206.509 385.963 206.182 386.048 205.866Z" fill="white"/>
<path d="M378.449 262.069C378.533 262.386 378.575 262.713 378.638 263.03C378.698 263.309 378.694 263.597 378.628 263.875C378.562 264.153 378.436 264.412 378.257 264.634C378.078 264.857 377.852 265.036 377.596 265.16C377.339 265.284 377.058 265.349 376.773 265.351C376.518 265.346 376.266 265.406 376.041 265.526C375.816 265.646 375.625 265.822 375.487 266.037C375.338 266.276 375.248 266.547 375.223 266.828C375.16 267.144 375.118 267.471 375.034 267.788C374.939 267.471 374.897 267.144 374.833 266.828C374.766 266.473 374.803 266.107 374.939 265.773C375.092 265.415 375.346 265.111 375.67 264.897C375.994 264.683 376.374 264.57 376.762 264.57C377.015 264.568 377.263 264.5 377.481 264.372C377.699 264.245 377.88 264.062 378.006 263.842C378.149 263.598 378.232 263.323 378.248 263.04C378.312 262.713 378.385 262.386 378.449 262.069Z" fill="white"/>
<path d="M452.165 288.109C452.26 288.425 452.302 288.742 452.365 289.058C452.425 289.338 452.421 289.627 452.355 289.905C452.289 290.183 452.163 290.443 451.984 290.666C451.806 290.889 451.58 291.07 451.323 291.195C451.066 291.32 450.785 291.387 450.5 291.39C450.245 291.385 449.993 291.446 449.768 291.566C449.543 291.686 449.352 291.861 449.214 292.076C449.059 292.312 448.968 292.585 448.95 292.867C448.887 293.184 448.845 293.5 448.761 293.817C448.666 293.5 448.624 293.184 448.56 292.867C448.496 292.512 448.532 292.147 448.666 291.812C448.82 291.457 449.075 291.154 449.399 290.943C449.723 290.731 450.102 290.618 450.489 290.62C450.741 290.613 450.987 290.543 451.204 290.415C451.422 290.288 451.603 290.108 451.733 289.892C451.874 289.643 451.957 289.365 451.975 289.079C452.049 288.742 452.091 288.425 452.165 288.109Z" fill="white"/>
<path d="M418.016 213.652C418.101 213.969 418.143 214.285 418.206 214.612C418.28 214.964 418.254 215.329 418.132 215.667C417.994 216.033 417.749 216.349 417.43 216.575C417.11 216.8 416.731 216.925 416.34 216.933C416.085 216.929 415.833 216.989 415.608 217.109C415.383 217.229 415.193 217.405 415.054 217.619C414.906 217.859 414.816 218.13 414.791 218.411C414.728 218.727 414.686 219.044 414.601 219.371C414.506 219.044 414.475 218.727 414.401 218.411C414.349 218.13 414.361 217.841 414.434 217.566C414.508 217.29 414.642 217.035 414.827 216.817C415.011 216.6 415.242 216.427 415.502 216.31C415.762 216.193 416.045 216.136 416.33 216.142C416.582 216.138 416.829 216.069 417.047 215.942C417.265 215.814 417.446 215.632 417.574 215.414C417.721 215.172 417.804 214.896 417.816 214.612C417.89 214.285 417.921 213.969 418.016 213.652Z" fill="white"/>
<path d="M418.016 303.861C418.1 304.177 418.143 304.494 418.206 304.81C418.265 305.09 418.262 305.379 418.196 305.657C418.13 305.935 418.003 306.195 417.825 306.418C417.646 306.642 417.42 306.822 417.164 306.947C416.907 307.072 416.626 307.139 416.34 307.142C416.085 307.137 415.833 307.198 415.608 307.318C415.383 307.438 415.193 307.613 415.054 307.828C414.904 308.067 414.814 308.338 414.791 308.619C414.728 308.936 414.685 309.252 414.601 309.569C414.506 309.252 414.475 308.936 414.401 308.619C414.341 308.264 414.378 307.9 414.506 307.564C414.662 307.21 414.917 306.908 415.241 306.697C415.565 306.485 415.943 306.372 416.33 306.372C416.581 306.365 416.827 306.295 417.045 306.168C417.262 306.04 417.444 305.86 417.573 305.644C417.722 305.398 417.806 305.119 417.816 304.832C417.89 304.526 417.921 304.209 418.016 303.861Z" fill="white"/>
<path d="M435.354 252.215C435.449 252.532 435.481 252.859 435.544 253.175C435.608 253.454 435.607 253.743 435.544 254.022C435.48 254.3 435.354 254.56 435.176 254.784C434.998 255.007 434.771 255.187 434.514 255.31C434.256 255.433 433.975 255.497 433.689 255.496C433.434 255.493 433.183 255.553 432.958 255.673C432.733 255.793 432.542 255.968 432.403 256.182C432.25 256.419 432.16 256.692 432.14 256.973C432.066 257.29 432.034 257.617 431.939 257.934C431.855 257.617 431.813 257.29 431.75 256.973C431.678 256.619 431.715 256.251 431.855 255.918C432.005 255.561 432.257 255.256 432.58 255.042C432.902 254.828 433.281 254.715 433.668 254.716C433.922 254.714 434.172 254.645 434.391 254.518C434.611 254.39 434.794 254.207 434.922 253.988C435.06 253.741 435.143 253.467 435.165 253.186C435.228 252.859 435.302 252.532 435.354 252.215Z" fill="white"/>
<path d="M347.492 264.085C347.587 264.401 347.619 264.718 347.682 265.034C347.745 265.313 347.745 265.603 347.681 265.882C347.618 266.161 347.492 266.422 347.314 266.646C347.136 266.87 346.91 267.051 346.652 267.175C346.395 267.3 346.113 267.365 345.827 267.366C345.572 267.36 345.32 267.42 345.094 267.54C344.869 267.66 344.679 267.836 344.541 268.052C344.386 268.288 344.296 268.561 344.278 268.843C344.204 269.159 344.172 269.476 344.077 269.793C343.993 269.476 343.951 269.159 343.888 268.843C343.818 268.489 343.855 268.122 343.993 267.788C344.145 267.433 344.397 267.13 344.72 266.918C345.042 266.706 345.42 266.594 345.806 266.596C346.059 266.59 346.307 266.52 346.526 266.393C346.746 266.265 346.929 266.085 347.06 265.868C347.2 265.618 347.283 265.341 347.303 265.055C347.366 264.718 347.408 264.401 347.492 264.085Z" fill="white"/>
<path d="M349.201 213.652C349.28 213.969 349.343 214.289 349.39 214.612C349.468 214.963 349.446 215.329 349.327 215.667C349.189 216.033 348.944 216.349 348.625 216.575C348.305 216.8 347.926 216.925 347.535 216.933C347.28 216.928 347.028 216.988 346.803 217.108C346.577 217.228 346.387 217.404 346.249 217.619C346.096 217.857 346.006 218.129 345.986 218.411C345.912 218.727 345.881 219.044 345.786 219.371C345.701 219.044 345.659 218.727 345.596 218.411C345.525 218.057 345.558 217.691 345.691 217.355C345.844 216.998 346.098 216.694 346.422 216.48C346.746 216.266 347.126 216.152 347.514 216.153C347.768 216.149 348.016 216.08 348.236 215.952C348.456 215.825 348.639 215.643 348.768 215.425C348.907 215.178 348.989 214.905 349.011 214.623C349.074 214.285 349.116 213.969 349.201 213.652Z" fill="white"/>
<path d="M367.582 180.871C367.666 181.188 367.708 181.504 367.771 181.831C367.845 182.183 367.82 182.548 367.698 182.886C367.559 183.252 367.314 183.568 366.995 183.794C366.676 184.019 366.297 184.144 365.906 184.152C365.651 184.148 365.399 184.208 365.174 184.328C364.949 184.448 364.758 184.624 364.62 184.838C364.472 185.078 364.381 185.349 364.357 185.629C364.293 185.946 364.251 186.262 364.167 186.59C364.072 186.262 364.04 185.946 363.967 185.629C363.902 185.275 363.939 184.909 364.072 184.574C364.227 184.22 364.483 183.918 364.806 183.707C365.13 183.495 365.509 183.382 365.895 183.382C366.148 183.378 366.395 183.309 366.613 183.182C366.831 183.054 367.012 182.872 367.139 182.654C367.286 182.412 367.37 182.136 367.381 181.852C367.455 181.472 367.487 181.188 367.582 180.871Z" fill="white"/>
<path d="M362.649 231.546C362.733 231.873 362.776 232.19 362.839 232.506C362.898 232.786 362.895 233.075 362.829 233.353C362.763 233.631 362.636 233.891 362.458 234.114C362.279 234.337 362.053 234.518 361.797 234.643C361.54 234.768 361.259 234.835 360.973 234.838C360.718 234.833 360.466 234.894 360.241 235.014C360.016 235.134 359.826 235.309 359.687 235.524C359.537 235.762 359.447 236.034 359.424 236.315C359.361 236.632 359.318 236.948 359.234 237.265C359.139 236.948 359.097 236.632 359.034 236.315C358.969 235.96 359.006 235.595 359.139 235.26C359.295 234.906 359.55 234.604 359.874 234.392C360.198 234.181 360.576 234.068 360.963 234.068C361.214 234.061 361.46 233.991 361.678 233.863C361.895 233.736 362.077 233.556 362.206 233.34C362.348 233.091 362.431 232.813 362.449 232.527C362.512 232.19 362.575 231.873 362.649 231.546Z" fill="white"/>
<path d="M406.948 238.362C407.032 238.678 407.075 239.006 407.138 239.322C407.197 239.601 407.194 239.89 407.128 240.167C407.062 240.445 406.935 240.704 406.756 240.927C406.578 241.149 406.352 241.329 406.095 241.453C405.838 241.577 405.557 241.642 405.272 241.643C405.018 241.64 404.766 241.702 404.542 241.822C404.317 241.941 404.126 242.116 403.986 242.329C403.839 242.569 403.749 242.84 403.723 243.12C403.66 243.437 403.617 243.764 403.533 244.08C403.438 243.764 403.407 243.437 403.333 243.12C403.267 242.766 403.303 242.4 403.438 242.065C403.591 241.708 403.845 241.404 404.17 241.19C404.494 240.976 404.874 240.862 405.262 240.862C405.515 240.861 405.763 240.793 405.981 240.665C406.199 240.537 406.38 240.354 406.505 240.134C406.653 239.892 406.736 239.616 406.748 239.333C406.843 239.006 406.843 238.678 406.948 238.362Z" fill="white"/>
<path d="M366.001 295.273C366.085 295.6 366.127 295.916 366.191 296.233C366.254 296.512 366.254 296.801 366.19 297.08C366.126 297.359 366.001 297.621 365.823 297.844C365.644 298.068 365.418 298.249 365.161 298.374C364.904 298.498 364.622 298.564 364.336 298.564C364.08 298.556 363.827 298.616 363.602 298.736C363.376 298.856 363.186 299.034 363.05 299.25C362.898 299.485 362.804 299.753 362.776 300.031C362.729 300.354 362.665 300.674 362.586 300.991C362.502 300.675 362.46 300.358 362.396 300.031C362.326 299.677 362.359 299.311 362.491 298.976C362.643 298.619 362.898 298.315 363.222 298.103C363.547 297.891 363.927 297.78 364.315 297.784C364.568 297.778 364.816 297.708 365.035 297.581C365.254 297.453 365.438 297.273 365.569 297.056C365.705 296.805 365.788 296.528 365.811 296.243C365.875 295.916 365.917 295.6 366.001 295.273Z" fill="white"/>
<path d="M399.35 222.272C399.518 221.987 399.718 221.734 399.898 221.46C400.092 221.155 400.37 220.913 400.699 220.763C401.048 220.611 401.433 220.565 401.808 220.631C402.183 220.696 402.53 220.871 402.807 221.133C402.985 221.317 403.207 221.453 403.452 221.528C403.697 221.604 403.957 221.617 404.209 221.565C404.48 221.501 404.732 221.374 404.946 221.196C405.22 221.006 405.473 220.816 405.768 220.647C405.6 220.943 405.4 221.196 405.22 221.47C405.017 221.77 404.732 222.004 404.398 222.145C404.042 222.283 403.653 222.314 403.279 222.236C402.905 222.157 402.561 221.972 402.29 221.702C402.108 221.529 401.885 221.404 401.642 221.339C401.399 221.275 401.143 221.273 400.899 221.333C400.627 221.412 400.375 221.549 400.161 221.734C399.898 221.913 399.645 222.114 399.35 222.272Z" fill="white"/>
<path d="M373.517 245.705C373.675 245.42 373.875 245.167 374.054 244.893C374.207 244.651 374.413 244.446 374.656 244.295C374.898 244.143 375.172 244.048 375.456 244.017C375.741 243.985 376.029 244.018 376.299 244.113C376.569 244.208 376.814 244.363 377.016 244.566C377.191 244.751 377.412 244.888 377.656 244.962C377.9 245.036 378.159 245.045 378.407 244.988C378.682 244.926 378.939 244.8 379.156 244.619C379.416 244.425 379.687 244.245 379.967 244.08C379.798 244.365 379.609 244.618 379.43 244.893C379.268 245.129 379.056 245.326 378.809 245.47C378.562 245.614 378.286 245.701 378.001 245.724C377.716 245.747 377.43 245.706 377.163 245.605C376.896 245.503 376.655 245.343 376.457 245.135C376.277 244.959 376.054 244.833 375.81 244.768C375.566 244.703 375.31 244.703 375.066 244.766C374.794 244.845 374.542 244.982 374.328 245.167C374.054 245.347 373.801 245.547 373.517 245.705Z" fill="white"/>
<path d="M355.999 280.227C356.168 279.932 356.368 279.679 356.547 279.415C356.7 279.173 356.906 278.968 357.149 278.817C357.391 278.665 357.665 278.57 357.949 278.539C358.234 278.507 358.522 278.54 358.792 278.635C359.062 278.73 359.307 278.885 359.509 279.088C359.686 279.271 359.906 279.405 360.15 279.479C360.393 279.553 360.651 279.564 360.9 279.51C361.175 279.448 361.432 279.321 361.648 279.14C361.909 278.947 362.18 278.767 362.46 278.602C362.291 278.887 362.102 279.14 361.923 279.415C361.762 279.651 361.552 279.848 361.305 279.992C361.059 280.136 360.784 280.222 360.5 280.246C360.216 280.269 359.93 280.228 359.664 280.126C359.397 280.025 359.157 279.864 358.961 279.657C358.779 279.48 358.554 279.353 358.308 279.289C358.063 279.224 357.805 279.224 357.559 279.288C357.286 279.359 357.033 279.492 356.821 279.679C356.547 279.868 356.252 280.058 355.999 280.227Z" fill="white"/>
<path d="M363.566 316.089C363.735 315.804 363.935 315.551 364.114 315.277C364.309 314.972 364.587 314.73 364.916 314.58C365.265 314.431 365.65 314.386 366.024 314.452C366.399 314.517 366.746 314.69 367.024 314.95C367.199 315.134 367.42 315.271 367.663 315.347C367.907 315.423 368.165 315.435 368.415 315.382C368.691 315.316 368.947 315.186 369.163 315.002C369.427 314.823 369.68 314.633 369.975 314.464C369.806 314.76 369.616 315.013 369.437 315.277C369.231 315.58 368.942 315.818 368.605 315.963C368.248 316.1 367.859 316.131 367.485 316.053C367.111 315.974 366.768 315.789 366.497 315.519C366.314 315.346 366.091 315.221 365.848 315.156C365.605 315.092 365.349 315.09 365.105 315.15C364.833 315.229 364.582 315.366 364.367 315.551C364.114 315.73 363.862 315.931 363.566 316.089Z" fill="white"/>
<path d="M397.452 276.672C397.61 276.387 397.811 276.134 397.99 275.859C398.187 275.557 398.464 275.316 398.791 275.163C399.147 275.002 399.542 274.951 399.927 275.017C400.312 275.083 400.669 275.262 400.951 275.532C401.127 275.717 401.347 275.854 401.591 275.929C401.834 276.005 402.093 276.017 402.343 275.965C402.616 275.898 402.872 275.772 403.091 275.595C403.355 275.416 403.607 275.216 403.903 275.047C403.734 275.342 403.544 275.595 403.365 275.87C403.161 276.173 402.871 276.408 402.532 276.545C402.176 276.685 401.787 276.718 401.412 276.639C401.038 276.56 400.694 276.374 400.424 276.102C400.24 275.928 400.015 275.803 399.77 275.739C399.526 275.674 399.268 275.672 399.023 275.733C398.751 275.812 398.499 275.948 398.285 276.134C397.99 276.313 397.737 276.513 397.452 276.672Z" fill="white"/>
<path d="M420.767 290.957C420.925 290.672 421.125 290.419 421.304 290.145C421.504 289.845 421.781 289.604 422.105 289.449C422.455 289.299 422.84 289.254 423.214 289.32C423.588 289.385 423.935 289.558 424.213 289.818C424.39 290.002 424.61 290.138 424.853 290.214C425.096 290.289 425.355 290.302 425.604 290.25C425.879 290.186 426.135 290.06 426.353 289.881C426.627 289.702 426.88 289.501 427.164 289.332C427.006 289.628 426.806 289.881 426.627 290.155C426.425 290.461 426.134 290.696 425.794 290.831C425.438 290.971 425.049 291.004 424.674 290.925C424.299 290.846 423.956 290.659 423.686 290.388C423.502 290.214 423.277 290.089 423.032 290.025C422.787 289.96 422.53 289.958 422.284 290.018C422.013 290.097 421.761 290.234 421.547 290.419C421.304 290.599 421.051 290.799 420.767 290.957Z" fill="white"/>
<path d="M381.548 301.803C381.706 301.519 381.906 301.265 382.085 300.991C382.279 300.686 382.558 300.444 382.886 300.295C383.242 300.134 383.638 300.083 384.023 300.149C384.408 300.215 384.765 300.394 385.047 300.664C385.223 300.849 385.443 300.985 385.687 301.061C385.93 301.137 386.189 301.149 386.438 301.097C386.714 301.031 386.971 300.901 387.187 300.717C387.45 300.537 387.703 300.347 387.998 300.179C387.83 300.474 387.64 300.727 387.461 300.991C387.257 301.297 386.967 301.536 386.628 301.677C386.272 301.817 385.882 301.85 385.508 301.771C385.133 301.692 384.79 301.506 384.52 301.234C384.336 301.06 384.111 300.935 383.866 300.871C383.621 300.806 383.364 300.804 383.118 300.864C382.846 300.944 382.595 301.08 382.381 301.265C382.085 301.445 381.832 301.645 381.548 301.803Z" fill="white"/>
<path d="M432.14 316.089C432.308 315.804 432.498 315.551 432.677 315.277C432.874 314.974 433.151 314.733 433.478 314.58C433.834 314.419 434.23 314.369 434.615 314.434C435 314.5 435.357 314.68 435.639 314.95C435.815 315.134 436.036 315.27 436.279 315.345C436.522 315.421 436.781 315.434 437.03 315.382C437.305 315.318 437.561 315.192 437.779 315.013C438.053 314.823 438.306 314.633 438.59 314.464C438.432 314.76 438.232 315.013 438.053 315.287C437.849 315.587 437.564 315.822 437.23 315.963C436.874 316.101 436.485 316.133 436.111 316.055C435.736 315.976 435.393 315.79 435.122 315.519C434.94 315.347 434.717 315.222 434.474 315.158C434.231 315.093 433.975 315.091 433.731 315.15C433.455 315.226 433.199 315.363 432.983 315.551C432.667 315.73 432.414 315.931 432.14 316.089Z" fill="white"/>
<path d="M437.841 277.484C437.999 277.189 438.199 276.935 438.378 276.661C438.578 276.361 438.855 276.121 439.179 275.965C439.535 275.804 439.931 275.753 440.316 275.819C440.701 275.885 441.058 276.064 441.34 276.334C441.517 276.518 441.737 276.654 441.98 276.73C442.223 276.805 442.482 276.818 442.731 276.767C443.006 276.703 443.262 276.576 443.48 276.397C443.754 276.218 444.007 276.017 444.291 275.849C444.133 276.144 443.933 276.397 443.754 276.672C443.552 276.977 443.261 277.213 442.921 277.347C442.565 277.487 442.175 277.52 441.801 277.441C441.426 277.362 441.083 277.176 440.813 276.904C440.63 276.731 440.407 276.607 440.164 276.542C439.921 276.478 439.666 276.475 439.422 276.534C439.146 276.611 438.89 276.748 438.673 276.935C438.378 277.125 438.125 277.326 437.841 277.484Z" fill="white"/>
<path d="M345.448 306.752C345.617 306.456 345.807 306.203 345.986 305.929C346.185 305.629 346.462 305.388 346.787 305.232C347.143 305.072 347.539 305.021 347.924 305.087C348.309 305.152 348.665 305.332 348.948 305.602C349.124 305.786 349.344 305.922 349.588 305.997C349.831 306.073 350.089 306.086 350.339 306.034C350.613 305.97 350.869 305.844 351.087 305.665C351.361 305.486 351.614 305.285 351.899 305.116C351.741 305.412 351.54 305.665 351.361 305.939C351.161 306.242 350.874 306.477 350.539 306.615C350.183 306.753 349.794 306.785 349.419 306.707C349.045 306.628 348.702 306.442 348.431 306.171C348.249 305.998 348.025 305.874 347.782 305.811C347.538 305.748 347.283 305.749 347.04 305.813C346.763 305.881 346.506 306.015 346.291 306.203C345.986 306.382 345.712 306.583 345.448 306.752Z" fill="white"/>
<path d="M342.55 246.518C342.708 246.233 342.908 245.98 343.087 245.705C343.286 245.402 343.563 245.158 343.888 244.998C344.245 244.839 344.642 244.79 345.027 244.857C345.412 244.925 345.768 245.106 346.049 245.378C346.225 245.563 346.445 245.699 346.689 245.773C346.933 245.847 347.192 245.856 347.44 245.8C347.718 245.745 347.976 245.618 348.189 245.431C348.463 245.252 348.716 245.051 349 244.893C348.836 245.173 348.656 245.444 348.463 245.705C348.26 246.008 347.975 246.246 347.641 246.391C347.284 246.53 346.895 246.562 346.521 246.483C346.146 246.405 345.803 246.219 345.533 245.948C345.351 245.773 345.129 245.647 344.885 245.582C344.641 245.517 344.385 245.516 344.141 245.579C343.865 245.655 343.61 245.792 343.393 245.98C343.098 246.159 342.845 246.359 342.55 246.518Z" fill="white"/>
<path d="M376.941 166.153C376.551 168.126 367.656 181.114 358.718 180.998C355.809 180.945 355.345 165.034 355.345 165.034L355.039 163.874L350.823 147.541L369.721 134.49L372.462 132.76C372.462 132.76 373.316 137.307 374.338 142.973C374.338 143.237 374.433 143.5 374.475 143.785C374.517 144.07 374.612 144.397 374.654 144.703C374.823 145.547 374.981 146.412 375.128 147.278C375.244 147.932 375.35 148.565 375.445 149.261C375.54 149.957 375.645 150.633 375.761 151.371C376.49 156.266 376.885 161.204 376.941 166.153Z" fill="#F7A9A0"/>
<path d="M374.338 142.973C372.828 147.649 370.32 151.941 366.988 155.55C363.655 159.16 359.578 162 355.039 163.874L350.823 147.541L369.721 134.49L372.462 132.76C372.462 132.76 373.316 137.307 374.338 142.973Z" fill="#263238"/>
<path d="M327.656 123.285C326.876 152.891 344.52 156.699 350.844 156.858C356.63 157.005 376.361 156.773 380.198 127.41C384.034 98.0478 370.522 88.3728 357.305 87.3177C344.088 86.2627 328.436 93.6798 327.656 123.285Z" fill="#F7A9A0"/>
<path d="M332.147 114.328C332.842 114.212 333.453 114.001 334.128 113.821C334.848 113.733 335.521 113.415 336.046 112.914C336.181 112.724 336.249 112.494 336.239 112.261C336.229 112.028 336.143 111.805 335.994 111.627C335.643 111.32 335.217 111.113 334.759 111.026C334.302 110.938 333.829 110.975 333.39 111.131C332.456 111.307 331.622 111.827 331.05 112.587C330.931 112.768 330.866 112.98 330.863 113.197C330.861 113.414 330.921 113.628 331.037 113.811C331.153 113.995 331.319 114.142 331.516 114.233C331.713 114.325 331.932 114.358 332.147 114.328Z" fill="#263238"/>
<path d="M351.919 118.653C351.239 118.579 350.563 118.466 349.896 118.316C349.173 118.296 348.478 118.04 347.914 117.588C347.763 117.41 347.675 117.188 347.663 116.955C347.652 116.722 347.718 116.492 347.851 116.301C348.173 115.963 348.579 115.718 349.028 115.59C349.476 115.462 349.95 115.456 350.402 115.573C351.348 115.67 352.224 116.118 352.857 116.828C352.996 116.997 353.082 117.202 353.105 117.419C353.128 117.636 353.087 117.855 352.987 118.049C352.887 118.243 352.733 118.404 352.544 118.511C352.354 118.618 352.137 118.668 351.919 118.653Z" fill="#263238"/>
<path d="M336.51 123.96C336.51 123.887 336.362 124.066 336.362 124.15C336.562 126.155 336.457 128.487 334.686 129.278C334.623 129.278 334.686 129.405 334.686 129.394C336.9 128.93 337.016 125.828 336.51 123.96Z" fill="#263238"/>
<path d="M334.571 121.977C331.324 121.977 331.504 128.455 334.518 128.487C337.532 128.518 337.279 122.009 334.571 121.977Z" fill="#263238"/>
<path d="M333.232 122.452C332.726 122.81 332.241 123.443 331.619 123.507C330.997 123.57 330.365 122.884 329.891 122.22C329.891 122.156 329.796 122.22 329.796 122.293C329.796 123.538 330.249 124.826 331.44 125.026C332.631 125.227 333.306 124.129 333.548 122.916C333.622 122.652 333.432 122.304 333.232 122.452Z" fill="#263238"/>
<path d="M349.738 141.19C349.243 141.643 348.737 142.245 347.999 142.319C347.263 142.27 346.546 142.069 345.891 141.728C345.877 141.721 345.86 141.719 345.845 141.722C345.829 141.725 345.815 141.733 345.804 141.745C345.793 141.757 345.787 141.772 345.785 141.788C345.784 141.804 345.788 141.82 345.796 141.833C346.071 142.242 346.452 142.567 346.897 142.775C347.343 142.984 347.837 143.066 348.326 143.015C348.743 142.927 349.123 142.714 349.416 142.405C349.71 142.096 349.903 141.706 349.97 141.285C349.928 141.169 349.812 141.126 349.738 141.19Z" fill="#263238"/>
<path d="M339.661 133.097C339.661 133.097 339.429 136.115 339.503 137.529C342.263 137.377 345.031 137.618 347.724 138.246C348.357 138.415 348.314 137.898 347.598 137.518C345.463 136.405 343.044 135.956 340.652 136.231C340.525 135.841 341.105 131.589 340.884 131.589C339.794 131.749 338.731 132.054 337.722 132.496C338.038 126.166 339.366 120.004 339.587 113.726C339.59 113.68 339.577 113.635 339.549 113.598C339.521 113.562 339.48 113.536 339.435 113.527C339.39 113.518 339.343 113.526 339.303 113.549C339.263 113.572 339.233 113.609 339.218 113.652C337.363 120.057 336.836 127.294 336.341 133.794C336.278 134.596 339.113 133.372 339.661 133.097Z" fill="#263238"/>
<path d="M353.733 124.066C352.549 123.601 351.254 123.499 350.012 123.77C349.346 123.922 348.716 124.201 348.157 124.593C347.58 125.024 347.109 125.58 346.776 126.218L346.154 127.368L347.43 127.231C348.327 127.136 349.231 127.136 350.128 127.231C351.064 127.313 351.964 127.633 352.742 128.16C352.232 127.228 351.376 126.534 350.36 126.229C349.369 125.901 348.321 125.782 347.282 125.881L347.936 126.936C348.481 126.02 349.321 125.317 350.318 124.942C351.415 124.509 352.562 124.215 353.733 124.066Z" fill="#263238"/>
<path d="M350.075 129.31C349.121 129.085 348.202 128.73 347.345 128.255C347.145 128.128 346.375 127.548 346.417 127.379C346.526 126.888 346.696 126.413 346.923 125.965C346.569 126.363 346.3 126.83 346.133 127.337C346.192 127.616 346.311 127.878 346.482 128.106C346.653 128.334 346.872 128.521 347.124 128.656C348.03 129.137 349.05 129.363 350.075 129.31Z" fill="#263238"/>
<path d="M343.077 137.318C343.077 137.318 344.911 139.955 347.019 140.272C349.443 140.652 349.728 138.468 347.019 137.223C345.649 136.579 343.077 137.318 343.077 137.318Z" fill="#263238"/>
<path d="M347.008 140.325C346.089 140.134 345.244 139.683 344.573 139.027C345.079 138.278 346.239 137.444 348.842 138.847C349.221 139.734 348.547 140.514 347.008 140.325Z" fill="#FF99BA"/>
<path d="M380.019 128.117C375.15 128.729 373.526 118.527 373.526 118.527C373.526 118.527 363.598 119.033 359.624 104.895C360.117 109.166 361.846 113.2 364.599 116.501C364.599 116.501 346.987 115.446 338.903 101.171C338.903 101.171 342.212 108.504 345.1 111.025C345.1 111.025 337.648 109.337 333.78 103.534C333.78 103.534 331.124 112.154 328.879 114.612C328.879 114.612 328.11 83.8993 356.662 85.7773C356.662 85.7773 374.496 86.0938 381.568 99.8731C388.641 113.652 380.019 128.117 380.019 128.117Z" fill="#263238"/>
<path d="M375.466 129.552C375.466 129.552 381.358 119.941 385.679 121.987C390.001 124.034 385.953 137.708 381.158 139.829C380.561 140.145 379.907 140.336 379.235 140.392C378.563 140.448 377.886 140.367 377.246 140.154C376.606 139.941 376.015 139.601 375.51 139.153C375.005 138.705 374.596 138.16 374.307 137.55L375.466 129.552Z" fill="#F7A9A0"/>
<path d="M384.425 125.881C384.499 125.881 384.52 125.976 384.425 126.007C381.063 127.611 379.45 130.913 378.375 134.311C379.324 132.971 380.673 132.201 382.454 133.256C382.549 133.308 382.454 133.456 382.37 133.446C381.754 133.287 381.104 133.325 380.511 133.554C379.918 133.783 379.411 134.191 379.06 134.722C378.47 135.607 377.982 136.555 377.606 137.55C377.458 137.866 376.9 137.74 376.994 137.381C376.988 137.353 376.988 137.324 376.994 137.297C376.699 132.939 379.735 126.609 384.425 125.881Z" fill="#263238"/>
<path d="M378.386 138.288C378.401 138.562 378.496 138.824 378.661 139.043C378.825 139.261 379.05 139.426 379.308 139.517C379.566 139.607 379.845 139.619 380.11 139.55C380.375 139.482 380.613 139.336 380.795 139.132C380.977 138.927 381.094 138.674 381.132 138.403C381.169 138.132 381.126 137.856 381.007 137.609C380.888 137.363 380.698 137.158 380.462 137.02C380.226 136.881 379.955 136.816 379.682 136.832C379.501 136.842 379.324 136.887 379.16 136.965C378.997 137.044 378.851 137.154 378.73 137.289C378.61 137.425 378.517 137.583 378.458 137.754C378.399 137.926 378.374 138.107 378.386 138.288Z" fill="white"/>
<path d="M381.695 135.999C381.704 136.174 381.764 136.343 381.869 136.484C381.974 136.625 382.118 136.732 382.283 136.79C382.448 136.849 382.627 136.857 382.798 136.814C382.968 136.771 383.121 136.678 383.238 136.547C383.355 136.416 383.431 136.254 383.456 136.08C383.481 135.906 383.453 135.729 383.377 135.571C383.301 135.412 383.179 135.28 383.028 135.191C382.877 135.102 382.703 135.06 382.528 135.07C382.412 135.076 382.298 135.104 382.193 135.154C382.089 135.204 381.995 135.274 381.917 135.36C381.84 135.447 381.78 135.547 381.742 135.657C381.704 135.767 381.688 135.883 381.695 135.999Z" fill="white"/>
<path d="M285.782 193.58L270.475 197.14L281.485 244.578L296.793 241.018L285.782 193.58Z" fill="#EBEBEB"/>
<path d="M248.469 67.6618C235.68 70.6402 224.061 77.3473 215.079 86.9352C206.097 96.5231 200.157 108.561 198.009 121.528C195.861 134.495 197.601 147.808 203.011 159.785C208.42 171.762 217.255 181.864 228.399 188.816C239.543 195.767 252.496 199.255 265.62 198.838C278.744 198.422 291.45 194.12 302.132 186.477C312.814 178.833 320.992 168.191 325.633 155.895C330.273 143.599 331.168 130.203 328.204 117.398C326.235 108.889 322.61 100.853 317.536 93.7477C312.462 86.6425 306.039 80.6079 298.634 75.9889C291.229 71.3699 282.987 68.257 274.379 66.8282C265.772 65.3994 256.967 65.6826 248.469 67.6618ZM275.367 183.583C265.263 185.935 254.688 185.235 244.981 181.571C235.274 177.907 226.87 171.443 220.833 162.998C214.796 154.552 211.397 144.504 211.065 134.125C210.734 123.745 213.485 113.5 218.971 104.686C224.457 95.8715 232.431 88.8838 241.884 84.6066C251.338 80.3293 261.846 78.9547 272.081 80.6565C282.315 82.3584 291.815 87.0603 299.379 94.1675C306.943 101.275 312.232 110.468 314.576 120.584C317.718 134.143 315.353 148.395 308 160.209C300.648 172.022 288.91 180.429 275.367 183.583Z" fill="#A6A6A6"/>
<path d="M291.006 227.594L280.74 229.981C277.185 230.808 274.972 234.364 275.798 237.922L288.93 294.497C289.756 298.056 293.307 300.27 296.862 299.444L307.129 297.056C310.684 296.229 312.896 292.674 312.07 289.115L298.939 232.54C298.113 228.982 294.562 226.767 291.006 227.594Z" fill="#263238"/>
<g opacity="0.3">
<path opacity="0.3" d="M314.577 120.563C316.92 130.675 316.215 141.256 312.551 150.967C308.887 160.679 302.428 169.084 293.992 175.122C285.556 181.159 275.522 184.557 265.157 184.885C254.792 185.214 244.562 182.459 235.761 176.968C226.96 171.478 219.983 163.498 215.713 154.039C211.442 144.579 210.069 134.064 211.768 123.824C213.467 113.583 218.161 104.077 225.256 96.5065C232.352 88.9362 241.531 83.642 251.632 81.2933C258.341 79.7319 265.292 79.5092 272.087 80.638C278.882 81.7668 285.388 84.2249 291.233 87.8718C297.079 91.5187 302.149 96.283 306.155 101.892C310.16 107.502 313.022 113.846 314.577 120.563Z" fill="white"/>
<path opacity="0.3" d="M315.863 135.355C315.089 149.174 308.897 162.128 298.634 171.401C288.371 180.675 274.866 185.519 261.055 184.88L315.863 135.355Z" fill="#EBEBEB"/>
<path opacity="0.3" d="M291.737 88.204L216.66 156.035C214.793 152.31 213.377 148.375 212.444 144.313C211.352 139.659 210.912 134.876 211.137 130.101L266.567 80.0167C275.519 80.5439 284.186 83.363 291.737 88.204Z" fill="#EBEBEB"/>
<path opacity="0.3" d="M313.133 115.53L241.619 180.132C238.493 178.695 235.517 176.953 232.733 174.931L308.885 106.14C310.615 109.118 312.039 112.264 313.133 115.53Z" fill="#EBEBEB"/>
<path opacity="0.3" d="M297.502 92.4876L220.286 162.228C219.928 161.7 219.57 161.173 219.232 160.635L296.006 91.2849C296.533 91.6647 297.028 92.0551 297.502 92.4876Z" fill="#EBEBEB"/>
<path opacity="0.3" d="M249.081 81.9579L214.826 112.893C215.406 111.426 216.059 109.991 216.776 108.599L244.633 83.4245C246.077 82.8864 247.563 82.3905 249.081 81.9579Z" fill="#EBEBEB"/>
</g>
<path d="M226.272 141.517C226.267 141.447 226.267 141.376 226.272 141.306C226.082 140.251 226.409 142.308 226.272 141.622C226.135 140.937 226.061 139.998 225.998 139.185C225.756 136.32 225.756 133.44 225.998 130.576C225.998 130.164 226.072 129.763 226.103 129.362C226.103 129.236 225.987 130.312 226.103 129.457L226.198 128.719C226.325 127.769 226.483 126.82 226.672 125.881C227.072 123.81 227.611 121.769 228.285 119.772C228.443 119.297 228.622 118.822 228.791 118.347C229.012 117.704 228.496 119.054 228.844 118.21L229.192 117.377C229.645 116.322 230.14 115.267 230.667 114.212C231.194 113.156 231.879 112.028 232.543 110.983C232.859 110.498 233.176 110.023 233.502 109.548C234.061 108.736 233.239 109.875 233.671 109.305L234.293 108.483C236.212 106.067 238.358 103.841 240.701 101.836C240.701 101.836 241.186 101.445 240.828 101.741C240.469 102.036 241.017 101.582 241.081 101.53L242.135 100.696C242.841 100.169 243.558 99.641 244.295 99.1768C245.841 98.1427 247.438 97.1884 249.081 96.3175C249.521 96.0404 249.902 95.6792 250.203 95.2546C250.503 94.83 250.718 94.3502 250.833 93.8427C250.949 93.3352 250.963 92.8099 250.876 92.2968C250.788 91.7837 250.601 91.2928 250.324 90.8522C250.047 90.4116 249.687 90.0299 249.262 89.7289C248.838 89.4279 248.359 89.2135 247.852 89.0978C247.345 88.9822 246.82 88.9677 246.308 89.0551C245.795 89.1425 245.305 89.3301 244.865 89.6072C234.451 95.1675 225.893 103.946 221.592 115.013C218.681 122.456 217.439 130.449 217.956 138.425C218.061 140.197 218.287 141.96 218.63 143.701C218.931 144.705 219.616 145.55 220.536 146.05C221.457 146.55 222.537 146.665 223.542 146.37C224.531 146.044 225.357 145.353 225.853 144.437C226.349 143.521 226.476 142.45 226.209 141.443L226.272 141.517Z" fill="white"/>
<path d="M229.771 152.743C229.989 153.479 229.984 154.263 229.757 154.996C229.53 155.729 229.091 156.379 228.496 156.862C227.9 157.346 227.175 157.642 226.411 157.713C225.648 157.784 224.88 157.627 224.206 157.261C223.531 156.896 222.98 156.338 222.622 155.659C222.264 154.98 222.115 154.21 222.194 153.447C222.273 152.683 222.577 151.96 223.066 151.369C223.556 150.778 224.209 150.346 224.944 150.126C225.432 149.979 225.945 149.93 226.453 149.982C226.96 150.034 227.453 150.186 227.902 150.429C228.35 150.672 228.746 151.002 229.067 151.399C229.388 151.796 229.627 152.253 229.771 152.743Z" fill="white"/>
<path d="M397.494 186.009C406.98 220.341 411.533 254.811 406.284 272.588C402.932 283.92 394.848 291.58 389.705 294.112C377.678 300.063 337.784 291.622 311.793 286.389C305.406 285.102 320.467 233.582 326.886 236.315C336.372 240.335 365.41 245.758 366.211 246.022C367.929 246.613 371.481 209.358 373.989 187.518C377.457 157.09 392.023 166.184 397.494 186.009Z" fill="#F7A9A0"/>
<path d="M261.845 226.503C259.02 231.114 262.688 235.334 262.688 235.334C260.28 236.539 258.371 238.552 257.292 241.021C255.595 245.452 261.792 250.063 261.792 250.063C259.556 251.832 257.906 254.238 257.06 256.963C255.858 261.373 261.455 266.912 261.455 266.912C260.299 269.674 260.176 272.76 261.107 275.606C263.9 283.108 275.863 285.566 283.452 287.212C291.041 288.858 314.102 286.368 318.55 286.347L329.459 237.676C329.459 237.676 297.512 220.637 288.353 219.983C280.564 219.455 265.017 221.333 261.845 226.503Z" fill="#F7A9A0"/>
<path d="M263.194 234.627C271.626 233.245 279.91 234.405 288.29 235.091C288.329 235.091 288.366 235.107 288.394 235.134C288.422 235.162 288.437 235.2 288.437 235.239C288.437 235.278 288.422 235.316 288.394 235.343C288.366 235.371 288.329 235.387 288.29 235.387C279.953 234.606 271.573 235.482 263.236 235.038C263.188 235.034 263.142 235.012 263.108 234.978C263.074 234.944 263.052 234.898 263.047 234.85C263.042 234.802 263.054 234.753 263.081 234.712C263.108 234.672 263.148 234.641 263.194 234.627Z" fill="#263238"/>
<path d="M262.098 249.461C264.031 249.326 265.974 249.451 267.874 249.831C269.905 250.098 271.932 250.4 273.955 250.738C278.01 251.441 282.043 252.219 286.055 253.07C286.235 253.07 286.224 253.386 286.055 253.355C282.008 252.69 277.961 252.088 273.903 251.593C271.869 251.339 269.834 251.118 267.79 250.896C265.855 250.818 263.936 250.524 262.066 250.02C262.009 249.997 261.96 249.957 261.927 249.905C261.894 249.853 261.878 249.791 261.881 249.729C261.885 249.668 261.908 249.609 261.946 249.56C261.985 249.512 262.038 249.478 262.098 249.461Z" fill="#263238"/>
<path d="M261.624 266.933C263.268 266.648 265.186 267.239 266.809 267.545C268.654 267.893 270.488 268.221 272.332 268.548C276.021 269.202 279.71 269.845 283.42 270.373C283.6 270.373 283.579 270.689 283.42 270.658C279.647 270.151 275.874 269.687 272.111 269.149C270.267 268.885 268.411 268.6 266.567 268.315C264.997 268.073 263.015 267.946 261.613 267.123C261.596 267.114 261.581 267.099 261.572 267.082C261.562 267.065 261.558 267.045 261.559 267.025C261.56 267.005 261.567 266.986 261.578 266.97C261.59 266.954 261.605 266.941 261.624 266.933Z" fill="#263238"/>
<path d="M272.258 221.46C268.432 221.956 264.047 222.8 261.57 226.06C260.425 227.443 259.862 229.217 260 231.008C260.218 232.68 261.061 234.208 262.361 235.281C260.831 235.774 259.472 236.689 258.439 237.921C257.406 239.153 256.742 240.652 256.522 242.245C256.457 243.042 256.558 243.845 256.817 244.602C257.077 245.359 257.489 246.054 258.029 246.644C258.556 247.267 259.157 247.815 259.736 248.385C260.316 248.955 260.959 249.44 261.56 249.936C260.91 250.444 260.3 251.001 259.736 251.603C259.104 252.211 258.535 252.883 258.039 253.608C257.014 255.043 256.434 256.75 256.374 258.514C256.462 260.267 257.071 261.953 258.124 263.357C258.979 264.808 260.186 266.02 261.633 266.881C261.652 266.889 261.672 266.891 261.692 266.886C261.711 266.881 261.728 266.869 261.74 266.853C261.751 266.836 261.756 266.816 261.754 266.796C261.752 266.776 261.743 266.757 261.728 266.743C260.591 265.704 259.627 264.489 258.872 263.146C257.96 261.712 257.461 260.055 257.428 258.356C257.568 256.745 258.111 255.195 259.009 253.85C259.455 253.121 259.941 252.417 260.464 251.74C260.984 251.187 261.47 250.602 261.918 249.989C261.918 249.989 260.664 248.659 260.221 248.09C259.778 247.52 259.346 246.908 258.946 246.286C258.097 245.104 257.721 243.647 257.892 242.202C258.14 240.854 258.753 239.599 259.662 238.573C260.548 237.518 261.697 236.684 262.624 235.65C262.657 235.596 262.679 235.535 262.688 235.471C262.697 235.408 262.694 235.343 262.677 235.281C260.569 231.989 260.832 228.866 263.088 226.429C264.237 225.247 265.581 224.273 267.062 223.549C268.765 222.774 270.527 222.135 272.332 221.639C272.405 221.629 272.374 221.449 272.258 221.46Z" fill="#263238"/>
<path d="M342.138 292.35C339.893 291.654 337.522 291.295 335.224 290.789C332.926 290.282 330.607 289.807 328.289 289.343C325.97 288.879 323.556 288.415 321.195 287.971C318.834 287.528 316.631 287.032 314.334 286.758C312.115 286.543 309.879 286.593 307.672 286.906C305.445 287.159 303.21 287.338 300.969 287.444C296.453 287.662 291.927 287.563 287.425 287.149C282.331 286.675 277.286 285.775 272.342 284.458C272.237 284.458 272.205 284.585 272.342 284.616C280.913 287.481 289.899 288.907 298.935 288.837C301.169 288.837 303.414 288.699 305.638 288.478C307.86 288.162 310.098 287.972 312.342 287.908C314.713 288.065 317.068 288.418 319.382 288.963C321.712 289.396 324.03 289.839 326.36 290.25C328.995 290.715 331.63 291.189 334.275 291.601C336.921 292.012 339.545 292.603 342.138 292.793C342.328 292.751 342.338 292.403 342.138 292.35Z" fill="#263238"/>
<path d="M374.876 248.153C371.504 247.003 367.941 246.286 364.473 245.452C361.006 244.619 357.496 243.817 354.007 243.025C347.346 241.517 340.6 240.24 333.981 238.394C332.242 237.908 330.524 237.339 328.827 236.769C327.973 236.463 327.141 236.125 326.308 235.714C325.475 235.302 324.516 235.049 323.694 234.659C323.599 234.595 323.525 234.743 323.62 234.806C324.284 235.218 324.896 235.714 325.581 236.115C326.266 236.516 327.098 236.916 327.878 237.275C329.304 237.927 330.764 238.502 332.253 238.995C335.351 240.05 338.577 240.778 341.739 241.517C348.695 243.11 355.662 244.682 362.639 246.191C364.6 246.613 366.571 247.035 368.542 247.425C370.513 247.815 372.663 248.301 374.75 248.533C374.799 248.546 374.852 248.541 374.897 248.516C374.943 248.492 374.977 248.452 374.993 248.403C375.009 248.354 375.006 248.301 374.985 248.255C374.963 248.208 374.924 248.172 374.876 248.153Z" fill="#263238"/>
<path d="M363.903 235.387L412.113 241.949C412.113 241.949 403.302 191.78 393.932 175.163C384.688 158.767 374.485 169.603 370.596 189.438C366.233 211.426 363.903 235.387 363.903 235.387Z" fill="#318D58"/>
<path d="M408.498 234.68C407.149 234.363 405.769 234.163 404.42 233.867C403.07 233.572 401.774 233.371 400.446 233.16C397.737 232.738 395.018 232.359 392.299 231.989C386.944 231.251 381.6 230.438 376.225 229.879C373.168 229.542 370.122 229.088 367.066 228.824C367.043 228.824 367.022 228.833 367.006 228.849C366.99 228.865 366.981 228.886 366.981 228.908C366.981 228.931 366.99 228.952 367.006 228.968C367.022 228.984 367.043 228.993 367.066 228.993C372.388 230.238 377.817 231.166 383.213 232.042C388.61 232.918 393.922 233.741 399.297 234.332C400.804 234.49 402.312 234.69 403.829 234.764C405.347 234.838 406.939 234.975 408.488 235.007C408.531 235.008 408.573 234.992 408.605 234.963C408.637 234.933 408.655 234.892 408.657 234.849C408.658 234.805 408.642 234.763 408.612 234.731C408.583 234.7 408.542 234.681 408.498 234.68Z" fill="#263238"/>
<path d="M434.911 52.6587C434.292 58.594 432.038 64.2404 428.4 68.9678C424.761 73.6952 419.882 77.3176 414.307 79.4307C408.732 81.5438 402.68 82.0644 396.826 80.9346C390.972 79.8047 385.548 77.0688 381.157 73.0321L365.052 75.406L373.115 61.4685C371.266 56.9322 370.475 52.0335 370.801 47.145C371.128 42.2565 372.564 37.507 375 33.2576C377.436 29.0082 380.808 25.3708 384.86 22.6222C388.912 19.8735 393.536 18.0859 398.382 17.3953C403.227 16.7048 408.166 17.1294 412.823 18.637C417.48 20.1445 421.732 22.6953 425.256 26.0953C428.781 29.4952 431.484 33.6549 433.16 38.2579C434.837 42.8609 435.443 47.786 434.932 52.6587H434.911Z" fill="white"/>
<path d="M434.911 52.6587C434.295 58.5984 432.047 64.2513 428.419 68.9912C426.637 71.3769 424.505 73.4792 422.095 75.2267C417.306 78.8248 411.622 81.0365 405.663 81.6204C404.177 81.7594 402.684 81.7876 401.194 81.7048C399.701 81.672 398.213 81.5167 396.746 81.2406C390.811 80.1524 385.296 77.4306 380.82 73.3803L381.2 73.4963L365.126 75.9652L363.956 76.1446L364.546 75.0895L372.557 61.1309V61.6795C370.216 55.9143 369.573 49.599 370.702 43.4794C371.831 37.3598 374.686 31.6914 378.929 27.1432C383.172 22.5951 388.627 19.3572 394.649 17.8118C400.671 16.2664 407.009 16.4779 412.914 18.4216C417.565 20.0034 421.804 22.6061 425.32 26.0392C428.829 29.4587 431.516 33.6318 433.178 38.2434C434.839 42.8549 435.432 47.7841 434.911 52.6587ZM434.911 52.6587C435.419 47.811 434.809 42.9113 433.129 38.3367C431.448 33.762 428.741 29.6344 425.216 26.2713C421.692 22.9082 417.443 20.3994 412.798 18.938C408.153 17.4765 403.235 17.1013 398.422 17.8413C393.644 18.5615 389.094 20.366 385.12 23.1166C381.184 25.8911 377.9 29.4917 375.497 33.6674C373.124 37.8438 371.725 42.5042 371.408 47.2989C371.116 52.0867 371.89 56.8796 373.674 61.3314L373.79 61.6268L373.642 61.8906L365.537 75.7964L364.957 74.9418L381.073 72.6839H381.294L381.452 72.8316C385.758 76.8593 391.096 79.6099 396.872 80.7763C398.31 81.0716 399.77 81.2516 401.236 81.3144C402.703 81.4147 404.175 81.4147 405.642 81.3144C408.58 81.0852 411.471 80.4459 414.232 79.4153C417.016 78.4013 419.634 76.9791 422 75.195C423.19 74.322 424.324 73.374 425.394 72.3569C426.437 71.3095 427.415 70.1996 428.324 69.0334C431.993 64.2915 434.273 58.6224 434.911 52.6587Z" fill="#263238"/>
<path d="M387.165 64.3594C387.145 63.9315 387.212 63.504 387.362 63.1028C387.511 62.7015 387.741 62.3349 388.037 62.0252C388.333 61.7154 388.688 61.469 389.081 61.3008C389.475 61.1325 389.899 61.046 390.327 61.0465C391.204 61.0465 392.046 61.3955 392.667 62.0168C393.287 62.6381 393.636 63.4808 393.636 64.3594C393.636 65.2381 393.287 66.0807 392.667 66.702C392.046 67.3233 391.204 67.6724 390.327 67.6724C389.899 67.6728 389.475 67.5863 389.081 67.4181C388.688 67.2499 388.333 67.0034 388.037 66.6937C387.741 66.384 387.511 66.0174 387.362 65.6161C387.212 65.2149 387.145 64.7874 387.165 64.3594ZM388.503 56.7207L387.755 31.0719H392.877L392.087 56.6891L388.503 56.7207Z" fill="#5F85D8"/>
<path d="M399.465 64.3594C399.445 63.9315 399.512 63.504 399.662 63.1028C399.812 62.7015 400.042 62.3349 400.338 62.0252C400.633 61.7154 400.989 61.469 401.382 61.3008C401.776 61.1325 402.199 61.046 402.627 61.0465C403.505 61.0465 404.347 61.3955 404.968 62.0168C405.588 62.6381 405.937 63.4808 405.937 64.3594C405.937 65.2381 405.588 66.0807 404.968 66.702C404.347 67.3233 403.505 67.6724 402.627 67.6724C402.199 67.6728 401.776 67.5863 401.382 67.4181C400.989 67.2499 400.633 67.0034 400.338 66.6937C400.042 66.384 399.812 66.0174 399.662 65.6161C399.512 65.2149 399.445 64.7874 399.465 64.3594ZM400.804 56.7207L400.056 31.0719H405.178L404.43 56.7207H400.804Z" fill="#5F85D8"/>
<path d="M411.723 64.3594C411.703 63.9315 411.77 63.504 411.92 63.1028C412.07 62.7015 412.3 62.3349 412.595 62.0252C412.891 61.7154 413.246 61.469 413.64 61.3008C414.034 61.1325 414.457 61.046 414.885 61.0465C415.763 61.0465 416.605 61.3955 417.225 62.0168C417.846 62.6381 418.195 63.4808 418.195 64.3594C418.195 65.2381 417.846 66.0807 417.225 66.702C416.605 67.3233 415.763 67.6724 414.885 67.6724C414.457 67.6728 414.034 67.5863 413.64 67.4181C413.246 67.2499 412.891 67.0034 412.595 66.6937C412.3 66.384 412.07 66.0174 411.92 65.6161C411.77 65.2149 411.703 64.7874 411.723 64.3594ZM413.062 56.7207L412.313 31.0719H417.436L416.687 56.7207H413.062Z" fill="#5F85D8"/>
</svg>
