<svg width="512" height="512" viewBox="0 0 512 512" fill="none" xmlns="http://www.w3.org/2000/svg">
<rect width="512" height="512" rx="56" fill="#445AFF"/>
<path d="M97.28 343.04L151.277 271.592L100.917 202.325H148.2L163.588 224.96L175.338 243.231H177.577L189.607 224.96L205.275 202.325H248.641L198.28 269.41L252.278 343.04H204.715L186.53 316.588L173.939 297.771H171.701L159.391 316.588L140.926 343.04H97.28Z" fill="white"/>
<path d="M351.49 184.327C342.164 184.327 335.636 182.509 331.905 178.873C328.362 175.055 326.59 170.51 326.59 165.238V157.329C326.59 151.875 328.362 147.33 331.905 143.694C335.636 140.058 342.164 138.24 351.49 138.24C360.816 138.24 367.251 140.058 370.795 143.694C374.525 147.33 376.39 151.875 376.39 157.329V165.238C376.39 170.51 374.525 175.055 370.795 178.873C367.251 182.509 360.816 184.327 351.49 184.327ZM284.902 311.679H330.786V233.686H284.902V202.325H372.194V311.679H414.72V343.04H284.902V311.679Z" fill="white"/>
</svg>
