<svg xmlns="http://www.w3.org/2000/svg" version="1.1" xmlns:xlink="http://www.w3.org/1999/xlink" xmlns:svgjs="http://svgjs.dev/svgjs" viewBox="0 0 1920 1080"><rect width="1920" height="1080" fill="#1307c0"></rect><g transform="matrix(7.04171909509728e-17,1.15,-1.15,7.04171909509728e-17,1563.408950805664,-543.7702934265135)"><path d="M0,-1080C3.0043291347739682,-1001.2815708680229,17.525032694960696,-767.3477827504986,18.02597480864381,-607.6894252081372C18.526916922326922,-448.0310676657758,2.41601384677825,-279.44818633778954,3.0056526820986775,-122.04985474583174C3.595291517419105,35.34847684612606,16.450513284602046,186.2092891161972,21.563807820566375,336.7005643436096C26.677102356530703,487.191839571022,39.50219094482709,632.6472575803708,33.68541989788464,780.8977966186425C27.86864885094219,929.1483356569141,-1.9024302738071999,1074.7719127367006,-13.336818461088342,1226.2037985732395C-24.771206648369485,1377.6356844097784,-37.143712302650265,1533.8564114000817,-34.920909225802205,1689.489111637875C-32.698106148954146,1845.1218118756685,-5.820151537633701,2081.5815186063123,0,2160L 1920 2160 L 1920 -1080 Z" fill="url(&quot;#SvgjsLinearGradient1284&quot;)"></path><path d="M213.33333333333331,-1080C208.93028178427343,-947.303663590314,191.0658414869414,-548.1053908074982,186.91502403897397,-283.8219815418846C182.76420659100654,-19.53857227627094,182.98787759776963,230.6425779536425,188.42842864552875,505.70045559368214C193.86897969328788,780.7583332337217,215.40751287756135,1090.8086935639672,219.55833032552877,1366.5252842983534C223.7091477734962,1642.2418750327397,214.37083283203256,2027.7542140497255,213.33333333333331,2160L 1920 2160 L 1920 -1080 Z" fill="url(&quot;#SvgjsLinearGradient1285&quot;)"></path><path d="M426.66666666666663,-1080C425.11167718175034,-948.6646635640333,419.0254096331473,-566.712942986717,417.33672975716894,-291.9879813841996C415.64804988119056,-17.263019781682146,420.53151922612756,291.0058188973495,416.53458741079646,568.3497696151046C412.53765559546537,845.6937203328597,391.66645898920416,1106.8006845248483,393.35513886518254,1372.075722922331C395.0438187411609,1637.3507613198135,421.1147453664193,2028.6792871537218,426.66666666666663,2160L 1920 2160 L 1920 -1080 Z" fill="url(&quot;#SvgjsLinearGradient1286&quot;)"></path><path d="M640,-1080C637.2923985403395,-966.4453131997083,627.8428823064428,-620.2007304724048,623.7543912420371,-398.6718791982494C619.6659001776313,-177.14302792409404,610.4409645240548,44.58886134624109,615.4690536135657,249.17310764493226C620.4971427030766,453.75735394362346,654.7984459362485,621.5750321902941,653.9229257791026,828.8335985938976C653.0474056219566,1036.0921649975012,612.5364203005403,1270.8634391655364,610.2159326706899,1492.7245060665534C607.8954450408395,1714.5855729675704,635.0359887784483,2048.787417677759,640,2160L 1920 2160 L 1920 -1080 Z" fill="url(&quot;#SvgjsLinearGradient1287&quot;)"></path><path d="M853.3333333333333,-1080C854.308639804266,-1007.3487771164453,858.3197167927298,-794.2725853236224,859.1851721589301,-644.0926626986719C860.0506275251304,-493.91274007372147,853.5308644695564,-333.30715245006377,858.5260655305351,-178.92046425029747C863.5212665915138,-24.533776050531145,893.4755436087517,122.6451776932874,889.1563785248023,282.22746649992604C884.837213440853,441.8097553065647,835.8883684947145,625.2344696129006,832.6110750268393,778.5732685895345C829.3337815589641,931.9120675661683,860.8921875608694,1045.548316172099,869.492617717551,1202.260260359729C878.0930478742325,1358.972204547359,886.9068700309649,1559.2216437752695,884.2136559669286,1718.8449337153147C881.5204419028923,1878.46822365536,858.4800537722658,2086.4741556192193,853.3333333333333,2160L 1920 2160 L 1920 -1080 Z" fill="url(&quot;#SvgjsLinearGradient1288&quot;)"></path><path d="M1066.6666666666667,-1080C1069.780983084222,-995.0599041380276,1082.3480317559556,-753.7151216152931,1085.3525651719979,-570.3594248281653C1088.3570985880401,-387.00372804103745,1087.817798806546,-170.0481637521205,1084.6938671629205,20.134180722766985C1081.5699355192949,210.31652519765447,1064.342031904462,395.87496586101963,1066.608975310244,570.7346420211597C1068.875918716026,745.5943181812999,1103.28602957217,895.619726341549,1098.2955275976128,1069.292237683608C1093.3050256230556,1242.9647490256668,1041.9374402847254,1430.9850830207808,1036.6659634629011,1612.769710073513C1031.3944866410768,1794.554337126245,1061.6665494660392,2068.794951678919,1066.6666666666667,2160L 1920 2160 L 1920 -1080 Z" fill="url(&quot;#SvgjsLinearGradient1289&quot;)"></path><path d="M1280,-1080C1274.2537766202518,-991.3376999857882,1244.2712711902668,-730.6237216594692,1245.52265972151,-548.0261999147291C1246.7740482527533,-365.428678169989,1281.69595570057,-171.29225488690366,1287.50833118746,15.585130468440425C1293.32070667435,202.46251582378454,1277.1039229993944,394.53766716838163,1280.3969126428497,573.2381122173355C1283.689902286305,751.9385572662893,1304.9966937621366,916.3165092227711,1307.2662690481914,1087.7878007621637C1309.5358443342461,1259.2590923015562,1298.5587425338767,1423.3638282473848,1294.0143643591782,1602.0658614536908C1289.4699861844797,1780.7678946599967,1282.3357273931963,2067.0109769089486,1280,2160L 1920 2160 L 1920 -1080 Z" fill="url(&quot;#SvgjsLinearGradient1290&quot;)"></path><path d="M1493.3333333333333,-1080C1487.8134667305985,-1012.7107349115656,1455.255994399036,-807.4805488884047,1460.214133716925,-676.2644094693939C1465.1722730348142,-545.048270050383,1517.5032807639993,-430.4780231197948,1523.0821692406685,-292.70316348593497C1528.6610577173376,-154.92830385207517,1494.067990297077,13.454591642534666,1493.68746457694,150.38474833376495C1493.3069388568033,287.31490502499526,1524.27267975945,401.6051530303003,1520.7990149198479,528.8777766614468C1517.3253500802457,656.1504002925933,1480.681034515348,777.1370177619854,1472.8454755393263,914.0204901206439C1465.0099165633046,1050.9039624793024,1466.3790950939074,1215.2035535338387,1473.7856610637173,1350.1786108133977C1481.1922270335272,1485.1536680929567,1514.0269259799156,1588.9006022668973,1517.284871358185,1723.8708337979976C1520.5428167364544,1858.841065329098,1497.3252563374751,2087.3118056329995,1493.3333333333333,2160L 1920 2160 L 1920 -1080 Z" fill="url(&quot;#SvgjsLinearGradient1291&quot;)"></path><path d="M1706.6666666666665,-1080C1705.46786671009,-949.3600497922206,1702.941480460782,-571.9326399145643,1699.473866927207,-296.16029875332356C1696.0062533936318,-20.387957592082728,1683.2492989019622,296.11007332776035,1685.8609854652157,574.6340469674452C1688.472672028469,853.1580206071301,1711.6763727731523,1110.7558842460264,1715.1439863067274,1374.9835430847857C1718.6115998403025,1639.2112019235449,1708.0795532733432,2029.1639238474643,1706.6666666666665,2160L 1920 2160 L 1920 -1080 Z" fill="url(&quot;#SvgjsLinearGradient1292&quot;)"></path></g><defs><linearGradient x1="0.1" y1="0" x2="0" y2="1" id="SvgjsLinearGradient1284"><stop stop-color="#1307c0" offset="0"></stop><stop stop-color="#071ac0" offset="0"></stop></linearGradient><linearGradient x1="0.1" y1="0" x2="0" y2="1" id="SvgjsLinearGradient1285"><stop stop-color="#1809f0" offset="0"></stop><stop stop-color="#0920f0" offset="0.1111111111111111"></stop></linearGradient><linearGradient x1="0.1" y1="0" x2="0" y2="1" id="SvgjsLinearGradient1286"><stop stop-color="#3f33f8" offset="0"></stop><stop stop-color="#3348f8" offset="0.2222222222222222"></stop></linearGradient><linearGradient x1="0.1" y1="0" x2="0" y2="1" id="SvgjsLinearGradient1287"><stop stop-color="#6c63f9" offset="0"></stop><stop stop-color="#6373f9" offset="0.3333333333333333"></stop></linearGradient><linearGradient x1="0.1" y1="0" x2="0" y2="1" id="SvgjsLinearGradient1288"><stop stop-color="#9992fb" offset="0"></stop><stop stop-color="#929cfb" offset="0.4444444444444444"></stop></linearGradient><linearGradient x1="0.1" y1="0" x2="0" y2="1" id="SvgjsLinearGradient1289"><stop stop-color="#c6c2fd" offset="0"></stop><stop stop-color="#c2c8fd" offset="0.5555555555555556"></stop></linearGradient><linearGradient x1="0.1" y1="0" x2="0" y2="1" id="SvgjsLinearGradient1290"><stop stop-color="#f3f2ff" offset="0"></stop><stop stop-color="#f2f3ff" offset="0.6666666666666666"></stop></linearGradient><linearGradient x1="0.1" y1="0" x2="0" y2="1" id="SvgjsLinearGradient1291"><stop stop-color="#ffffff" offset="0"></stop><stop stop-color="#ffffff" offset="0.7777777777777778"></stop></linearGradient><linearGradient x1="0.1" y1="0" x2="0" y2="1" id="SvgjsLinearGradient1292"><stop stop-color="#ffffff" offset="0"></stop><stop stop-color="#ffffff" offset="0.8888888888888888"></stop></linearGradient></defs></svg>