<svg xmlns="http://www.w3.org/2000/svg" version="1.1" xmlns:xlink="http://www.w3.org/1999/xlink" xmlns:svgjs="http://svgjs.dev/svgjs" viewBox="0 0 1920 1080"><rect width="1920" height="1080" fill="#3b39db"></rect><g transform="matrix(7.04171909509728e-17,1.15,-1.15,7.04171909509728e-17,1558.9216003417969,-538.6098403930664)"><path d="M0,-1080C6.573466498266245,-992.9411910288846,40.21547851479986,-744.2110352156689,39.44079898959747,-557.6471461733076C38.666119464395074,-371.08325713094644,6.36509308315855,-143.87010569999885,-4.648077151214352,39.38333425416738C-15.661247385587254,222.6367742083336,-32.00893413793614,374.84102545728575,-26.638222416639955,541.8734935516898C-21.26751069534377,708.9059616460938,30.4363557465398,860.7016322011165,27.576193176562754,1041.5781428205914C24.716030606585708,1222.4546534400663,-39.20316564040843,1440.7289144053045,-43.79919783650222,1627.1325572685394C-48.39523003259602,1813.5362001317742,-7.299866306083704,2071.1887595447565,0,2160L 1920 2160 L 1920 -1080 Z" fill="url(&quot;#SvgjsLinearGradient1050&quot;)"></path><path d="M640,-1080C640.1831844947,-971.6380674331026,644.338766092338,-639.786483527468,641.0991069681995,-429.828404598616C637.859447844061,-219.87032566976393,619.4678585127756,-41.774731319498926,620.5620452551689,179.7484735731122C621.6562319975621,401.2716784657233,636.9359076831621,670.3822409692942,647.664227422559,899.3108247570507C658.3925471619558,1128.2394085448072,686.2093349286433,1343.2051137591595,684.9319636915502,1553.319976299651C683.6545924544571,1763.4348388401424,647.4886606152584,2058.8866627166085,640,2160L 1920 2160 L 1920 -1080 Z" fill="url(&quot;#SvgjsLinearGradient1051&quot;)"></path><path d="M1280,-1080C1280.154211131652,-988.4213956556808,1277.4727119041204,-714.4368779768382,1280.925266789911,-530.5283739340848C1284.3778216757014,-346.6198698913314,1300.974679418633,-153.1578058319467,1300.7153293147437,23.451024256520554C1300.4559792108544,200.0598543449878,1281.5503547994138,350.73398128455403,1279.3691661665753,529.1246065967186C1277.1879775337368,707.5152319088833,1283.9948583526993,907.5469958961498,1287.6281975177128,1093.7947761295086C1291.2615366827263,1280.0425563628673,1302.4405674096088,1468.9104173517894,1301.1692011566568,1646.6112879968714C1299.8978349037047,1824.3121586419534,1283.5282001927762,2074.4352146661454,1280,2160L 1920 2160 L 1920 -1080 Z" fill="url(&quot;#SvgjsLinearGradient1052&quot;)"></path></g><defs><linearGradient x1="0.1" y1="0" x2="0" y2="1" id="SvgjsLinearGradient1050"><stop stop-color="#3b39db" offset="0"></stop><stop stop-color="#3952db" offset="0"></stop></linearGradient><linearGradient x1="0.1" y1="0" x2="0" y2="1" id="SvgjsLinearGradient1051"><stop stop-color="#9f9eed" offset="0"></stop><stop stop-color="#9eaaed" offset="0.3333333333333333"></stop></linearGradient><linearGradient x1="0.1" y1="0" x2="0" y2="1" id="SvgjsLinearGradient1052"><stop stop-color="#ffffff" offset="0"></stop><stop stop-color="#ffffff" offset="0.6666666666666666"></stop></linearGradient></defs></svg>