<svg width="100" height="24" viewBox="0 0 100 24" fill="none" xmlns="http://www.w3.org/2000/svg">
<path d="M5 18.7955L8.27435 14.3316L5.22055 10.0039H8.08773L9.02083 11.4181L9.73338 12.5596H9.86911L10.5986 11.4181L11.5487 10.0039H14.1784L11.1246 14.1953L14.3989 18.7955H11.5148L10.412 17.1429L9.64855 15.9672H9.51283L8.76635 17.1429L7.64662 18.7955H5Z" fill="#445AFF"/>
<path d="M20.415 8.87942C19.8495 8.87942 19.4537 8.76584 19.2275 8.53866C19.0126 8.30013 18.9051 8.01616 18.9051 7.68676V7.19266C18.9051 6.8519 19.0126 6.56793 19.2275 6.34076C19.4537 6.11359 19.8495 6 20.415 6C20.9806 6 21.3708 6.11359 21.5857 6.34076C21.8119 6.56793 21.925 6.8519 21.925 7.19266V7.68676C21.925 8.01616 21.8119 8.30013 21.5857 8.53866C21.3708 8.76584 20.9806 8.87942 20.415 8.87942ZM16.3772 16.8362H19.1596V11.9633H16.3772V10.0039H21.6705V16.8362H24.2492V18.7955H16.3772V16.8362Z" fill="#445AFF"/>
<path d="M30.0448 19C29.4115 19 28.9534 18.8637 28.6706 18.5911C28.3992 18.3071 28.2634 17.972 28.2634 17.5858V16.9895C28.2634 16.6033 28.3992 16.2739 28.6706 16.0013C28.9534 15.7173 29.4115 15.5754 30.0448 15.5754C30.6782 15.5754 31.1306 15.7173 31.4021 16.0013C31.6848 16.2739 31.8262 16.6033 31.8262 16.9895V17.5858C31.8262 17.972 31.6848 18.3071 31.4021 18.5911C31.1306 18.8637 30.6782 19 30.0448 19Z" fill="#445AFF"/>
<path d="M40.455 19C38.9847 19 37.8706 18.5911 37.1128 17.7733C36.355 16.9554 35.9761 15.8423 35.9761 14.4338C35.9761 13.7182 36.0723 13.0765 36.2646 12.5085C36.4681 11.9292 36.7509 11.4408 37.1128 11.0433C37.4861 10.6343 37.9328 10.3277 38.4531 10.1232C38.9847 9.90738 39.5785 9.79948 40.2345 9.79948C40.8905 9.79948 41.4786 9.90738 41.9989 10.1232C42.5192 10.3277 42.9603 10.623 43.3222 11.0092C43.6841 11.3954 43.9612 11.8668 44.1535 12.4233C44.3571 12.9685 44.4589 13.5819 44.4589 14.2634V15.0131H38.4701V15.1664C38.4701 15.7344 38.6454 16.1944 38.996 16.5465C39.3466 16.8873 39.8612 17.0577 40.5399 17.0577C41.0601 17.0577 41.5069 16.9611 41.8801 16.768C42.2534 16.5636 42.5757 16.2966 42.8472 15.9672L44.2044 17.4495C43.8651 17.8698 43.3901 18.2333 42.7793 18.54C42.1686 18.8467 41.3938 19 40.455 19ZM40.2514 11.6055C39.7086 11.6055 39.2731 11.7759 38.9451 12.1166C38.6284 12.446 38.4701 12.8947 38.4701 13.4626V13.599H41.9989V13.4626C41.9989 12.8834 41.8406 12.429 41.5239 12.0996C41.2185 11.7702 40.7943 11.6055 40.2514 11.6055Z" fill="black"/>
<path d="M46.5051 16.8362H49.0839V11.9633H46.3354V10.0039H49.0839V8.72608C49.0839 7.97641 49.2988 7.36872 49.7285 6.90301C50.1697 6.42595 50.8483 6.18742 51.7644 6.18742H54.7334V8.14679H51.5948V10.0039H54.7334V11.9633H51.5948V16.8362H54.3432V18.7955H46.5051V16.8362Z" fill="black"/>
<path d="M56.6778 16.8362H59.2565V11.9633H56.5081V10.0039H59.2565V8.72608C59.2565 7.97641 59.4714 7.36872 59.9012 6.90301C60.3423 6.42595 61.021 6.18742 61.9371 6.18742H64.9061V8.14679H61.7674V10.0039H64.9061V11.9633H61.7674V16.8362H64.5159V18.7955H56.6778V16.8362Z" fill="black"/>
<path d="M70.9731 19C69.5028 19 68.3887 18.5911 67.6309 17.7733C66.8731 16.9554 66.4942 15.8423 66.4942 14.4338C66.4942 13.7182 66.5903 13.0765 66.7826 12.5085C66.9862 11.9292 67.269 11.4408 67.6309 11.0433C68.0041 10.6343 68.4509 10.3277 68.9712 10.1232C69.5028 9.90738 70.0965 9.79948 70.7525 9.79948C71.4085 9.79948 71.9967 9.90738 72.517 10.1232C73.0372 10.3277 73.4783 10.623 73.8403 11.0092C74.2022 11.3954 74.4793 11.8668 74.6716 12.4233C74.8752 12.9685 74.977 13.5819 74.977 14.2634V15.0131H68.9881V15.1664C68.9881 15.7344 69.1634 16.1944 69.5141 16.5465C69.8647 16.8873 70.3793 17.0577 71.0579 17.0577C71.5782 17.0577 72.025 16.9611 72.3982 16.768C72.7714 16.5636 73.0938 16.2966 73.3652 15.9672L74.7225 17.4495C74.3832 17.8698 73.9081 18.2333 73.2974 18.54C72.6866 18.8467 71.9119 19 70.9731 19ZM70.7695 11.6055C70.2266 11.6055 69.7912 11.7759 69.4632 12.1166C69.1465 12.446 68.9881 12.8947 68.9881 13.4626V13.599H72.517V13.4626C72.517 12.8834 72.3586 12.429 72.0419 12.0996C71.7365 11.7702 71.3124 11.6055 70.7695 11.6055Z" fill="black"/>
<path d="M81.2645 19C80.5746 19 79.9526 18.8978 79.3983 18.6933C78.8554 18.4775 78.3917 18.1708 78.0072 17.7733C77.6339 17.3757 77.3455 16.893 77.1419 16.325C76.9383 15.7571 76.8365 15.1153 76.8365 14.3997C76.8365 13.6841 76.9383 13.0424 77.1419 12.4744C77.3455 11.9065 77.6339 11.4238 78.0072 11.0262C78.3917 10.6287 78.8554 10.3277 79.3983 10.1232C79.9526 9.90738 80.569 9.79948 81.2476 9.79948C82.209 9.79948 82.9781 9.99825 83.5549 10.3958C84.143 10.782 84.5898 11.2988 84.8952 11.9463L82.9611 13.0026C82.8028 12.6619 82.5935 12.3779 82.3334 12.1507C82.0845 11.9235 81.7226 11.81 81.2476 11.81C80.6708 11.81 80.224 11.9803 79.9073 12.3211C79.6019 12.6505 79.4492 13.1048 79.4492 13.6841V15.1153C79.4492 15.6946 79.6019 16.1547 79.9073 16.4954C80.224 16.8248 80.6821 16.9895 81.2815 16.9895C81.7679 16.9895 82.1468 16.8759 82.4182 16.6488C82.701 16.4216 82.9385 16.1263 83.1308 15.7628L85.0309 16.8532C84.7142 17.5007 84.2505 18.0232 83.6397 18.4207C83.0403 18.8069 82.2486 19 81.2645 19Z" fill="black"/>
<path d="M91.7596 18.7955C90.8548 18.7955 90.1818 18.557 89.7407 18.0799C89.2996 17.6029 89.079 16.9952 89.079 16.2569V11.9633H86.7039V10.0039H88.2477C88.621 10.0039 88.8868 9.9301 89.0451 9.78244C89.2034 9.63477 89.2826 9.36217 89.2826 8.96461V6.90301H91.5899V10.0039H95V11.9633H91.5899V16.8362H95V18.7955H91.7596Z" fill="black"/>
</svg>
