<svg width="40" height="40" viewBox="0 0 40 40" fill="none" xmlns="http://www.w3.org/2000/svg">
<rect width="40" height="40" rx="20" fill="#445AFF"/>
<path d="M7.59998 26.7998L11.8185 21.2179L7.88413 15.8065H11.5781L12.7803 17.5748L13.6983 19.0022H13.8731L14.813 17.5748L16.0371 15.8065H19.425L15.4906 21.0475L19.7092 26.7998H15.9933L14.5726 24.7332L13.589 23.2632H13.4141L12.4524 24.7332L11.0098 26.7998H7.59998Z" fill="white"/>
<path d="M27.4601 14.4003C26.7315 14.4003 26.2215 14.2583 25.9301 13.9742C25.6532 13.676 25.5148 13.3209 25.5148 12.909V12.2911C25.5148 11.8651 25.6532 11.51 25.9301 11.2259C26.2215 10.9418 26.7315 10.7998 27.4601 10.7998C28.1887 10.7998 28.6914 10.9418 28.9683 11.2259C29.2597 11.51 29.4055 11.8651 29.4055 12.2911V12.909C29.4055 13.3209 29.2597 13.676 28.9683 13.9742C28.6914 14.2583 28.1887 14.4003 27.4601 14.4003ZM22.258 24.3497H25.8426V18.2565H22.258V15.8065H29.0776V24.3497H32.4V26.7998H22.258V24.3497Z" fill="white"/>
</svg>
