<svg xmlns="http://www.w3.org/2000/svg" viewBox="0 0 600.027 708.427">
  <g id="Layer_7" data-name="Layer 7">
    <g>
      <circle cx="269.886" cy="402.482" r="269.886" fill="#367cff" opacity="0.2"></circle>
      <path d="M21.028,628.842A188.872,188.872,0,0,1,142.116,367.283l16.059,58.056a128.636,128.636,0,0,0-82.51,178.142Z" fill="#367cff"></path>
      <path d="M24.179,708.427a18.07,18.07,0,0,1-16.118-9.874,70.952,70.952,0,0,1,126.454-64.392,18.072,18.072,0,1,1-32.208,16.4,34.809,34.809,0,1,0-62.038,31.59,18.078,18.078,0,0,1-16.09,26.275Z" fill="#292a2e"></path>
      <g>
        <path d="M491.257,400.675a187.42,187.42,0,0,1-88.966,42.019l-10.605-59.3a128.647,128.647,0,0,0,105.8-123.886l60.223,1.256a188.057,188.057,0,0,1-54.574,128.875Q497.4,395.434,491.257,400.675Z" fill="#367cff"></path>
        <path d="M575.022,259.042a70.957,70.957,0,0,1-116.891-52.969,18.072,18.072,0,0,1,36.139-.563,34.809,34.809,0,0,0,69.61-1.082,18.071,18.071,0,0,1,36.138-.562,70.489,70.489,0,0,1-20,50.488Q577.619,256.83,575.022,259.042Z" fill="#292a2e"></path>
      </g>
      <path d="M446.125,1.378,429.733,48.916a2.044,2.044,0,0,0,1.871,2.709l11.059.33a2.044,2.044,0,0,1,1.855,2.755l-18.243,49.113a2.044,2.044,0,0,0,3.544,1.947l42.953-56.612a2.044,2.044,0,0,0-.871-3.134l-12.865-5.133a2.043,2.043,0,0,1-1.129-2.683L472.333,3.553A2.044,2.044,0,0,0,470.512.725L448.123,0A2.043,2.043,0,0,0,446.125,1.378Z" fill="#367cff"></path>
      <path d="M27.442,219.55l19.1,37.146a1.7,1.7,0,0,1-1.218,2.449l-9.053,1.579a1.7,1.7,0,0,0-1.2,2.485L55.882,301.43a1.7,1.7,0,0,1-2.684,2.02L11.186,261.986a1.7,1.7,0,0,1,.345-2.679l9.97-5.742a1.7,1.7,0,0,0,.611-2.34L6.152,224.439A1.7,1.7,0,0,1,7.314,221.9l18.323-3.243A1.7,1.7,0,0,1,27.442,219.55Z" fill="#292a2e"></path>
      <g>
        <path d="M101.667,370.445,141.6,596.29A126.151,126.151,0,0,0,265.822,700.477h0a126.151,126.151,0,0,0,123.4-99.935l48.884-230.1Z" fill="#367cff"></path>
        <ellipse cx="269.886" cy="370.445" rx="168.219" ry="49.735" fill="#292a2e"></ellipse>
        <rect x="191.803" y="498.063" width="158.133" height="97.35" rx="20.195" fill="#292a2e"></rect>
        <path d="M258.112,548.556h-7c0-9.222,4.178-21.931,24.083-30.107,11.66-4.789,7.8-22.486,7.758-22.664l6.823-1.566c.222.963,5.239,23.657-11.921,30.7C264.754,530.3,258.112,538.256,258.112,548.556Z" fill="#367cff"></path>
        <path d="M320.915,599.507c-6.807-12.764-9.648-12.511-21.627-11.447-3.9.347-8.752.779-14.676.779-26.515,0-29.274-19.3-29.3-19.494l6.943-.882-3.472.441,3.468-.474c.08.548,2.2,13.409,22.359,13.409,5.613,0,10.1-.4,14.056-.751,13.477-1.2,19.8-1.048,28.423,15.125Z" fill="#367cff"></path>
        <g>
          <path d="M240,552.144a1.5,1.5,0,0,1-.687-.168l-7.566-3.9a1.5,1.5,0,0,1,1.377-2.666l7.566,3.9a1.5,1.5,0,0,1-.69,2.834Z" fill="#fff"></path>
          <path d="M230.859,566.989a1.5,1.5,0,0,1-.534-2.9l7.957-3.029a1.5,1.5,0,0,1,1.068,2.8l-7.957,3.03A1.5,1.5,0,0,1,230.859,566.989Z" fill="#fff"></path>
        </g>
        <g>
          <path d="M278.712,560.824a1.5,1.5,0,0,1-.248-2.979l8.4-1.419a1.5,1.5,0,0,1,.5,2.958l-8.4,1.419A1.549,1.549,0,0,1,278.712,560.824Z" fill="#fff"></path>
          <path d="M272.569,550.662a1.5,1.5,0,0,1-1.268-2.3l4.545-7.2a1.5,1.5,0,1,1,2.537,1.6l-4.545,7.2A1.5,1.5,0,0,1,272.569,550.662Z" fill="#fff"></path>
        </g>
        <path d="M358.192,543.318c-14.562,0-26.711-3.978-36.207-11.874-17.545-14.59-19.426-37.109-19.5-38.06l6.98-.525-3.49.263,3.489-.268c.017.2,1.784,20.6,17.048,33.253,10,8.285,23.633,11.553,40.546,9.711l.758,6.959A89.023,89.023,0,0,1,358.192,543.318Z" fill="#367cff"></path>
        <path d="M175.694,586.822l-1.293-6.88c26.837-5.046,26.817-16.211,26.794-29.137-.015-8.706-.033-18.573,10.223-24.343,19.075-10.731,17.547-35.054,17.53-35.3l6.98-.525c.089,1.177,1.931,28.98-21.078,41.924-6.357,3.577-6.671,9.257-6.655,18.229C208.219,564.117,208.248,580.7,175.694,586.822Z" fill="#367cff"></path>
      </g>
      <path d="M382.558,385.962a2,2,0,0,1-.4-.04c-7.577-1.524-21.872-8-21.744-21.616a16.568,16.568,0,0,1,7.038-13.618,19.492,19.492,0,0,1-1.861-13.54c2.858-14.891,17.85-17.5,25.382-16.794a2,2,0,0,1-.368,3.983h0c-.739-.068-18.2-1.464-21.086,13.565a15.489,15.489,0,0,0,1.364,10.739c7.424-3.582,17.593-3.6,22.261-.031a5.821,5.821,0,0,1,2.429,5.9c-.934,4.87-6.65,7.3-13.888,5.91a21.6,21.6,0,0,1-11.891-6.487,12.562,12.562,0,0,0-5.38,10.412c-.129,13.7,18.349,17.619,18.535,17.657a2,2,0,0,1-.394,3.961ZM373.4,351.89a18.355,18.355,0,0,0,9.045,4.6c4.771.913,8.731-.261,9.206-2.736a1.857,1.857,0,0,0-.932-1.968C387.7,349.476,379.83,349.1,373.4,351.89Z" fill="#fff"></path>
      <path d="M211.61,370.94a2,2,0,0,1-1.2-3.6h0c.431-.325,10.5-8.088,4.775-17.507a11.294,11.294,0,0,0-5.474-4.9c-2.5,5.7-8.153,10.7-12.593,11.073a4.849,4.849,0,0,1-4.79-2.3,6.039,6.039,0,0,1,.126-6.232c2.229-4.071,7.773-7.114,13.18-7.236.45-.008.9,0,1.34.029a8.9,8.9,0,0,0-2.21-7.65c-6.578-7.407-18.456-.465-18.574-.394a2,2,0,1,1-2.047-3.437c.6-.359,14.864-8.677,23.611,1.174a12.874,12.874,0,0,1,3.14,11.138,15.319,15.319,0,0,1,7.709,6.652c6.1,10.028-1.124,19.288-5.793,22.784A1.988,1.988,0,0,1,211.61,370.94Zm-6-26.693c-4.353.14-8.316,2.718-9.651,5.155a2.188,2.188,0,0,0-.215,2.234c.1.169.276.444,1.042.388C199.293,351.816,203.41,348.484,205.608,344.247Z" fill="#fff"></path>
      <g>
        <g>
          <path d="M430.612,204.417c10.239,72.4-57.7,117.546-147.585,130.256s-167.675-11.825-177.913-84.23S156.067,85.182,245.951,72.472,420.374,132.012,430.612,204.417Z" fill="#367cff"></path>
          <rect x="205.716" y="133.012" width="199.623" height="106.128" rx="53.064" transform="translate(-23.043 44.61) rotate(-8.048)" fill="#fff"></rect>
        </g>
        <rect x="237.677" y="16.472" width="7.309" height="73.649" transform="translate(-5.718 46.381) rotate(-10.85)" fill="#367cff"></rect>
        <circle cx="235.426" cy="22.481" r="13.358" fill="#292a2e"></circle>
        <g>
          <path d="M285.566,212.173a5.972,5.972,0,0,1-3.6-1.206L242.655,181.4a6,6,0,1,1,7.213-9.589l39.309,29.569a6,6,0,0,1-3.611,10.8Z" fill="#292a2e"></path>
          <path d="M251.125,217.042a6,6,0,0,1-4.79-9.607l29.571-39.31a6,6,0,0,1,9.589,7.214l-29.57,39.31A5.992,5.992,0,0,1,251.125,217.042Z" fill="#292a2e"></path>
        </g>
        <g>
          <path d="M370.933,200.1a5.972,5.972,0,0,1-3.6-1.206l-39.309-29.57a6,6,0,1,1,7.213-9.59l39.309,29.57a6,6,0,0,1-3.611,10.8Z" fill="#292a2e"></path>
          <path d="M336.494,204.971a6,6,0,0,1-4.791-9.607l29.57-39.31a6,6,0,0,1,9.59,7.214l-29.57,39.31A5.99,5.99,0,0,1,336.494,204.971Z" fill="#292a2e"></path>
        </g>
        <path d="M313.838,261.577a15.808,15.808,0,0,1,27.986,5.84,4.026,4.026,0,1,1-7.83,1.877,7.754,7.754,0,1,0-15.081,3.616,4.026,4.026,0,0,1-7.83,1.877,15.705,15.705,0,0,1,1.9-11.948Q313.381,262.185,313.838,261.577Z" fill="#292a2e"></path>
      </g>
    </g>
  </g>
</svg>