<svg id="Layer_1" data-name="Layer 1" xmlns="http://www.w3.org/2000/svg" viewBox="0 0 887.583 488.637">
  <path d="M887.583,488.637H0c9.726-24.8,27.686-45.842,53.005-52.083,37.037-9.119,76.232,15.952,113.187,6.526,21-5.35,37.524-20.943,54.893-33.89,65.525-48.854,155.32-63.293,232.856-37.435,40.529,13.51,77.461,37.135,118.979,47.183,53.687,12.993,109.831,2.218,165.038.442C791.727,417.649,868.769,439.558,887.583,488.637Z" fill="#f3f5fd"></path>
  <path d="M864.97,488.637h-126c-9.242-7.377-9.879-24-.3-31.416,7.384-5.719,18.547-4.19,25.487,1.759a24.625,24.625,0,0,1-.074-13.576c2.257-8,7.273-16.129,14.933-19.365,19.546-8.247,33.435,9.033,36.218,18.695,5-7.359,16.2-11.249,23.226-6.295,8.9,6.275,8.5,16.167,1.4,23.267,9.46-1.763,16.586-.4,23.148,6.64C868,473.708,868.769,482.843,864.97,488.637Z" fill="#8ddbe0"></path>
  <g>
    <path d="M695.236,77.739s-7.733-4.1-6.006-25.157L673.253,49.62s1.795,18.878-6.287,24.872Z" fill="#E98862"></path>
    <g opacity="0.15">
      <path d="M670.24,70.545l13.272-10.153-10.424-.108A28.756,28.756,0,0,1,670.24,70.545Z"></path>
    </g>
    <path d="M698.3,44.417c-1.106,6.389-4.593,12.438-10.228,14.5-6.689,2.45-11.644,2.615-19.357,2.615-10.526,0-10.178-10.976-10.473-22.038-.3-11.106.586-23.018,4.746-26.888,8.3-7.725,32.673-2.833,35.637,10.087C700.154,29.377,699.347,38.337,698.3,44.417Z" fill="#E98862"></path>
    <path d="M650.94,8.008c0-5.283,6.574-13.937,24.112-2l.017.012A49.856,49.856,0,0,1,688.6,7.5c8.02,2.4,18.077,9.123,15.5,25.425-2.88,18.194-10.333,23.051-14.089,25.283-.957.568-1.189.1-1.521-.957a81.185,81.185,0,0,1-2.229-11.969,65.907,65.907,0,0,1-.889-11.9c0-1.766-.009-8.2-8.772-8.274-4.929-.04-3.086.156-8.346.156-.75,0-1.412-.034-2.022-.088l-.006,0C648.06,25.174,650.94,13.29,650.94,8.008Z" fill="#0f1011"></path>
    <g>
      <circle cx="673.276" cy="38.047" r="1.449" fill="#0f1011"></circle>
      <circle cx="661.845" cy="37.11" r="1.449" fill="#0f1011"></circle>
      <path d="M659.334,34.022a.681.681,0,0,1-.009-1.361l3.839-.048a.715.715,0,0,1,.689.672.68.68,0,0,1-.672.689l-3.838.048Z" fill="#0f1011"></path>
      <path d="M676.4,35.422a.679.679,0,0,1-.16-.019l-3.784-.911a.681.681,0,0,1,.318-1.324l3.784.911a.681.681,0,0,1-.158,1.343Z" fill="#0f1011"></path>
    </g>
    <path d="M680.814,41.593a6.143,6.143,0,0,0,12.244,1,6.041,6.041,0,0,0-5.62-6.624C683.06,35.83,681.091,38.212,680.814,41.593Z" fill="#E98862"></path>
    <g opacity="0.15">
      <path d="M666.844,46.084a.5.5,0,0,0,.147-.978l-2.947-.905,2.061-4.59a.5.5,0,1,0-.912-.41L662.9,44.308a.5.5,0,0,0,.309.683l3.488,1.071A.5.5,0,0,0,666.844,46.084Z"></path>
    </g>
    <path d="M672.606,49.459s-5.349.564-9.1-.746c0,0,.03,3.523,4.262,3.87S672.606,49.459,672.606,49.459Z" fill="#fff"></path>
  </g>
  <path d="M326.187,38.417c.441-1.125.648-2.1.185-2.36-2.084-1.17-12.823,10.1-14.739,12.019l6-2.615-3.7,3.7,10.012,5s23.592-11.743,18.962-20.046C340.916,30.546,332.85,34.372,326.187,38.417Z" fill="#E98862"></path>
  <g>
    <path d="M249.5,477.818l-20.854-2.48c.939-7.893,2-17.374,2.073-18.929-.005.1-.005.182-.005.245h21C251.712,457.284,251.712,459.2,249.5,477.818Z" fill="#E98862"></path>
    <path d="M165.822,480.328l-21-.069s.07-21.684.07-23.605h21C165.892,458.581,165.822,480.328,165.822,480.328Z" fill="#E98862"></path>
    <path d="M220.251,471.186l36.994-.63c-1.738-44.032-1.843-90.219-2.386-134.357-7.22-47.574-11.024-99.816-19.935-147.049l-.267.079-.781-5.33L157.8,179.2s-13.87,221.652-18.389,290.79l36.869,3.115c6.642-67.786,16.922-166.556,23.245-237.767,7.261,34.67,12.2,70.568,18.515,104.941C219.3,383.309,220.368,428.288,220.251,471.186Z" fill="#262626"></path>
    <path d="M191.351,488.45a4.108,4.108,0,0,0,4.076-4.427h0a4.106,4.106,0,0,0-2.659-3.529l-24.442-8.187a3.464,3.464,0,0,0-2.872.319,19.1,19.1,0,0,1-11.468,3.4,17.029,17.029,0,0,1-8.821-3.222,1.546,1.546,0,0,0-2.527,1.2v11.952a2.678,2.678,0,0,0,2.689,2.678Z" fill="#c1d8ed"></path>
    <path d="M275.084,488.45a4.109,4.109,0,0,0,4.077-4.427h0a4.109,4.109,0,0,0-2.659-3.529l-24.443-8.187a3.465,3.465,0,0,0-2.872.319,19.1,19.1,0,0,1-11.468,3.4,17.026,17.026,0,0,1-8.82-3.222,1.546,1.546,0,0,0-2.527,1.2v11.952a2.678,2.678,0,0,0,2.688,2.678Z" fill="#c1d8ed"></path>
    <g>
      <g>
        <path d="M182.657,77.559s7.732-4.1,6.006-25.156l15.976-2.962s-1.8,18.878,6.287,24.872Z" fill="#E98862"></path>
        <g opacity="0.15">
          <path d="M207.653,70.366,194.38,60.212l10.425-.108A28.735,28.735,0,0,0,207.653,70.366Z"></path>
        </g>
        <path d="M179.6,44.238c1.106,6.389,4.592,12.438,10.227,14.5a40.515,40.515,0,0,0,19.358,2.615c17.49-1.434,14.03-41.2,5.726-48.926S182.236,9.6,179.272,22.516C177.739,29.2,178.545,38.157,179.6,44.238Z" fill="#E98862"></path>
        <path d="M220.678,13.8a5.571,5.571,0,0,0-2.119-1.96c-7.767-4.223-22.161-5.684-29.074-3.616-8.019,2.4-18.076,9.123-15.5,25.425.109.687.226,1.348.348,2a14,14,0,1,0,9.9,20.562,24.613,24.613,0,0,0,3.838,2.723c.957.569,1.189.106,1.521-.957,1.159-3.71,2.3-18.387,1.389-29.045l18.847-.651,3.283-9.343,2.692,9.343h6.418C223.082,23.217,223.97,17.479,220.678,13.8Z" fill="#0f1011"></path>
        <g>
          <circle cx="204.616" cy="37.868" r="1.449" fill="#0f1011"></circle>
          <circle cx="216.048" cy="36.931" r="1.449" fill="#0f1011"></circle>
          <path d="M218.558,33.842h-.008l-3.838-.047a.681.681,0,0,1,.009-1.362h.008l3.838.048a.681.681,0,0,1-.009,1.361Z" fill="#0f1011"></path>
          <path d="M201.488,35.243a.681.681,0,0,1-.158-1.343l3.785-.911a.681.681,0,0,1,.318,1.324l-3.785.911A.673.673,0,0,1,201.488,35.243Z" fill="#0f1011"></path>
        </g>
        <path d="M197.079,41.414a6.143,6.143,0,0,1-12.245,1,6.041,6.041,0,0,1,5.621-6.624C194.833,35.651,196.8,38.033,197.079,41.414Z" fill="#E98862"></path>
        <g opacity="0.15">
          <path d="M211.049,45.905a.5.5,0,0,1-.147-.978l2.947-.905-2.062-4.591a.5.5,0,1,1,.912-.409l2.294,5.107a.5.5,0,0,1-.309.683L211.2,45.883A.5.5,0,0,1,211.049,45.905Z"></path>
        </g>
        <path d="M205.287,49.28s5.348.564,9.1-.746c0,0-.029,3.523-4.262,3.87S205.287,49.28,205.287,49.28Z" fill="#fff"></path>
      </g>
      <path d="M313.333,40.257l-37.4,51.883-49.049-18.6,0,0a29.9,29.9,0,0,0-9.279-1.722c-.63-.03-1.639-.05-2.94-.07-.259,5.5-34.319,5.48-35.04-.13-9.619.01-17.509,2.96-22.08,7.53-15.75,15.75,3.58,42.59,3.58,63.59s-9.5,30.42-8.8,41.2c1.1,16.94,83.43,12.94,87.619,3.31,4.32-9.92-4.45-16.04-4.059-48.5.135-11.777,2.84-25.358,3.371-37.2l36.765,13.945a10.9,10.9,0,0,0,12.71-3.818L331.02,53.007Z" fill="#367CFF"></path>
      <path d="M214.664,71.747c-.259,5.5-3.25,13.59-12.48,14.2-12.3.81-21.839-8.72-22.56-14.33h.031C191.764,71.617,207.6,71.637,214.664,71.747Z" fill="#E98862"></path>
      <path d="M181.158,172.676l-57.61-13.623a10.9,10.9,0,0,1-6.7-16.454L156.186,80.66l18.407,11.689-31.122,49.01,42.7,10.1Z" fill="#367CFF"></path>
    </g>
  </g>
  <path d="M628.458,477.818c-2.214-18.618-2.214-20.534-2.214-21.164h21c0-.063,0-.146,0-.245.074,1.555,1.134,11.036,2.072,18.929Z" fill="#E98862"></path>
  <path d="M712.134,480.328s-.071-21.747-.071-23.674h21c0,1.921.071,23.605.071,23.605Z" fill="#E98862"></path>
  <path d="M738.546,469.994c-4.491-68.715-18.389-290.79-18.389-290.79L644.08,183.9l-.781,5.33-.267-.079c-8.921,47.286-12.716,99.512-19.947,147.134-.509,44.1-.649,90.293-2.375,134.272l37,.63c-.118-43.449,1.974-88.943,3.257-132.478,0,0,8.123-56.636,17.533-102.655,6.347,71.354,16.521,169.079,23.182,237.056Z" fill="#262626"></path>
  <path d="M686.605,488.45a4.108,4.108,0,0,1-4.076-4.427h0a4.106,4.106,0,0,1,2.658-3.529l24.443-8.187a3.464,3.464,0,0,1,2.872.319,19.1,19.1,0,0,0,11.468,3.4,17.023,17.023,0,0,0,8.82-3.222,1.547,1.547,0,0,1,2.528,1.2v11.952a2.678,2.678,0,0,1-2.689,2.678Z" fill="#c1d8ed"></path>
  <path d="M602.871,488.45a4.108,4.108,0,0,1-4.076-4.427h0a4.106,4.106,0,0,1,2.659-3.529l24.442-8.187a3.467,3.467,0,0,1,2.873.319,19.1,19.1,0,0,0,11.467,3.4,17.026,17.026,0,0,0,8.821-3.222,1.546,1.546,0,0,1,2.527,1.2v11.952a2.678,2.678,0,0,1-2.689,2.678Z" fill="#c1d8ed"></path>
  <path d="M720.411,79.147c-4.57-4.57-12.46-7.52-22.08-7.53-.72,5.61-34.78,5.63-35.04.13-1.3.02-2.31.04-2.94.07-11.852.511-17.608,5.659-20.1,13.328l-25.988,55.626-60.8,16.55,5.726,21.039,65.679-17.877a10.9,10.9,0,0,0,7.014-5.905l9.965-21.331c.123,1.867.205,3.7.225,5.5.39,32.46-8.38,38.58-4.059,48.5,4.189,9.63,86.519,13.63,87.619-3.31.7-10.78-8.8-20.19-8.8-41.2S736.161,94.9,720.411,79.147Z" fill="#367CFF"></path>
  <path d="M663.291,71.747c.26,5.5,3.25,13.59,12.48,14.2,12.3.81,21.84-8.72,22.56-14.33h-.03C686.191,71.617,670.351,71.637,663.291,71.747Z" fill="#E98862"></path>
  <path d="M201.455,156.12a21.309,21.309,0,0,1,5.133-.939c3.366,0,4.641,3.413,1.417,4.637a35.293,35.293,0,0,1-8,1.9" fill="#E98862"></path>
  <path d="M555.719,155.914a20.174,20.174,0,0,1,4.857-.888c3.183,0,4.39,3.228,1.34,4.386a33.36,33.36,0,0,1-7.565,1.8" fill="#E98862"></path>
  <rect x="118.67" y="158.484" width="636.261" height="188.724" fill="#c1d8ed"></rect>
  <g>
    <path d="M699.576,161.934c-2.638.617-17.88,3.8-17.985,6.184-.064,1.431,6.881,1.478,6.881,1.478" fill="#E98862"></path>
    <path d="M698.251,175.6s-22.419,13.851-27.032,5.538c-2.424-4.368,9.356-10.632,16.943-14.076l11.121-2.605" fill="#E98862"></path>
  </g>
  <path d="M700.37,179.819,692.9,159.337,728.069,146.5l-22.692-51.09,19.928-8.852,27.429,61.757a10.9,10.9,0,0,1-6.226,14.667Z" fill="#367CFF"></path>
  <path d="M540.672,159.412c.682,2.908,3.147,3.473,10.321,3.473,7.044,0,8.911-2.5,8.911-6.41s-4.616-4.391-9.834-4.391C540.726,152.084,539.861,155.952,540.672,159.412Z" fill="#E98862"></path>
  <path d="M185.548,159.818c.721,3.074,3.326,3.671,10.91,3.671,7.446,0,9.42-2.639,9.42-6.776s-4.88-4.643-10.395-4.643C185.605,152.07,184.69,156.16,185.548,159.818Z" fill="#E98862"></path>
  <path d="M85.308,488.637H31C21.558,476.219,5.005,451.171,15.7,440.472c4.866-4.854,10.215-.236,15.193,8.047-1.708-16.227,0-31.735,11.294-36.264,10.282-4.113,14.879,8.316,16.654,24.992,5.057-9.484,11.721-16.159,20.407-15.631,12.429.742,9.429,17.317,2.158,35.668,5.518-4.192,11.283-6.259,16.9-4.417C110.076,456.722,99.086,473.23,85.308,488.637Z" fill="#c1d8ed"></path>
  <g>
    <path d="M181.612,286.8h-14.7V229.711H148.092V217.478h52.343v12.233H181.612Z" fill="#fff"></path>
    <path d="M267.9,286.8H253.254V256.879H225.8V286.8H211.1V217.478h14.7v27.168h27.452V217.478H267.9Z" fill="#fff"></path>
    <path d="M327.835,286.8l-5.027-16.5h-25.27l-5.026,16.5H276.676l24.464-69.6h17.97l24.561,69.6ZM319.3,257.969q-6.97-22.426-7.848-25.366t-1.256-4.646q-1.565,6.07-8.961,30.012Z" fill="#fff"></path>
    <path d="M413.889,286.8h-18.68l-30.154-52.44h-.427q.9,13.895.9,19.819V286.8H352.394V217.478h18.539L401.041,269.4h.332q-.712-13.514-.711-19.107V217.478h13.227Z" fill="#fff"></path>
    <path d="M487.1,286.8h-16.69l-18.16-29.207-6.211,4.457V286.8h-14.7V217.478h14.7V249.2l5.785-8.155L470.6,217.478h16.309l-24.181,30.677Z" fill="#fff"></path>
    <path d="M546.478,246.021l14.461-28.543h15.836l-23,42.34V286.8h-14.6v-26.5l-23-42.815h15.931Z" fill="#fff"></path>
    <path d="M648.417,252.043q0,17.21-8.534,26.457t-24.466,9.245q-15.93,0-24.465-9.245t-8.534-26.552q0-17.306,8.557-26.433t24.537-9.128q15.978,0,24.441,9.2T648.417,252.043Zm-50.59,0q0,11.618,4.409,17.5t13.181,5.88q17.589,0,17.591-23.375,0-23.423-17.5-23.422-8.772,0-13.228,5.9T597.827,252.043Z" fill="#fff"></path>
    <path d="M719.205,217.478v44.854a25.854,25.854,0,0,1-3.438,13.465,22.37,22.37,0,0,1-9.932,8.866,35.52,35.52,0,0,1-15.363,3.082q-13.37,0-20.766-6.852t-7.4-18.752V217.478H676.96v42.435q0,8.014,3.224,11.759t10.668,3.746q7.206,0,10.454-3.77t3.249-11.83v-42.34Z" fill="#fff"></path>
  </g>
</svg>