<svg xmlns="http://www.w3.org/2000/svg" version="1.1" xmlns:xlink="http://www.w3.org/1999/xlink" xmlns:svgjs="http://svgjs.dev/svgjs" viewBox="0 0 1920 1080"><rect width="1920" height="1080" fill="#5f85d8"></rect><g transform="matrix(7.04171909509728e-17,1.15,-1.15,7.04171909509728e-17,1553.121494293213,-531.9397184371946)"><path d="M0,-1080C0.3968634576687767,-973.4131882018355,10.196641487567774,-656.9851152178683,2.38118074601266,-440.4791292110134C-5.434279995542454,-223.97314320415856,-41.124417145952144,11.587035763818761,-46.892764449330684,219.03591604112898C-52.661111752709225,426.4847963184392,-30.869846879692588,590.6511955815595,-32.2289030742586,804.2141524528479C-33.587959268824605,1017.7771093241363,-60.4185854624365,1274.449349344334,-55.047101616726735,1500.4136572688594C-49.67561777101697,1726.3779651933849,-9.174516936121123,2050.0689428781434,0,2160L 1920 2160 L 1920 -1080 Z" fill="url(&quot;#SvgjsLinearGradient1115&quot;)"></path><path d="M640,-1080C630.1610500443606,-937.5993631700002,581.6311850604565,-495.99389971509174,580.9663002661638,-225.59617902000096C580.3014154718711,44.80154167508985,619.9084986374357,273.68298627254654,636.010691234244,542.3863241705449C652.1128838310522,811.0896620685432,676.91457105272,1117.0215690630798,677.5794558470127,1386.623848367989C678.2443406413054,1656.2261276728982,646.2632426411687,2031.103974727998,640,2160L 1920 2160 L 1920 -1080 Z" fill="url(&quot;#SvgjsLinearGradient1116&quot;)"></path><path d="M1280,-1080C1290.1898401310139,-1004.5355940301397,1332.5525647495751,-753.2746506380882,1341.1390407860831,-627.2135641808383C1349.725516822591,-501.1524777235883,1349.833587182209,-460.50583163716976,1331.5188562190476,-323.6334812565C1313.2041252558863,-186.7611308758302,1229.4177837026598,42.66853397408926,1231.2506550071155,194.02053810318046C1233.0835263115712,345.37254223227166,1325.7071167675124,449.2589115656634,1342.5160840457816,584.4785435180472C1359.3250513240507,719.698175470431,1352.4303863712098,880.9939088611535,1332.10445867673,1005.3383298174831C1311.7785309822502,1129.6827507738126,1219.8687382379705,1214.6684290730157,1220.560517878903,1330.5450692560246C1221.2522975198356,1446.4217094390335,1326.3485561688085,1562.355682458207,1336.2551365223246,1700.5981709155362C1346.1617168758407,1838.8406593728655,1289.3758560870542,2083.4330284859225,1280,2160L 1920 2160 L 1920 -1080 Z" fill="url(&quot;#SvgjsLinearGradient1117&quot;)"></path></g><defs><linearGradient x1="0.1" y1="0" x2="0" y2="1" id="SvgjsLinearGradient1115"><stop stop-color="#5f85d8" offset="0"></stop><stop stop-color="#5f99d8" offset="0"></stop></linearGradient><linearGradient x1="0.1" y1="0" x2="0" y2="1" id="SvgjsLinearGradient1116"><stop stop-color="#26282B" offset="0"></stop><stop stop-color="#353941" offset="0.3333333333333333"></stop></linearGradient><linearGradient x1="0.1" y1="0" x2="0" y2="1" id="SvgjsLinearGradient1117"><stop stop-color="#3a8559" offset="0"></stop><stop stop-color="#3a8559" offset="0.6666666666666666"></stop></linearGradient></defs></svg>