<svg id="Layer_1" data-name="Layer 1" xmlns="http://www.w3.org/2000/svg" viewBox="0 0 727.97 656.609">
  <g>
    <circle cx="359.76" cy="328.305" r="328.305" fill="#367cff" opacity="0.1"></circle>
    <g>
      <g>
        <path d="M725.762,231.17l-93.35,281.91a43.285,43.285,0,0,1-54.7,27.49l-213.19-70.59-13.28-56.91,73.68-44.75-29.44-80.48,5.86-7.68,9.5-12.45,31.68-41.53-30.39-87.78,38.6-43.9,247.55,81.97A43.279,43.279,0,0,1,725.762,231.17Z" fill="#367cff"></path>
        <path d="M602.927,468.7a40.011,40.011,0,0,1-71.839,9.045c-6.22-10-8.47-22.4-4.519-34.329a39.826,39.826,0,0,1,24.115-24.849A40.011,40.011,0,0,1,602.927,468.7Z" fill="#fff"></path>
        <path d="M516.771,473a40.22,40.22,0,1,1,19.6-59.178c-10.96,4.314-18.276,13.542-22.227,25.473S510.393,463.477,516.771,473Z" fill="#262626"></path>
        <path d="M417.342,277.66a7.406,7.406,0,0,1-7.029,5.08,7.518,7.518,0,0,1-2.321-.38l-6.65-2.2,9.5-12.45,1.8.6A7.4,7.4,0,0,1,417.342,277.66Z" fill="#fff"></path>
        <rect x="436.877" y="292.458" width="94.998" height="14.798" rx="7.399" transform="translate(118.811 -137.06) rotate(18.321)" fill="#fff"></rect>
        <rect x="549.006" y="329.587" width="94.998" height="14.798" rx="7.399" transform="translate(136.165 -170.424) rotate(18.321)" fill="#fff"></rect>
      </g>
      <g>
        <path d="M282.942,470.7l37.68,44.67L94.682,549.89a43.285,43.285,0,0,1-49.33-36.25L.5,220.07a43.28,43.28,0,0,1,36.25-49.32l190.16-29.05-14.45,56.64,66.94,64.4-9.37,51.39-2.81,15.4-1.73,9.5,62.77,58.34Z" fill="#367cff"></path>
        <rect x="54.528" y="215.449" width="91.999" height="68.371" rx="17.709" transform="translate(-36.55 18.046) rotate(-8.687)" fill="#fff"></rect>
        <rect x="69.124" y="337.655" width="94.998" height="14.798" rx="7.399" transform="translate(-50.776 21.572) rotate(-8.687)" fill="#fff"></rect>
        <path d="M270.032,314.13l-2.81,15.4-72.36,11.05a7.387,7.387,0,0,1-8.43-6.19,7.268,7.268,0,0,1-.09-1.13,7.389,7.389,0,0,1,6.28-7.3Z" fill="#fff"></path>
      </g>
      <polygon points="240.908 101.271 204.299 70.18 236.516 54.521 240.908 101.271" fill="#367cff"></polygon>
      <polygon points="315.375 110.809 340.5 89.584 342.696 112.959 315.375 110.809" fill="#367cff"></polygon>
    </g>
  </g>
</svg>