<svg id="Layer_1" data-name="Layer 1" xmlns="http://www.w3.org/2000/svg" viewBox="0 0 924.27 747.828">
  <path d="M924.27,725.549H0c10.128-27.42,28.831-50.683,55.2-57.585,38.568-10.082,79.383,17.641,117.865,7.217,21.863-5.916,39.075-23.156,57.162-37.472C298.457,583.694,391.962,567.73,472.7,596.32c42.2,14.937,80.661,41.058,123.894,52.164,55.906,14.365,114.37,2.452,171.862.489C824.452,647.063,904.678,671.286,924.27,725.549Z" fill="#f3f5fd"></path>
  <rect x="212.899" width="463.323" height="601.043" fill="#dee8f5"></rect>
  <rect x="448.7" y="388.665" width="188.609" height="57.32" fill="#262626"></rect>
  <rect x="246.416" y="92.64" width="198.144" height="123.285" fill="#0cbc8b"></rect>
  <g>
    <g>
      <rect x="259.316" y="368.281" width="172.776" height="130.195" fill="#c1d8ed"></rect>
      <g>
        <polygon points="280.26 459.241 310.726 432.73 345.249 459.241 280.26 459.241" fill="#fff"></polygon>
        <polygon points="316.133 459.241 370.335 420.316 411.148 459.241 316.133 459.241" fill="#fff"></polygon>
        <circle cx="333.794" cy="414.253" r="6.737" fill="#fff"></circle>
      </g>
    </g>
    <g>
      <rect x="259.316" y="43.441" width="172.776" height="12.313" fill="#fff"></rect>
      <rect x="259.316" y="73.806" width="172.776" height="12.313" fill="#fff"></rect>
      <rect x="259.316" y="104.171" width="172.776" height="12.313" fill="#fff"></rect>
      <rect x="259.316" y="131.391" width="172.776" height="12.313" fill="#fff"></rect>
    </g>
    <g>
      <rect x="259.316" y="160.795" width="172.776" height="12.313" fill="#fff"></rect>
      <rect x="259.316" y="191.16" width="172.776" height="12.313" fill="#fff"></rect>
      <rect x="259.316" y="221.525" width="172.776" height="12.313" fill="#fff"></rect>
      <rect x="259.316" y="248.744" width="172.776" height="12.313" fill="#fff"></rect>
    </g>
    <g>
      <rect x="259.316" y="278.148" width="172.776" height="12.313" fill="#fff"></rect>
      <rect x="259.316" y="308.513" width="172.776" height="12.313" fill="#fff"></rect>
      <rect x="259.316" y="338.878" width="172.776" height="12.313" fill="#fff"></rect>
    </g>
    <g>
      <rect x="259.316" y="517.225" width="172.776" height="12.313" fill="#fff"></rect>
      <rect x="259.316" y="547.59" width="172.776" height="12.313" fill="#fff"></rect>
    </g>
  </g>
  <g>
    <g>
      <rect x="456.229" y="45.334" width="172.776" height="130.195" fill="#c1d8ed"></rect>
      <g>
        <polygon points="477.173 136.294 507.64 109.783 542.162 136.294 477.173 136.294" fill="#fff"></polygon>
        <polygon points="513.046 136.294 567.249 97.37 608.061 136.294 513.046 136.294" fill="#fff"></polygon>
        <circle cx="530.707" cy="91.306" r="6.737" fill="#fff"></circle>
      </g>
    </g>
    <g>
      <rect x="456.229" y="190.06" width="172.776" height="12.313" fill="#fff"></rect>
      <rect x="456.229" y="220.425" width="172.776" height="12.313" fill="#fff"></rect>
      <rect x="456.229" y="250.79" width="172.776" height="12.313" fill="#fff"></rect>
      <rect x="456.229" y="278.01" width="172.776" height="12.313" fill="#fff"></rect>
    </g>
    <g>
      <rect x="456.229" y="307.413" width="172.776" height="12.313" fill="#fff"></rect>
      <rect x="456.229" y="337.778" width="172.776" height="12.313" fill="#fff"></rect>
      <rect x="456.229" y="368.143" width="172.776" height="12.313" fill="#fff"></rect>
      <rect x="456.229" y="395.363" width="172.776" height="12.313" fill="#fff"></rect>
    </g>
    <g>
      <rect x="456.229" y="424.766" width="172.776" height="12.313" fill="#fff"></rect>
      <rect x="456.229" y="455.131" width="172.776" height="12.313" fill="#fff"></rect>
      <rect x="456.229" y="485.496" width="172.776" height="12.313" fill="#fff"></rect>
    </g>
    <g>
      <rect x="456.229" y="517.225" width="172.776" height="12.313" fill="#fff"></rect>
      <rect x="456.229" y="547.59" width="172.776" height="12.313" fill="#fff"></rect>
    </g>
  </g>
  <g>
    <rect x="486.103" y="656.176" width="62.516" height="66.861" transform="translate(1034.722 1379.213) rotate(-180)" fill="#d7e8f4"></rect>
    <rect x="466.737" y="656.176" width="62.516" height="66.861" transform="translate(995.99 1379.213) rotate(-180)" fill="#fff"></rect>
    <g>
      <polygon points="484.951 672.115 484.951 685.163 484.951 725.549 553.376 725.549 553.376 685.163 553.376 672.115 484.951 672.115" fill="#c1d8ed"></polygon>
      <rect x="464.192" y="672.115" width="68.425" height="53.434" fill="#dee8f5"></rect>
      <rect x="464.192" y="672.115" width="68.425" height="4.006" fill="#c1d8ed"></rect>
      <rect x="489.245" y="682.847" width="18.32" height="8.023" rx="1.986" fill="#fff"></rect>
    </g>
    <g>
      <rect x="485.337" y="651.525" width="68.425" height="13.048" transform="translate(959.947 1371.499) rotate(-173.394)" fill="#c1d8ed"></rect>
      <rect x="464.716" y="649.137" width="68.425" height="13.048" transform="translate(919.116 1364.366) rotate(-173.394)" fill="#dee8f5"></rect>
    </g>
    <path d="M489.186,666.3H466.737a8.073,8.073,0,0,0-2.545,3.832S471.939,667.773,489.186,666.3Z" fill="#dee8f5"></path>
  </g>
  <g>
    <g>
      <path d="M151.084,314.083s7.732-4.1,6.006-25.156l15.973-2.962s-1.795,18.878,6.288,24.872Z" fill="#E98862"></path>
      <g opacity="0.15">
        <path d="M176.08,306.89l-13.272-10.153,10.424-.108A28.747,28.747,0,0,0,176.08,306.89Z"></path>
      </g>
      <path d="M148.025,280.765c1.106,6.389,4.592,12.438,10.227,14.5,6.69,2.449,11.645,2.615,19.358,2.615,10.525,0,10.177-10.976,10.473-22.038.3-11.106-.586-23.018-4.746-26.888-8.3-7.725-32.674-2.833-35.638,10.087C146.163,265.722,146.972,274.682,148.025,280.765Z" fill="#E98862"></path>
      <path d="M193.724,255.373s4.311-.963,3.13-5.261c-.782-2.85-4.434-2.217-4.434-2.217s3.458-.633,3.458-3.652c0-1.9-1.462-5.125-5.871-3.283-5.174,2.161-11.074,1.883-15.561,1.129A51.735,51.735,0,0,0,166.739,241h-.014a29.69,29.69,0,0,0-8.814,1.179c-8.02,2.4-20.157,9.591-17.577,25.893,2.88,18.194,11.418,25.152,15.174,27.384a1.712,1.712,0,0,0,2.518-.957c1.065-3.409,2.9-11.989,2.387-29.681,24.652-1.21,31.745-1.576,31.745-1.576s5.8.217,5.8-4.022S193.724,255.373,193.724,255.373Z" fill="#0f1011"></path>
      <g>
        <circle cx="173.044" cy="274.392" r="1.449" fill="#0f1011"></circle>
        <circle cx="184.475" cy="273.455" r="1.449" fill="#0f1011"></circle>
        <path d="M186.986,270.367h-.009l-3.839-.048a.681.681,0,0,1,.009-1.361h.009l3.839.048a.681.681,0,0,1-.009,1.361Z" fill="#0f1011"></path>
        <path d="M169.916,271.767a.681.681,0,0,1-.158-1.343l3.784-.91a.681.681,0,1,1,.318,1.324l-3.784.91A.679.679,0,0,1,169.916,271.767Z" fill="#0f1011"></path>
      </g>
      <path d="M165.506,277.938a6.143,6.143,0,1,1-12.23,1.173c-.005-.057-.01-.115-.014-.173a6.041,6.041,0,0,1,5.414-6.607c.069-.007.137-.012.206-.017C163.263,272.175,165.229,274.557,165.506,277.938Z" fill="#E98862"></path>
      <g opacity="0.15">
        <path d="M179.476,282.43a.5.5,0,0,1-.146-.978l2.946-.9-2.062-4.591a.5.5,0,1,1,.912-.41l2.295,5.107a.5.5,0,0,1,0,.411.5.5,0,0,1-.309.272l-3.488,1.071A.47.47,0,0,1,179.476,282.43Z"></path>
      </g>
      <path d="M173.714,285.8s5.349.564,9.1-.746c0,0-.03,3.523-4.263,3.87S173.714,285.8,173.714,285.8Z" fill="#fff"></path>
    </g>
    <g>
      <path d="M258.863,314.156s.15-12.01,8.735-11.386c5.416.394,31.151-.8,31.534,1.544.948,5.8-22.592,7.218-24.728,12.623Z" fill="#E98862"></path>
      <path d="M264.555,303.155s11.949-3.894,14.886-3.2c2.6.617-2.82,4.85-2.82,4.85Z" fill="#E98862"></path>
    </g>
    <path d="M258.121,714.727l-20.854-2.478c.939-7.894,2-17.374,2.072-18.929,0,.1,0,.182,0,.245h21C260.334,694.194,260.334,696.11,258.121,714.727Z" fill="#E98862"></path>
    <path d="M164.445,717.238l-21-.068s.07-21.685.07-23.6h21C164.515,695.491,164.445,717.238,164.445,717.238Z" fill="#E98862"></path>
    <path d="M229.363,712.035l36.01-8.5C242.063,612,222.5,518.578,203.546,426.065l-.267.079-.781-5.33-76.077-4.7s-2.031,37.261-1.918,49.693c.339,37.116,8.668,162.443,13.488,243.6l36.951-1.893c-2.174-78.7-6.047-157.514-5.625-236.235C191.444,550.921,211.512,631.412,229.363,712.035Z" fill="#262626"></path>
    <path d="M189.973,725.365a4.108,4.108,0,0,0,4.088-4.127q0-.15-.012-.3h0a4.11,4.11,0,0,0-2.658-3.53l-24.443-8.186a3.463,3.463,0,0,0-2.872.319,19.1,19.1,0,0,1-11.468,3.4,17.022,17.022,0,0,1-8.82-3.222,1.547,1.547,0,0,0-2.528,1.2v11.952a2.678,2.678,0,0,0,2.678,2.678h.011Z" fill="#c1d8ed"></path>
    <path d="M283.707,725.365a4.108,4.108,0,0,0,4.088-4.127q0-.15-.012-.3h0a4.107,4.107,0,0,0-2.659-3.53l-24.442-8.186a3.466,3.466,0,0,0-2.873.319,19.1,19.1,0,0,1-11.467,3.4,17.028,17.028,0,0,1-8.821-3.222,1.546,1.546,0,0,0-2.527,1.2v11.952a2.677,2.677,0,0,0,2.676,2.678h.013Z" fill="#c1d8ed"></path>
    <path d="M257.851,307.139,236.3,347.373l-32.24-30.157a16.486,16.486,0,0,0-5.919-5.538l-.154-.143-.036.039a26.738,26.738,0,0,0-11.729-2.845c-.63-.03-1.64-.05-2.94-.07-.26,5.5-34.32,5.48-35.04-.13-9.62.01-17.51,2.96-22.08,7.53-15.75,15.75,3.58,42.59,3.58,63.59s-9.5,30.42-8.8,41.2c1.1,16.94,83.43,12.94,87.619,3.31,2.453-5.632.687-10.044-1.227-18.74l19.536-.6-.664-21.794-21.6.658c-.093-2.486-.134-5.149-.1-8.028.1-8.479,1.526-17.892,2.517-26.919l24.912,23.3a10.5,10.5,0,0,0,16.428-2.711l28-52.28Z" fill="#367CFF"></path>
    <path d="M183.287,308.659c-.26,5.5-3.25,13.59-12.48,14.2-12.3.81-21.84-8.72-22.56-14.33h.03C160.387,308.529,176.227,308.549,183.287,308.659Z" fill="#E98862"></path>
    <g>
      <g>
        <path d="M221.728,331.044l-12.143,50.971a5.4,5.4,0,0,0,5.252,6.65h71.584a5.4,5.4,0,0,0,5.206-3.97l13.991-50.971a5.4,5.4,0,0,0-5.206-6.827H226.98A5.4,5.4,0,0,0,221.728,331.044Z" fill="#9ebcea"></path>
        <path d="M184.1,382.32h86.519a3.172,3.172,0,0,1,3.172,3.172h0a3.172,3.172,0,0,1-3.172,3.172H184.1a3.172,3.172,0,0,1-3.172-3.172h0A3.172,3.172,0,0,1,184.1,382.32Z" fill="#9ebcea"></path>
      </g>
      <circle cx="260.533" cy="357.277" r="8.466" fill="#fff"></circle>
    </g>
    <path d="M244.228,395.355c-4.489,2.77-11.439,4.08-17.5,4.56l-.34-11.04c2.851-.08,7.231-.38,11.52-.21,1.939-1.581,3.055-2.05,5.044-4.04,2.119-2.118,7.677-3.39,8.726,0S248.169,392.915,244.228,395.355Z" fill="#E98862"></path>
  </g>
  <g>
    <g>
      <rect x="317.373" y="241.96" width="3.953" height="29.928" transform="translate(638.699 513.848) rotate(-180)" fill="#0cbc8b"></rect>
      <rect x="317.373" y="235.215" width="3.953" height="13.491" transform="translate(561.31 -77.39) rotate(90)" fill="#0cbc8b"></rect>
      <rect x="317.373" y="264.392" width="3.953" height="13.491" transform="translate(590.487 -48.212) rotate(90)" fill="#0cbc8b"></rect>
    </g>
    <rect x="332.43" y="265.956" width="73.355" height="29.852" fill="#0cbc8b"></rect>
  </g>
  <g>
    <g>
      <rect x="561.839" y="476.892" width="3.953" height="29.928" fill="#262626"></rect>
      <rect x="561.839" y="470.147" width="3.953" height="13.491" transform="translate(1040.708 -86.923) rotate(90)" fill="#262626"></rect>
      <rect x="561.839" y="499.324" width="3.953" height="13.491" transform="translate(1069.885 -57.746) rotate(90)" fill="#262626"></rect>
    </g>
    <rect x="477.381" y="500.888" width="73.355" height="29.852" transform="translate(1028.116 1031.628) rotate(-180)" fill="#262626"></rect>
  </g>
  <g>
    <g>
      <path d="M651.807,508.172s-7.58,27.159-11.838,41.252a4.464,4.464,0,0,0,4.281,5.759h26.6a4.471,4.471,0,0,0,4.466-4.259l1.793-37.807Z" fill="#0f1011"></path>
      <path d="M692.573,568.586s-7.737-4.092-6.029-25.151l-15.979-2.948s1.812,18.877-6.265,24.878Z" fill="#E98862"></path>
      <path d="M667.57,561.416l13.263-10.166-10.424-.1A28.745,28.745,0,0,1,667.57,561.416Z" opacity="0.15"></path>
      <path d="M695.6,535.263c-1.1,6.389-4.581,12.442-10.215,14.51a40.466,40.466,0,0,1-19.355,2.633c-17.491-1.418-14.067-41.189-5.77-48.921s32.67-2.862,35.646,10.055C697.447,520.221,696.649,529.186,695.6,535.263Z" fill="#E98862"></path>
      <g>
        <circle cx="670.577" cy="528.915" r="1.449" fill="#0f1011"></circle>
        <circle cx="659.145" cy="527.988" r="1.449" fill="#0f1011"></circle>
        <line x1="660.47" y1="524.17" x2="656.631" y2="524.222" fill="none" stroke="#0f1011" stroke-linecap="round" stroke-miterlimit="10" stroke-width="1.362"></line>
        <line x1="673.701" y1="525.606" x2="669.916" y2="524.699" fill="none" stroke="#0f1011" stroke-linecap="round" stroke-miterlimit="10" stroke-width="1.362"></line>
        <path d="M669.917,540.327s-5.348.569-9.1-.737c0,0,.033,3.522,4.266,3.866S669.917,540.327,669.917,540.327Z" fill="#fff"></path>
      </g>
      <g opacity="0.15">
        <path d="M664.152,536.959a.5.5,0,0,0,.146-.979l-2.947-.9,2.058-4.593a.5.5,0,1,0-.912-.408l-2.521,5.626,4.029,1.234A.5.5,0,0,0,664.152,536.959Z"></path>
      </g>
      <path d="M650.9,511.428s2.561-20.713,35.75-15.626c8.274,1.268,20,7.728,21.9,28.9.868,9.712,4.216,18.869,6.77,24.665a4.471,4.471,0,0,1-4.083,6.286l-23.33.008a4.464,4.464,0,0,1-4.472-4.456c0-.065,0-.131,0-.2.168-3.971.3-10.694.074-20.97-1.213-5.865,2.018-10-2.672-8.652C663.418,526.38,652.2,511.763,650.9,511.428Z" fill="#0f1011"></path>
      <path d="M677.9,535.154a6.143,6.143,0,1,0,12.246.993,6.041,6.041,0,0,0-5.422-6.6c-.068-.007-.136-.012-.2-.017C680.14,529.386,678.174,531.772,677.9,535.154Z" fill="#E98862"></path>
    </g>
    <g>
      <path d="M629.294,723.2c-1.9-.319-23.335-3.98-23.335-3.98l3.535-20.7s21.377,3.651,23.27,3.969Z" fill="#E98862"></path>
      <path d="M593.731,743.06a4.108,4.108,0,0,0,3.693,4.752h0a4.11,4.11,0,0,0,3.92-2.039l12.111-22.755a3.461,3.461,0,0,0,.16-2.885,19.1,19.1,0,0,1-1.46-11.872,17.028,17.028,0,0,1,4.635-8.168,1.547,1.547,0,0,0-.768-2.691l-11.787-1.974a2.679,2.679,0,0,0-3.086,2.21Z" fill="#c1d8ed"></path>
    </g>
    <path d="M695.65,667.216c8.895.371,17.955.631,27.015.855l13.616.3,13.6.245,1.355.024a22.2,22.2,0,0,1,2.277,44.232l-134.4,16.32-5.476-39.721,133.8-20.655,3.632,44.257-13.809.892-13.8.834c-9.215.533-18.433,1.031-27.817,1.416Z" fill="#262626"></path>
    <g>
      <path d="M729.553,714.506c-18.554-2.7-20.4-3.2-21.012-3.359L714,690.868c-.062-.016-.142-.038-.239-.059,1.521.332,10.951,1.772,18.816,2.916Z" fill="#E98862"></path>
      <path d="M752.731,732.557a4.107,4.107,0,0,1-2.724,5.366h0a4.109,4.109,0,0,1-4.235-1.258l-16.211-20.042a3.46,3.46,0,0,1-.7-2.8,19.109,19.109,0,0,0-.82-11.933,17.028,17.028,0,0,0-6.1-7.139,1.547,1.547,0,0,1,.243-2.788l11.2-4.176a2.678,2.678,0,0,1,3.448,1.584Z" fill="#c1d8ed"></path>
    </g>
    <path d="M665.808,712.616c-5.632-.479-11.261-.825-16.89-1.15-5.629-.3-11.257-.6-16.883-.8l-8.44-.325-8.439-.243c-5.626-.188-11.25-.265-16.874-.372l1.949-40.409c10.529,1.472,21.072,2.825,31.612,4.211s21.091,2.662,31.64,3.96l15.834,1.866,15.844,1.776c10.569,1.136,21.138,2.264,31.731,3.194l-4.648,39.83c-10.522-1.534-21.067-2.87-31.613-4.2l-15.828-1.92-15.838-1.83c-10.565-1.166-21.128-2.351-31.7-3.432s-21.147-2.189-31.732-3.181a20.231,20.231,0,0,1,.7-40.338l1.252-.071c5.616-.329,11.233-.629,16.847-1.038l8.422-.577,8.421-.658c5.614-.423,11.226-.948,16.838-1.468,5.612-.546,11.223-1.115,16.832-1.816Z" fill="#262626"></path>
    <polygon points="716.085 661.082 719.045 710.787 633.555 709.783 640.008 665.777 716.085 661.082" fill="#262626"></polygon>
    <path d="M744.623,649.843,721.967,579.6a20.058,20.058,0,0,0-5.628-9.574c-4.57-4.57-12.46-7.52-22.08-7.53-.72,5.61-34.78,5.63-35.04.13-1.3.02-2.31.04-2.94.07-13.76.593-19.3,5.889-21.058,13.862l-28.884,69.891a10.5,10.5,0,0,0,11.186,14.406l15.78-2.249c-.777,3.931-.9,6.987.636,10.52,4.19,9.63,86.52,13.63,87.62-3.31.011-.166.012-.331.018-.5l13.68-1.272a10.9,10.9,0,0,0,9.366-14.2ZM632.771,637.468l5.221-12.634c-.058,4.52-.3,8.485-.647,11.983Zm86.927,6.126-3.993.372a64.112,64.112,0,0,1-2.946-19.351c0-.765.033-1.524.081-2.281Z" fill="#367CFF"></path>
    <g>
      <g>
        <path d="M687.645,596.1l3.534,52.679a4.545,4.545,0,0,1-4.534,4.849H613.068a4.545,4.545,0,0,1-4.521-4.077L603.1,596.875a4.545,4.545,0,0,1,4.521-5.012h75.488A4.544,4.544,0,0,1,687.645,596.1Z" fill="#9ebcea"></path>
        <rect x="616.042" y="647.287" width="83.65" height="6.344" rx="3.172" transform="translate(1315.733 1300.918) rotate(180)" fill="#9ebcea"></rect>
      </g>
      <circle cx="645.192" cy="622.747" r="7" fill="#fff"></circle>
    </g>
    <path d="M655.277,660.321c4.49,2.77,11.44,4.08,17.5,4.56l.34-11.04c-2.85-.08-7.23-.38-11.52-.21-1.938-1.58-3.054-2.05-5.044-4.04-2.118-2.118-7.676-3.39-8.726,0S651.337,657.881,655.277,660.321Z" fill="#E98862"></path>
    <path d="M659.219,562.625c.26,5.5,3.25,13.59,12.48,14.2,12.3.81,21.84-8.72,22.56-14.33h-.03C682.119,562.5,666.279,562.515,659.219,562.625Z" fill="#E98862"></path>
  </g>
</svg>