<svg id="Layer_1" data-name="Layer 1" xmlns="http://www.w3.org/2000/svg" viewBox="0 0 656.609 720.356">
  <g>
    <circle cx="328.305" cy="392.051" r="328.305" fill="#367cff" opacity="0.1"></circle>
    <g>
      <path d="M219.864,185.827a1,1,0,0,1-.814-1.578c.184-.262,18.258-26.39-1.918-50.209a38.006,38.006,0,0,0-29.1-13.517h-.266c1.916,6.656,1.574,12.574-1.139,17.114a12.646,12.646,0,0,1-11.681,6.42,10.039,10.039,0,0,1-8.678-6.752c-2.219-5.788.1-11.4,6.211-15.017a29.49,29.49,0,0,1,12.589-3.62,53.3,53.3,0,0,0-5.565-10.822c-7.285-11.126-20.563-18.827-36.429-21.13-13.445-1.952-26.331.346-32.832,5.852a1,1,0,0,1-1.293-1.526c6.919-5.86,20.426-8.337,34.412-6.305,16.434,2.385,30.216,10.409,37.816,22.014a54.257,54.257,0,0,1,5.968,11.815,39.974,39.974,0,0,1,31.508,14.18c21.194,25.019,2.218,52.386,2.024,52.659A1,1,0,0,1,219.864,185.827ZM185.717,120.6A27.835,27.835,0,0,0,173.5,124.01c-5.276,3.123-7.23,7.708-5.363,12.58a8.106,8.106,0,0,0,6.984,5.476,10.67,10.67,0,0,0,9.791-5.454C187.406,132.442,187.635,126.9,185.717,120.6Z" fill="#292a2e"></path>
      <g>
        <path d="M92.985,108.7a6.8,6.8,0,1,1,.683-.245A6.872,6.872,0,0,1,92.985,108.7ZM89.66,97.583a5.06,5.06,0,0,0-.478.172,4.795,4.795,0,1,0,.478-.172Z" fill="#292a2e"></path>
        <path d="M92.972,93.022a6.8,6.8,0,0,1-8.215-3.886h0a6.8,6.8,0,1,1,8.9,3.64A7.142,7.142,0,0,1,92.972,93.022ZM89.651,81.908a4.872,4.872,0,0,0-.482.173A4.8,4.8,0,0,0,86.6,88.362h0a4.8,4.8,0,1,0,3.051-6.455Z" fill="#292a2e"></path>
        <ellipse cx="91.032" cy="94.155" rx="8.892" ry="5.939" fill="#fff"></ellipse>
        <path d="M94.965,100.53a13.714,13.714,0,0,1-3.927.564c-5.547,0-9.895-3.04-9.9-6.931s4.34-6.942,9.886-6.947a12.426,12.426,0,0,1,6.845,1.9,5.676,5.676,0,0,1,.008,10.062A10.858,10.858,0,0,1,94.965,100.53ZM87.706,89.7c-2.672.8-4.567,2.526-4.565,4.466,0,2.678,3.617,4.936,7.895,4.933a10.411,10.411,0,0,0,5.731-1.577,3.706,3.706,0,0,0-.006-6.735,10.409,10.409,0,0,0-5.733-1.566A11.6,11.6,0,0,0,87.706,89.7Z" fill="#292a2e"></path>
        <polygon points="93.213 99.912 93.003 88.363 90.131 88.246 89.93 100.047 93.213 99.912" fill="#292a2e"></polygon>
        <circle cx="79.235" cy="95.749" r="0.918" fill="#292a2e"></circle>
        <circle cx="79.952" cy="90.837" r="0.918" fill="#292a2e"></circle>
      </g>
    </g>
    <g>
      <path d="M384.645,132.766a1,1,0,0,1-.956-.707,99.213,99.213,0,0,1-2.606-38.021c2.585-18.6,12.842-43.011,47.03-53.7a88.341,88.341,0,0,1,14.748-3.381C444.471,26.9,450.6,15.981,464.3,8.451c32.563-17.892,54.558-1.839,54.776-1.675a1,1,0,0,1-1.2,1.6c-.208-.156-21.228-15.417-52.611,1.829-12.806,7.037-18.669,17.137-20.336,26.513,15.079-1.485,22.3,3.545,25.541,7.344A15.489,15.489,0,0,1,472.789,61a12.1,12.1,0,0,1-11.835,6.909c-8.421-.494-15.39-7.578-17.752-18.048a34,34,0,0,1-.614-10.8,85.533,85.533,0,0,0-13.877,3.191c-26.645,8.331-42,25.85-45.648,52.067a96.963,96.963,0,0,0,2.538,37.16,1,1,0,0,1-.956,1.293Zm59.982-93.955a32.014,32.014,0,0,0,.526,10.609c2.161,9.578,8.409,16.051,15.918,16.492a10.179,10.179,0,0,0,9.928-5.8,13.5,13.5,0,0,0-2.048-14.749C464.275,39.876,455.742,37.66,444.627,38.811Z" fill="#292a2e"></path>
      <g>
        <path d="M542.374,16.884a7.142,7.142,0,1,1,6.993-8.659h0a7.156,7.156,0,0,1-6.993,8.659ZM542.389,4.6a5.141,5.141,0,1,0,5.023,4.051A5.1,5.1,0,0,0,542.389,4.6Z" fill="#292a2e"></path>
        <path d="M539.362,33.205a7.162,7.162,0,1,1,1.53-.165A7.173,7.173,0,0,1,539.362,33.205Zm.026-12.285a5.173,5.173,0,0,0-1.1.119,5.112,5.112,0,1,0,1.1-.119Z" fill="#292a2e"></path>
        <ellipse cx="540.846" cy="18.098" rx="6.289" ry="9.416" transform="translate(424.901 546.68) rotate(-79.545)" fill="#fff"></ellipse>
        <path d="M542.224,25.516a14.966,14.966,0,0,1-2.7-.25,13.1,13.1,0,0,1-6.729-3.286,6.419,6.419,0,0,1-2.191-5.772,6.422,6.422,0,0,1,4.107-4.61A13.946,13.946,0,0,1,548.9,14.216a6.419,6.419,0,0,1,2.191,5.772,6.422,6.422,0,0,1-4.107,4.61A12.088,12.088,0,0,1,542.224,25.516Zm-2.762-12.838a10.072,10.072,0,0,0-3.961.757,4.509,4.509,0,0,0-2.931,3.136,4.5,4.5,0,0,0,1.619,3.975,11.966,11.966,0,0,0,12,2.215,4.506,4.506,0,0,0,2.93-3.136h0A4.506,4.506,0,0,0,547.5,15.65a11.084,11.084,0,0,0-5.7-2.753A12.957,12.957,0,0,0,539.462,12.678Z" fill="#292a2e"></path>
        <polygon points="539.688 11.682 537.677 23.748 540.644 24.424 543.132 12.175 539.688 11.682" fill="#292a2e"></polygon>
        <circle cx="551.743" cy="23.691" r="0.972" fill="#292a2e"></circle>
        <circle cx="553.437" cy="18.715" r="0.972" fill="#292a2e"></circle>
      </g>
    </g>
    <g>
      <path d="M555.459,200.3V573.8a16.069,16.069,0,0,1-16.069,16.069H67.219A16.069,16.069,0,0,1,51.15,573.8V273.22a16.07,16.07,0,0,1,16.069-16.069H350.436a16.069,16.069,0,0,0,16.069-16.069V200.3a16.069,16.069,0,0,1,16.069-16.069H539.39A16.069,16.069,0,0,1,555.459,200.3Z" fill="#367cff"></path>
      <path d="M539.39,590.868H67.22A17.089,17.089,0,0,1,50.15,573.8V273.22a17.089,17.089,0,0,1,17.07-17.068H350.437a15.087,15.087,0,0,0,15.069-15.07V200.3a17.088,17.088,0,0,1,17.068-17.069H539.39A17.088,17.088,0,0,1,556.459,200.3V573.8A17.088,17.088,0,0,1,539.39,590.868ZM67.22,258.152A15.086,15.086,0,0,0,52.15,273.22V573.8a15.086,15.086,0,0,0,15.07,15.069H539.39A15.086,15.086,0,0,0,554.459,573.8V200.3a15.086,15.086,0,0,0-15.069-15.069H382.574A15.086,15.086,0,0,0,367.506,200.3v40.779a17.089,17.089,0,0,1-17.069,17.07Z" fill="#262626"></path>
      <g>
        <path d="M585.459,200.3V573.8a16.069,16.069,0,0,1-16.069,16.069H97.219A16.069,16.069,0,0,1,81.15,573.8V273.22a16.07,16.07,0,0,1,16.069-16.069H380.436a16.069,16.069,0,0,0,16.069-16.069V200.3a16.069,16.069,0,0,1,16.069-16.069H569.39A16.069,16.069,0,0,1,585.459,200.3Z" fill="#fff"></path>
        <path d="M569.39,590.868H97.22A17.089,17.089,0,0,1,80.15,573.8V273.22a17.089,17.089,0,0,1,17.07-17.068H380.437a15.087,15.087,0,0,0,15.069-15.07V200.3a17.088,17.088,0,0,1,17.068-17.069H569.39A17.088,17.088,0,0,1,586.459,200.3V573.8A17.088,17.088,0,0,1,569.39,590.868ZM97.22,258.152A15.086,15.086,0,0,0,82.15,273.22V573.8a15.086,15.086,0,0,0,15.07,15.069H569.39A15.086,15.086,0,0,0,584.459,573.8V200.3a15.086,15.086,0,0,0-15.069-15.069H412.574A15.086,15.086,0,0,0,397.506,200.3v40.779a17.089,17.089,0,0,1-17.069,17.07Z" fill="#262626"></path>
      </g>
      <g>
        <g>
          <circle cx="295.206" cy="377.612" r="11.112" fill="#292a2e"></circle>
          <circle cx="371.403" cy="377.612" r="11.112" fill="#292a2e"></circle>
        </g>
        <rect x="318.406" y="406.602" width="29.797" height="2" fill="#262626"></rect>
      </g>
      <g opacity="0.1">
        <ellipse cx="283.743" cy="404.181" rx="9.913" ry="5.217" fill="#367cff"></ellipse>
        <ellipse cx="382.867" cy="404.181" rx="9.913" ry="5.217" fill="#367cff"></ellipse>
      </g>
    </g>
  </g>
</svg>