<svg id="Layer_1" data-name="Layer 1" xmlns="http://www.w3.org/2000/svg" viewBox="0 0 1034.726 578.525">
  <path d="M1034.726,578.525H0c11.338-28.913,32.276-53.441,61.792-60.717,43.177-10.631,88.87,18.6,131.951,7.608,24.476-6.237,43.745-24.415,63.993-39.509,76.388-56.952,181.068-73.785,271.459-43.64,47.247,15.749,90.3,43.291,138.7,55,62.587,15.147,128.038,2.586,192.4.516C922.979,495.769,1012.792,521.31,1034.726,578.525Z" fill="#f3f5fd"></path>
  <rect x="217.092" y="11.782" width="621.087" height="449.786" fill="#dee8f5"></rect>
  <rect x="347.635" y="130.481" width="360" height="225.902" fill="#fff"></rect>
  <polygon points="347.635 130.481 527.635 236.675 707.635 130.481 347.635 130.481" fill="#0cbc8b"></polygon>
  <rect x="217.092" y="11.782" width="621.087" height="37.051" fill="#c1d8ed"></rect>
  <circle cx="817.377" cy="30.307" r="9.296" fill="#fff"></circle>
  <g>
    <circle cx="662.164" cy="325.116" r="67.341" fill="#0cbc8b"></circle>
    <path d="M650.617,361.384a5,5,0,0,1-3.432-1.364l-25.58-24.136a5,5,0,1,1,6.864-7.274l21.871,20.638,45.247-49.861a5,5,0,0,1,7.406,6.72l-48.674,53.637a5,5,0,0,1-3.509,1.636C650.745,361.382,650.681,361.384,650.617,361.384Z" fill="#fff"></path>
  </g>
  <g>
    <path d="M108.405,192.058s-7.487-11.894-7.181-15.115,9.665-6.479,9.665-6.479-1.354-2.849-2.561-5.975c-1.392-3.607-2.589-7.585-1.283-7.981,1.259-.383,3.17,2.892,4.92,6.7,2.249,4.888,4.234,10.648,4.234,10.648s.207-5.689,2.311-5.327c.865.149,1.23,1.177,1.233,5.255,0,4.647.727,11.893.727,11.893Z" fill="#E98862"></path>
    <path d="M132.175,245.379a10.9,10.9,0,0,1-10.1-6.8l-19.6-48.266,20.2-8.2,5.934,14.614,4.658-23.28,21.381,4.279L142.87,236.616a10.9,10.9,0,0,1-9.666,8.714Q132.687,245.38,132.175,245.379Z" fill="#367CFF"></path>
    <path d="M96.793,206.248l12.122-1.934a3.426,3.426,0,0,0,2.761-4.3l-7.627-27.373a3.425,3.425,0,0,0-3.841-2.464l-12.122,1.934a3.426,3.426,0,0,0-2.761,4.3l7.627,27.373A3.426,3.426,0,0,0,96.793,206.248Z" fill="#c1d8ed"></path>
    <path d="M206.624,452.358c-18.178-4.591-19.967-5.277-20.555-5.5l7.512-19.61c-.059-.023-.136-.052-.23-.083,1.478.486,10.71,2.889,18.416,4.835Z" fill="#E98862"></path>
    <path d="M205.807,479.788a4.108,4.108,0,0,1-5.494,2.456h0a4.109,4.109,0,0,1-2.5-3.643l.014-25.778a3.463,3.463,0,0,1,1.217-2.621,19.1,19.1,0,0,0,6.872-9.79,17.034,17.034,0,0,0-.248-9.387,1.546,1.546,0,0,1,1.942-2.014l11.332,3.8a2.678,2.678,0,0,1,1.683,3.4Z" fill="#c1d8ed"></path>
    <path d="M156.863,569.792s-.07-21.747-.07-23.673h21c0,1.92.07,23.605.07,23.605Z" fill="#E98862"></path>
    <path d="M211.887,268.668c-13.474-13.474-76.077,4.7-76.077,4.7l-.057.391-1.282-.721C118.548,305.041,96,352.938,80.4,385.561a18.536,18.536,0,0,0,8.8,25.618l68.15,30.321c-3.5,38.439-7.518,76.847-10.863,115.225l36.715,4.582c6.672-45.786,13.533-91.519,19.659-137.362l1-2.248-.659-.293c3.757-28.243,8.079-56.453,10.194-84.9C215.193,312.312,219.136,275.917,211.887,268.668Zm-88.565,117.2c13.139-21.9,28.6-47.708,41.977-69.613-.686,28.763-2.391,57.505-4.631,86.229Z" fill="#262626"></path>
    <path d="M116.314,199.074l-7.149,9.7s-19.216-3.852-21.018-18.655c-.208-1.705-.028-6.42,2.083-5.787,5.5,1.648,12.344,10.087,17.144,11.21-1.095-1.961-2.431-4.731-1.57-5.237C108.071,188.973,114.165,197.01,116.314,199.074Z" fill="#E98862"></path>
    <path d="M188.521,164.647s-8.042-3.454-8.042-24.581l-16.165-1.647s3.332,18.669-4.234,25.3Z" fill="#E98862"></path>
    <g opacity="0.15">
      <path d="M163.02,159.521l12.4-11.2-10.4.744A28.748,28.748,0,0,1,163.02,159.521Z"></path>
    </g>
    <path d="M188.846,131.188c-.58,6.457-3.56,12.771-9.008,15.289a40.5,40.5,0,0,1-19.079,4.188c-17.548,0-17.35-39.918-9.706-48.295s32.333-5.493,36.343,7.141C189.47,116.046,189.4,125.041,188.846,131.188Z" fill="#E98862"></path>
    <g>
      <circle cx="163.391" cy="126.883" r="1.449" fill="#0f1011"></circle>
      <circle cx="151.921" cy="126.883" r="1.449" fill="#0f1011"></circle>
      <path d="M149.11,124.013a.68.68,0,0,1-.063-1.358l3.822-.362a.688.688,0,0,1,.741.614.68.68,0,0,1-.614.742l-3.821.361Z" fill="#0f1011"></path>
      <path d="M166.238,124.013a.619.619,0,0,1-.1-.008l-3.846-.6a.681.681,0,1,1,.208-1.346l3.847.6a.681.681,0,0,1-.1,1.353Z" fill="#0f1011"></path>
      <path d="M163.655,138.312s-5.284,1-9.128,0c0,0,.317,3.508,4.564,3.508S163.655,138.312,163.655,138.312Z" fill="#fff"></path>
    </g>
    <path d="M175.765,115.653c.862,29.174,5.1,31.845,5.1,31.845s13.8-9.919,14.263-27.519c.436-16.5-12.407-25.167-20.7-26.321-31.509-4.382-32.615,24.069-32.615,24.069,15.813,2.711,37.352-1.768,37.352-1.768" fill="#0f1011"></path>
    <path d="M171.193,129.8a6.143,6.143,0,1,0,12.285,0,6.04,6.04,0,0,0-6.142-6.142C172.961,123.874,171.193,126.409,171.193,129.8Z" fill="#E98862"></path>
    <circle cx="200.841" cy="105.973" r="14.006" fill="#0f1011"></circle>
    <path d="M212.957,168.61c-4.57-4.57-12.46-7.52-22.08-7.53-.72,5.61-34.78,5.63-35.04.13-1.3.02-2.31.04-2.94.07-23.117,1-23.049,19.628-20.775,40.219L113.1,193.11l-8.8,19.95,30.273,13.352q.03.9.042,1.8c.39,32.46-8.38,38.58-4.059,48.5,4.189,9.63,86.519,13.63,87.619-3.31.7-10.78-8.8-20.19-8.8-41.2S228.707,184.36,212.957,168.61Z" fill="#367CFF"></path>
    <path d="M155.837,161.21c.26,5.5,3.25,13.59,12.48,14.2,12.3.81,21.84-8.72,22.56-14.33h-.03C178.737,161.08,162.9,161.1,155.837,161.21Z" fill="#E98862"></path>
    <g opacity="0.15">
      <path d="M157.6,135.421a.5.5,0,0,1-.108-.012l-3.564-.783a.5.5,0,0,1-.364-.655l1.868-5.277a.5.5,0,0,1,.942.334l-1.679,4.743,3.012.662a.5.5,0,0,1-.107.988Z"></path>
    </g>
    <path d="M131.359,578.338a4.107,4.107,0,0,1-4.076-4.427h0a4.107,4.107,0,0,1,2.659-3.529l24.442-8.187a3.463,3.463,0,0,1,2.873.32,19.108,19.108,0,0,0,11.467,3.4,17.027,17.027,0,0,0,8.821-3.223,1.547,1.547,0,0,1,2.527,1.2v11.952a2.678,2.678,0,0,1-2.689,2.678Z" fill="#c1d8ed"></path>
  </g>
  <path d="M933.817,572.176c19.806-6.139,39.022-14.159,56.531-36.609,3.593-4.6,6.97-10.494,5-16-1.482-4.143-5.769-6.8-10.124-7.476a21.008,21.008,0,0,0-4.9-.135c-.009,0-.017.006-.019,0a41.348,41.348,0,0,0-7.414,1.455l-.691.2a122.083,122.083,0,0,0-32.669,14.754,4.811,4.811,0,0,1-6.7-6.55,29.091,29.091,0,0,1,3.58-4.7,46.279,46.279,0,0,1,6.514-5.649c3.114-2.271,6.436-4.3,9.687-6.373a268.5,268.5,0,0,0,34.241-25.875c7.64-6.807,15.111-14.359,18.743-23.928,1.668-4.4,2.427-9.473.437-13.737-3.284-7-12.586-8.963-20.194-7.51-13.329,2.553-23.978,12.324-33.421,22.064-7.831,8.093-16.606,17.054-27.857,17.551a9.85,9.85,0,0,1-5.546-1.113c-3.21-1.944-4.035-6.448-2.891-10.024s3.791-6.433,6.346-9.177c14.851-15.933,29.465-32.507,39.109-52.029s13.914-42.571,7.213-63.3c-1.964-6.06-4.916-11.956-9.522-16.358s-11.063-7.163-17.385-6.32c-8.613,1.135-15.1,8.4-19.464,15.908-15,25.754-14.083,57.309-18.308,86.809-1.182,8.259-2.9,16.729-7.82,23.527a5.565,5.565,0,0,1-1.726,1.61c-4.048,2.344-7.68-2.383-9.2-6.394-6-15.869-7.5-34.017-18.243-47.151-4.1-5-9.9-9.178-16.365-9.137-7.895.054-14.655,6.648-16.959,14.2s-.925,15.756,1.543,23.255c4.582,13.906,12.8,26.4,22.472,37.38,5.1,5.8,10.871,11.655,12.4,19.219A15.333,15.333,0,0,1,865.4,488.7a8.99,8.99,0,0,1-6.655,2.176c-2.592-.238-4.936-1.559-7.2-2.844-.948-.54-1.9-1.088-2.857-1.625q-5.66-3.224-11.321-6.453c-9.6-5.474-21.181-11.067-31.176-6.353-5.105,2.41-8.441,7.148-10.013,12.586a27.541,27.541,0,0,0,0,15.1c2.977,10.263,21.741,38.822,29.481,46.187C834.705,556.07,866.049,593.179,933.817,572.176Z" fill="#8ddbe0"></path>
</svg>