<svg id="Layer_1" data-name="Layer 1" xmlns="http://www.w3.org/2000/svg" viewBox="0 0 1041.599 694.852">
  <g>
    <g>
      <g>
        <path d="M849.3,567.088l-1.957-.413c.408-1.936.787-3.907,1.124-5.858l1.971.341C850.094,563.133,849.711,565.128,849.3,567.088Z" fill="#292a2e"></path>
        <path d="M693.145,694.852l-.015-2c3.968-.032,7.987-.216,11.944-.548l.167,1.993C701.234,694.633,697.165,694.82,693.145,694.852Zm-12.106-.359c-4.006-.27-8.058-.7-12.043-1.264l.282-1.979c3.937.561,7.939.981,11.9,1.248Zm36.217-1.663-.317-1.975c3.917-.63,7.862-1.418,11.723-2.343l.466,1.945C725.217,691.394,721.223,692.192,717.256,692.83Zm-60.176-1.752c-3.936-.862-7.881-1.881-11.724-3.029l.572-1.916c3.8,1.134,7.692,2.14,11.58,2.991Zm83.708-3.884-.612-1.9c3.773-1.21,7.555-2.583,11.24-4.08l.753,1.853C748.437,684.579,744.608,685.969,740.788,687.194Zm-106.9-3.046c-3.758-1.44-7.506-3.039-11.141-4.756l.854-1.809c3.589,1.7,7.291,3.276,11,4.7Zm129.322-6.059-.89-1.791c3.554-1.765,7.088-3.688,10.5-5.716l1.021,1.72C770.385,674.355,766.807,676.3,763.209,678.089ZM612,673.807c-3.493-1.987-6.957-4.134-10.3-6.382l1.118-1.659c3.3,2.22,6.717,4.34,10.166,6.3Zm172.023-8.072-1.146-1.638c3.255-2.277,6.464-4.7,9.537-7.217l1.266,1.549C790.565,660.972,787.316,663.431,784.02,665.735Zm-192.1-5.453c-3.154-2.49-6.255-5.133-9.218-7.857l1.354-1.472c2.926,2.69,5.988,5.3,9.1,7.76ZM802.76,650.42l-1.377-1.45c2.878-2.735,5.689-5.614,8.355-8.558l1.482,1.342C808.521,644.735,805.675,647.651,802.76,650.42ZM574.1,643.9c-2.748-2.937-5.419-6.014-7.938-9.145l1.558-1.254c2.488,3.093,5.126,6.132,7.84,9.033Zm244.907-11.421-1.58-1.228c2.437-3.136,4.785-6.4,6.978-9.714l1.667,1.105C823.851,625.992,821.474,629.3,819.006,632.478Zm-260.079-7.436c-2.279-3.312-4.461-6.751-6.487-10.224l1.728-1.008c2,3.43,4.156,6.827,6.407,10.1ZM832.374,612.3l-1.746-.975c1.936-3.466,3.764-7.051,5.433-10.656l1.815.839C836.186,605.157,834.335,608.788,832.374,612.3Zm-285.64-8.16c-1.762-3.617-3.407-7.345-4.89-11.077l1.859-.739c1.464,3.687,3.089,7.368,4.829,10.94Zm295.81-13.8-1.873-.7c1.388-3.711,2.654-7.529,3.764-11.349l1.921.557C845.232,582.708,843.949,586.575,842.544,590.333Z" fill="#292a2e"></path>
        <path d="M537.775,581.562c-.6-1.911-1.165-3.861-1.689-5.8l1.93-.523c.518,1.91,1.079,3.836,1.668,5.724Z" fill="#292a2e"></path>
      </g>
      <g>
        <path d="M77.989,406.527c-1.935-.573-3.873-1.211-5.758-1.895l.683-1.88c1.847.671,3.746,1.3,5.643,1.857Z" fill="#292a2e"></path>
        <path d="M61.1,399.8a98.32,98.32,0,0,1-10.449-6.166l1.121-1.656a96.249,96.249,0,0,0,10.237,6.04ZM41.044,386.225a98.755,98.755,0,0,1-8.618-8.537l1.492-1.332a96.714,96.714,0,0,0,8.443,8.364ZM24.921,368.16a99.463,99.463,0,0,1-6.284-10.373l1.77-.93a97.534,97.534,0,0,0,6.158,10.164ZM13.665,346.726a98.877,98.877,0,0,1-3.582-11.586l1.944-.472a96.755,96.755,0,0,0,3.509,11.351ZM7.951,323.205A98.576,98.576,0,0,1,7.3,311.966l0-.873,2,.017,0,.856a96.391,96.391,0,0,0,.635,11.009Zm2.2-23.947-1.982-.264a99.332,99.332,0,0,1,2.338-11.9l1.935.5A97.612,97.612,0,0,0,10.148,299.258ZM16.127,276.3l-1.861-.736a98.881,98.881,0,0,1,5.143-10.986l1.756.958A96.659,96.659,0,0,0,16.127,276.3ZM27.49,255.478l-1.624-1.168a98.331,98.331,0,0,1,7.678-9.391l1.466,1.36A96.3,96.3,0,0,0,27.49,255.478Zm16.117-17.4-1.289-1.53a99.544,99.544,0,0,1,9.734-7.234l1.093,1.675A97.44,97.44,0,0,0,43.607,238.076Zm19.869-12.96-.88-1.8a99.518,99.518,0,0,1,11.2-4.661l.654,1.89A97.489,97.489,0,0,0,63.476,225.116Z" fill="#292a2e"></path>
        <path d="M85.933,217.35l-.417-1.956c1.967-.419,3.974-.782,5.965-1.08l.3,1.979C89.826,216.584,87.86,216.939,85.933,217.35Z" fill="#292a2e"></path>
      </g>
      <g id="b_1_idea">
        <path id="b_1_idea-2" data-name="b_1_idea" d="M178.455,437.215A64.245,64.245,0,1,0,71.256,484.9a67.919,67.919,0,0,1,22.9,50.478v.07l39.884.046v-.069a67.78,67.78,0,0,1,22.966-50.382A64.051,64.051,0,0,0,178.455,437.215Z" fill="#367cff"></path>
        <path id="b_1_idea-3" data-name="b_1_idea" d="M178.455,437.215A64.245,64.245,0,1,0,71.256,484.9a67.919,67.919,0,0,1,22.9,50.478v.07l39.884.046v-.069a67.78,67.78,0,0,1,22.966-50.382A64.051,64.051,0,0,0,178.455,437.215Z" fill="#fff" opacity="0.8"></path>
        <g id="b_1_idea-4" data-name="b_1_idea">
          <path d="M106.205,535.634,90.573,446.282A3.266,3.266,0,0,1,92.84,442.6a11.516,11.516,0,0,1,9.384.779,9.752,9.752,0,0,1,1.419,1.052,13.307,13.307,0,0,1,5.13-2.848c5.81-1.795,9.413.494,11.411,2.731a12.676,12.676,0,0,1,1.167,1.534c2.727-3,5.855-4.557,8.721-4.233a5.194,5.194,0,0,1,3.694,1.722,3.023,3.023,0,0,1,.644,2.168l-12.762,90.117-1.981-.28,12.763-90.118c.008-.111.028-1.326-2.583-1.621-2.377-.272-5.079,1.244-7.474,4.11,1.8,3.915,1.987,8.583.782,11.333a3.58,3.58,0,0,1-3.172,2.458,3.494,3.494,0,0,1-3.319-1.778c-1.51-2.785.375-7.869,2.765-11.414q.283-.42.576-.817a10.775,10.775,0,0,0-1.313-1.849c-2.338-2.618-5.477-3.343-9.328-2.152A11.218,11.218,0,0,0,105,445.883a18.735,18.735,0,0,1,3.27,8.108c.759,4.065-.469,5.777-1.269,6.435a2.887,2.887,0,0,1-2.939.466c-2.3-.913-4.045-4.839-3.892-8.75a10.949,10.949,0,0,1,2.133-6.233,7.7,7.7,0,0,0-1.115-.826,9.588,9.588,0,0,0-7.766-.574,1.266,1.266,0,0,0-.876,1.428l15.632,89.352ZM120.971,449.6c-2.324,3.522-3.442,7.52-2.548,9.169a1.472,1.472,0,0,0,1.528.731c.548-.009,1.01-.434,1.372-1.261C122.214,456.2,122.1,452.711,120.971,449.6Zm-17.309-2.161a9.267,9.267,0,0,0-1.5,4.782c-.138,3.519,1.44,6.34,2.632,6.814a.9.9,0,0,0,.929-.152c.288-.238,1.182-1.266.574-4.524A17.379,17.379,0,0,0,103.662,447.438Z" fill="#fff"></path>
        </g>
        <path id="b_1_idea-5" data-name="b_1_idea" d="M94.141,535.47h39.885a0,0,0,0,1,0,0V537.8a19.942,19.942,0,0,1-19.942,19.942h0A19.942,19.942,0,0,1,94.141,537.8V535.47A0,0,0,0,1,94.141,535.47Z" transform="translate(0.632 -0.131) rotate(0.066)" fill="#367cff"></path>
        <path id="b_1_idea-6" data-name="b_1_idea" d="M94.141,535.47h39.885a0,0,0,0,1,0,0V537.8a19.942,19.942,0,0,1-19.942,19.942h0A19.942,19.942,0,0,1,94.141,537.8V535.47A0,0,0,0,1,94.141,535.47Z" transform="translate(0.632 -0.131) rotate(0.066)" fill="#fff" opacity="0.5"></path>
      </g>
      <g>
        <path d="M111.9,60.238l-1.788-.895c.9-1.8,1.873-3.6,2.883-5.335l1.729,1.006C113.735,56.713,112.784,58.471,111.9,60.238Z" fill="#292a2e"></path>
        <path d="M286.012,87.032a93.362,93.362,0,0,0-2.483-11.076l1.921-.556a95.507,95.507,0,0,1,2.537,11.314Zm-6.3-21.768a93.409,93.409,0,0,0-5.087-10.147l1.729-1a95.174,95.174,0,0,1,5.2,10.366Zm-11.376-19.6a92.582,92.582,0,0,0-7.4-8.6l1.433-1.4a94.465,94.465,0,0,1,7.564,8.79Zm-147.313-.1-1.592-1.21a94.505,94.505,0,0,1,7.574-8.783l1.431,1.4A92.178,92.178,0,0,0,121.027,45.567Zm131.5-16.127a92.493,92.493,0,0,0-9.284-6.533l1.049-1.7a94.735,94.735,0,0,1,9.485,6.674Zm-115.67-.084-1.248-1.563a94.437,94.437,0,0,1,9.49-6.664l1.047,1.7A92.473,92.473,0,0,0,136.857,29.356Zm96.377-11.8a93.292,93.292,0,0,0-10.582-4.105l.607-1.905a95.217,95.217,0,0,1,10.811,4.193ZM156.165,17.5l-.83-1.819a95.4,95.4,0,0,1,10.822-4.163l.6,1.907A93.448,93.448,0,0,0,156.165,17.5Zm55.483-6.825a92.322,92.322,0,0,0-11.263-1.4l.124-2a94.159,94.159,0,0,1,11.507,1.428Zm-33.877-.006L177.405,8.7a95.082,95.082,0,0,1,11.507-1.421l.123,2A93.116,93.116,0,0,0,177.771,10.666Z" fill="#292a2e"></path>
        <path d="M289.15,104.36l-2-.056c.055-1.966.047-3.963-.025-5.935l2-.073C289.2,100.311,289.206,102.352,289.15,104.36Z" fill="#292a2e"></path>
      </g>
      <g>
        <circle cx="82.055" cy="139.294" r="82.055" fill="#367cff"></circle>
        <circle cx="82.055" cy="139.294" r="82.055" fill="#fff" opacity="0.8"></circle>
        <g>
          <path d="M99.748,140.4a31.263,31.263,0,1,1-7.954-36.753h0A31.321,31.321,0,0,1,99.748,140.4ZM49.312,117.186a24.319,24.319,0,1,0,3.7-5.73A24.368,24.368,0,0,0,49.312,117.186Z" fill="#fff"></path>
          <path d="M123.692,180.506a3.509,3.509,0,0,1-5.727.946L88.3,150.223a3.506,3.506,0,1,1,5.084-4.83l29.663,31.229A3.508,3.508,0,0,1,123.692,180.506Z" fill="#fff"></path>
        </g>
      </g>
      <g>
        <path d="M570.615,141.037l-1.9-.613c.612-1.9,1.261-3.823,1.93-5.713l1.886.668C571.864,137.251,571.221,139.154,570.615,141.037Z" fill="#292a2e"></path>
        <path d="M957.18,160.053c-.831-3.823-1.785-7.669-2.838-11.432l1.926-.539c1.063,3.8,2.028,7.686,2.866,11.546Zm-6.341-22.679c-1.272-3.7-2.67-7.406-4.156-11.024l1.849-.76c1.5,3.654,2.914,7.4,4.2,11.133ZM576.785,124.388l-1.843-.777c1.532-3.638,3.194-7.279,4.938-10.823l1.795.883C579.947,117.18,578.3,120.786,576.785,124.388Zm365.1-8.8c-1.7-3.526-3.518-7.046-5.415-10.463l1.749-.971c1.916,3.45,3.755,7.006,5.469,10.567Zm-354.7-12.327-1.739-.987c1.951-3.436,4.03-6.857,6.179-10.168L593.3,93.2C591.176,96.473,589.118,99.86,587.186,103.261ZM930.457,95c-2.1-3.3-4.315-6.588-6.6-9.762l1.623-1.168c2.307,3.2,4.549,6.522,6.665,9.858ZM600.013,83.5l-1.61-1.187c2.345-3.182,4.815-6.335,7.344-9.372l1.537,1.28C604.781,77.228,602.335,80.349,600.013,83.5ZM916.7,75.875c-2.465-3.034-5.055-6.035-7.7-8.921l1.475-1.351c2.669,2.915,5.284,5.947,7.774,9.01ZM615.091,65.39l-1.459-1.369c2.7-2.881,5.528-5.72,8.4-8.437l1.375,1.452C620.564,59.727,617.766,62.537,615.091,65.39Zm285.7-6.89c-2.81-2.727-5.735-5.4-8.7-7.954l1.306-1.515c2.989,2.577,5.944,5.28,8.782,8.034ZM632.2,49.188l-1.287-1.531c3.019-2.54,6.158-5.027,9.328-7.391l1.2,1.6C638.293,44.21,635.185,46.672,632.2,49.188ZM882.947,43.12c-3.109-2.374-6.33-4.686-9.575-6.872l1.117-1.659c3.278,2.208,6.532,4.544,9.671,6.941ZM651.081,35.106l-1.1-1.67c3.3-2.171,6.706-4.273,10.128-6.248l1,1.732C657.72,30.875,654.347,32.957,651.081,35.106ZM863.4,29.954c-3.361-1.986-6.832-3.9-10.314-5.688l.914-1.78c3.517,1.807,7.022,3.741,10.418,5.746ZM671.479,23.33l-.9-1.788c3.53-1.771,7.158-3.461,10.785-5.023l.791,1.837C678.567,19.9,674.974,21.576,671.479,23.33ZM842.458,19.2c-3.574-1.577-7.246-3.071-10.911-4.44l.7-1.874c3.7,1.383,7.41,2.891,11.02,4.484ZM693.11,14.014l-.683-1.88c3.713-1.348,7.513-2.6,11.3-3.73l.572,1.917C700.549,11.438,696.785,12.68,693.11,14.014ZM820.4,10.955c-3.747-1.157-7.567-2.216-11.354-3.148l.478-1.943c3.824.942,7.682,2.012,11.466,3.18ZM715.676,7.292l-.458-1.947c3.848-.9,7.769-1.7,11.654-2.379l.342,1.971C723.367,5.6,719.486,6.4,715.676,7.292Zm81.847-1.967c-3.85-.712-7.768-1.318-11.643-1.8l.247-1.984c3.914.487,7.871,1.1,11.759,1.818ZM738.868,3.264l-.225-1.987c3.923-.445,7.909-.778,11.849-.99l.107,2C746.7,2.494,742.752,2.824,738.868,3.264Zm35.282-.85c-3.9-.253-7.86-.393-11.773-.414l.01-2c3.954.021,7.955.162,11.893.418Z" fill="#292a2e"></path>
        <path d="M960.179,177.605c-.246-1.967-.526-3.957-.831-5.912l1.977-.307c.308,1.974.59,3.983.839,5.97Z" fill="#292a2e"></path>
      </g>
      <g>
        <path d="M995.336,245.465c-1.449-1.345-2.947-2.677-4.452-3.961l1.3-1.522c1.527,1.3,3.046,2.653,4.516,4.017Z" fill="#292a2e"></path>
        <path d="M904.584,487.677l-.053-2c3.891-.1,7.825-.372,11.691-.8l.221,1.988C912.521,487.3,908.531,487.573,904.584,487.677Zm-11.887-.185c-3.945-.228-7.924-.626-11.828-1.185l.283-1.979c3.848.55,7.772.943,11.661,1.167Zm35.5-2.432-.387-1.962c3.822-.753,7.655-1.678,11.393-2.747l.551,1.922C935.957,483.359,932.069,484.3,928.193,485.06Zm22.838-6.538-.71-1.869c3.642-1.384,7.265-2.941,10.77-4.626l.866,1.8C958.4,475.539,954.726,477.118,951.031,478.522Zm21.415-10.3-1.017-1.723c3.354-1.98,6.663-4.128,9.831-6.384l1.161,1.63C979.205,464.037,975.849,466.216,972.446,468.226Zm19.363-13.779-1.294-1.526c2.965-2.514,5.863-5.192,8.614-7.957l1.418,1.411C997.756,449.18,994.816,451.9,991.809,454.447Zm16.761-16.841-1.53-1.288c2.511-2.985,4.922-6.1,7.165-9.273l1.633,1.155C1013.563,431.415,1011.117,434.579,1008.57,437.606Zm13.718-19.387-1.723-1.013c1.971-3.352,3.823-6.831,5.5-10.342l1.8.863C1026.167,411.289,1024.288,414.819,1022.288,418.219Zm10.257-21.422-1.871-.707c1.375-3.64,2.611-7.384,3.672-11.127l1.924.546C1035.194,389.306,1033.94,393.1,1032.545,396.8Zm6.48-22.852-1.964-.381c.74-3.816,1.326-7.715,1.742-11.588l1.989.214C1040.37,366.118,1039.776,370.073,1039.025,373.945Zm2.538-23.618-2-.045q.036-1.587.036-3.173c0-2.839-.088-5.713-.262-8.544l2-.122c.176,2.871.266,5.786.266,8.666Q1041.6,348.717,1041.563,350.327Zm-3.433-23.418c-.564-3.854-1.3-7.728-2.183-11.514l1.947-.456c.9,3.842,1.642,7.771,2.214,11.68ZM1032.8,304.1c-1.2-3.7-2.575-7.4-4.085-10.983l1.844-.777c1.531,3.639,2.926,7.388,4.144,11.143Zm-9.086-21.583c-1.81-3.446-3.79-6.856-5.885-10.135l1.686-1.077c2.125,3.326,4.134,6.786,5.97,10.283Zm-12.611-19.734c-2.364-3.085-4.893-6.111-7.517-8.993l1.478-1.347c2.663,2.925,5.229,5.994,7.627,9.124Z" fill="#292a2e"></path>
        <path d="M869.149,484.121c-1.953-.451-3.924-.951-5.858-1.486l.533-1.927c1.907.527,3.85,1.02,5.775,1.464Z" fill="#292a2e"></path>
      </g>
      <g>
        <circle cx="970.451" cy="189.954" r="70.148" fill="#fff"></circle>
        <circle cx="970.451" cy="189.954" r="70.148" fill="#367cff" opacity="0.2"></circle>
        <circle cx="970.451" cy="189.954" r="53.643" fill="#fff"></circle>
        <circle cx="970.451" cy="189.954" r="37.137" fill="#367cff" opacity="0.2"></circle>
        <circle cx="970.451" cy="189.954" r="20.632" fill="#fff"></circle>
        <circle cx="970.451" cy="189.954" r="6.522" fill="#367cff" opacity="0.2"></circle>
      </g>
      <path d="M1000.178,519.941h-14.83a5.683,5.683,0,0,1-5.37-3.8,80.947,80.947,0,0,0-4.019-9.53,5.674,5.674,0,0,1,1.079-6.56l10.54-10.54a5.716,5.716,0,0,0,0-8.08l-22.77-22.76a5.716,5.716,0,0,0-8.08,0L946,469.4a5.682,5.682,0,0,1-6.51,1.1,79.705,79.705,0,0,0-9.339-3.85,5.685,5.685,0,0,1-3.851-5.39v-15.2a5.708,5.708,0,0,0-5.709-5.71H888.4a5.708,5.708,0,0,0-5.711,5.71v15.2a5.683,5.683,0,0,1-3.849,5.39,79.593,79.593,0,0,0-9.341,3.85,5.682,5.682,0,0,1-6.51-1.1l-10.73-10.73a5.716,5.716,0,0,0-8.08,0l-22.769,22.76a5.714,5.714,0,0,0,0,8.08l10.539,10.54a5.678,5.678,0,0,1,1.081,6.56,79.084,79.084,0,0,0-4.01,9.53,5.706,5.706,0,0,1-5.381,3.8h-14.83a5.708,5.708,0,0,0-5.709,5.71v32.2a5.708,5.708,0,0,0,5.709,5.71h14.44a5.7,5.7,0,0,1,5.42,3.92,80.605,80.605,0,0,0,3.991,9.79,5.72,5.72,0,0,1-1.081,6.55l-10.169,10.17a5.7,5.7,0,0,0,0,8.07l22.769,22.77a5.716,5.716,0,0,0,8.08,0l9.971-9.97a5.715,5.715,0,0,1,6.6-1.06,79.419,79.419,0,0,0,9.97,4.16,5.723,5.723,0,0,1,3.89,5.41v14.06a5.71,5.71,0,0,0,5.711,5.72h32.19a5.71,5.71,0,0,0,5.709-5.72v-14.06a5.723,5.723,0,0,1,3.89-5.41,79.357,79.357,0,0,0,9.97-4.16,5.716,5.716,0,0,1,6.6,1.06l9.97,9.97a5.716,5.716,0,0,0,8.08,0l22.77-22.77a5.7,5.7,0,0,0,0-8.07l-10.17-10.17a5.72,5.72,0,0,1-1.08-6.55,80.6,80.6,0,0,0,3.99-9.79,5.7,5.7,0,0,1,5.42-3.92h14.44a5.707,5.707,0,0,0,5.71-5.71v-32.2A5.707,5.707,0,0,0,1000.178,519.941Zm-95.68,69.39a47.585,47.585,0,1,1,47.58-47.58A47.585,47.585,0,0,1,904.5,589.331Z" fill="#367cff"></path>
      <path d="M1000.178,519.941h-14.83a5.683,5.683,0,0,1-5.37-3.8,80.947,80.947,0,0,0-4.019-9.53,5.674,5.674,0,0,1,1.079-6.56l10.54-10.54a5.716,5.716,0,0,0,0-8.08l-22.77-22.76a5.716,5.716,0,0,0-8.08,0L946,469.4a5.682,5.682,0,0,1-6.51,1.1,79.705,79.705,0,0,0-9.339-3.85,5.685,5.685,0,0,1-3.851-5.39v-15.2a5.708,5.708,0,0,0-5.709-5.71H888.4a5.708,5.708,0,0,0-5.711,5.71v15.2a5.683,5.683,0,0,1-3.849,5.39,79.593,79.593,0,0,0-9.341,3.85,5.682,5.682,0,0,1-6.51-1.1l-10.73-10.73a5.716,5.716,0,0,0-8.08,0l-22.769,22.76a5.714,5.714,0,0,0,0,8.08l10.539,10.54a5.678,5.678,0,0,1,1.081,6.56,79.084,79.084,0,0,0-4.01,9.53,5.706,5.706,0,0,1-5.381,3.8h-14.83a5.708,5.708,0,0,0-5.709,5.71v32.2a5.708,5.708,0,0,0,5.709,5.71h14.44a5.7,5.7,0,0,1,5.42,3.92,80.605,80.605,0,0,0,3.991,9.79,5.72,5.72,0,0,1-1.081,6.55l-10.169,10.17a5.7,5.7,0,0,0,0,8.07l22.769,22.77a5.716,5.716,0,0,0,8.08,0l9.971-9.97a5.715,5.715,0,0,1,6.6-1.06,79.419,79.419,0,0,0,9.97,4.16,5.723,5.723,0,0,1,3.89,5.41v14.06a5.71,5.71,0,0,0,5.711,5.72h32.19a5.71,5.71,0,0,0,5.709-5.72v-14.06a5.723,5.723,0,0,1,3.89-5.41,79.357,79.357,0,0,0,9.97-4.16,5.716,5.716,0,0,1,6.6,1.06l9.97,9.97a5.716,5.716,0,0,0,8.08,0l22.77-22.77a5.7,5.7,0,0,0,0-8.07l-10.17-10.17a5.72,5.72,0,0,1-1.08-6.55,80.6,80.6,0,0,0,3.99-9.79,5.7,5.7,0,0,1,5.42-3.92h14.44a5.707,5.707,0,0,0,5.71-5.71v-32.2A5.707,5.707,0,0,0,1000.178,519.941Zm-95.68,69.39a47.585,47.585,0,1,1,47.58-47.58A47.585,47.585,0,0,1,904.5,589.331Z" fill="#fff" opacity="0.8"></path>
    </g>
    <g>
      <rect x="155.526" y="58.239" width="734.688" height="553.975" rx="30" fill="#fff"></rect>
      <path d="M860.215,613.214H185.526a31.036,31.036,0,0,1-31-31V88.239a31.036,31.036,0,0,1,31-31H860.215a31.036,31.036,0,0,1,31,31V582.214A31.036,31.036,0,0,1,860.215,613.214ZM185.526,59.239a29.032,29.032,0,0,0-29,29V582.214a29.033,29.033,0,0,0,29,29H860.215a29.034,29.034,0,0,0,29-29V88.239a29.033,29.033,0,0,0-29-29Z" fill="#292a2e"></path>
      <g>
        <rect x="186.733" y="461.704" width="670.233" height="120.38" rx="16.028" fill="#367cff"></rect>
        <rect x="186.733" y="306.678" width="670.233" height="120.38" rx="16.028" fill="#367cff"></rect>
        <g opacity="0.9">
          <rect x="186.733" y="461.704" width="670.233" height="120.38" rx="16.028" fill="#fff"></rect>
        </g>
        <g opacity="0.9">
          <rect x="186.733" y="306.678" width="670.233" height="120.38" rx="16.028" fill="#fff"></rect>
        </g>
        <g>
          <rect x="186.733" y="151.651" width="670.233" height="120.38" rx="16.028" fill="#367cff"></rect>
          <rect x="186.733" y="151.651" width="670.233" height="120.38" rx="16.028" fill="#fff" opacity="0.2"></rect>
          <path d="M840.938,273.031H202.761A17.047,17.047,0,0,1,185.734,256V167.68a17.047,17.047,0,0,1,17.027-17.029H840.938a17.048,17.048,0,0,1,17.029,17.029V256A17.048,17.048,0,0,1,840.938,273.031ZM202.761,152.651a15.045,15.045,0,0,0-15.027,15.029V256a15.045,15.045,0,0,0,15.027,15.029H840.938A15.046,15.046,0,0,0,855.967,256V167.68a15.046,15.046,0,0,0-15.029-15.029Z" fill="#292a2e"></path>
          <rect x="211.753" y="172.567" width="189.123" height="16.174" rx="8.087" fill="#fff"></rect>
          <g>
            <path d="M537.051,252.213h-325.3a1,1,0,0,1,0-2h325.3a1,1,0,0,1,0,2Z" fill="#fff"></path>
            <path d="M829.051,230.961h-617.3a1,1,0,0,1,0-2h617.3a1,1,0,1,1,0,2Z" fill="#fff"></path>
            <path d="M829.051,209.708h-617.3a1,1,0,0,1,0-2h617.3a1,1,0,0,1,0,2Z" fill="#fff"></path>
          </g>
        </g>
        <path d="M840.938,428.058H202.761a17.047,17.047,0,0,1-17.027-17.029V322.706a17.046,17.046,0,0,1,17.027-17.028H840.938a17.047,17.047,0,0,1,17.029,17.028v88.323A17.048,17.048,0,0,1,840.938,428.058ZM202.761,307.678a15.044,15.044,0,0,0-15.027,15.028v88.323a15.045,15.045,0,0,0,15.027,15.029H840.938a15.046,15.046,0,0,0,15.029-15.029V322.706a15.045,15.045,0,0,0-15.029-15.028Z" fill="#292a2e"></path>
        <path d="M840.938,583.084H202.761a17.047,17.047,0,0,1-17.027-17.028V477.732A17.047,17.047,0,0,1,202.761,460.7H840.938a17.048,17.048,0,0,1,17.029,17.028v88.324A17.048,17.048,0,0,1,840.938,583.084ZM202.761,462.7a15.045,15.045,0,0,0-15.027,15.028v88.324a15.045,15.045,0,0,0,15.027,15.028H840.938a15.046,15.046,0,0,0,15.029-15.028V477.732A15.046,15.046,0,0,0,840.938,462.7Z" fill="#292a2e"></path>
      </g>
      <path d="M890.214,88.235v30.188H155.53V88.235a30,30,0,0,1,30-30H860.214A30,30,0,0,1,890.214,88.235Z" fill="#292a2e"></path>
    </g>
    <g>
      <g>
        <polygon points="835.347 363.735 826.638 349.797 812.552 358.264 838.413 250.518 861.208 255.989 835.347 363.735" fill="#367cff"></polygon>
        <path d="M835.347,364.735a1,1,0,0,1-.848-.47l-8.188-13.1-13.244,7.961a1,1,0,0,1-1.488-1.09l25.862-107.747a1,1,0,0,1,1.2-.739l22.8,5.472a1,1,0,0,1,.739,1.206L836.319,363.969a1,1,0,0,1-.811.753A.98.98,0,0,1,835.347,364.735Zm-8.71-15.938a1,1,0,0,1,.849.47l7.445,11.916L860,256.728l-20.85-5L814.08,356.178l12.043-7.238A.994.994,0,0,1,826.637,348.8Z" fill="#292a2e"></path>
      </g>
      <g>
        <polygon points="865.929 363.735 874.637 349.797 888.724 358.264 862.863 250.518 840.068 255.989 865.929 363.735" fill="#367cff"></polygon>
        <path d="M865.929,364.735a.98.98,0,0,1-.161-.013,1,1,0,0,1-.811-.753L839.1,256.223a1,1,0,0,1,.739-1.206l22.8-5.472a1,1,0,0,1,1.205.739L889.7,358.031a1,1,0,0,1-1.487,1.09l-13.244-7.961-8.188,13.1A1,1,0,0,1,865.929,364.735ZM841.273,256.728l25.071,104.455,7.445-11.916a1,1,0,0,1,1.364-.327l12.042,7.238L862.124,251.723Z" fill="#292a2e"></path>
      </g>
      <g>
        <path d="M909.055,271.213c0,5.941-7.458,10.632-9.2,15.993-1.8,5.557,1.409,13.723-1.957,18.348-3.4,4.671-12.181,4.121-16.853,7.52-4.625,3.366-6.8,11.907-12.353,13.711-5.361,1.741-12.115-3.835-18.056-3.835s-12.7,5.576-18.057,3.835c-5.556-1.8-7.728-10.345-12.353-13.711-4.671-3.4-13.454-2.85-16.853-7.521-3.366-4.625-.152-12.791-1.956-18.347-1.741-5.361-9.2-10.052-9.2-15.993s7.458-10.632,9.2-15.993c1.8-5.557-1.41-13.723,1.956-18.348,3.4-4.671,12.182-4.121,16.853-7.521,4.625-3.366,6.8-11.907,12.354-13.711,5.361-1.74,12.114,3.836,18.056,3.836s12.695-5.576,18.056-3.836c5.557,1.805,7.729,10.346,12.354,13.712,4.671,3.4,13.453,2.849,16.853,7.52,3.366,4.625.151,12.791,1.956,18.348C901.6,260.581,909.055,265.271,909.055,271.213Z" fill="#0cbc8b"></path>
        <path d="M866.46,328.121c-2.638,0-5.409-1.074-8.112-2.12-2.606-1.008-5.3-2.051-7.71-2.051s-5.105,1.043-7.711,2.051c-3.588,1.389-7.3,2.825-10.654,1.735-3.517-1.142-5.713-4.57-7.836-7.886-1.527-2.384-2.969-4.637-4.8-5.967-1.861-1.355-4.6-2.075-7.24-2.771-3.78-1-7.689-2.025-9.833-4.97-2.118-2.911-1.9-6.925-1.683-10.807.151-2.749.308-5.592-.415-7.82-.681-2.1-2.355-4.135-4.126-6.292-2.518-3.065-5.122-6.235-5.122-10.01s2.6-6.945,5.122-10.011c1.771-2.156,3.445-4.193,4.126-6.291.724-2.228.567-5.072.416-7.821-.214-3.882-.436-7.9,1.683-10.806,2.143-2.946,6.052-3.975,9.832-4.97,2.644-.7,5.379-1.416,7.241-2.772,1.828-1.33,3.271-3.583,4.8-5.967,2.124-3.315,4.319-6.744,7.836-7.886,3.359-1.088,7.067.347,10.655,1.735,2.605,1.009,5.3,2.052,7.71,2.052s5.1-1.043,7.71-2.052c3.589-1.388,7.3-2.824,10.655-1.735,3.517,1.143,5.713,4.571,7.836,7.887,1.526,2.384,2.968,4.636,4.8,5.967,1.862,1.355,4.6,2.075,7.24,2.771,3.78,1,7.69,2.025,9.833,4.97,2.118,2.911,1.9,6.924,1.683,10.806-.151,2.75-.308,5.593.416,7.821.681,2.1,2.354,4.135,4.126,6.292,2.518,3.065,5.121,6.235,5.121,10.01s-2.6,6.945-5.121,10.01c-1.772,2.157-3.445,4.194-4.126,6.292-.724,2.228-.567,5.071-.416,7.821.214,3.882.435,7.895-1.683,10.806-2.143,2.945-6.053,3.974-9.833,4.97-2.644.7-5.378,1.416-7.241,2.771-1.828,1.331-3.27,3.583-4.8,5.967-2.123,3.316-4.319,6.745-7.836,7.886A8.177,8.177,0,0,1,866.46,328.121Zm-15.822-6.171c2.783,0,5.655,1.112,8.432,2.186,3.412,1.321,6.635,2.569,9.315,1.7,2.836-.921,4.747-3.9,6.77-7.063,1.559-2.435,3.171-4.953,5.3-6.5,2.166-1.577,5.085-2.345,7.908-3.088,3.6-.948,7-1.844,8.725-4.213,1.7-2.335,1.507-5.824,1.3-9.519-.161-2.933-.328-5.966.51-8.549.8-2.458,2.672-4.738,4.483-6.943,2.295-2.793,4.667-5.682,4.667-8.741s-2.372-5.948-4.667-8.741c-1.811-2.2-3.685-4.486-4.483-6.944-.838-2.582-.671-5.615-.509-8.548.2-3.694.4-7.184-1.3-9.519-1.724-2.369-5.125-3.265-8.725-4.213-2.823-.743-5.742-1.512-7.908-3.088-2.133-1.552-3.745-4.07-5.3-6.506-2.023-3.158-3.933-6.141-6.77-7.062-2.681-.871-5.9.377-9.315,1.7-2.777,1.074-5.649,2.186-8.432,2.186s-5.655-1.112-8.432-2.187c-3.413-1.321-6.636-2.569-9.316-1.7-2.836.921-4.746,3.905-6.768,7.063-1.56,2.435-3.172,4.953-5.3,6.506-2.166,1.576-5.086,2.345-7.909,3.088-3.6.948-7,1.843-8.724,4.212-1.7,2.335-1.507,5.825-1.3,9.519.161,2.934.328,5.966-.511,8.549-.8,2.458-2.671,4.739-4.482,6.944-2.3,2.793-4.668,5.681-4.668,8.741s2.373,5.948,4.667,8.741c1.812,2.2,3.685,4.485,4.483,6.943.839,2.583.672,5.616.51,8.548-.2,3.695-.4,7.185,1.3,9.52,1.725,2.369,5.125,3.264,8.725,4.213,2.823.743,5.742,1.511,7.908,3.088,2.133,1.552,3.746,4.07,5.3,6.5,2.023,3.159,3.933,6.142,6.769,7.063,2.678.869,5.9-.377,9.315-1.7C844.983,323.062,847.854,321.95,850.638,321.95Z" fill="#292a2e"></path>
      </g>
      <g>
        <circle cx="850.638" cy="271.213" r="25.909" fill="#fff"></circle>
        <path d="M850.638,298.122a26.909,26.909,0,1,1,26.909-26.909A26.939,26.939,0,0,1,850.638,298.122Zm0-51.818a24.909,24.909,0,1,0,24.909,24.909A24.937,24.937,0,0,0,850.638,246.3Z" fill="#292a2e"></path>
      </g>
    </g>
  </g>
</svg>