<svg id="Layer_1" data-name="Layer 1" xmlns="http://www.w3.org/2000/svg" viewBox="0 0 991.358 552.782">
  <g>
    <g>
      <rect x="950.137" y="224.945" width="28.869" height="8" transform="translate(400.187 1043.981) rotate(-68.651)" fill="#367cff"></rect>
      <rect x="312.242" y="147.099" width="8" height="28.869" transform="translate(-27.101 252.187) rotate(-41.848)" fill="#0cbc8b"></rect>
      <rect x="374.303" y="252.22" width="28.869" height="8.001" transform="translate(-76.002 284.203) rotate(-36.835)" fill="#367cff"></rect>
      <rect x="668.905" y="44.127" width="8" height="28.87" transform="translate(169.117 508.482) rotate(-46.741)" fill="#367cff"></rect>
      <rect x="494.098" y="62.701" width="28.87" height="8" transform="translate(197.253 474.327) rotate(-60.106)" fill="#0cbc8b"></rect>
      <rect x="721.516" y="266.128" width="8" height="28.869" transform="translate(-37.773 430.489) rotate(-32.254)" fill="#0cbc8b"></rect>
      <rect x="406.359" y="385.377" width="8" height="28.869" transform="translate(-135.422 225.548) rotate(-26.546)" fill="#0cbc8b"></rect>
      <rect x="288.032" y="328.136" width="28.869" height="7.999" transform="translate(-102.536 526.488) rotate(-73.312)" fill="#367cff"></rect>
      <rect x="779.383" y="410.686" width="28.869" height="8" transform="translate(-96.441 512.408) rotate(-33.846)" fill="#367cff"></rect>
      <rect x="789.007" y="10.508" width="28.869" height="8" transform="translate(390.446 703.829) rotate(-60.107)" fill="#0cbc8b"></rect>
      <rect x="4.98" y="205.226" width="8" height="28.869" transform="translate(-79.351 18.342) rotate(-21.349)" fill="#0cbc8b"></rect>
      <rect x="786.072" y="168.964" width="8.001" height="28.869" transform="translate(169.628 705.795) rotate(-53.165)" fill="#0cbc8b"></rect>
      <rect x="109.674" y="62.392" width="28.87" height="8" transform="translate(-11.774 103.092) rotate(-43.259)" fill="#367cff"></rect>
      <rect x="364.48" y="30.096" width="8" height="28.87" transform="translate(26.834 189.577) rotate(-29.894)" fill="#367cff"></rect>
      <rect x="63.111" y="354.619" width="28.869" height="8" transform="translate(-267.118 232.811) rotate(-57.746)" fill="#0cbc8b"></rect>
      <rect x="19.196" y="408.081" width="8" height="28.869" transform="matrix(0.557, -0.831, 0.831, 0.557, -340.637, 206.453)" fill="#367cff"></rect>
      <rect x="938.91" y="92.411" width="8" height="28.869" transform="translate(72.195 484.14) rotate(-29.893)" fill="#367cff"></rect>
    </g>
    <g>
      <rect x="617.522" y="169.962" width="28.869" height="8" transform="translate(80.756 528.658) rotate(-48.152)" fill="#367cff"></rect>
      <rect x="452.22" y="413.642" width="28.869" height="8" transform="translate(-115.515 648.446) rotate(-63.454)" fill="#0cbc8b"></rect>
      <rect x="570.547" y="335.531" width="7.999" height="28.869" transform="translate(-76.297 179.725) rotate(-16.688)" fill="#367cff"></rect>
      <g>
        <path d="M576.813,350.77l-27.267-20.727a5.422,5.422,0,0,0-7.871,1.434,5.61,5.61,0,0,0,1.535,7.365l5.847,4.444-24.8-5.536c-2.746-.664-6.542.279-7.083,3.409a5.419,5.419,0,0,0,2.845,6.116.388.388,0,0,0-.03.076.428.428,0,0,0,0,.062l-4.236-1.023a5.425,5.425,0,0,0-6.694,5.115,5.549,5.549,0,0,0,4.344,5.468l1.8.435a.519.519,0,0,0,.064.164,5.419,5.419,0,0,0-5.388,4.5,5.593,5.593,0,0,0,4.32,6.246l4.478,1.082a.5.5,0,0,0-.3.344.491.491,0,0,0,.027.277,5.424,5.424,0,0,0-4.02,5.209,5.546,5.546,0,0,0,4.348,5.333l37.774,9.126a27.3,27.3,0,0,0,28.6-10.639h0a18.008,18.008,0,0,0-3.744-24.823Z" fill="#E98862"></path>
        <g opacity="0.2">
          <path d="M544.54,352.877a.5.5,0,0,1-.595.367l-23.58-5.3a.5.5,0,0,1,.22-.976l23.579,5.3a.5.5,0,0,1,.378.6Z" fill="#0c0c0c"></path>
        </g>
        <g opacity="0.2">
          <path d="M542.491,363.341a.5.5,0,0,1-.6.367l-26.315-5.91a.5.5,0,0,1-.378-.6.518.518,0,0,1,.6-.378l26.315,5.91a.5.5,0,0,1,.378.6Z" fill="#0c0c0c"></path>
        </g>
        <g opacity="0.2">
          <path d="M540.338,374.687a.5.5,0,0,1-.595.367l-20.991-4.714a.5.5,0,0,1,.219-.976l20.991,4.714a.5.5,0,0,1,.379.6Z" fill="#0c0c0c"></path>
        </g>
      </g>
      <g>
        <path d="M447.36,208.206l15.224-30.681a5.42,5.42,0,0,1,7.688-2.212,5.61,5.61,0,0,1,1.9,7.281l-3.265,6.579L488.666,173.2c2.166-1.815,5.985-2.656,7.86-.092a5.418,5.418,0,0,1,.167,6.743.4.4,0,0,1,.061.055.414.414,0,0,1,.029.055l3.341-2.8a5.425,5.425,0,0,1,8.269,1.609,5.55,5.55,0,0,1-1.463,6.829l-1.422,1.191a.47.47,0,0,1,.015.175,5.418,5.418,0,0,1,6.826,1.637,5.593,5.593,0,0,1-1.1,7.515l-3.531,2.957a.5.5,0,0,1,.424.174.5.5,0,0,1,.1.261,5.422,5.422,0,0,1,5.915,2.881,5.545,5.545,0,0,1-1.527,6.709l-29.79,24.954a27.291,27.291,0,0,1-30.348,3.171h0a18.009,18.009,0,0,1-7.672-23.9Z" fill="#E98862"></path>
        <g opacity="0.2">
          <path d="M477.211,195.758a.5.5,0,0,0,.7.065l18.774-15.218a.5.5,0,0,0-.63-.777l-18.774,15.218a.5.5,0,0,0-.074.7Z" fill="#0c0c0c"></path>
        </g>
        <g opacity="0.2">
          <path d="M483.694,204.224a.5.5,0,0,0,.7.064l20.952-16.983a.5.5,0,0,0,.073-.7.517.517,0,0,0-.7-.074L483.76,203.511a.5.5,0,0,0-.074.7Z" fill="#0c0c0c"></path>
        </g>
        <g opacity="0.2">
          <path d="M490.663,213.432a.5.5,0,0,0,.7.065l16.713-13.547a.5.5,0,0,0-.63-.777L490.729,212.72a.5.5,0,0,0-.074.7Z" fill="#0c0c0c"></path>
        </g>
      </g>
      <g>
        <path d="M105.7,181.9s-2.147,32.215-9.394,43.9c-20.866,33.648-26.911,71.5-6.016,91.277s154.17,20.051,164.267-25.435c8.5-38.295-9.741-42.413-14.18-74-2.008-14.294-7.533-44.267-7.533-44.267" fill="#0a0a0a"></path>
        <path id="sk" d="M220.064,284.973c-.23-.03-2.783,42.331-51.994,38.638-34.068-2.553-46.215-38.7-46.995-38.7,3.673-.781,9.858-1.916,11.489-2.787,5.365-2.882,12-5.882,13.732-16.3,1-6-.695-36.722-.174-42.8L198.416,234.7c-.731,12.831-5.845,42.575,12.08,47.839C213.478,283.412,216.691,284.213,220.064,284.973Z" fill="#E98862"></path>
        <path id="sh" d="M199.149,270.385a37.849,37.849,0,0,1-1.573-8.116,86.565,86.565,0,0,1,.342-18.877,57.329,57.329,0,0,1-28.9-12.663c-.971,3.586-6.312,19.256-4.833,22.664C166.978,259.836,180.111,270.385,199.149,270.385Z" fill="#0c0c0c" opacity="0.5"></path>
        <path d="M192.387,257.188c-20.618,2-47.294-6.252-52.82-33.709l-4.986-24.774c-5.526-27.456,4.415-52.616,30.266-57.819h0c25.852-5.2,49.654,13.165,55.18,40.622l2.208,10.968C224.355,203.011,229.172,253.628,192.387,257.188Z" fill="#E98862"></path>
        <ellipse cx="178.745" cy="216.701" rx="6.187" ry="4.538" transform="translate(-24.416 22.704) rotate(-6.804)" fill="#0c0c0c" opacity="0.1"></ellipse>
        <path d="M215.133,211.259c.3,2.485,3.295,4.172,6.688,3.772a8.533,8.533,0,0,0,1.723-.391c.158-2.963.167-5.813.081-8.452a7.784,7.784,0,0,0-2.884-.169C217.348,206.419,214.839,208.764,215.133,211.259Z" fill="#0c0c0c" opacity="0.1"></path>
        <path d="M200.141,218.94a.433.433,0,0,0,.05-.008,29.031,29.031,0,0,0,3.1-.827c1.518-.508,3.5-1.342,3.228-2.715-.314-1.564-8-17.581-8.872-19.4a.666.666,0,1,0-1.2.576c3.277,6.821,8.555,18.036,8.767,19.089-.166.491-2.684,1.45-5.283,1.974a.665.665,0,0,0,.212,1.313Z" fill="#0c0c0c" opacity="0.5"></path>
        <path d="M113.954,207.6l23.176-4.527c17.507-7.321,22.474-37.832,22.474-37.832s21.606,20.577,73.244,8.134c0,0-11.217-72.086-87.465-50.2-24.585,7.055-42,32.115-39.41,65.307C107.788,211.736,113.954,207.6,113.954,207.6Z" fill="#0a0a0a"></path>
        <path d="M142.856,231.521c-7.856,1.581-15.916-5.542-17.5-13.4s3.916-13.47,11.772-15.052l5.108,4.45,7.373,22.641Z" fill="#E98862"></path>
        <path d="M203.216,183.217a13.632,13.632,0,0,1,6.662-2.448,12,12,0,0,1,3.605.2,14.575,14.575,0,0,1,3.451,1.168l.034.016a.509.509,0,0,0,.433-.921,15.67,15.67,0,0,0-3.676-1.384,13.218,13.218,0,0,0-3.937-.349,15.006,15.006,0,0,0-7.5,2.5.764.764,0,1,0,.86,1.263l.018-.012Z" fill="#0c0c0c"></path>
        <path d="M182.045,186.143a14.991,14.991,0,0,0-7.888.557,13.227,13.227,0,0,0-3.5,1.829,15.641,15.641,0,0,0-2.866,2.686.509.509,0,0,0,.752.685l.027-.028a14.554,14.554,0,0,1,2.74-2.4,12.011,12.011,0,0,1,3.254-1.563,13.625,13.625,0,0,1,7.092-.29l.058.015a.764.764,0,0,0,.36-1.486Z" fill="#0c0c0c"></path>
        <path d="M137.146,202.691c15.579-5.8,20.749-16.558,22.341-24.564a39.041,39.041,0,0,0-.283-16.135l-.482.133a38.523,38.523,0,0,1,.272,15.923c-1.572,7.875-6.668,18.461-22.023,24.176Z" fill="#0c0c0c"></path>
      </g>
      <path d="M260.143,290.012,408.07,339.459l-43.431,19.305L438.4,207.444l60.283,28.094-68.437,153.8a35.454,35.454,0,0,1-41.961,19.723l-1.471-.417-150.166-42.16Z" fill="#367cff"></path>
      <path id="b_1_b" d="M167.152,313.021c-34.092-1.607-35.527-30.543-35.527-30.543s-16.892,1.092-28.121,2.611c-18.384,2.487-30.512,8.721-40.164,18.372-8.978,8.979-14.444,18.693-8.66,80.711,4.188,44.906,1.241,143.679,1.241,143.679h207.75s14.507-142.7,16.227-162.911c3.282-38.589,12.555-47.108-6.233-66.986-13.625-14.416-48.8-15.476-62.958-15.474C210.476,282.48,213.58,315.21,167.152,313.021Z" fill="#367cff"></path>
      <path d="M207.052,224.352a33.807,33.807,0,0,1-21.721,3.061,1.37,1.37,0,0,0-1.451,2.01c2.2,3.876,7.418,10.5,16.37,7.8,5.78-1.744,7.965-7.69,8.775-11.369A1.368,1.368,0,0,0,207.052,224.352Z" fill="#fff"></path>
      <circle cx="207.471" cy="191.323" r="3.237" fill="#0c0c0c"></circle>
      <circle cx="176.367" cy="196.768" r="3.237" fill="#0c0c0c"></circle>
      <path d="M279.436,379a.454.454,0,0,1-.063,0,.5.5,0,0,1-.434-.557l3.217-26.078a.49.49,0,0,1,.557-.434.5.5,0,0,1,.435.558l-3.217,26.077A.5.5,0,0,1,279.436,379Z" fill="#0c0c0c"></path>
      <g>
        <path d="M805.3,177.778s-12.392-13.917-10.955-39.98c1.113-20.18,16.679-3.86,16.679-3.86s.943-14.523,10.967-11.065,12.839,19.472,12.839,19.472" fill="#0c0c0c"></path>
        <path d="M874.946,135.149s50.054,15.679,17.75,81.3l-4.586-.6-9.31-1.215" fill="#0c0c0c"></path>
        <path id="sk-2" data-name="sk" d="M803.741,284.867c.23-.03,2.774,42.19,51.822,38.51,33.955-2.544,46.062-38.569,46.84-38.569-3.661-.779-9.826-1.91-11.452-2.778-5.347-2.873-11.962-5.862-13.686-16.245-.993-5.985.692-36.6.174-42.656l-52.122,11.633c.729,12.788,5.826,42.434-12.04,47.681C810.305,283.311,807.1,284.109,803.741,284.867Z" fill="#E98862"></path>
        <path id="sh-2" data-name="sh" d="M824.587,270.328a37.737,37.737,0,0,0,1.567-8.09,86.189,86.189,0,0,0-.34-18.815,57.145,57.145,0,0,0,28.807-12.62c.967,3.574,6.29,19.192,4.816,22.589C856.652,259.813,843.561,270.328,824.587,270.328Z" fill="#0c0c0c" opacity="1"></path>
        <path d="M830.837,256.03c20.526,2.211,47.2-5.72,53.007-33.024l5.237-24.637c5.8-27.3-3.831-52.487-29.54-57.952h0c-25.708-5.465-49.629,12.585-55.433,39.889l-2.319,10.907a84.316,84.316,0,0,0-1.418,11.386c-.639,10.1-1.571,25.465,3.09,36.913C807.86,250.32,817.723,254.617,830.837,256.03Z" fill="#E98862"></path>
        <circle cx="814.532" cy="189.891" r="3.237" fill="#0c0c0c"></circle>
        <circle cx="845.276" cy="193.128" r="3.237" fill="#0c0c0c"></circle>
        <path d="M880.478,230.985c7.813,1.661,15.923-5.351,17.584-13.164s-3.757-13.467-11.569-15.128l-5.139,4.379-7.593,22.485Z" fill="#E98862"></path>
        <g>
          <g>
            <path d="M875.2,216.846s5.076-39.261-6.193-43.994c-7.5-3.152-28.685,4.162-45.588-2.691-7.394-3-15.071-2.55-16.537.933-.581,1.379-1.251-20.235,13.912-33.515,12.072-10.574,44.138-7.847,57.591-.909,37.25,19.209,9.388,68.051,9.388,68.051l-4.424,13Z" fill="#0c0c0c"></path>
            <g opacity="1">
              <path d="M822.953,219.655l-.051-.008c-2.519-.529-6.685-1.7-6.292-3.581.329-1.561,8.139-17.519,9.03-19.333a.655.655,0,0,1,1.177.577c-3.465,7.066-8.7,17.964-8.924,19.025.155.5,2.67,1.481,5.277,2.028a.656.656,0,0,1-.217,1.292Z" fill="#0c0c0c"></path>
            </g>
            <path d="M822.372,179.765a15.422,15.422,0,0,0-8.007-1.617,13.621,13.621,0,0,0-3.971.857,15.951,15.951,0,0,0-3.557,1.872.832.832,0,0,0,.872,1.417l.058-.033a14.185,14.185,0,0,1,3.231-1.48,11.613,11.613,0,0,1,3.459-.551,13.17,13.17,0,0,1,6.634,1.681l.076.045a1.251,1.251,0,1,0,1.266-2.158Z" fill="#0c0c0c"></path>
            <path d="M840.881,184.768a13.179,13.179,0,0,1,6.844.079,11.657,11.657,0,0,1,3.2,1.421,14.223,14.223,0,0,1,2.742,2.261l.045.045a.833.833,0,0,0,1.209-1.144,15.983,15.983,0,0,0-2.956-2.723,13.651,13.651,0,0,0-3.618-1.848,15.431,15.431,0,0,0-8.153-.5,1.251,1.251,0,0,0,.533,2.445l.064-.016Z" fill="#0c0c0c"></path>
          </g>
          <path d="M818.992,225.712a33.8,33.8,0,0,0,21.855-1.876,1.37,1.37,0,0,1,1.864,1.634c-1.279,4.271-4.88,11.9-14.209,11.268-6.024-.406-9.484-5.713-11.1-9.117A1.369,1.369,0,0,1,818.992,225.712Z" fill="#fff"></path>
        </g>
        <ellipse cx="837.863" cy="138.887" rx="16.095" ry="10.935" transform="translate(381.712 855.288) rotate(-66.926)" fill="#0c0c0c"></ellipse>
      </g>
      <path id="b_1_b-2" data-name="b_1_b" d="M856.326,313.021c34.091-1.607,35.526-30.543,35.526-30.543s16.892,1.092,28.122,2.611c18.384,2.487,30.512,8.721,40.163,18.372,8.979,8.979,14.444,18.693,8.66,80.711-4.188,44.906-1.24,143.679-1.24,143.679H759.807S745.3,385.155,743.58,364.94c-3.283-38.589-12.555-47.108,6.232-66.986,13.625-14.416,48.8-15.476,62.959-15.474C813,282.48,809.9,315.21,856.326,313.021Z" fill="#367cff"></path>
      <path d="M743.089,306.891,689.376,420.763,583.451,341.107l-42.072,55.946L681.64,502.529a38.26,38.26,0,0,0,3.926,2.56,34.981,34.981,0,0,0,47.616-13.42l.608-1.083,81.947-146.269Z" fill="#367cff"></path>
      <path d="M975.528,528.851H29.445a1,1,0,0,1,0-2H975.528a1,1,0,0,1,0,2Z" fill="#292a2e"></path>
      <g>
        <rect x="263.129" y="379.11" width="506.619" height="173.171" fill="#fff"></rect>
        <path d="M770.247,552.782H262.629V378.61H770.247Zm-506.618-1H769.247V379.61H263.629Z" fill="#0c0c0c"></path>
      </g>
      <g>
        <path d="M238.113,432.034l31.273-13.967a5.421,5.421,0,0,1,7.337,3.19,5.608,5.608,0,0,1-3.173,6.821l-6.706,3,25.411.262c2.826-.021,6.306,1.762,6.12,4.933a5.418,5.418,0,0,1-4.164,5.307.369.369,0,0,1,.012.081.442.442,0,0,1-.013.061l4.358-.031a5.425,5.425,0,0,1,5.352,6.5,5.548,5.548,0,0,1-5.476,4.335l-1.854.013a.5.5,0,0,1-.1.145,5.418,5.418,0,0,1,4.221,5.608,5.593,5.593,0,0,1-5.629,5.1l-4.606.033a.506.506,0,0,1,.216.4.492.492,0,0,1-.09.263,5.424,5.424,0,0,1,2.727,5.988,5.545,5.545,0,0,1-5.448,4.2l-38.86.277A27.293,27.293,0,0,1,223.6,457.679h0a18.009,18.009,0,0,1,9.3-23.317Z" fill="#E98862"></path>
        <g opacity="0.2">
          <path d="M269.057,441.441a.5.5,0,0,0,.5.493l24.166.217a.5.5,0,0,0,.009-1l-24.166-.218a.5.5,0,0,0-.5.5Z" fill="#0c0c0c"></path>
        </g>
        <g opacity="0.2">
          <path d="M268.667,452.1a.5.5,0,0,0,.5.493l26.969.243a.5.5,0,0,0,.5-.5.518.518,0,0,0-.5-.5l-26.969-.243a.5.5,0,0,0-.505.5Z" fill="#0c0c0c"></path>
        </g>
        <g opacity="0.2">
          <path d="M268.178,463.634a.5.5,0,0,0,.5.493l21.513.194a.5.5,0,0,0,.009-1l-21.513-.194a.5.5,0,0,0-.5.5Z" fill="#0c0c0c"></path>
        </g>
      </g>
      <path id="b_4_b" d="M247.064,487.717,73.677,527.132a37.5,37.5,0,0,1-41.038-43.5l19.842-159.6a37.5,37.5,0,1,1,73.961,12.444l-9.555,114.235,120.464-27.262Z" fill="#367cff"></path>
      <g id="b_4_st">
        <path d="M92.51,455.2a.5.5,0,0,1-.073-.994l24.161-5.159a.493.493,0,0,1,.568.42.5.5,0,0,1-.42.568l-24.161,5.159A.474.474,0,0,1,92.51,455.2Z" fill="#0c0c0c"></path>
      </g>
      <g id="b_4_st-2" data-name="b_4_st">
        <path d="M78.879,527.851a.5.5,0,0,1-.065-1l167.162-39.371-9.472-63.3-119.745,25.85a.508.508,0,0,1-.425-.148.5.5,0,0,1-.134-.431l6.717-65.27a.493.493,0,0,1,.576-.41.5.5,0,0,1,.41.576l-6.6,64.6,119.434-25.87a.5.5,0,0,1,.385.05.505.505,0,0,1,.233.311l9.713,64.273a.5.5,0,0,1-.353.6L78.944,527.847A.482.482,0,0,1,78.879,527.851Z" fill="#0c0c0c"></path>
      </g>
      <g>
        <path d="M785.364,462.034l-31.273-13.967a5.42,5.42,0,0,0-7.336,3.19,5.607,5.607,0,0,0,3.173,6.821l6.706,3-25.412.262c-2.825-.021-6.306,1.762-6.119,4.933a5.417,5.417,0,0,0,4.164,5.307.37.37,0,0,0-.013.081.442.442,0,0,0,.013.061l-4.357-.031a5.425,5.425,0,0,0-5.353,6.5,5.55,5.55,0,0,0,5.476,4.335l1.855.013a.518.518,0,0,0,.1.145,5.418,5.418,0,0,0-4.221,5.608,5.594,5.594,0,0,0,5.63,5.1l4.606.033a.5.5,0,0,0-.216.4.482.482,0,0,0,.089.263,5.425,5.425,0,0,0-2.727,5.988,5.545,5.545,0,0,0,5.449,4.2l38.86.277a27.292,27.292,0,0,0,25.421-16.877h0a18.009,18.009,0,0,0-9.3-23.317Z" fill="#E98862"></path>
        <g opacity="0.2">
          <path d="M754.42,471.441a.5.5,0,0,1-.5.493l-24.166.217a.5.5,0,1,1-.009-1l24.166-.218a.5.5,0,0,1,.5.5Z" fill="#0c0c0c"></path>
        </g>
        <g opacity="0.2">
          <path d="M754.81,482.1a.5.5,0,0,1-.495.493l-26.97.243a.5.5,0,0,1-.5-.5.517.517,0,0,1,.5-.5l26.969-.243a.5.5,0,0,1,.5.5Z" fill="#0c0c0c"></path>
        </g>
        <g opacity="0.2">
          <path d="M755.3,493.634a.5.5,0,0,1-.5.493l-21.513.194a.5.5,0,1,1-.009-1l21.513-.194a.5.5,0,0,1,.5.5Z" fill="#0c0c0c"></path>
        </g>
      </g>
      <path id="b_4_b-2" data-name="b_4_b" d="M786.413,517.717,949.8,527.132a37.5,37.5,0,0,0,41.038-43.5L971,324.027a37.5,37.5,0,1,0-73.961,12.444l9.555,121.235-119.464-4.262Z" fill="#367cff"></path>
      <g id="b_4_st-3" data-name="b_4_st">
        <path d="M930.967,457.2a.5.5,0,0,0,.074-.994l-24.161-.159a.494.494,0,0,0-.569.42.5.5,0,0,0,.421.568l24.161.159A.471.471,0,0,0,930.967,457.2Z" fill="#0c0c0c"></path>
      </g>
      <g id="b_4_st-4" data-name="b_4_st">
        <path d="M944.6,527.851a.5.5,0,0,0,.064-1L787.5,517.484l.471-63.3,118.745,2.85a.507.507,0,0,0,.425-.148.5.5,0,0,0,.134-.431l-6.716-72.27a.494.494,0,0,0-.576-.41.5.5,0,0,0-.411.576l6.605,71.6-118.434-2.87a.5.5,0,0,0-.385.05.505.505,0,0,0-.233.311l-.714,64.273a.5.5,0,0,0,.353.6l157.767,9.526A.487.487,0,0,0,944.6,527.851Z" fill="#0c0c0c"></path>
      </g>
      <g>
        <path d="M383.238,492.416h-13.28l-7.449-28.894q-.414-1.542-1.41-6.376t-1.148-6.49q-.225,2.031-1.129,6.527t-1.391,6.415l-7.412,28.818H336.777l-14.034-55h11.475l7.035,30.022q1.844,8.315,2.671,14.409.225-2.145,1.035-6.64t1.524-6.979l8.013-30.812h11.023l8.013,30.812q.526,2.07,1.317,6.32t1.2,7.3q.376-2.934,1.2-7.318t1.5-7.091l7-30.022h11.475Z" fill="#0cbc8b"></path>
        <path d="M435.833,492.416H404.155v-55h31.678v9.556H415.819v12.076h18.623V468.6H415.819v14.184h20.014Z" fill="#0cbc8b"></path>
        <path d="M447.307,492.416v-55H458.97v45.372h22.309v9.631Z" fill="#0cbc8b"></path>
        <path d="M514.2,446.329A11.886,11.886,0,0,0,504,451.276q-3.612,4.948-3.611,13.789,0,18.4,13.806,18.4a43.631,43.631,0,0,0,14.034-2.9v9.781a38.956,38.956,0,0,1-15.124,2.822q-12,0-18.36-7.28t-6.358-20.9a34.119,34.119,0,0,1,3.123-15.029,22.563,22.563,0,0,1,8.973-9.895,26.546,26.546,0,0,1,13.712-3.442,37.023,37.023,0,0,1,16.1,3.875l-3.763,9.481a62.475,62.475,0,0,0-6.207-2.559A18.53,18.53,0,0,0,514.2,446.329Z" fill="#0cbc8b"></path>
        <path d="M589.855,464.839q0,13.656-6.772,20.993t-19.413,7.336q-12.64,0-19.412-7.336t-6.772-21.068q0-13.733,6.791-20.974t19.468-7.243q12.678,0,19.395,7.3T589.855,464.839Zm-40.142,0q0,9.217,3.5,13.882t10.458,4.665q13.959,0,13.958-18.547,0-18.585-13.883-18.585-6.959,0-10.5,4.684T549.713,464.839Z" fill="#0cbc8b"></path>
        <path d="M624.542,492.416,611.3,449.264h-.339q.714,13.168.715,17.569v25.583H601.254v-55h15.877l13.017,42.061h.225l13.808-42.061h15.876v55H649.185V466.381q0-1.842.055-4.251t.508-12.791h-.338l-14.183,43.077Z" fill="#0cbc8b"></path>
        <path d="M705.579,492.416H673.9v-55h31.677v9.556H685.565v12.076h18.623V468.6H685.565v14.184h20.014Z" fill="#0cbc8b"></path>
      </g>
    </g>
  </g>
</svg>