<svg width="129" height="20" viewBox="0 0 129 20" fill="none" xmlns="http://www.w3.org/2000/svg">
<path d="M0.794188 19L5.42619 12.712L1.10619 6.616H5.16219L6.48219 8.608L7.49019 10.216H7.68219L8.71419 8.608L10.0582 6.616H13.7782L9.45819 12.52L14.0902 19H10.0102L8.45019 16.672L7.37019 15.016H7.17819L6.12219 16.672L4.53819 19H0.794188ZM22.6008 5.032C21.8008 5.032 21.2408 4.872 20.9208 4.552C20.6168 4.216 20.4648 3.816 20.4648 3.352V2.656C20.4648 2.176 20.6168 1.776 20.9208 1.456C21.2408 1.136 21.8008 0.975999 22.6008 0.975999C23.4008 0.975999 23.9528 1.136 24.2568 1.456C24.5768 1.776 24.7368 2.176 24.7368 2.656V3.352C24.7368 3.816 24.5768 4.216 24.2568 4.552C23.9528 4.872 23.4008 5.032 22.6008 5.032ZM16.8888 16.24H20.8248V9.376H16.8888V6.616H24.3768V16.24H28.0248V19H16.8888V16.24ZM36.2234 19.288C35.3274 19.288 34.6794 19.096 34.2794 18.712C33.8954 18.312 33.7034 17.84 33.7034 17.296V16.456C33.7034 15.912 33.8954 15.448 34.2794 15.064C34.6794 14.664 35.3274 14.464 36.2234 14.464C37.1194 14.464 37.7594 14.664 38.1434 15.064C38.5434 15.448 38.7434 15.912 38.7434 16.456V17.296C38.7434 17.84 38.5434 18.312 38.1434 18.712C37.7594 19.096 37.1194 19.288 36.2234 19.288ZM50.9501 19.288C48.8701 19.288 47.2941 18.712 46.2221 17.56C45.1501 16.408 44.6141 14.84 44.6141 12.856C44.6141 11.848 44.7501 10.944 45.0221 10.144C45.3101 9.328 45.7101 8.64 46.2221 8.08C46.7501 7.504 47.3821 7.072 48.1181 6.784C48.8701 6.48 49.7101 6.328 50.6381 6.328C51.5661 6.328 52.3981 6.48 53.1341 6.784C53.8701 7.072 54.4941 7.488 55.0061 8.032C55.5181 8.576 55.9101 9.24 56.1821 10.024C56.4701 10.792 56.6141 11.656 56.6141 12.616V13.672H48.1421V13.888C48.1421 14.688 48.3901 15.336 48.8861 15.832C49.3821 16.312 50.1101 16.552 51.0701 16.552C51.8061 16.552 52.4381 16.416 52.9661 16.144C53.4941 15.856 53.9501 15.48 54.3341 15.016L56.2541 17.104C55.7741 17.696 55.1021 18.208 54.2381 18.64C53.3741 19.072 52.2781 19.288 50.9501 19.288ZM50.6621 8.872C49.8941 8.872 49.2781 9.112 48.8141 9.592C48.3661 10.056 48.1421 10.688 48.1421 11.488V11.68H53.1341V11.488C53.1341 10.672 52.9101 10.032 52.4621 9.568C52.0301 9.104 51.4301 8.872 50.6621 8.872ZM59.5087 16.24H63.1567V9.376H59.2687V6.616H63.1567V4.816C63.1567 3.76 63.4607 2.904 64.0687 2.248C64.6927 1.576 65.6527 1.24 66.9487 1.24H71.1487V4H66.7087V6.616H71.1487V9.376H66.7087V16.24H70.5967V19H59.5087V16.24ZM73.8993 16.24H77.5473V9.376H73.6593V6.616H77.5473V4.816C77.5473 3.76 77.8513 2.904 78.4593 2.248C79.0833 1.576 80.0433 1.24 81.3393 1.24H85.5393V4H81.0993V6.616H85.5393V9.376H81.0993V16.24H84.9873V19H73.8993V16.24ZM94.1219 19.288C92.0419 19.288 90.4659 18.712 89.3939 17.56C88.3219 16.408 87.7859 14.84 87.7859 12.856C87.7859 11.848 87.9219 10.944 88.1939 10.144C88.4819 9.328 88.8819 8.64 89.3939 8.08C89.9219 7.504 90.5539 7.072 91.2899 6.784C92.0419 6.48 92.8819 6.328 93.8099 6.328C94.7379 6.328 95.5699 6.48 96.3059 6.784C97.0419 7.072 97.6659 7.488 98.1779 8.032C98.6899 8.576 99.0819 9.24 99.3539 10.024C99.6419 10.792 99.7859 11.656 99.7859 12.616V13.672H91.3139V13.888C91.3139 14.688 91.5619 15.336 92.0579 15.832C92.5539 16.312 93.2819 16.552 94.2419 16.552C94.9779 16.552 95.6099 16.416 96.1379 16.144C96.6659 15.856 97.1219 15.48 97.5059 15.016L99.4259 17.104C98.9459 17.696 98.2739 18.208 97.4099 18.64C96.5459 19.072 95.4499 19.288 94.1219 19.288ZM93.8339 8.872C93.0659 8.872 92.4499 9.112 91.9859 9.592C91.5379 10.056 91.3139 10.688 91.3139 11.488V11.68H96.3059V11.488C96.3059 10.672 96.0819 10.032 95.6339 9.568C95.2019 9.104 94.6019 8.872 93.8339 8.872ZM108.681 19.288C107.705 19.288 106.825 19.144 106.041 18.856C105.273 18.552 104.617 18.12 104.073 17.56C103.545 17 103.137 16.32 102.849 15.52C102.561 14.72 102.417 13.816 102.417 12.808C102.417 11.8 102.561 10.896 102.849 10.096C103.137 9.296 103.545 8.616 104.073 8.056C104.617 7.496 105.273 7.072 106.041 6.784C106.825 6.48 107.697 6.328 108.657 6.328C110.017 6.328 111.105 6.608 111.921 7.168C112.753 7.712 113.385 8.44 113.817 9.352L111.081 10.84C110.857 10.36 110.561 9.96 110.193 9.64C109.841 9.32 109.329 9.16 108.657 9.16C107.841 9.16 107.209 9.4 106.761 9.88C106.329 10.344 106.113 10.984 106.113 11.8V13.816C106.113 14.632 106.329 15.28 106.761 15.76C107.209 16.224 107.857 16.456 108.705 16.456C109.393 16.456 109.929 16.296 110.313 15.976C110.713 15.656 111.049 15.24 111.321 14.728L114.009 16.264C113.561 17.176 112.905 17.912 112.041 18.472C111.193 19.016 110.073 19.288 108.681 19.288ZM123.527 19C122.247 19 121.295 18.664 120.671 17.992C120.047 17.32 119.735 16.464 119.735 15.424V9.376H116.375V6.616H118.559C119.087 6.616 119.463 6.512 119.687 6.304C119.911 6.096 120.023 5.712 120.023 5.152V2.248H123.287V6.616H128.111V9.376H123.287V16.24H128.111V19H123.527Z" fill="black"/>
</svg>
