<svg xmlns="http://www.w3.org/2000/svg" viewBox="0 0 500 500"><g id="freepik--background-complete--inject-44"><rect x="56.11" y="293.23" width="26.48" height="11.19" style="fill:#ebebeb"></rect><rect x="41.34" y="307.34" width="26.48" height="11.19" style="fill:#ebebeb"></rect><rect x="240.63" y="91.95" width="26.48" height="11.19" style="fill:#ebebeb"></rect><rect x="225.85" y="106.06" width="26.48" height="11.19" style="fill:#ebebeb"></rect><rect x="211.14" y="91.95" width="26.48" height="11.19" style="fill:#ebebeb"></rect><rect x="432.18" y="307.34" width="26.48" height="11.19" style="fill:#ebebeb"></rect><rect x="417.41" y="36.47" width="26.48" height="11.19" style="fill:#ebebeb"></rect><rect x="432.18" y="50.58" width="26.48" height="11.19" style="fill:#ebebeb"></rect><rect x="268.39" y="269.56" width="26.48" height="11.19" style="fill:#ebebeb"></rect><rect x="283.16" y="283.67" width="26.48" height="11.19" style="fill:#ebebeb"></rect><rect x="56.11" y="36.47" width="26.48" height="11.19" style="fill:#ebebeb"></rect><polygon points="351.09 396.81 463.56 396.81 467.18 325.45 347.47 325.45 351.09 396.81" style="fill:#ebebeb"></polygon><path d="M455.38,358.18H356.21l-1.38-24.9H457Zm-98.23-1h97.29l1.47-22.9h-100Z" style="fill:#dbdbdb"></path><path d="M454,386.68h-95l-1.12-22.49h97.51Zm-94-1h93.09l1.28-20.49H359Z" style="fill:#dbdbdb"></path><path d="M417.24,348.48H396.13l-.79-6.1H418Zm-20.23-1h19.35l.53-4.1H396.48Z" style="fill:#dbdbdb"></path><path d="M417.24,378.49H396.13l-.79-6.1H418Zm-20.23-1h19.35l.53-4.1H396.48Z" style="fill:#dbdbdb"></path><polygon points="366.69 396.81 365.59 404.59 363.4 420.21 359.1 420.21 359.1 396.81 366.69 396.81" style="fill:#ebebeb"></polygon><polygon points="366.69 396.81 365.59 404.59 359.1 404.59 359.1 396.81 366.69 396.81" style="fill:#dbdbdb"></polygon><polygon points="447.96 396.81 449.06 404.59 451.25 420.21 455.55 420.21 455.55 396.81 447.96 396.81" style="fill:#ebebeb"></polygon><polygon points="447.96 396.81 449.06 404.59 455.55 404.59 455.55 396.81 447.96 396.81" style="fill:#dbdbdb"></polygon><rect x="309.38" y="109.9" width="152.54" height="6.29" style="fill:#ebebeb"></rect><rect x="317.42" y="116.2" width="6.3" height="20.81" style="fill:#ebebeb"></rect><rect x="317.42" y="116.2" width="6.3" height="6.43" style="fill:#dbdbdb"></rect><rect x="447.58" y="116.2" width="6.3" height="20.81" style="fill:#ebebeb"></rect><rect x="447.58" y="116.2" width="6.3" height="6.43" style="fill:#dbdbdb"></rect><polygon points="362.33 88.83 361.11 92.06 360.37 94.02 359.14 97.26 354.37 109.91 328.55 109.91 323.76 97.26 322.54 94.02 321.79 92.06 320.57 88.83 330.1 74.95 325.16 65.79 357.77 65.79 352.81 74.95 362.33 88.83" style="fill:#dbdbdb"></polygon><polygon points="362.33 88.83 361.11 92.06 321.79 92.06 320.57 88.83 362.33 88.83" style="fill:#a6a6a6"></polygon><polygon points="360.37 94.02 359.14 97.26 323.76 97.26 322.54 94.02 360.37 94.02" style="fill:#a6a6a6"></polygon><rect x="393.58" y="49.77" width="49.65" height="60.22" style="fill:#dbdbdb"></rect><rect x="399.25" y="55.26" width="38.3" height="49.23" style="fill:#fff"></rect><rect x="399.25" y="55.26" width="1.49" height="49.23" style="fill:#c7c7c7"></rect><rect x="443.23" y="49.77" width="1.49" height="60.22" style="fill:#c7c7c7"></rect><polygon points="406.68 109.94 368.95 109.94 377.02 64.18 414.74 64.18 406.68 109.94" style="fill:#dbdbdb"></polygon><polygon points="403.1 105.76 374 105.76 380.59 68.36 409.7 68.36 403.1 105.76" style="fill:#fff"></polygon><polygon points="375.13 105.76 374 105.76 380.59 68.36 381.73 68.36 375.13 105.76" style="fill:#c7c7c7"></polygon><polygon points="407.81 109.94 406.68 109.94 414.74 64.18 415.88 64.18 407.81 109.94" style="fill:#c7c7c7"></polygon><rect x="37.95" y="281.81" width="5.55" height="138.26" transform="translate(81.45 701.87) rotate(180)" style="fill:#c7c7c7"></rect><rect x="43.5" y="281.81" width="89.81" height="138.26" transform="translate(176.81 701.87) rotate(180)" style="fill:#dbdbdb"></rect><path d="M52,410.77c6.81,5.49,11.11-1.76,23.77-1.76s12.67,1.55,25.34,1.55,16.67,11.37,25.74,2.53c8.85-8.62-2.07-12.77-2.07-25.11s4.07-12.35,4.07-24.69.93-12.35.93-24.69-6.4-12.35-6.4-24.7,9.74-13.85.9-22.47c-9.07-8.84-10.5-5.54-23.17-5.54S88.4,287.8,75.74,287.8s-14.29-5.41-23.36,3.43c-8.84,8.62.65,10.32.65,22.67s-6.23,12.34-6.23,24.69,2.4,12.34,2.4,24.69,2.07,12.22-.72,24.25C45.39,400.84,45.54,405.6,52,410.77Z" style="fill:#c7c7c7"></path><circle cx="48.5" cy="287.05" r="1.39" style="fill:#c7c7c7"></circle><circle cx="128.31" cy="287.05" r="1.39" style="fill:#c7c7c7"></circle><circle cx="48.5" cy="414.82" r="1.39" style="fill:#c7c7c7"></circle><circle cx="128.31" cy="414.82" r="1.39" style="fill:#c7c7c7"></circle><polygon points="94.51 419.95 162.75 419.95 148.15 314.9 79.92 314.9 94.51 419.95" style="fill:#ebebeb"></polygon><polygon points="88.33 419.95 94.51 419.95 79.92 314.9 73.74 314.9 88.33 419.95" style="fill:#dbdbdb"></polygon></g><g id="freepik--Floor--inject-44"><polygon points="32.82 420.21 87.11 419.97 141.41 419.88 250 419.71 358.59 419.88 412.88 419.97 467.18 420.21 412.88 420.46 358.59 420.54 250 420.71 141.41 420.54 87.11 420.45 32.82 420.21" style="fill:#263238"></polygon></g><g id="freepik--Shadow--inject-44"><ellipse cx="250" cy="453.17" rx="173.57" ry="14.36" style="fill:#ebebeb"></ellipse></g><g id="freepik--paint-splatters--inject-44"><path d="M131.14,452.66c-4.42,0-8.61-.18-12.35-.5-1.82,1.28-6.33,2.19-11.62,2.19-6.89,0-12.46-1.55-12.46-3.44,0-1.45,3.22-2.68,7.78-3.19a.73.73,0,0,1,0-.25c0-2.88,12.84-5.21,28.69-5.21,1.51,0,3,0,4.42.06a22,22,0,0,1,7.39-1.11c5,0,9.08,1.21,9.52,2.76,4.59.93,7.37,2.17,7.37,3.5C159.84,450.33,147,452.66,131.14,452.66Z" style="fill:#455a64"></path><path d="M154,461.84c0,1.31-2.28,2.36-5.09,2.36s-5.11-1.05-5.11-2.36,2.28-2.34,5.11-2.34S154,460.54,154,461.84Z" style="fill:#455a64"></path><path d="M171.79,440.33c0,.67-1.43,1.21-3.21,1.21s-3.21-.54-3.21-1.21,1.44-1.22,3.21-1.22S171.79,439.66,171.79,440.33Z" style="fill:#455a64"></path><path d="M292.67,438.61c4.27,0,8.32-.2,11.94-.55,1.75,1.38,6.11,2.36,11.22,2.36,6.66,0,12-1.66,12-3.7,0-1.56-3.1-2.89-7.51-3.43a1.35,1.35,0,0,0,0-.28c0-3.1-12.42-5.61-27.73-5.61-1.46,0-2.88,0-4.28.07a19.22,19.22,0,0,0-7.14-1.19c-4.82,0-8.77,1.3-9.2,3-4.43,1-7.13,2.33-7.13,3.76C264.92,436.09,277.35,438.61,292.67,438.61Z" style="fill:#263238"></path><path d="M413.26,429.35c0,2.75-8.45,5-18.85,5a1.9,1.9,0,0,1,.58,1.26c0,3.17-10.68,5.74-23.86,5.74a83.32,83.32,0,0,1-14.38-1.16c-1,.95-3.59,1.64-6.66,1.64-3.91,0-7.08-1.1-7.08-2.47,0-1.09,2.1-2,5-2.34a2,2,0,0,1-.72-1.41c0-3.17,10.69-5.74,23.85-5.74,1.56,0,3.08,0,4.57.11a1.24,1.24,0,0,1-.16-.61c0-2.75,8.45-5,18.87-5S413.26,426.6,413.26,429.35Z" style="fill:#53BF80"></path><path d="M356.1,425.66c0-.71,1.39-1.27,3.1-1.27s3.13.56,3.13,1.27-1.4,1.28-3.13,1.28S356.1,426.37,356.1,425.66Z" style="fill:#53BF80"></path><path d="M404.55,446.75c0,1.52-3.09,2.75-6.92,2.75s-6.91-1.23-6.91-2.75,3.09-2.76,6.91-2.76S404.55,445.22,404.55,446.75Z" style="fill:#53BF80"></path></g><g id="freepik--Plant--inject-44"><rect x="97.31" y="38.36" width="1" height="151.78" style="fill:#dbdbdb"></rect><path d="M99.7,38.36a1.89,1.89,0,1,1-1.89-1.89A1.89,1.89,0,0,1,99.7,38.36Z" style="fill:#a6a6a6"></path><polygon points="118.87 191.18 97.8 149.21 76.25 190.37 75.37 189.91 97.82 147.02 119.76 190.73 118.87 191.18" style="fill:#dbdbdb"></polygon><path d="M99.7,148.12a1.89,1.89,0,1,1-1.89-1.89A1.89,1.89,0,0,1,99.7,148.12Z" style="fill:#a6a6a6"></path><polygon points="119.24 190.14 118.48 202.08 116.68 230.51 78.44 230.51 76.64 202.08 75.88 190.14 119.24 190.14" style="fill:#53BF80"></polygon><polygon points="119.24 190.14 118.48 202.08 76.64 202.08 75.88 190.14 119.24 190.14" style="opacity:0.1"></polygon><rect x="73.25" y="186.32" width="48.61" height="9.27" style="fill:#53BF80"></rect><path d="M65.45,193.09c-1.46-2,4.15-4,7.19-2.31C72.64,190.78,67.5,196,65.45,193.09Z" style="fill:#455a64"></path><path d="M72.5,190.91a12.74,12.74,0,0,1-2.69,1.21,9.61,9.61,0,0,1-2.9.55l2.78-.91C70.62,191.45,71.54,191.15,72.5,190.91Z" style="fill:#263238"></path><path d="M65.09,206.6c-2.38-.79,1-5.68,4.43-6.12C69.52,200.48,68.45,207.71,65.09,206.6Z" style="fill:#455a64"></path><path d="M69.49,200.67A14.13,14.13,0,0,1,68,203.24a10.09,10.09,0,0,1-2,2.16l1.7-2.39C68.29,202.22,68.86,201.43,69.49,200.67Z" style="fill:#263238"></path><path d="M76.75,208.51c-.5,2.46-5.75-.3-6.6-3.67C70.15,204.84,77.46,205.05,76.75,208.51Z" style="fill:#455a64"></path><path d="M70.34,204.85A12.52,12.52,0,0,1,73.06,206a9.77,9.77,0,0,1,2.39,1.74l-2.57-1.4C72,205.85,71.17,205.39,70.34,204.85Z" style="fill:#263238"></path><path d="M80.81,217.48c-.5,2.46-5.75-.3-6.6-3.67C74.21,213.81,81.52,214,80.81,217.48Z" style="fill:#455a64"></path><path d="M74.4,213.82A13,13,0,0,1,77.12,215a9.7,9.7,0,0,1,2.39,1.74l-2.57-1.41C76.08,214.82,75.23,214.36,74.4,213.82Z" style="fill:#263238"></path><path d="M85.12,228.47c-.5,2.46-5.75-.3-6.6-3.67C78.52,224.8,85.82,225,85.12,228.47Z" style="fill:#455a64"></path><path d="M78.71,224.81a13.47,13.47,0,0,1,2.72,1.13,10,10,0,0,1,2.39,1.75l-2.57-1.41C80.39,225.81,79.54,225.35,78.71,224.81Z" style="fill:#263238"></path><path d="M80.87,241.11c-2.23,1.13-3.34-4.7-1.22-7.46C79.65,233.65,84,239.51,80.87,241.11Z" style="fill:#455a64"></path><path d="M79.76,233.81a12.77,12.77,0,0,1,.8,2.84,9.42,9.42,0,0,1,.11,2.95l-.49-2.89C80,235.75,79.85,234.79,79.76,233.81Z" style="fill:#263238"></path><path d="M65.17,240.82c-1.14-2.24,4.69-3.34,7.45-1.23C72.62,239.59,66.77,244,65.17,240.82Z" style="fill:#455a64"></path><path d="M72.47,239.7a12.77,12.77,0,0,1-2.84.8,9.79,9.79,0,0,1-3,.12l2.89-.5C70.52,240,71.48,239.8,72.47,239.7Z" style="fill:#263238"></path><path d="M72.86,202.9c-2.13,1.33-3.75-4.37-1.9-7.31C71,195.59,75.85,201,72.86,202.9Z" style="fill:#455a64"></path><path d="M71.09,195.73a13.18,13.18,0,0,1,1,2.76,9.67,9.67,0,0,1,.38,2.93l-.75-2.83C71.52,197.65,71.27,196.71,71.09,195.73Z" style="fill:#263238"></path><path d="M76,196.23c-2.13,1.33-3.75-4.37-1.89-7.31C74.07,188.92,79,194.35,76,196.23Z" style="fill:#455a64"></path><path d="M74.19,189.06a13.18,13.18,0,0,1,1,2.76,9.68,9.68,0,0,1,.39,2.93l-.76-2.83C74.62,191,74.37,190,74.19,189.06Z" style="fill:#263238"></path><path d="M78.57,192c-2.21.64-2.21-4.8.17-6.92C78.74,185,81.68,191.06,78.57,192Z" style="fill:#455a64"></path><path d="M78.81,185.19a12.28,12.28,0,0,1,.24,2.7,9.35,9.35,0,0,1-.4,2.68l0-2.68C78.71,187,78.73,186.1,78.81,185.19Z" style="fill:#263238"></path><path d="M68.86,183.61c.24-2.5,5.75-.31,7,3C75.81,186.57,68.52,187.13,68.86,183.61Z" style="fill:#455a64"></path><path d="M75.62,186.58a13.2,13.2,0,0,1-2.83-.85,9.44,9.44,0,0,1-2.55-1.48l2.7,1.13C73.84,185.76,74.74,186.13,75.62,186.58Z" style="fill:#263238"></path><path d="M70.92,216c-2.42.67-2.36-5.26.26-7.55C71.18,208.49,74.32,215.09,70.92,216Z" style="fill:#455a64"></path><path d="M71.26,208.66a13.29,13.29,0,0,1,.22,3,9.68,9.68,0,0,1-.46,2.92l.08-2.93C71.13,210.62,71.15,209.65,71.26,208.66Z" style="fill:#263238"></path><path d="M75.54,225.84c-2.42.68-2.36-5.25.26-7.54C75.8,218.3,78.94,224.89,75.54,225.84Z" style="fill:#455a64"></path><path d="M75.88,218.47a13.2,13.2,0,0,1,.22,2.94,9.68,9.68,0,0,1-.46,2.92l.08-2.93C75.75,220.43,75.77,219.45,75.88,218.47Z" style="fill:#263238"></path><path d="M75.12,234.44c-2.43-.62.59-5.73,4-6.41C79.12,228,78.55,235.32,75.12,234.44Z" style="fill:#455a64"></path><path d="M79.1,228.22a13.54,13.54,0,0,1-1.27,2.66,9.83,9.83,0,0,1-1.86,2.3l1.53-2.5C78,229.85,78.52,229,79.1,228.22Z" style="fill:#263238"></path><path d="M68.83,236.06c.2-2.51,5.75-.41,7,2.83C75.83,238.89,68.56,239.58,68.83,236.06Z" style="fill:#455a64"></path><path d="M75.65,238.9a13.23,13.23,0,0,1-2.85-.79,9.91,9.91,0,0,1-2.58-1.44l2.72,1.08C73.85,238.11,74.75,238.47,75.65,238.9Z" style="fill:#263238"></path><path d="M77.28,179.85c1.39-2.09,5.21,2.45,4.73,5.89C82,185.74,75.32,182.8,77.28,179.85Z" style="fill:#455a64"></path><path d="M81.84,185.66a12.85,12.85,0,0,1-2.09-2.08,9.76,9.76,0,0,1-1.56-2.51L80,183.34C80.66,184.09,81.28,184.85,81.84,185.66Z" style="fill:#263238"></path><path d="M83,186.32a8.67,8.67,0,0,0-4.18-1.15,3.25,3.25,0,0,0-2,.74c-.29.2-.55.47-.82.69l-.75.79a21,21,0,0,0-2.46,3.6,23.56,23.56,0,0,0-1.77,4,15.54,15.54,0,0,0-.82,8.45,56.86,56.86,0,0,0,3.15,8.17c1.19,2.7,2.43,5.38,3.59,8.11a33.8,33.8,0,0,1,2.64,8.53,19.82,19.82,0,0,1,.14,4.49A9.34,9.34,0,0,1,78.4,237a5.88,5.88,0,0,1-3.74,2.43,12.2,12.2,0,0,1-4.43-.12,13.07,13.07,0,0,0,4.37-.14A5.48,5.48,0,0,0,78,236.76a8.86,8.86,0,0,0,1.14-4.09,18.56,18.56,0,0,0-.28-4.33,36.23,36.23,0,0,0-2.71-8.29C75,217.36,73.7,214.7,72.48,212a57.36,57.36,0,0,1-3.12-8.36,15.63,15.63,0,0,1,1-8.93,24.9,24.9,0,0,1,1.94-4,20.82,20.82,0,0,1,2.65-3.61l.81-.78c.31-.23.59-.49.91-.69a3.63,3.63,0,0,1,2.16-.69A8.29,8.29,0,0,1,83,186.32Z" style="fill:#455a64"></path><path d="M103.79,179c1.91-1.63,4.36,3.77,3,6.95C106.75,185.92,101.11,181.27,103.79,179Z" style="fill:#455a64"></path><path d="M106.61,185.8a13.08,13.08,0,0,1-1.46-2.57,10.1,10.1,0,0,1-.81-2.85l1.17,2.69C105.89,184,106.28,184.86,106.61,185.8Z" style="fill:#263238"></path><path d="M93.39,181.94c.3-2.5,5.75-.16,6.87,3.13C100.26,185.07,93,185.45,93.39,181.94Z" style="fill:#455a64"></path><path d="M100.07,185.07a13.36,13.36,0,0,1-2.81-.91,10,10,0,0,1-2.51-1.55l2.67,1.19C98.31,184.21,99.2,184.6,100.07,185.07Z" style="fill:#263238"></path><path d="M85.7,192.64c-1.42-2.07,4.21-3.93,7.23-2.2C92.93,190.44,87.71,195.55,85.7,192.64Z" style="fill:#455a64"></path><path d="M92.79,190.57a13.29,13.29,0,0,1-2.71,1.17,9.93,9.93,0,0,1-2.91.5l2.8-.87C90.9,191.08,91.83,190.79,92.79,190.57Z" style="fill:#263238"></path><path d="M83.76,205.53c-2.22-1.16,1.88-5.45,5.35-5.33C89.11,200.2,86.9,207.17,83.76,205.53Z" style="fill:#455a64"></path><path d="M89.05,200.38a13.27,13.27,0,0,1-1.84,2.3,9.53,9.53,0,0,1-2.34,1.81l2.06-2.08C87.62,201.72,88.3,201,89.05,200.38Z" style="fill:#263238"></path><path d="M85.05,217c-2.49-.35-.06-5.76,3.25-6.82C88.3,210.14,88.55,217.45,85.05,217Z" style="fill:#455a64"></path><path d="M88.3,210.33a13,13,0,0,1-1,2.79,9.89,9.89,0,0,1-1.6,2.49L87,213C87.41,212.08,87.82,211.19,88.3,210.33Z" style="fill:#263238"></path><path d="M89,224.27c-2.42.66-2.33-5.27.3-7.55C89.27,216.72,92.38,223.33,89,224.27Z" style="fill:#455a64"></path><path d="M89.35,216.89a13.86,13.86,0,0,1,.21,3,9.91,9.91,0,0,1-.48,2.91l.09-2.93C89.21,218.85,89.24,217.88,89.35,216.89Z" style="fill:#263238"></path><path d="M99.41,230.48c-1.38,2.09-5.22-2.43-4.74-5.87C94.67,224.61,101.37,227.53,99.41,230.48Z" style="fill:#455a64"></path><path d="M94.84,224.69a12.85,12.85,0,0,1,2.1,2.07,10.34,10.34,0,0,1,1.56,2.51L96.64,227C96,226.25,95.4,225.5,94.84,224.69Z" style="fill:#263238"></path><path d="M99.86,191.37c-2.45-.53.37-5.75,3.74-6.56C103.6,184.81,103.32,192.11,99.86,191.37Z" style="fill:#455a64"></path><path d="M103.59,185a13.33,13.33,0,0,1-1.16,2.72,9.73,9.73,0,0,1-1.77,2.36l1.43-2.55C102.57,186.67,103.05,185.82,103.59,185Z" style="fill:#263238"></path><path d="M96.54,195.23c-2.34.91-2.86-5-.48-7.54C96.06,187.69,99.84,194,96.54,195.23Z" style="fill:#455a64"></path><path d="M96.15,187.85a13.17,13.17,0,0,1,.52,2.91,9.76,9.76,0,0,1-.18,3l-.21-2.92C96.22,189.82,96.15,188.84,96.15,187.85Z" style="fill:#263238"></path><path d="M92.75,202.35c-2.06,1.44-4-4.18-2.27-7.21C90.48,195.14,95.65,200.32,92.75,202.35Z" style="fill:#455a64"></path><path d="M90.61,195.28a12.78,12.78,0,0,1,1.2,2.7,9.91,9.91,0,0,1,.53,2.91l-.9-2.79C91.15,197.17,90.85,196.24,90.61,195.28Z" style="fill:#263238"></path><path d="M93.38,210.28c-1.29,2.16-5.33-2.18-5-5.64C88.36,204.64,95.19,207.25,93.38,210.28Z" style="fill:#455a64"></path><path d="M88.53,204.71a13.3,13.3,0,0,1,2.2,2,9.7,9.7,0,0,1,1.67,2.44l-2-2.18C89.79,206.21,89.14,205.49,88.53,204.71Z" style="fill:#263238"></path><path d="M95.08,217.21c-.7,2.41-5.71-.76-6.29-4.19C88.79,213,96.06,213.81,95.08,217.21Z" style="fill:#455a64"></path><path d="M89,213.05a13,13,0,0,1,2.62,1.35,9.39,9.39,0,0,1,2.24,1.93l-2.45-1.61C90.58,214.18,89.76,213.65,89,213.05Z" style="fill:#263238"></path><path d="M98.47,222.1c.33,2.49-5.54,1.58-7.43-1.34C91,220.76,98,218.59,98.47,222.1Z" style="fill:#455a64"></path><path d="M91.22,220.71a13.24,13.24,0,0,1,3,.2,9.35,9.35,0,0,1,2.82.88l-2.89-.5C93.14,221.12,92.18,221,91.22,220.71Z" style="fill:#263238"></path><path d="M105.86,220.55c2.15,1.3-2.21,5.32-5.67,5C100.19,225.54,102.83,218.72,105.86,220.55Z" style="fill:#455a64"></path><path d="M100.26,225.36a13.28,13.28,0,0,1,2-2.18,9.78,9.78,0,0,1,2.44-1.67l-2.19,2C101.77,224.11,101.05,224.76,100.26,225.36Z" style="fill:#263238"></path><path d="M107.44,186.54a8,8,0,0,0-3.61-1.51,7.31,7.31,0,0,0-3.82.47,14.53,14.53,0,0,0-6.22,4.57,20.91,20.91,0,0,0-3.47,7,36.29,36.29,0,0,0-1.24,7.77,40.57,40.57,0,0,0,.16,7.87,24.29,24.29,0,0,0,2.07,7.52,11.31,11.31,0,0,0,2.21,3.16,6.29,6.29,0,0,0,3.32,1.78,9.23,9.23,0,0,0,3.88,0,7.05,7.05,0,0,0,3.47-1.78,6.89,6.89,0,0,1-3.4,2.05,9.83,9.83,0,0,1-4,.18,6.94,6.94,0,0,1-3.67-1.81,12.07,12.07,0,0,1-2.46-3.27,23.37,23.37,0,0,1-2.29-7.76,41,41,0,0,1-.24-8.06,36.15,36.15,0,0,1,1.36-8,20.29,20.29,0,0,1,3.75-7.17,15,15,0,0,1,6.65-4.54A7.66,7.66,0,0,1,107.44,186.54Z" style="fill:#455a64"></path><path d="M113.38,193.29c-1.89,2.13-5.48-3.57-4.39-7.36C109,185.93,116.05,190.3,113.38,193.29Z" style="fill:#455a64"></path><path d="M109.17,186.05a15,15,0,0,1,2,2.67,11.06,11.06,0,0,1,1.34,3.07l-1.72-2.85C110.25,188,109.68,187.05,109.17,186.05Z" style="fill:#263238"></path><path d="M117.14,194.35c-2.62,1.1-3.38-5.59-.76-8.53C116.38,185.82,120.85,192.81,117.14,194.35Z" style="fill:#455a64"></path><path d="M116.49,186a14.82,14.82,0,0,1,.67,3.28,10.83,10.83,0,0,1-.12,3.36l-.31-3.31C116.62,188.23,116.52,187.13,116.49,186Z" style="fill:#263238"></path><path d="M116.45,201.84c-2.74-.78.83-6.49,4.71-7.16C121.16,194.68,120.31,202.93,116.45,201.84Z" style="fill:#455a64"></path><path d="M121.14,194.89a15.29,15.29,0,0,1-1.52,3,11.08,11.08,0,0,1-2.18,2.55l1.81-2.79C119.86,196.71,120.45,195.78,121.14,194.89Z" style="fill:#263238"></path><path d="M112.81,211.26c-2.16-1.85,3.48-5.53,7.29-4.5C120.1,206.76,115.85,213.88,112.81,211.26Z" style="fill:#455a64"></path><path d="M120,206.94a15,15,0,0,1-2.63,2.07,11.4,11.4,0,0,1-3,1.4l2.81-1.77C118.05,208.05,119,207.46,120,206.94Z" style="fill:#263238"></path><path d="M108.52,221.25c-2.16-1.86,3.48-5.53,7.29-4.51C115.81,216.74,111.56,223.87,108.52,221.25Z" style="fill:#455a64"></path><path d="M115.7,216.93a15,15,0,0,1-2.64,2.06,11,11,0,0,1-3,1.4l2.82-1.77C113.77,218,114.7,217.45,115.7,216.93Z" style="fill:#263238"></path><path d="M103.81,231.73c-2.16-1.86,3.48-5.53,7.28-4.51C111.09,227.22,106.85,234.35,103.81,231.73Z" style="fill:#455a64"></path><path d="M111,227.41a15.47,15.47,0,0,1-2.63,2.07,11.37,11.37,0,0,1-3,1.39l2.81-1.77C109.05,228.52,110,227.93,111,227.41Z" style="fill:#263238"></path><path d="M101.55,244.83c-2.61-1.13,1.68-6.32,5.62-6.47C107.17,238.36,105.24,246.43,101.55,244.83Z" style="fill:#455a64"></path><path d="M107.12,238.57a15.38,15.38,0,0,1-1.9,2.76,10.91,10.91,0,0,1-2.5,2.24l2.17-2.53C105.61,240.21,106.33,239.36,107.12,238.57Z" style="fill:#263238"></path><path d="M110.68,255c-2.32,1.65-4.52-4.71-2.61-8.16C108.07,246.85,114,252.69,110.68,255Z" style="fill:#455a64"></path><path d="M108.22,247a14.91,14.91,0,0,1,1.37,3.05,11.27,11.27,0,0,1,.62,3.3l-1-3.16C108.84,249.15,108.49,248.1,108.22,247Z" style="fill:#263238"></path><path d="M118.35,180.26c2.28,1.71-3.1,5.75-7,5C111.38,185.25,115.14,177.85,118.35,180.26Z" style="fill:#455a64"></path><path d="M111.48,185.06a15.11,15.11,0,0,1,2.49-2.24,11,11,0,0,1,3-1.6l-2.69,1.95C113.33,183.82,112.44,184.47,111.48,185.06Z" style="fill:#263238"></path><path d="M126.56,193.61c-.83,2.72-6.47-1-7.06-4.85C119.5,188.76,127.73,189.77,126.56,193.61Z" style="fill:#455a64"></path><path d="M119.71,188.78a15.49,15.49,0,0,1,3,1.58,11.13,11.13,0,0,1,2.51,2.23l-2.75-1.86C121.51,190.1,120.59,189.48,119.71,188.78Z" style="fill:#263238"></path><path d="M125.11,208.2c-2,2-5.31-3.81-4-7.55C121.06,200.65,127.91,205.33,125.11,208.2Z" style="fill:#455a64"></path><path d="M121.24,200.78a15.14,15.14,0,0,1,1.9,2.75,11.35,11.35,0,0,1,1.21,3.13l-1.6-2.92C122.23,202.77,121.7,201.8,121.24,200.78Z" style="fill:#263238"></path><path d="M120,220.49c-2.52,1.32-3.85-5.28-1.49-8.44C118.48,212.05,123.53,218.63,120,220.49Z" style="fill:#455a64"></path><path d="M118.61,212.22a15.25,15.25,0,0,1,1,3.22,11.07,11.07,0,0,1,.16,3.35l-.6-3.27C118.93,214.43,118.73,213.34,118.61,212.22Z" style="fill:#263238"></path><path d="M115.18,230.67c-2.52,1.32-3.85-5.28-1.49-8.43C113.69,222.24,118.74,228.82,115.18,230.67Z" style="fill:#455a64"></path><path d="M113.82,222.41a15,15,0,0,1,1,3.21,11.41,11.41,0,0,1,.17,3.35l-.6-3.27C114.14,224.61,113.94,223.53,113.82,222.41Z" style="fill:#263238"></path><path d="M112.05,240c-2.31,1.67-4.57-4.67-2.69-8.13C109.36,231.88,115.3,237.66,112.05,240Z" style="fill:#455a64"></path><path d="M109.51,232a15.5,15.5,0,0,1,1.4,3,11.18,11.18,0,0,1,.65,3.29l-1.07-3.15C110.14,234.16,109.79,233.12,109.51,232Z" style="fill:#263238"></path><path d="M114.51,247.56c-.63,2.78-6.52-.47-7.4-4.32C107.11,243.24,115.39,243.65,114.51,247.56Z" style="fill:#455a64"></path><path d="M107.32,243.26a14.68,14.68,0,0,1,3.06,1.35,10.82,10.82,0,0,1,2.67,2L110.17,245C109.21,244.44,108.25,243.89,107.32,243.26Z" style="fill:#263238"></path><path d="M123,245.17c2.17,1.85-3.46,5.54-7.27,4.53C115.68,249.7,119.9,242.56,123,245.17Z" style="fill:#455a64"></path><path d="M115.79,249.51a15,15,0,0,1,2.63-2.07,11.07,11.07,0,0,1,3-1.41l-2.81,1.78C117.71,248.39,116.78,249,115.79,249.51Z" style="fill:#263238"></path><path d="M107.55,187.2a10.29,10.29,0,0,1,5.12-2.37,6.63,6.63,0,0,1,5.4,1.65,10.26,10.26,0,0,1,2.75,5.05,23.8,23.8,0,0,1,.73,5.69,36.51,36.51,0,0,1-1.6,11.32,95.63,95.63,0,0,1-4.5,10.47c-1.64,3.41-3.29,6.81-4.74,10.28A45.58,45.58,0,0,0,107.44,240a11.6,11.6,0,0,0,.37,5.44,6.44,6.44,0,0,0,3.62,3.84,7.8,7.8,0,0,0,5.41,0,10.22,10.22,0,0,0,4.58-3.17,10,10,0,0,1-4.48,3.42,8.25,8.25,0,0,1-5.69.21,7,7,0,0,1-4-4.08,12.25,12.25,0,0,1-.54-5.75,43.19,43.19,0,0,1,3.18-11c1.44-3.52,3.07-6.95,4.69-10.37a97.83,97.83,0,0,0,4.54-10.31,38.25,38.25,0,0,0,1.7-11,23.46,23.46,0,0,0-.57-5.55,9.91,9.91,0,0,0-2.47-4.85,6.29,6.29,0,0,0-5-1.75A10.67,10.67,0,0,0,107.55,187.2Z" style="fill:#455a64"></path><polygon points="115.63 102.75 97.8 65.99 79.5 102.07 78.6 101.62 97.82 63.74 116.52 102.31 115.63 102.75" style="fill:#dbdbdb"></polygon><path d="M99.7,64.87A1.89,1.89,0,1,1,97.81,63,1.89,1.89,0,0,1,99.7,64.87Z" style="fill:#a6a6a6"></path><polygon points="116.01 101.84 115.36 112.01 113.83 136.19 81.28 136.19 79.75 112.01 79.11 101.84 116.01 101.84" style="fill:#53BF80"></polygon><polygon points="116.01 101.84 115.36 112.01 79.75 112.01 79.11 101.84 116.01 101.84" style="opacity:0.1"></polygon><rect x="76.87" y="98.59" width="41.37" height="7.89" style="fill:#53BF80"></rect><path d="M121.86,104.15c1.2-1.69-3.42-3.3-5.93-1.91C115.93,102.24,120.17,106.53,121.86,104.15Z" style="fill:#455a64"></path><path d="M116,102.35a10.79,10.79,0,0,0,2.22,1,7.84,7.84,0,0,0,2.4.45l-2.3-.75C117.59,102.8,116.83,102.54,116,102.35Z" style="fill:#263238"></path><path d="M122.16,115.3c2-.65-.82-4.69-3.66-5C118.5,110.25,119.38,116.22,122.16,115.3Z" style="fill:#455a64"></path><path d="M118.52,110.4a11,11,0,0,0,1.2,2.12,8.12,8.12,0,0,0,1.67,1.79l-1.41-2C119.51,111.69,119.05,111,118.52,110.4Z" style="fill:#263238"></path><path d="M112.53,116.88c.41,2,4.75-.25,5.45-3C118,113.85,111.94,114,112.53,116.88Z" style="fill:#455a64"></path><path d="M117.82,113.86a10.3,10.3,0,0,0-2.25.94,7.92,7.92,0,0,0-2,1.44l2.13-1.16C116.43,114.69,117.14,114.3,117.82,113.86Z" style="fill:#263238"></path><path d="M109.18,124.28c.41,2,4.75-.24,5.45-3C114.63,121.25,108.6,121.42,109.18,124.28Z" style="fill:#455a64"></path><path d="M114.47,121.26a10.82,10.82,0,0,0-2.25.94,8.11,8.11,0,0,0-2,1.44l2.13-1.16C113.08,122.09,113.79,121.71,114.47,121.26Z" style="fill:#263238"></path><path d="M105.62,133.36c.41,2,4.75-.25,5.45-3C111.07,130.32,105,130.49,105.62,133.36Z" style="fill:#455a64"></path><path d="M110.92,130.33a11.14,11.14,0,0,0-2.25.94,8.25,8.25,0,0,0-2,1.44l2.12-1.16C109.52,131.16,110.23,130.78,110.92,130.33Z" style="fill:#263238"></path><path d="M109.13,143.79c1.84.94,2.75-3.88,1-6.15C110.14,137.64,106.52,142.47,109.13,143.79Z" style="fill:#455a64"></path><path d="M110.05,137.76a10.82,10.82,0,0,0-.66,2.35,7.68,7.68,0,0,0-.1,2.44l.41-2.39C109.83,139.37,110,138.58,110.05,137.76Z" style="fill:#263238"></path><path d="M122.09,143.55c.94-1.85-3.87-2.76-6.15-1C115.94,142.54,120.77,146.16,122.09,143.55Z" style="fill:#455a64"></path><path d="M116.06,142.63a10.82,10.82,0,0,0,2.35.66,8.32,8.32,0,0,0,2.44.1l-2.38-.41C117.67,142.85,116.88,142.71,116.06,142.63Z" style="fill:#263238"></path><path d="M115.74,112.25c1.76,1.1,3.1-3.61,1.57-6C117.31,106.21,113.27,110.7,115.74,112.25Z" style="fill:#455a64"></path><path d="M117.21,106.33a10.31,10.31,0,0,0-.87,2.28A7.9,7.9,0,0,0,116,111l.62-2.34C116.85,107.91,117.06,107.13,117.21,106.33Z" style="fill:#263238"></path><path d="M113.18,106.74c1.76,1.1,3.1-3.61,1.57-6C114.75,100.7,110.71,105.19,113.18,106.74Z" style="fill:#455a64"></path><path d="M114.64,100.82a11.41,11.41,0,0,0-.87,2.28,8.21,8.21,0,0,0-.31,2.42l.62-2.34C114.29,102.4,114.49,101.63,114.64,100.82Z" style="fill:#263238"></path><path d="M111,103.22c1.83.53,1.82-4-.14-5.72C110.89,97.5,108.46,102.47,111,103.22Z" style="fill:#455a64"></path><path d="M110.83,97.63a10.4,10.4,0,0,0-.2,2.23,7.23,7.23,0,0,0,.34,2.21l0-2.22C110.91,99.11,110.9,98.38,110.83,97.63Z" style="fill:#263238"></path><path d="M119.05,96.32c-.2-2.06-4.75-.25-5.74,2.44C113.31,98.76,119.32,99.23,119.05,96.32Z" style="fill:#455a64"></path><path d="M113.46,98.77a10.52,10.52,0,0,0,2.34-.7,8.11,8.11,0,0,0,2.11-1.22l-2.23.93C114.93,98.09,114.19,98.4,113.46,98.77Z" style="fill:#263238"></path><path d="M117.35,123.1c2,.55,1.94-4.35-.22-6.24C117.13,116.86,114.53,122.31,117.35,123.1Z" style="fill:#455a64"></path><path d="M117.06,117a11.1,11.1,0,0,0-.18,2.44,8.25,8.25,0,0,0,.38,2.41l-.06-2.42C117.17,118.62,117.15,117.82,117.06,117Z" style="fill:#263238"></path><path d="M113.53,131.19c2,.56,1.94-4.34-.21-6.23C113.32,125,110.72,130.41,113.53,131.19Z" style="fill:#455a64"></path><path d="M113.25,125.1a11.66,11.66,0,0,0-.19,2.43,8.26,8.26,0,0,0,.39,2.41l-.07-2.42C113.36,126.72,113.34,125.91,113.25,125.1Z" style="fill:#263238"></path><path d="M113.87,138.29c2-.52-.48-4.73-3.29-5.3C110.58,133,111,139,113.87,138.29Z" style="fill:#455a64"></path><path d="M110.59,133.15a11.11,11.11,0,0,0,1,2.2,7.78,7.78,0,0,0,1.54,1.89l-1.27-2.06C111.49,134.5,111.07,133.81,110.59,133.15Z" style="fill:#263238"></path><path d="M119.07,139.62c-.16-2.07-4.75-.34-5.78,2.34C113.29,142,119.3,142.53,119.07,139.62Z" style="fill:#455a64"></path><path d="M113.44,142a10.67,10.67,0,0,0,2.35-.66,7.93,7.93,0,0,0,2.13-1.18l-2.25.89C114.93,141.32,114.18,141.61,113.44,142Z" style="fill:#263238"></path><path d="M112.1,93.22c-1.15-1.72-4.31,2-3.92,4.86C108.18,98.08,113.71,95.65,112.1,93.22Z" style="fill:#455a64"></path><path d="M108.33,98a11.19,11.19,0,0,0,1.73-1.71,8.1,8.1,0,0,0,1.28-2.08l-1.53,1.88C109.3,96.72,108.79,97.34,108.33,98Z" style="fill:#263238"></path><path d="M107.38,98.56a6.87,6.87,0,0,1,3.45-1.19,3,3,0,0,1,1.8.57c.27.16.5.37.76.56l.67.65a19.76,19.76,0,0,1,3.83,6.32,13,13,0,0,1,.82,7.4,46.18,46.18,0,0,1-2.58,6.92c-1,2.23-2,4.43-3,6.65a29.8,29.8,0,0,0-2.25,6.82,15.8,15.8,0,0,0-.24,3.56,7.34,7.34,0,0,0,.92,3.36,4.43,4.43,0,0,0,2.77,2,10.91,10.91,0,0,0,3.61.14,10.06,10.06,0,0,1-3.67.12,4.87,4.87,0,0,1-3.12-2,7.78,7.78,0,0,1-1.14-3.58,16,16,0,0,1,.11-3.72,27.35,27.35,0,0,1,2.17-7.07c1-2.25,2-4.47,3-6.69a45.34,45.34,0,0,0,2.6-6.73,12.8,12.8,0,0,0-.65-6.93,19.53,19.53,0,0,0-3.47-6.26l-.61-.65c-.22-.19-.43-.4-.67-.57a2.67,2.67,0,0,0-1.59-.62A7.19,7.19,0,0,0,107.38,98.56Z" style="fill:#455a64"></path><path d="M100.31,94.4c-.82-1.91-4.59,1.22-4.7,4.09C95.61,98.49,101.47,97.07,100.31,94.4Z" style="fill:#455a64"></path><path d="M95.76,98.45a10.67,10.67,0,0,0,2-1.39,7.8,7.8,0,0,0,1.63-1.81l-1.83,1.57C97,97.35,96.34,97.87,95.76,98.45Z" style="fill:#263238"></path><path d="M107,100.35c.67-1.95-4.22-2.19-6.24-.15C100.73,100.2,106,103.12,107,100.35Z" style="fill:#455a64"></path><path d="M100.87,100.27a10.94,10.94,0,0,0,2.42.33,7.91,7.91,0,0,0,2.42-.24l-2.41-.07C102.49,100.26,101.69,100.24,100.87,100.27Z" style="fill:#263238"></path><path d="M108.81,111.08c1.8-1-1.71-4.44-4.57-4.25C104.24,106.83,106.27,112.52,108.81,111.08Z" style="fill:#455a64"></path><path d="M104.29,107a10.73,10.73,0,0,0,1.59,1.84,7.93,7.93,0,0,0,2,1.43l-1.76-1.66C105.51,108,104.93,107.49,104.29,107Z" style="fill:#263238"></path><path d="M105.6,121.35c2.07-.06.57-4.72-2-5.89C103.55,115.46,102.68,121.43,105.6,121.35Z" style="fill:#455a64"></path><path d="M103.53,115.61a10.15,10.15,0,0,0,.54,2.38,7.84,7.84,0,0,0,1.08,2.19l-.78-2.29C104.1,117.13,103.85,116.36,103.53,115.61Z" style="fill:#263238"></path><path d="M100.52,129.37c2,.64,2.12-4.26,0-6.24C100.56,123.13,97.74,128.47,100.52,129.37Z" style="fill:#455a64"></path><path d="M100.49,123.27a11,11,0,0,0-.29,2.42,8,8,0,0,0,.29,2.43l0-2.42C100.53,124.89,100.54,124.09,100.49,123.27Z" style="fill:#263238"></path><path d="M95,133.38c1.56,1.36,3.63-3.07,2.51-5.71C97.47,127.67,92.77,131.45,95,133.38Z" style="fill:#455a64"></path><path d="M97.35,127.77a10.34,10.34,0,0,0-1.22,2.11,7.91,7.91,0,0,0-.7,2.34l1-2.21C96.74,129.27,97.07,128.54,97.35,127.77Z" style="fill:#263238"></path><path d="M85,134.22c.27,2.06,4.75.08,5.64-2.65C90.61,131.57,84.58,131.33,85,134.22Z" style="fill:#455a64"></path><path d="M90.46,131.57a10.83,10.83,0,0,0-2.31.78,8.15,8.15,0,0,0-2.07,1.31l2.2-1C89,132.3,89.74,132,90.46,131.57Z" style="fill:#263238"></path><path d="M98.75,105c2,.49,1.81-4.4-.41-6.22C98.34,98.8,95.92,104.32,98.75,105Z" style="fill:#455a64"></path><path d="M98.28,98.94a11.06,11.06,0,0,0-.11,2.44,8.16,8.16,0,0,0,.46,2.39l-.14-2.41C98.44,100.55,98.39,99.75,98.28,98.94Z" style="fill:#263238"></path><path d="M99.82,109.08c1.41,1.52,3.93-2.68,3.09-5.42C102.91,103.66,97.84,106.94,99.82,109.08Z" style="fill:#455a64"></path><path d="M102.78,103.75a11.57,11.57,0,0,0-1.44,2,8,8,0,0,0-.93,2.26l1.21-2.1C102,105.18,102.42,104.49,102.78,103.75Z" style="fill:#263238"></path><path d="M100.07,115.74c1,1.81,4.45-1.67,4.28-4.53C104.35,111.21,98.65,113.19,100.07,115.74Z" style="fill:#455a64"></path><path d="M104.21,111.26a10.44,10.44,0,0,0-1.86,1.58,8,8,0,0,0-1.45,2l1.68-1.74C103.13,112.47,103.69,111.89,104.21,111.26Z" style="fill:#263238"></path><path d="M96.74,121.41c.18,2.06,4.75.3,5.76-2.39C102.5,119,96.49,118.5,96.74,121.41Z" style="fill:#455a64"></path><path d="M102.35,119a11,11,0,0,0-2.34.68,8,8,0,0,0-2.13,1.2l2.25-.91C100.87,119.68,101.62,119.38,102.35,119Z" style="fill:#263238"></path><path d="M93,125.93c-.36,2,4.51,1.5,6.18-.83C99.16,125.1,93.48,123.06,93,125.93Z" style="fill:#455a64"></path><path d="M99,125a11.07,11.07,0,0,0-2.44.06,8.17,8.17,0,0,0-2.36.63l2.4-.31C97.41,125.31,98.21,125.21,99,125Z" style="fill:#263238"></path><path d="M88.69,128.34c-1.14,1.73,3.54,3.17,6,1.69C94.69,130,90.29,125.9,88.69,128.34Z" style="fill:#455a64"></path><path d="M94.58,129.92a11,11,0,0,0-2.26-.91,8.21,8.21,0,0,0-2.42-.37l2.33.67C93,129.53,93.78,129.76,94.58,129.92Z" style="fill:#263238"></path><path d="M83.77,124.52c-2.07.19-.28,4.75,2.41,5.75C86.18,130.27,86.67,124.26,83.77,124.52Z" style="fill:#455a64"></path><path d="M86.19,130.12a11.05,11.05,0,0,0-.69-2.34,8,8,0,0,0-1.21-2.12l.92,2.24C85.52,128.64,85.82,129.39,86.19,130.12Z" style="fill:#263238"></path><path d="M94.87,98.69a6.36,6.36,0,0,1,6.21,1.61,12.6,12.6,0,0,1,3.33,5.79,16.5,16.5,0,0,1,.2,6.71,31,31,0,0,1-1.85,6.42,34.28,34.28,0,0,1-3.11,5.9,19.2,19.2,0,0,1-4.52,4.95,10.08,10.08,0,0,1-3,1.54,5.75,5.75,0,0,1-3.41,0A6.74,6.74,0,0,1,84,127.23a6.68,6.68,0,0,0,4.84,3.9c2.07.59,4.2-.38,5.84-1.68,3.33-2.71,5.55-6.62,7.17-10.61a29.67,29.67,0,0,0,1.89-6.19,17.32,17.32,0,0,0,0-6.38,12,12,0,0,0-2.94-5.63A6.27,6.27,0,0,0,94.87,98.69Z" style="fill:#455a64"></path><path d="M84.29,102.38c1,2.1,5.13-1.67,5.08-4.93C89.37,97.45,82.81,99.41,84.29,102.38Z" style="fill:#455a64"></path><path d="M89.2,97.51A12.42,12.42,0,0,0,87,99.2a9.33,9.33,0,0,0-1.74,2.16l2-1.9C87.92,98.83,88.58,98.2,89.2,97.51Z" style="fill:#263238"></path><path d="M81.06,102.41c1.85,1.44,3.9-3.72,2.44-6.64C83.5,95.77,78.44,100.38,81.06,102.41Z" style="fill:#455a64"></path><path d="M83.37,95.89a13.68,13.68,0,0,0-1.24,2.48,9.16,9.16,0,0,0-.62,2.69l1-2.57C82.79,97.64,83.11,96.79,83.37,95.89Z" style="fill:#263238"></path><path d="M80,108.52c2.35,0,.74-5.34-2.21-6.72C77.79,101.8,76.68,108.56,80,108.52Z" style="fill:#455a64"></path><path d="M77.76,102a11.89,11.89,0,0,0,.57,2.71,9.38,9.38,0,0,0,1.18,2.5l-.84-2.61C78.39,103.71,78.11,102.84,77.76,102Z" style="fill:#263238"></path><path d="M80.87,116.82c2.12-1-1.58-5.16-4.84-5.16C76,111.66,77.88,118.25,80.87,116.82Z" style="fill:#455a64"></path><path d="M76.08,111.83a12.84,12.84,0,0,0,1.66,2.22,9.09,9.09,0,0,0,2.13,1.77l-1.87-2C77.38,113.13,76.76,112.46,76.08,111.83Z" style="fill:#263238"></path><path d="M82.14,125.7c2.12-1-1.59-5.15-4.84-5.16C77.3,120.54,79.15,127.14,82.14,125.7Z" style="fill:#455a64"></path><path d="M77.35,120.71A12.42,12.42,0,0,0,79,122.93a9.3,9.3,0,0,0,2.13,1.77l-1.86-2C78.65,122,78,121.34,77.35,120.71Z" style="fill:#263238"></path><path d="M83.64,135.07c2.12-1-1.58-5.15-4.84-5.16C78.8,129.91,80.65,136.5,83.64,135.07Z" style="fill:#455a64"></path><path d="M78.85,130.08a12,12,0,0,0,1.66,2.22,9.24,9.24,0,0,0,2.12,1.77l-1.86-2C80.15,131.38,79.53,130.71,78.85,130.08Z" style="fill:#263238"></path><path d="M82.61,146c2.33-.34,0-5.4-3.08-6.37C79.53,139.63,79.33,146.48,82.61,146Z" style="fill:#455a64"></path><path d="M79.52,139.81a12.68,12.68,0,0,0,.93,2.61,9.22,9.22,0,0,0,1.5,2.32l-1.18-2.48C80.38,141.44,80,140.61,79.52,139.81Z" style="fill:#263238"></path><path d="M73.14,152.15c1.5,1.81,4.63-2.78,3.84-5.94C77,146.21,71,149.6,73.14,152.15Z" style="fill:#455a64"></path><path d="M76.83,146.3a12.4,12.4,0,0,0-1.75,2.14,8.82,8.82,0,0,0-1.2,2.49l1.5-2.29C75.88,147.87,76.38,147.11,76.83,146.3Z" style="fill:#263238"></path><path d="M83.13,90.92c-2.18.87,1.23,5.25,4.48,5.48C87.61,96.4,86.21,89.69,83.13,90.92Z" style="fill:#455a64"></path><path d="M87.57,96.22a12.28,12.28,0,0,0-1.5-2.32,9.07,9.07,0,0,0-2-1.91l1.72,2.14C86.36,94.83,86.93,95.55,87.57,96.22Z" style="fill:#263238"></path><path d="M73.71,99.79c.08,2.35,5.36.63,6.68-2.35C80.39,97.44,73.61,96.48,73.71,99.79Z" style="fill:#455a64"></path><path d="M80.21,97.42a12.36,12.36,0,0,0-2.69.62A9.15,9.15,0,0,0,75,99.28l2.59-.9C78.5,98.08,79.36,97.79,80.21,97.42Z" style="fill:#263238"></path><path d="M71.72,111.73c1.15,2.06,5-1.89,4.86-5.14C76.58,106.59,70.11,108.84,71.72,111.73Z" style="fill:#455a64"></path><path d="M76.41,106.65a12,12,0,0,0-2.11,1.79,9,9,0,0,0-1.63,2.23l1.89-2C75.19,108,75.82,107.37,76.41,106.65Z" style="fill:#263238"></path><path d="M73.18,122.63c1.72,1.6,4.2-3.38,3-6.4C76.18,116.23,70.74,120.39,73.18,122.63Z" style="fill:#455a64"></path><path d="M76,116.34a12.67,12.67,0,0,0-1.45,2.36,8.91,8.91,0,0,0-.85,2.63l1.18-2.48C75.31,118,75.71,117.2,76,116.34Z" style="fill:#263238"></path><path d="M74.8,131.78c1.73,1.59,4.2-3.38,3-6.4C77.8,125.38,72.36,129.54,74.8,131.78Z" style="fill:#455a64"></path><path d="M77.66,125.49a12,12,0,0,0-1.44,2.35,9.39,9.39,0,0,0-.86,2.64L76.54,128C76.93,127.17,77.33,126.35,77.66,125.49Z" style="fill:#263238"></path><path d="M75.28,139.9c1.48,1.82,4.65-2.74,3.9-5.91C79.18,134,73.2,137.32,75.28,139.9Z" style="fill:#455a64"></path><path d="M79,134.08a12.44,12.44,0,0,0-1.77,2.13A9.12,9.12,0,0,0,76,138.69l1.53-2.28C78.06,135.65,78.57,134.89,79,134.08Z" style="fill:#263238"></path><path d="M71.7,145.38c-.1,2.35,5.3,1,6.83-1.84C78.53,143.54,71.84,142.07,71.7,145.38Z" style="fill:#455a64"></path><path d="M78.35,143.5a12.71,12.71,0,0,0-2.73.42A9.09,9.09,0,0,0,73.06,145l2.65-.7C76.59,144,77.48,143.81,78.35,143.5Z" style="fill:#263238"></path><path d="M65.49,141.66c-2.13,1,1.56,5.16,4.82,5.18C70.31,146.84,68.48,140.24,65.49,141.66Z" style="fill:#455a64"></path><path d="M70.26,146.67a12.86,12.86,0,0,0-1.65-2.23,9.24,9.24,0,0,0-2.12-1.77l1.85,2C69,145.36,69.58,146,70.26,146.67Z" style="fill:#263238"></path><path d="M90.24,98.77A8.74,8.74,0,0,0,86.58,96a5.12,5.12,0,0,0-4.36.32,8.14,8.14,0,0,0-3,3.32,19.38,19.38,0,0,0-1.64,4.29,32.09,32.09,0,0,0-1,9.15,81.69,81.69,0,0,0,1.4,9.19c.56,3.07,1.11,6.15,1.5,9.27a35.57,35.57,0,0,1,.16,9.45,10.08,10.08,0,0,1-1.7,4.49,5.85,5.85,0,0,1-4.12,2.4,6.86,6.86,0,0,1-4.5-1.42,8.27,8.27,0,0,1-2.83-3.71,8.56,8.56,0,0,0,3,3.49,6.42,6.42,0,0,0,4.3,1.15,5.25,5.25,0,0,0,3.66-2.29,9.37,9.37,0,0,0,1.45-4.22,38.12,38.12,0,0,0-.31-9.23c-.4-3.08-1-6.14-1.57-9.2a81.85,81.85,0,0,1-1.33-9.33,30.05,30.05,0,0,1,1.18-9.39,20.54,20.54,0,0,1,1.82-4.39A8.56,8.56,0,0,1,82,95.9a5.51,5.51,0,0,1,4.69-.14A8.55,8.55,0,0,1,90.24,98.77Z" style="fill:#455a64"></path></g><g id="freepik--Easel--inject-44"><polygon points="322.04 449.42 337.15 449.42 327.6 63.34 321.6 63.94 322.04 449.42" style="fill:#53BF80"></polygon><g style="opacity:0.30000000000000004"><polygon points="322.04 449.42 337.15 449.42 327.6 63.34 321.6 63.94 322.04 449.42"></polygon></g><polygon points="227.36 449.42 244.88 449.42 289.39 67.13 283.28 67.73 227.36 449.42" style="fill:#53BF80"></polygon><polygon points="227.36 449.42 244.88 449.42 289.39 67.13 283.28 67.73 227.36 449.42" style="opacity:0.30000000000000004"></polygon><polygon points="295.1 269.31 309.39 269.31 310.55 39.53 305.45 40.04 295.1 269.31" style="fill:#53BF80"></polygon><polygon points="295.1 269.31 309.39 269.31 310.55 39.53 305.45 40.04 295.1 269.31" style="opacity:0.30000000000000004"></polygon><polygon points="259.55 229.69 270.46 229.69 267.36 256.38 255.64 256.38 259.55 229.69" style="opacity:0.30000000000000004"></polygon><polygon points="296.89 229.69 309.59 229.69 309.46 256.38 295.68 256.38 296.89 229.69" style="opacity:0.30000000000000004"></polygon><polygon points="332.38 256.38 321.82 256.38 321.79 229.69 331.72 229.69 332.38 256.38" style="opacity:0.30000000000000004"></polygon><polygon points="346.01 150.39 346.01 180.6 394.2 420.06 408 420.06 346.01 150.39" style="fill:#53BF80"></polygon><g style="opacity:0.30000000000000004"><polygon points="346.01 150.39 346.01 180.6 394.2 420.06 408 420.06 346.01 150.39"></polygon></g><polygon points="367.29 242.95 364.39 271.95 346.01 180.6 346.01 150.39 367.29 242.95" style="opacity:0.30000000000000004"></polygon><polygon points="353.93 245.86 249.12 245.86 266.06 96.76 348.5 94.58 353.93 245.86" style="fill:#fff"></polygon><path d="M354.45,246.36H248.56l.07-.56,17-149.52L349,94.07v.5Zm-104.77-1H353.42L348,95.1,266.5,97.25Z" style="fill:#e9e9e9"></path><polygon points="349.04 94.09 353.22 101.31 359.36 245.86 353.93 245.86 349.04 94.09" style="fill:#dbdbdb"></polygon><rect x="244.52" y="245.22" width="119.39" height="6.81" transform="translate(608.44 497.25) rotate(180)" style="fill:#53BF80"></rect><rect x="244.52" y="245.22" width="119.39" height="6.81" transform="translate(608.44 497.25) rotate(180)" style="opacity:0.30000000000000004"></rect><path d="M350.72,156.38c-.44.25-.87.51-1.3.77-3.52,2-7,4.07-10.47,6.15l-4.95,3-1.94,1.18q-8.28,5-16.51,10.16l-5.22,3.28q-3.39,2.13-6.76,4.31l-3.49,2.23-2.4,1.54q-12.14,7.78-24.14,15.78L270,207.13c-.69.45-1.39.91-2.08,1.38q-4.62,3.08-9.22,6.2-3.25,2.17-6.49,4.38l.05-.38h0q7.53-5.4,15.16-10.65l2-1.4,3.71-2.54q11.76-8,23.72-15.75l2.38-1.54,3.82-2.47,5.51-3.47c2.33-1.47,4.67-2.93,7-4.36q7.95-4.94,16-9.69a0,0,0,0,1,0,0l2.05-1.22q2.53-1.48,5.09-2.95,6-3.45,12-6.77Z" style="fill:#ebebeb"></path><polygon points="315.55 150.81 315.55 180.88 256.5 180.88 259.92 150.81 315.55 150.81" style="fill:#455a64"></polygon><path d="M290.06,150.81c2.6,0,3.71,4.79,5,9.5s-1.28,8,4.93,9.64,15.52,10.93,15.52,10.93V150.81Z" style="fill:#fff"></path><path d="M266.28,97.2c1.39,6.63,2.69,13.28,4.13,19.9s2.79,13.24,4.24,19.84,3,13.19,4.7,19.71c.86,3.25,1.74,6.5,2.77,9.68l.8,2.37c.3.77.57,1.56.89,2.31s.63,1.5,1,2.19a9,9,0,0,0,.57,1,8.76,8.76,0,0,0,.67.95,47.71,47.71,0,0,0,7,7c2.55,2.14,5.25,4.12,8,6a88.4,88.4,0,0,0,17.55,9.54,24.88,24.88,0,0,0,4.68,1.29,8.1,8.1,0,0,0,2.25,0,9.22,9.22,0,0,0,2.21-.64,34.36,34.36,0,0,0,8.27-5.39,145.11,145.11,0,0,0,15-14.64c-2,2.72-4.76,5.8-7,8.34s-4.6,5-7.12,7.32a35.73,35.73,0,0,1-8.44,6,11,11,0,0,1-2.62.86,10.14,10.14,0,0,1-2.8,0,27,27,0,0,1-5.14-1.23,63.92,63.92,0,0,1-9.45-4.17q-4.55-2.4-8.84-5.24a95.82,95.82,0,0,1-8.28-6.1,50.85,50.85,0,0,1-7.42-7.33,11.22,11.22,0,0,1-.79-1.13,10.12,10.12,0,0,1-.69-1.22,26,26,0,0,1-1.1-2.43c-.34-.81-.61-1.62-.92-2.43l-.81-2.45c-1-3.27-1.93-6.56-2.73-9.86q-2.41-9.93-4.28-19.92C270,124.05,268,110.65,266.28,97.2Z" style="fill:#263238"></path><path d="M286.85,96.68c1.91,6.19,4,12.94,5.68,19.18s3.32,12.5,4.9,18.77c.81,3.13,1.55,6.28,2.33,9.42s1.52,6.28,2.25,9.43q2.24,9.44,4.29,18.92l-1.68-.68,6-3.59,6.05-3.53,6.1-3.48c2-1.14,4.08-2.28,6.14-3.39-1.89,1.38-3.8,2.73-5.72,4.07l-5.77,4-5.8,3.93-5.84,3.88-1.28.84-.39-1.52c-1.63-6.26-3.23-12.53-4.75-18.81-.77-3.14-1.53-6.28-2.26-9.43s-1.49-6.29-2.19-9.45c-1.43-6.31-2.82-12.62-4.13-19S288,103.07,286.85,96.68Z" style="fill:#263238"></path><path d="M341.73,127.26a32.88,32.88,0,0,0-5.16-1.07,31.4,31.4,0,0,0-5.23-.29,23.51,23.51,0,0,0-5.25.76,15.57,15.57,0,0,0-4.91,2.23,18,18,0,0,0-3.79,3.75,22.21,22.21,0,0,0-2.58,4.54,22.78,22.78,0,0,0-1.62,10,26.14,26.14,0,0,1,2.85-9.46,21.24,21.24,0,0,1,2.76-4,17.51,17.51,0,0,1,3.56-3.08,6.45,6.45,0,0,1,.58-.31A15.56,15.56,0,0,1,326.7,129a19.82,19.82,0,0,1,4.69-.49,32.19,32.19,0,0,1,8.22,1c.13-.44.26-.88.38-1.32l.91,1.66c-.42-.12-.86-.24-1.29-.34a58.14,58.14,0,0,1-2.87,7.47,21.52,21.52,0,0,1-4.71,6.86l-.52.43-.88.54c-.32.16-.69.29-1,.44-.49.18-1,.35-1.48.51h0l-.7.19a30.5,30.5,0,0,1-4.63.84,71.07,71.07,0,0,1-9.59.41,47.4,47.4,0,0,0,9.68.91,30.47,30.47,0,0,0,4.92-.43,16.85,16.85,0,0,0,2.46-.58c.4-.14.81-.27,1.22-.44l1.22-.63c3-2,4.79-5,6.35-7.91a54,54,0,0,0,3.59-9.22l.38-1.27Z" style="fill:#263238"></path><path d="M295.22,129.21c-.61-.26-1.19-.49-1.78-.69-.37-.14-.74-.26-1.12-.38a19.79,19.79,0,0,0-3-.74,15.62,15.62,0,0,0-3.16-.26,7.87,7.87,0,0,0-3.27.7,10.65,10.65,0,0,0-4.39,4.52,21.69,21.69,0,0,0-2.19,5.54,36.84,36.84,0,0,1,3.27-4.8,10.39,10.39,0,0,1,4.11-3.32,6.8,6.8,0,0,1,2.46-.26,13,13,0,0,1,2.66.39,30,30,0,0,1,4.28,1.36c.07-.33.14-.66.19-1l.78,1.4-1-.42a15.05,15.05,0,0,1-1.64,4.24,9.51,9.51,0,0,1-1.65,2.12,8.57,8.57,0,0,1-2.2,1.45,10.72,10.72,0,0,1-5.54.6,19,19,0,0,1-5.75-1.78,14.76,14.76,0,0,0,5.45,3.12,12.42,12.42,0,0,0,3.23.55,10.94,10.94,0,0,0,3.34-.45,9.11,9.11,0,0,0,3.06-1.66,11.87,11.87,0,0,0,2.29-2.57,16,16,0,0,0,1.14-2.16c.12-.28.24-.56.34-.85a16.05,16.05,0,0,0,.83-3.26l.13-1Z" style="fill:#263238"></path><path d="M288.82,133.3c.63,2.49-.35,4.88-2.2,5.35s-3.85-1.17-4.48-3.66.36-4.88,2.2-5.35S288.2,130.81,288.82,133.3Z" style="fill:#263238"></path><path d="M333.37,135.84c1.15,4.55-.65,8.94-4,9.79s-7.05-2.14-8.2-6.7.65-8.94,4-9.8S332.22,131.28,333.37,135.84Z" style="fill:#263238"></path><path d="M307.75,125.48s7.85-12.29,14.22-14.8,20.43.74,20.43.74Z" style="fill:#53BF80"></path><rect x="324.36" y="179.56" width="21.24" height="65.66" style="fill:#53BF80"></rect><circle cx="315.55" cy="222.19" r="16.66" transform="translate(-68.41 261.14) rotate(-40.94)" style="fill:#263238"></circle><path d="M283.86,157.11a7.76,7.76,0,0,1-1.84,2.58,7.23,7.23,0,0,1-1.55,1.09,7.37,7.37,0,0,1-2.51.84,6.94,6.94,0,0,1-1.64.07,7.73,7.73,0,0,1-5.2-2.51,7.64,7.64,0,0,1-2-5.2,7.29,7.29,0,0,1,.7-3.17,7.52,7.52,0,0,1,4.61-4.14,7.05,7.05,0,0,1,1.9-.39l.46,0a7.67,7.67,0,0,1,7.06,4.55l0,.05a7.93,7.93,0,0,1,.64,2.63,8,8,0,0,0-.58-2.68,8.69,8.69,0,0,0-7.36-5.51l-.24,0a8.24,8.24,0,0,0-2.16.14,8.58,8.58,0,0,0-6.44,5.39,9.06,9.06,0,0,0-.61,3.17,9.35,9.35,0,0,0,.74,3.51,8.81,8.81,0,0,0,2.06,2.9,8.59,8.59,0,0,0,8.25,2,8.68,8.68,0,0,0,6.36-8.39A8,8,0,0,1,283.86,157.11Z" style="fill:#263238"></path><path d="M352,191.54q-3.06,4.52-6.38,8.85Q343.83,202.7,342,205c-2.39,2.94-4.91,5.78-7.58,8.49-1,1.05-2.09,2.09-3.18,3.09-1.71,1.6-3.49,3.13-5.36,4.56-.5.38-1,.75-1.51,1.11a41.06,41.06,0,0,1-8.53,4.77,21.86,21.86,0,0,1-11.78,1.47,37.28,37.28,0,0,1-4.24-.79,47.63,47.63,0,0,1-7-2.33A68.08,68.08,0,0,1,282.65,220a102.08,102.08,0,0,1-14.78-11.46l-.5-.46c-.83-.78-1.65-1.58-2.46-2.38A107.82,107.82,0,0,1,255,194.36l.28-2.42A119.1,119.1,0,0,0,266.5,204c.95.89,1.92,1.76,2.9,2.62l.55.48a103.62,103.62,0,0,0,14.17,10.47,73.38,73.38,0,0,0,9.82,5,49.63,49.63,0,0,0,5.1,1.77,34.42,34.42,0,0,0,5.36,1.09c7.11,1.18,13.9-2.33,19.74-6.7l.22-.17c2-1.47,3.83-3,5.65-4.71a131,131,0,0,0,10.15-10.51c1.87-2.13,3.68-4.32,5.44-6.54.57-.7,1.13-1.41,1.68-2.12q2.36-3,4.6-6.08Z" style="fill:#263238"></path><circle cx="334.98" cy="164.5" r="4.15" style="fill:#ebebeb"></circle></g><g id="freepik--Character--inject-44"><rect x="128.49" y="222.45" width="70.16" height="16.5" transform="translate(327.15 461.4) rotate(180)" style="fill:#53BF80"></rect><rect x="128.49" y="222.45" width="70.16" height="16.5" transform="translate(327.15 461.4) rotate(180)" style="opacity:0.30000000000000004"></rect><polygon points="179.83 238.81 181.79 259.89 206.04 433.35 212.98 433.35 193.84 259.89 192.28 238.81 179.83 238.81" style="fill:#53BF80"></polygon><polygon points="179.83 238.81 181.79 259.89 206.04 433.35 212.98 433.35 193.84 259.89 192.28 238.81 179.83 238.81" style="opacity:0.30000000000000004"></polygon><polygon points="114.16 433.35 121.1 433.35 145.36 259.89 147.32 238.81 134.87 238.81 133.31 259.89 114.16 433.35" style="fill:#53BF80"></polygon><polygon points="114.16 433.35 121.1 433.35 145.36 259.89 147.32 238.81 134.87 238.81 133.31 259.89 114.16 433.35" style="opacity:0.30000000000000004"></polygon><rect x="125.87" y="378.58" width="77.39" height="4.95" transform="translate(329.13 762.1) rotate(180)" style="fill:#53BF80"></rect><rect x="125.87" y="378.58" width="77.39" height="4.95" transform="translate(329.13 762.1) rotate(180)" style="opacity:0.30000000000000004"></rect><polygon points="193.84 259.14 181.79 259.14 179.83 238.81 192.28 238.81 193.84 259.14" style="opacity:0.30000000000000004"></polygon><polygon points="133.31 259.14 145.36 259.14 147.32 238.81 134.87 238.81 133.31 259.14" style="opacity:0.30000000000000004"></polygon><path d="M250.18,397.19c-2.53-.31-65-30.08-66.62-32.72-.64-1,3.17-10.34,8.09-21.5,1.06-2.41,2.17-4.9,3.31-7.41,7.4-16.34,15.64-33.5,15.64-33.5l41.81,19.8-16.78,32.95L232,362s18.8,22.09,20.32,25.18S252.71,397.5,250.18,397.19Z" style="fill: rgb(247, 169, 160);"></path><path d="M250.18,397.19c-2.53-.31-65-30.08-66.62-32.72-.77-1.22,5-14.76,11.4-28.91l40.67,19.25L232,362s18.8,22.09,20.32,25.18S252.71,397.5,250.18,397.19Z" style="fill:#fff"></path><path d="M250.18,397.19c-2.53-.31-65-30.08-66.62-32.72-.64-1,3.17-10.34,8.09-21.5L232,362s18.8,22.09,20.32,25.18S252.71,397.5,250.18,397.19Z" style="fill:#53BF80"></path><path d="M250.47,394.27c-10.34-5.25-52.55-25.44-63.17-29.84-.09,0-.11,0,0,.07,10.14,5.42,52.51,25.27,63.12,29.94C250.62,394.54,250.69,394.38,250.47,394.27Z" style="fill:#263238"></path><path d="M249.32,383.06a9.34,9.34,0,0,0-7.48-.43,9,9,0,0,0-5,4.48c0,.06.09.12.13.06a10.76,10.76,0,0,1,12.29-4A.08.08,0,0,0,249.32,383.06Z" style="fill:#263238"></path><path d="M235.51,365c-4.16-2-9.72-2.89-13.95-.71-.17.09-.05.32.11.31a64.59,64.59,0,0,1,13.67.95A.29.29,0,0,0,235.51,365Z" style="fill:#263238"></path><path d="M238.15,367.82c-4.17-2.05-9.73-2.89-14-.71-.17.09,0,.32.11.32a63.93,63.93,0,0,1,13.67.94A.29.29,0,0,0,238.15,367.82Z" style="fill:#263238"></path><path d="M240.78,370.63c-4.16-2.06-9.72-2.9-14-.71-.16.08,0,.31.11.31a63.93,63.93,0,0,1,13.67.95A.29.29,0,0,0,240.78,370.63Z" style="fill:#263238"></path><path d="M243.41,373.43c-4.16-2.06-9.72-2.89-14-.71-.16.08,0,.32.12.31a64.63,64.63,0,0,1,13.67,1A.29.29,0,0,0,243.41,373.43Z" style="fill:#263238"></path><path d="M222.49,265.06c-.4,11.89-31.05,75.3-31.05,75.3L235.59,360s36.23-70.29,33.22-96.61c-2.57-22.33-42.65-48.77-67.77-75.27H163.67c13.94,29.57,55.61,65,58.69,75.45a4.49,4.49,0,0,1,.13,1.46Z" style="fill:#263238"></path><path d="M235.24,351.39c-7.25-3.46-5.12-2.56-12.4-5.94-3.56-1.65-21.45-10-25-11-.08,0-.13.09-.06.14,3.1,2,21.16,10,24.75,11.59,7.34,3.24,5.27,2.23,12.64,5.4A.11.11,0,0,0,235.24,351.39Z" style="fill:#37474f"></path><path d="M172.89,194.37a384.77,384.77,0,0,0,36.82,47.53c3.3,3.61,6.71,7.12,10.11,10.63,2.89,3,5.82,6.27,6.53,10.5.8,4.7-1,9.4-2.5,13.78-1.61,4.83-3.23,9.66-4.95,14.46-1.85,5.17-3.81,10.31-6,15.34-1.13,2.58-8,15.23-9.23,17.75-.62,1.25-1.26,2.51-1.93,3.75-.33.62-2.65,4.89-3,5.51-.11.21-.41.46-.13-.07.64-1.16,3.24-6,3.84-7.19,2.34-4.69,10.07-19.6,12-24.47S218.25,292,220,287s3.48-9.92,4.95-15a21,21,0,0,0,1.06-8,14.4,14.4,0,0,0-3-7.11c-3-4-6.81-7.29-10.17-10.89q-10.45-11.21-19.94-23.26a334,334,0,0,1-20.1-28.32A.07.07,0,1,1,172.89,194.37Z" style="fill:#37474f"></path><path d="M223,461.14c-2.44.75-71.58-1.08-74.17-2.81-1-.66-1.31-10.74-1.35-22.94,0-2.63,0-5.35,0-8.11.12-17.94.66-37,.66-37l46.26,1.08-1.94,36.93-.42,8.11s26.16,12.54,28.79,14.75S225.43,460.4,223,461.14Z" style="fill: rgb(247, 169, 160);"></path><path d="M223,461.14c-2.44.75-71.58-1.08-74.17-2.81-1.2-.8-1.43-15.53-1.33-31.05l45,1.05-.42,8.11s26.16,12.54,28.79,14.75S225.43,460.4,223,461.14Z" style="fill:#fff"></path><path d="M223,461.14c-2.44.75-71.58-1.08-74.17-2.81-1-.66-1.31-10.74-1.35-22.94l44.58,1.05s26.16,12.54,28.79,14.75S225.43,460.4,223,461.14Z" style="fill:#53BF80"></path><path d="M222.08,458.35c-11.58-.59-58.36-1.88-69.85-1.58-.09,0-.09.06,0,.07,11.47.84,58.25,1.75,69.84,1.7C222.32,458.54,222.32,458.36,222.08,458.35Z" style="fill:#263238"></path><path d="M216.47,448.58a9.31,9.31,0,0,0-7,2.65,9,9,0,0,0-2.76,6.12c0,.07.13.07.14,0a10.75,10.75,0,0,1,9.62-8.62A.08.08,0,0,0,216.47,448.58Z" style="fill:#263238"></path><path d="M196.52,437.71c-4.64-.19-10.06,1.31-13,5-.12.14.09.3.23.24a63.85,63.85,0,0,1,12.88-4.7A.29.29,0,0,0,196.52,437.71Z" style="fill:#263238"></path><path d="M200.07,439.2c-4.64-.19-10.06,1.31-13,5-.11.14.1.3.24.24a64.37,64.37,0,0,1,12.87-4.7A.29.29,0,0,0,200.07,439.2Z" style="fill:#263238"></path><path d="M203.61,440.69c-4.64-.18-10.06,1.31-13,5-.12.14.09.3.23.24a63.82,63.82,0,0,1,12.88-4.69A.3.3,0,0,0,203.61,440.69Z" style="fill:#263238"></path><path d="M207.15,442.18c-4.63-.18-10.05,1.31-13,5-.11.14.09.31.23.24a63.82,63.82,0,0,1,12.88-4.69A.3.3,0,0,0,207.15,442.18Z" style="fill:#263238"></path><path d="M196.55,435.66l-52.8-.66s12.52-196.51,8.75-203.33c-5.79-10.45-9.79-24.59-1.79-43.63h40.87s-2.16,20.33-2,21.16C202.15,264,196.55,435.66,196.55,435.66Z" style="fill:#263238"></path><path d="M194.07,426.48c-10.5-.78-43.33-1-46.82-.53a.08.08,0,0,0,0,.16c3.46.66,20.73,1,46.82.59A.11.11,0,0,0,194.07,426.48Z" style="fill:#37474f"></path><path d="M192.32,190.69c-.41,5.17-.21,14-3.2,14.14s-2.47-10.67-2.55-13.15c-.08-2.25-.85-1.94-.93.71-.23,7.2,0,13.56,3.78,13.26s3.8-11.46,3.7-14C193.07,190.33,192.45,189.06,192.32,190.69Z" style="fill:#37474f"></path><path d="M189.32,205.17a22.32,22.32,0,0,0,.11,5.45c0,.15.63,0,.69-.08.35-.75.07-4.3.17-5.25A.49.49,0,0,0,189.32,205.17Z" style="fill:#37474f"></path><path d="M190.58,211.54c1.28,4.53,2.59,13.18,2.28,15.46,0,.21-.34.28-.37.06-.42-2.43-2.22-14.09-2.41-15.32S190.23,210.28,190.58,211.54Z" style="fill:#37474f"></path><path d="M182.72,215.11a16.51,16.51,0,0,1,1.91-1.62c.67-.52,1.34-1,2-1.52,1.41-1,2.88-1.92,4.37-2.81s3-1.65,4.46-2.42,3.28-1.41,4.86-2.2c.09,0,.18.08.09.13-1.51.83-2.9,1.88-4.36,2.79s-2.93,1.86-4.39,2.77-2.86,1.81-4.3,2.7l-2.28,1.36a19.79,19.79,0,0,1-2.16,1.2C182.73,215.58,182.58,215.27,182.72,215.11Z" style="fill:#37474f"></path><path d="M152.89,389.39q1-11,1.83-22,1.68-22,2.67-44t1.32-44.05q.15-11,.15-22c0-7.29.06-17-.33-24.3-.19-3.7-6.71-6.56-8-17.34a40.92,40.92,0,0,1,1.43-18.3,40.12,40.12,0,0,1,1.63-4.23c0-.1.18,0,.14.08a40.07,40.07,0,0,0-3.16,19.22,32.15,32.15,0,0,0,2,9.67c1.75,4.34,6.05,7.88,6.28,10.18.34,3.46.39,6.44.43,9.89q.07,5.42.1,10.81.06,11-.06,22-.24,21.93-1.16,43.84t-2.52,43.78c-1.06,14.58-2.36,40.94-3.89,55.48-.17,1.66-.37,3.32-.61,5,0,.18-.34.14-.32,0C151.3,415.79,152.22,396.7,152.89,389.39Z" style="fill:#37474f"></path><path d="M149.82,188H201s40.84,37.69,48.44,43.42S269,256.6,269,256.6s-26.5,6.24-34.29,10.92-35.87,23.29-41.87,23.29c-9.75,0-26.94-1.91-26.94-1.91s2.29-47.17,1.23-51.16-8.87-45.39-8.87-45.39l-9.18-1.52Z" style="fill:#37474f"></path><path d="M243.32,230.33c-1.7-1.87-6.78-3.37-9.16-.34s2,6.18,1.68,7.61-3.39,1.56-3.71,3.38.87,2.82,1.62,3.85.47,5.39,4.44,6.16,5.22-4.37,7.17-5.76,6.6-2.68,6.11-5.94-6.24-1.94-7-3.47S245.21,232.41,243.32,230.33Z" style="fill:#53BF80"></path><path d="M232.22,237c-.41-1.84-3.22-1-2.86.84S232.4,237.84,232.22,237Z" style="fill:#53BF80"></path><path d="M231.26,232c-.89.25-.39,1.83.62,1.63S231.94,231.84,231.26,232Z" style="fill:#53BF80"></path><path d="M192.76,272.16c-4.47,1.14-7.73,4.71-5.89,6.06s5.33.16,7.21,2.46,4.25,2.3,5.27-2.12S196.94,271.1,192.76,272.16Z" style="fill:#fff"></path><path d="M185.64,282.89c-.72,2.88,4.83,2,4.34.23S186.13,280.93,185.64,282.89Z" style="fill:#fff"></path><path d="M175.15,201s2.17,7.24,4.75,14.64,4.87,24.38,4.39,24.82-6.2-16.08-7.86-23.62-2.83-15.29-2.83-15.29Z" style="fill:#53BF80"></path><polygon points="175.19 200.78 176.91 205.7 174.17 206.36 173.35 201.3 175.19 200.78" style="fill:#dbdbdb"></polygon><path d="M175.19,200.78a4.11,4.11,0,0,0-.65-3.7,3.91,3.91,0,0,1-.85-3s-3.08,3.94-.34,7.25Z" style="fill:#53BF80"></path><path d="M188.66,205.2s-2.1,5.86-4.54,11.83-5.06,19.84-4.68,20.22,5.79-12.95,7.48-19.08,3-12.45,3-12.45Z" style="fill:#a6a6a6"></path><polygon points="188.64 205.05 187.01 209.02 189.23 209.68 190.13 205.55 188.64 205.05" style="fill:#dbdbdb"></polygon><path d="M188.64,205.05a10.82,10.82,0,0,1,2.83-5.93s1.05,3.84-1.34,6.43Z" style="fill:#53BF80"></path><path d="M182.2,197.52s.83,6.16,2,12.51.8,20.46.36,20.76-3-13.88-3.33-20.23-.33-12.8-.33-12.8Z" style="fill:#455a64"></path><polygon points="182.26 197.37 183.02 201.59 180.71 201.78 180.69 197.55 182.26 197.37" style="fill:#dbdbdb"></polygon><path d="M180.69,197.55s1.48-.15,1.57-.18a34.92,34.92,0,0,0,1.09-4.4c-.09-.12-5,.57-5,1A26.42,26.42,0,0,0,180.69,197.55Z" style="fill:#53BF80"></path><path d="M169.47,215.84l22.19-2.23s5.91,20.68,5.81,21.15-8.58,7.5-11.17,7.46-11.29-1.25-12-2.37S169.47,215.84,169.47,215.84Z" style="fill:#263238"></path><path d="M189.08,141.41c.51,6.54,9.3,35.25,21.53,44.4,4.66,3.48,35.11-6.6,41.31-9.63,2.54-1.24-2.37-16.57-4.84-18.29s-26.65,7.11-28.81,6.44-14.1-18.75-22.32-27C191.09,132.38,188.72,136.81,189.08,141.41Z" style="fill: rgb(247, 169, 160);"></path><path d="M246.88,178.08c1.51-.23,7.7-1.07,12.14-5.8.56-4,2.26-12.32,2.79-14.38.2-2.39,2-7.4,2.21-7.34.43.11,1.94.5,3.81.84,2.48.43,5.58.77,7.64.22a2.72,2.72,0,0,0,2.18-1.79c.44-1.69-3.21-2.82-7.41-4.53-5.73-2.34-12.89-4.91-15.84-3.37-4.36,2.29-8,8.75-9.06,10.69a17.72,17.72,0,0,1-6.79,6.43C238.72,171,245.82,178.25,246.88,178.08Z" style="fill: rgb(247, 169, 160);"></path><path d="M285.07,155.39s-9.2-2.87-18.6-6.26-31-6.54-31.58-5.94,20.41,8.14,30,10.35,19.45,3.83,19.45,3.83Z" style="fill:#53BF80"></path><polygon points="285.3 155.35 279.05 153.08 278.17 156.57 284.61 157.69 285.3 155.35" style="fill:#dbdbdb"></polygon><path d="M285.3,155.35a5.21,5.21,0,0,1,4.7.88,5,5,0,0,0,3.86,1.12s-5.07,3.88-9.25.34Z" style="fill:#263238"></path><path d="M294.12,157.32c-.32-.2-1.91.19-3.14-.56s-3.12,2.84-1.25,2.56C291.84,159,294.7,157.69,294.12,157.32Z" style="fill:#455a64"></path><path d="M256.39,174.26c1.53-.89,11.33-9,12.46-11.64s8.72-6.73,4.3-8.39-10.28,5.71-11.17,4.82a1.67,1.67,0,0,1-.17-1.15C261.28,160,257,170.29,256.39,174.26Z" style="fill: rgb(247, 169, 160);"></path><path d="M215.52,159.35l-19.05,8.41s-5.94-15-7.86-24.61,1.08-13.55,10.86-3.1A207.16,207.16,0,0,1,215.52,159.35Z" style="fill:#53BF80"></path><path d="M212.11,160.86l-15.63,6.91s-6-15-7.87-24.62c-1.08-5.39-.6-9,1.75-9.27C195.28,139.84,206.56,153.56,212.11,160.86Z" style="opacity:0.1"></path><path d="M196.12,164c2.55-1.43,5.15-2.79,7.78-4.09,1.29-.64,2.58-1.3,3.89-1.92s2.74-1.17,4.09-1.81c.1-.05.18.09.09.14-1.29.66-2.52,1.42-3.8,2.09s-2.66,1.33-4,2c-2.64,1.3-5.3,2.54-8,3.72C196.1,164.19,196,164.08,196.12,164Z" style="fill:#263238"></path><path d="M150.14,188.29l51.4,2.22,1.34-14.94s4.66-5.66,4.66-12.2c0-7-12.42-25.8-13.44-26.87-4.1-4.29-11.14-4.95-14.75-2.2C160.05,149,150.14,188.29,150.14,188.29Z" style="fill:#263238"></path><path d="M150.14,188.29l51.4,2.22,1.34-14.94s4.66-5.66,4.66-12.2c0-7-12.42-25.8-13.44-26.87-4.1-4.29-11.14-4.95-14.75-2.2C160.05,149,150.14,188.29,150.14,188.29Z" style="fill:#53BF80"></path><path d="M207.55,163.37c0,6.54-4.66,12.21-4.66,12.21l-1.34,14.93-51.4-2.21a169.7,169.7,0,0,1,9.56-26.5c1,.11,8.24,5.21,18-.46,5.86-3.41,6.58-14.52,6.58-14.52l15.55-1.48C203.49,151.54,207.55,159.39,207.55,163.37Z" style="fill:#37474f"></path><polygon points="198.38 145.48 192.09 134.91 193.48 135.44 199.48 145.37 198.38 145.48" style="fill:#37474f"></polygon><path d="M186.55,148.58a.93.93,0,0,1-1.86,0,.93.93,0,0,1,1.86,0Z" style="fill:#53BF80"></path><path d="M200.05,146.48a.84.84,0,0,1-.25,1.17A.95.95,0,0,1,199,146,.84.84,0,0,1,200.05,146.48Z" style="fill:#53BF80"></path><path d="M150.15,188.3l25.69,1.32q6.42.36,12.85.59c4.28.16,8.57.29,12.86.3-4.29.3-8.58.31-12.88.27s-8.58-.23-12.86-.41-8.57-.5-12.85-.85S154.41,188.8,150.15,188.3Z" style="fill:#263238"></path><path d="M151.54,183.38l25.23,1.26c4.2.23,8.4.4,12.61.55s8.41.28,12.62.28c-4.2.31-8.42.33-12.64.3s-8.42-.21-12.63-.39-8.41-.47-12.61-.8S155.73,183.88,151.54,183.38Z" style="fill:#263238"></path><path d="M154.76,183.63a17.16,17.16,0,0,0-.65,2.4,11.93,11.93,0,0,0-.16,1.2c0,.41,0,.82,0,1.26a4.16,4.16,0,0,1-.29-2.56A4.52,4.52,0,0,1,154.76,183.63Z" style="fill:#263238"></path><path d="M155.88,183.63a17.16,17.16,0,0,0-.65,2.4,11.93,11.93,0,0,0-.16,1.2c0,.41,0,.82,0,1.26a4.16,4.16,0,0,1-.3-2.56A4.52,4.52,0,0,1,155.88,183.63Z" style="fill:#263238"></path><path d="M169.4,184.6a15.46,15.46,0,0,0-.65,2.39,8.23,8.23,0,0,0-.16,1.2c0,.41,0,.82,0,1.26a4.06,4.06,0,0,1-.29-2.55A4.3,4.3,0,0,1,169.4,184.6Z" style="fill:#263238"></path><path d="M170.52,184.6a16.67,16.67,0,0,0-.65,2.39c-.08.4-.12.8-.16,1.2s0,.82,0,1.26a4.13,4.13,0,0,1-.29-2.55A4.37,4.37,0,0,1,170.52,184.6Z" style="fill:#263238"></path><path d="M184.75,190.42a15.46,15.46,0,0,0,.65-2.39,9.87,9.87,0,0,0,.16-1.2c0-.41,0-.82,0-1.26a4.06,4.06,0,0,1,.29,2.55A4.37,4.37,0,0,1,184.75,190.42Z" style="fill:#263238"></path><path d="M183.63,190.42a16.67,16.67,0,0,0,.65-2.39c.08-.4.12-.8.16-1.2s0-.82,0-1.26a4.13,4.13,0,0,1,.29,2.55A4.44,4.44,0,0,1,183.63,190.42Z" style="fill:#263238"></path><path d="M196,190.42a15.41,15.41,0,0,0,.64-2.39,8.23,8.23,0,0,0,.16-1.2c.05-.41,0-.82,0-1.26a4.14,4.14,0,0,1,.3,2.55A4.44,4.44,0,0,1,196,190.42Z" style="fill:#263238"></path><path d="M194.82,190.42a15.46,15.46,0,0,0,.65-2.39,9.87,9.87,0,0,0,.16-1.2c0-.41,0-.82,0-1.26a4.06,4.06,0,0,1,.29,2.55A4.37,4.37,0,0,1,194.82,190.42Z" style="fill:#263238"></path><path d="M186.76,171.6a47.41,47.41,0,0,1,8.09,1.18c1.32.33,2.62.73,3.93,1.16.65.22,1.3.41,1.95.6a8,8,0,0,0,2.09.36c.06,0,.07.11,0,.11a13.36,13.36,0,0,1-2,.05,11.42,11.42,0,0,1-1.91-.34c-1.35-.32-2.68-.71-4-1.05-2.71-.68-5.42-1.36-8.17-1.81C186.61,171.84,186.63,171.59,186.76,171.6Z" style="fill:#263238"></path><path d="M180.21,174.67a51.59,51.59,0,0,1,6.68-.67c1.12,0,2.24,0,3.36.09.53,0,1.07.08,1.6.14s1.17.21,1.76.26c.06,0,.07.12,0,.11-.55,0-1.11.05-1.67.06l-1.67,0-3.35.06c-2.24,0-4.47,0-6.7.14C180.1,174.89,180.1,174.69,180.21,174.67Z" style="fill:#263238"></path><path d="M193.56,158.31c-1.47,2.49.15,4,.35,5.11s-.37,5.09,1.14,5.22,2.18-5.72,3.58-7,4.94-1.69,5.08-4.77-3.3-3.47-4.54-5.48-2.52-2.22-3.38-.41S194.71,156.37,193.56,158.31Z" style="fill:#53BF80"></path><path d="M169.91,140.83c-16.67,15.53-38.17,39.84-34.16,48.2s19.92,25,34.73,30.66c2.86,1.1,15.12-22.38,12.11-23.68-7.86-3.38-21.07-15.7-21.85-17.29-.38-.76,13.25-20.62,18.71-32.33C186,132.26,179.88,131.54,169.91,140.83Z" style="fill: rgb(247, 169, 160);"></path><path d="M166.94,218.41c8.81,5.54,27.15,6.48,29.63,5.84a4.75,4.75,0,0,0,2.87-1.76c3.82-.89,4.93-2.94,4.93-2.94s4.72.27,5.35-2.56c.72-3.17-6.07-2.88-9.85-5.06-1.08-.62-3.61-2.36-5.43-3.73h0l-.11-.09a11.25,11.25,0,0,1-1.87-1.61l0,0c-4.12-3.7-10-9.51-12.17-11.37Z" style="fill: rgb(247, 169, 160);"></path><path d="M187.12,213.22a65.3,65.3,0,0,0,7.88,3.86,64.71,64.71,0,0,0,9.3,2.38.08.08,0,0,1,0,.16A34.12,34.12,0,0,1,187,213.44C186.87,213.35,187,213.15,187.12,213.22Z" style="fill:#263238"></path><path d="M182.26,217.32a51.68,51.68,0,0,0,17.19,5.08s0,0,0,0a35.37,35.37,0,0,1-17.31-4.86C182,217.5,182.09,217.24,182.26,217.32Z" style="fill:#263238"></path><path d="M201,200.66c12.65-1,46.63,7.91,45.12,16.16-1.8,9.83-54.81-1.31-53.49-7.94.73-3.68,12.89-.67,13.29-2.83C206.17,204.4,196.47,201,201,200.66Z" style="fill:#53BF80"></path><path d="M201,200.66c12.65-1,46.63,7.91,45.12,16.16-1.8,9.83-54.81-1.31-53.49-7.94.73-3.68,12.89-.67,13.29-2.83C206.17,204.4,196.47,201,201,200.66Z" style="opacity:0.2"></path><path d="M209.69,210.74a3.53,3.53,0,0,1,1.75,1.35,1.28,1.28,0,0,1-.62,2c-1.72.67-5.68-.31-5.66-2.66C205.19,209.26,208,209.9,209.69,210.74Z" style="fill:#455a64"></path><path d="M218.54,215.57a1.13,1.13,0,0,1-.2-.13,3,3,0,0,1-.62-.47,1.52,1.52,0,0,1-.38-.67.72.72,0,0,1,0-.5,1.22,1.22,0,0,1,1-1,7.06,7.06,0,0,1,2.29.05c1.12,0,2-.44,3.13-.12s2.54,1.31,2.57,2.49C226.34,218.4,220.08,216.52,218.54,215.57Z" style="fill:#263238"></path><path d="M211.49,205.54c.19,1.2,1.42,1.44,2.43,1.6s2,.35,3,.5a3.13,3.13,0,0,0,1.94,0l.11-.08a.94.94,0,0,0,.65-.93c0-.92-.83-1.34-1.63-1.67a5.49,5.49,0,0,0-.86-.38c-1.28-.65-2.68-1.62-4.19-1.17A2,2,0,0,0,211.49,205.54Z" style="fill:#c7c7c7"></path><path d="M224.71,206.65c-1.52,1.26.53,2.9,1.71,3.28s4.6,1.25,4.8-.65c.13-1.14-1-1.75-2.13-2C227.69,206.45,225.76,205.79,224.71,206.65Z" style="fill:#53BF80"></path><path d="M240.3,213.62c1.11,2-1.22,3.44-2.93,3.43a16.55,16.55,0,0,1-3.94-.7c-.82-.23-1.64-.73-1.66-1.68,0-1.85,1.87-2.19,3.55-2.12C237.21,212.13,239.42,212,240.3,213.62Z" style="fill:#ebebeb"></path><path d="M192.42,206.47c-.76-1.17-.15-1.59,2.21-.79s11,5.93,12.57,2.75-10.81-10.25-14.84-11.27-12.11-2.06-12.11-2.06C182.38,197,188.3,202.77,192.42,206.47Z" style="fill: rgb(247, 169, 160);"></path><path d="M170.94,168.66l-16.21-14.11s11.18-11.66,19.1-17.39,12.76-4.66,7.34,8.57S170.94,168.66,170.94,168.66Z" style="fill:#53BF80"></path><path d="M158,152.68c2.36,1.73,4.69,3.52,7,5.37,1.12.91,2.26,1.81,3.36,2.74s2.22,2,3.36,3c.08.06,0,.2-.1.13-1.13-.89-2.33-1.7-3.47-2.58s-2.32-1.87-3.48-2.8q-3.42-2.77-6.71-5.72C157.82,152.73,157.89,152.63,158,152.68Z" style="fill:#263238"></path><path d="M173.31,163.69c.69-2,1.53-4,2.39-6s1.79-3.88,2.85-5.76c-.69,2-1.53,4-2.39,6S174.36,161.82,173.31,163.69Z" style="fill:#263238"></path><path d="M178.68,153.76a5.88,5.88,0,0,1-1,1.85c-.22.28-.44.55-.68.81a8.73,8.73,0,0,1-.76.73c.39-.59.83-1.12,1.24-1.69.21-.27.41-.55.61-.83S178.51,154.06,178.68,153.76Z" style="fill:#263238"></path><polygon points="184.26 146.82 178.11 134.6 179.35 133.95 185.39 146.71 184.26 146.82" style="fill:#37474f"></polygon><path d="M186.24,112.54a3.95,3.95,0,0,0,6.59-2.8,3.62,3.62,0,0,0,4.43.22,3.47,3.47,0,0,0,.86-4.53s0,0,0,0a3.55,3.55,0,0,1-1,4.28,3.19,3.19,0,0,1-3.55.1,4.33,4.33,0,0,0,3.38-.81,3.37,3.37,0,0,0,1.13-3.57,4.93,4.93,0,0,0,3.42-2.87,3.37,3.37,0,0,0-.79-3.61,3.78,3.78,0,0,0-.35-6.94,3.16,3.16,0,0,0,.06-5.34,2.14,2.14,0,0,0,.58-2.24,3.61,3.61,0,0,0-1.89-2,2.55,2.55,0,0,0-.55-2.38,2.32,2.32,0,0,0-3-.31,6.4,6.4,0,0,0-3-3.36,3.33,3.33,0,0,0-3.62.61,4.59,4.59,0,0,0-6.8-1,3.23,3.23,0,0,0-3.18-.52A4.76,4.76,0,0,0,177,76.78a2.4,2.4,0,0,0-2.82,0,3.19,3.19,0,0,0-1.21,2.45,1.79,1.79,0,0,1-.62.52,4.21,4.21,0,0,0-2.24,3.28,2.86,2.86,0,0,0-2.17,3.71,3.22,3.22,0,0,0-1.31,4.32,4.7,4.7,0,0,0-2.09,3.29,2.74,2.74,0,0,0,1.11,2.78,1.63,1.63,0,0,0-.1,2.18,3.58,3.58,0,0,0,.62.67c.26.24.67.47.84.8a2.63,2.63,0,0,1,.08,1.12,4,4,0,0,0,.13.76,4.26,4.26,0,0,0,4.35,3.08,3.43,3.43,0,0,0,2.5,2.8,7.64,7.64,0,0,0,1.25.32,1.87,1.87,0,0,1,1,.44c.18.18.33.39.51.57a2.93,2.93,0,0,0,2.25.64C179.41,114.26,183.89,115,186.24,112.54ZM174,77.37a2.55,2.55,0,0,1,2.9-.51l-.08.11-.52-.06a3.25,3.25,0,0,0-.93.11,3.29,3.29,0,0,0-1.64,1,3.5,3.5,0,0,0-.47.73l-.06.09A3,3,0,0,1,174,77.37ZM198.3,80.9a2.47,2.47,0,0,0-2.66-.94l0-.07a2.16,2.16,0,0,1,2.76.33,2.11,2.11,0,0,1,.44,2.09h0A2.72,2.72,0,0,0,198.3,80.9Zm-19.07,29.65h0a4.41,4.41,0,0,0,5.57,2.64C182.49,114.18,179.88,113.67,179.23,110.55Z" style="fill:#263238"></path><path d="M182.94,134.63c.12,1,4.21,8.09,8.83,8.38,1.51.09,2.37-8.11,2.37-8.11l.2-.59,2.83-8.26-9.26-7.48-1.35-1s-.62,2.31-1.37,5.2c0,.13-.07.26-.1.41a4.12,4.12,0,0,0-.13.47c-.12.43-.24.87-.35,1.31s-.16.66-.24,1l-.24,1A55,55,0,0,0,182.94,134.63Z" style="fill: rgb(247, 169, 160);"></path><path d="M185.19,122.77a17.5,17.5,0,0,0,9.15,11.54l2.83-8.26-9.26-7.48-1.35-1S185.94,119.88,185.19,122.77Z" style="fill:#263238"></path><path d="M210.24,114.66c-.11,15.33-9.31,17-12.61,17-3,0-13.22-.49-14.69-15.75s5.69-20.05,12.55-20.36S210.35,99.32,210.24,114.66Z" style="fill: rgb(247, 169, 160);"></path><path d="M207.71,111.47c-.36,0-.69-.15-1-.23a1.78,1.78,0,0,1-1-.44.56.56,0,0,1,0-.68,1.37,1.37,0,0,1,1.35-.3,2,2,0,0,1,1.25.72A.59.59,0,0,1,207.71,111.47Z" style="fill:#263238"></path><path d="M197.13,111.07c.36,0,.69-.14,1.05-.21a1.75,1.75,0,0,0,1-.42.54.54,0,0,0,0-.67,1.36,1.36,0,0,0-1.34-.34,2,2,0,0,0-1.27.7A.59.59,0,0,0,197.13,111.07Z" style="fill:#263238"></path><path d="M199.34,114.09s-.08,0-.08.1c.08,1,0,2.27-.94,2.66a0,0,0,0,0,0,.06C199.49,116.69,199.58,115.07,199.34,114.09Z" style="fill:#263238"></path><path d="M198.35,113c-1.7,0-1.69,3.35-.11,3.4S199.77,113.08,198.35,113Z" style="fill:#263238"></path><path d="M197.68,113.21c-.3.2-.58.54-.94.58s-.73-.32-1-.66c0,0,0,0,0,0,0,.65.24,1.32.94,1.42s1.1-.5,1.26-1.15C197.91,113.31,197.8,113.13,197.68,113.21Z" style="fill:#263238"></path><path d="M205.49,113.64s.08,0,.07.09c-.07,1,0,2.27,1,2.66,0,0,0,.06,0,0C205.36,116.24,205.25,114.62,205.49,113.64Z" style="fill:#263238"></path><path d="M206.46,112.57c1.71-.07,1.72,3.33.15,3.4S205,112.63,206.46,112.57Z" style="fill:#263238"></path><path d="M207.18,112.79c.27.18.53.5.86.52s.64-.34.88-.7c0,0,.05,0,.05,0,0,.65-.19,1.33-.81,1.46s-1-.44-1.15-1.09C207,112.9,207.07,112.72,207.18,112.79Z" style="fill:#263238"></path><path d="M199.58,123c.23.27.46.62.84.68a2.67,2.67,0,0,0,1.15-.18s.07,0,0,.06a1.42,1.42,0,0,1-1.37.47,1.11,1.11,0,0,1-.77-1C199.46,122.93,199.55,122.91,199.58,123Z" style="fill:#263238"></path><path d="M204.05,119.2s.19,1.58.18,2.33c0,.07-.18.1-.43.11,0,0,0,0,0,0a3.57,3.57,0,0,1-3.42-1.37c0-.08.05-.15.12-.1a5.37,5.37,0,0,0,3.21,1c.06-.21-.42-2.7-.31-2.7a6.38,6.38,0,0,1,1.69.41c-.31-3.31-1.15-6.53-1.41-9.82a.11.11,0,0,1,.2,0,54.34,54.34,0,0,1,2,10.51C205.86,119.92,204.34,119.33,204.05,119.2Z" style="fill:#263238"></path><path d="M203.73,121.36a4.23,4.23,0,0,1-1.66,1.4,1.89,1.89,0,0,1-1.16.13c-.86-.18-.91-1-.79-1.63a4.34,4.34,0,0,1,.34-1A5.5,5.5,0,0,0,203.73,121.36Z" style="fill:#263238"></path><path d="M202.07,122.76a1.89,1.89,0,0,1-1.16.13c-.86-.18-.91-1-.79-1.63A2,2,0,0,1,202.07,122.76Z" style="fill:#ff9bbc"></path><path d="M183.82,115.58c2.47.31,3.29-4.86,3.29-4.86s5,.26,7.06-6.91a11.18,11.18,0,0,1-2.52,5.89s8.93-.51,13-7.77c0,0-1.68,3.72-3.14,5a10.41,10.41,0,0,0,5.74-3.8s1.35,4.37,2.49,5.61c0,0,.39-15.56-14.1-14.61,0,0-9,.16-12.63,7.14S183.82,115.58,183.82,115.58Z" style="fill:#263238"></path><path d="M186.4,116.53s-2.89-5.08-5.16-4.09-.42,8.13,2,9.31a2.6,2.6,0,0,0,3.59-1.06Z" style="fill: rgb(247, 169, 160);"></path><path d="M181.82,114.47a0,0,0,0,0,0,.07c1.72.89,2.5,2.63,3,4.4a1.42,1.42,0,0,0-2.09-.59s0,.1,0,.1a1.59,1.59,0,0,1,1.69.72,7.84,7.84,0,0,1,.71,1.49c.06.17.36.11.32-.08l0,0C185.7,118.27,184.24,114.93,181.82,114.47Z" style="fill:#263238"></path><path d="M182.54,121.14c0,.71-1.93-1.85-2-2.22s-1.41-1.52-1.72-2.25a17.9,17.9,0,0,1-.89-3.33c0-.5-.84-1.81-.76-2.68s1-8.61,6.64-13.41,10.27-4.78,10.27-4.78a32.5,32.5,0,0,1,7.07.24c3.78.56,8.56,9.91,8.56,10.11a3.2,3.2,0,0,0-.17,1.33c.14.55.67,1.15.34,1.64s.32,1.87.27,2.42-.21.68-.14,1.07-1-9.43-12.35-13.71C197.65,95.57,183.09,105.81,182.54,121.14Z" style="fill:#53BF80"></path><path d="M210,109.17a.36.36,0,0,0,0,.1S210,109.27,210,109.17Z" style="fill:#53BF80"></path><path d="M210,109.17a.52.52,0,0,0,0,.11S210,109.27,210,109.17Z" style="fill:#53BF80"></path><path d="M206.2,97.57a.94.94,0,0,1,.41,0h0c.27.39.52.77.76,1.14h0a1,1,0,0,1-.77.8,1,1,0,1,1-.4-1.94Zm-5.56-.63a18.51,18.51,0,0,1,1.69,1,1,1,0,0,0-1-1.56A1,1,0,0,0,200.64,96.94Zm6.33,5.45A18.27,18.27,0,0,1,208,104a1,1,0,1,0-1.05-1.61Zm-20.77-7a1,1,0,0,0,1.9-.56,1.06,1.06,0,0,0-.22-.45C187.34,94.71,186.78,95,186.2,95.43Zm-.46,8.38a1,1,0,0,0,1.18.77,1,1,0,1,0-1.18-.77ZM198.56,93a1,1,0,1,0,1.94-.4h0c-.65-.09-1.28-.14-1.88-.18h0A1,1,0,0,0,198.56,93ZM193,94.86a1,1,0,1,0,.77-1.17A1,1,0,0,0,193,94.86Zm-3.2,4.56a1,1,0,1,0,.77-1.17A1,1,0,0,0,189.83,99.42Zm-7.5.53a1,1,0,1,0,.77-1.17A1,1,0,0,0,182.33,100Zm-.65,7.53a1,1,0,1,0,.77-1.17A1,1,0,0,0,181.68,107.48Zm-.08,11.22a1,1,0,0,0,1.06.79c.06-.64.15-1.29.26-1.91a.93.93,0,0,0-.55,0A1,1,0,0,0,181.6,118.7Zm3-7.77a.88.88,0,0,0,.23.46c.24-.57.5-1.12.77-1.65a.6.6,0,0,0-.23,0A1,1,0,0,0,184.59,110.93Zm-6-6a1,1,0,0,0,.78.17,1,1,0,0,0,.77-1.18,1,1,0,0,0-.78-.77C179.05,103.78,178.79,104.38,178.57,105Zm1.4,8.12a1,1,0,1,0,.78-1.17A1,1,0,0,0,180,113.08Zm-1.87,1.25c.12.48.27,1,.42,1.51a1,1,0,0,0,.18-.79A1,1,0,0,0,178.1,114.33Zm-.9-4a1,1,0,0,0,.52,0,1,1,0,0,0-.18-2C177.35,109.2,177.25,109.88,177.2,110.29Z" style="fill:#fff;opacity:0.30000000000000004"></path><path d="M180.53,118.92a10.59,10.59,0,0,1,.13-2.1c.08-.7.18-1.4.3-2.09.22-1.39.46-2.78.75-4.16.08-.34.15-.69.24-1a4.58,4.58,0,0,1,.46-.91c.36-.6.77-1.17,1.17-1.75s.82-1.15,1.24-1.72l1.25-1.7q-1.38,1.61-2.64,3.3c-.43.57-.83,1.15-1.21,1.75a4,4,0,0,0-.49,1c-.11.34-.18.69-.26,1-.27,1.39-.51,2.78-.7,4.18-.09.7-.18,1.4-.23,2.11,0,.35,0,.7-.06,1.06A5.25,5.25,0,0,0,180.53,118.92Z" style="fill:#050400;opacity:0.1"></path><path d="M182.34,104.51a19.94,19.94,0,0,0-3.07,4,12.58,12.58,0,0,0-1,2.32,7.15,7.15,0,0,0-.33,2.51c0-.21,0-.42.05-.63a2.87,2.87,0,0,1,.05-.31l.07-.31c0-.1,0-.2.06-.3l.09-.3c.06-.2.11-.4.19-.6l.22-.58.26-.57c.08-.19.19-.37.28-.56s.19-.37.3-.55a23.42,23.42,0,0,1,1.34-2.11c.23-.35.48-.68.74-1S182.08,104.84,182.34,104.51Z" style="fill:#050400;opacity:0.1"></path><path d="M209.44,103.7a13.85,13.85,0,0,0-1.18-2.09c-.44-.67-.9-1.32-1.37-2s-.94-1.29-1.5-1.89a8.2,8.2,0,0,0-1.9-1.47c.32.24.63.49.93.76a8.23,8.23,0,0,1,.83.84c.26.3.49.62.73.94l.71,1,1.41,1.93c.24.32.47.65.69,1A10.82,10.82,0,0,1,209.44,103.7Z" style="fill:#050400;opacity:0.1"></path><path d="M209.77,106.15a11.71,11.71,0,0,0-.66-1.6,16.23,16.23,0,0,0-.83-1.53,5.69,5.69,0,0,0-.5-.71l-.56-.66-.58-.65c-.19-.2-.39-.42-.59-.62.16.24.33.47.5.7l.52.69c.17.23.35.45.53.68s.32.46.47.7c.31.49.59,1,.87,1.48.15.25.28.5.42.76S209.64,105.89,209.77,106.15Z" style="fill:#050400;opacity:0.1"></path><path d="M185,96.31c1.88,1,6.21,3.21,7.24,3.21a6.33,6.33,0,0,0,1-.12,38.13,38.13,0,0,1,4.41-3.83,22.89,22.89,0,0,1,3.81,1.84,20.19,20.19,0,0,0,3.28-2.21,7,7,0,0,0-3.6-2.49,32.5,32.5,0,0,0-7.07-.24S190,92.45,185,96.31Z" style="fill:#050400;opacity:0.1"></path><path d="M197.14,93.38s4.35-4.72,9.91-4.27c0,0-1.27,5.35-3.53,6.75-1.12.7-5.46.24-5.82-.57A9.82,9.82,0,0,1,197.14,93.38Z" style="fill:#53BF80"></path><path d="M203.84,89.39a1,1,0,0,1-1.75.59A12.83,12.83,0,0,1,203.84,89.39Zm.53,4.41a1,1,0,0,0,.49.67,11.29,11.29,0,0,0,.95-1.75,1,1,0,0,0-.67-.09A1,1,0,0,0,204.37,93.8ZM198.56,93a1,1,0,1,0,1.95-.4,1,1,0,0,0-1.18-.77A1,1,0,0,0,198.56,93Z" style="fill:#fff;opacity:0.30000000000000004"></path><path d="M197.14,93.38a10.68,10.68,0,0,0,.56,1.91.3.3,0,0,0,.07.1.57.57,0,0,0,.11.1l.1.06a6.11,6.11,0,0,0,2.33.59,13.44,13.44,0,0,0-.13-2.46,3.62,3.62,0,0,0-1.33-1.8A13.49,13.49,0,0,0,197.14,93.38Z" style="fill:#050400;opacity:0.1"></path><path d="M195.67,93.86s-7.35-2.65-11.31-1.72c0,0,1.21,4.33,4.81,6,1.62.77,7.19-1.34,7.1-2.29A8,8,0,0,0,195.67,93.86Z" style="fill:#53BF80"></path><path d="M186.92,94.09a1,1,0,1,1-.77,1.18A1,1,0,0,1,186.92,94.09Zm6.11.77a1,1,0,1,0,.77-1.17A1,1,0,0,0,193,94.86Zm-2.71,3.49a7.65,7.65,0,0,0,.78-.08,1,1,0,0,0-.78.08Z" style="fill:#fff;opacity:0.30000000000000004"></path><path d="M194,93.31a4.52,4.52,0,0,0-.35,2.53,3.77,3.77,0,0,0,.75,1.44c1.11-.48,1.92-1,1.89-1.38a8.12,8.12,0,0,0-.6-2.05S195,93.61,194,93.31Z" style="fill:#050400;opacity:0.1"></path><path d="M194.54,95.42a2.54,2.54,0,1,0,1.72-3.15A2.54,2.54,0,0,0,194.54,95.42Z" style="fill:#53BF80"></path></g><g id="freepik--Tools--inject-44"><path d="M300.87,362.87s4.51,15,9.87,30.4,10.12,50.65,9.12,51.57-12.89-33.4-16.32-49.07S297.65,364,297.65,364Z" style="fill:#53BF80"></path><polygon points="300.95 362.49 304.53 372.7 298.84 374.09 297.12 363.56 300.95 362.49" style="fill:#dbdbdb"></polygon><path d="M301,362.49a8.52,8.52,0,0,0-1.35-7.68c-2.49-3.55-1.76-6.31-1.76-6.31s-6.4,8.2-.72,15.06Z" style="fill:#455a64"></path><path d="M297.9,348.09c.32.52-.34,3.1.86,5.12s-4.68,5-4.2,2C295.11,351.76,297.3,347.13,297.9,348.09Z" style="fill:#53BF80"></path><path d="M328.93,371.67s-4.35,12.17-9.42,24.58-10.51,41.22-9.73,42,12-26.91,15.54-39.65,6.22-25.86,6.22-25.86Z" style="fill:#a6a6a6"></path><polygon points="328.89 371.36 325.5 379.6 330.13 380.99 331.99 372.4 328.89 371.36" style="fill:#dbdbdb"></polygon><path d="M328.89,371.36c.49-6.79,5.88-12.32,5.88-12.32s2.19,8-2.78,13.37Z" style="fill:#455a64"></path><path d="M315.52,355.71s1.72,12.81,4.09,26,1.67,42.5.74,43.12-6.16-28.83-6.92-42-.68-26.6-.68-26.6Z" style="fill:#37474f"></path><polygon points="315.63 355.41 317.22 364.18 312.41 364.57 312.38 355.79 315.63 355.41" style="fill:#dbdbdb"></polygon><path d="M312.38,355.79s3.08-.31,3.25-.38a73.73,73.73,0,0,0,2.29-9.15c-.2-.25-10.37,1.18-10.31,2.14S312.38,355.79,312.38,355.79Z" style="fill:#455a64"></path><rect x="295.38" y="404.25" width="35.87" height="45.16" rx="4.38" style="fill:#455a64"></rect><rect x="299.91" y="397.12" width="26.82" height="7.13" style="fill:#455a64"></rect><path d="M301.56,404.09c6.23-.3,21.49-.32,23.55,0,.05,0,.05.09,0,.09a163,163,0,0,1-23.55,0A.07.07,0,1,1,301.56,404.09Z" style="fill:#263238"></path><rect x="373.27" y="358.9" width="48.3" height="61.17" style="fill:#455a64"></rect><rect x="372.13" y="366.02" width="50.58" height="0.85" style="fill:#37474f"></rect><rect x="372.13" y="368.07" width="50.58" height="0.85" style="fill:#37474f"></rect><rect x="372.13" y="370.11" width="50.58" height="0.85" style="fill:#37474f"></rect><rect x="372.13" y="407.99" width="50.58" height="0.85" style="fill:#37474f"></rect><rect x="372.13" y="410.03" width="50.58" height="0.85" style="fill:#37474f"></rect><rect x="372.13" y="412.08" width="50.58" height="0.85" style="fill:#37474f"></rect><path d="M407.7,382.83c-9.87,0-18.84-6.44-24.62-11.85a76.13,76.13,0,0,1-10.24-11.79l.87-.58c.15.23,15.7,23.17,34,23.17,4.61,0,8.14-1.46,10.47-4.34,5.31-6.53,2.91-18.32,2.89-18.43l1-.22c.1.5,2.52,12.39-3.09,19.31C416.44,381.24,412.65,382.83,407.7,382.83Z" style="fill:#263238"></path><path d="M385.67,358.9h24.95a5,5,0,0,1-3.26,3.08c-2.65.92-2.48,8.62-7.63,8.62s-7.58-7.4-8.8-8.7S385.67,358.9,385.67,358.9Z" style="fill:#53BF80"></path><path d="M302.62,456.73s-11.57-2.39-23.45-5.39-38.65-4.25-39.27-3.45,25.9,7.47,37.88,9,24.2,2.33,24.2,2.33Z" style="fill:#53BF80"></path><polygon points="302.9 456.65 295 454.64 294.34 459 302.35 459.59 302.9 456.65" style="fill:#dbdbdb"></polygon><path d="M302.9,456.65c6.21-.42,11.9,3.75,11.9,3.75s-6.93,3-12.45-.81Z" style="fill:#263238"></path><path d="M300.3,452.7s-12.7,1.76-25.76,4.16-42.12,1.83-42.74.91,28.55-6.22,41.63-7,26.35-.79,26.35-.79Z" style="fill:#263238"></path><polygon points="300.59 452.81 291.9 454.42 291.5 449.66 300.2 449.59 300.59 452.81" style="fill:#dbdbdb"></polygon><path d="M300.2,449.59s.32,3.05.39,3.22a74.3,74.3,0,0,0,9.08,2.23c.24-.2-1.21-10.27-2.16-10.22S300.2,449.59,300.2,449.59Z" style="fill:#263238"></path></g></svg>